M48
; DRILL file {KiCad 9.0.6} date 2025-11-25T23:21:56-0600
; FORMAT={-:-/ absolute / metric / decimal}
; #@! TF.CreationDate,2025-11-25T23:21:56-06:00
; #@! TF.GenerationSoftware,Kicad,Pcbnew,9.0.6
; #@! TF.FileFunction,Plated,1,2,PTH
FMAT,2
METRIC
; #@! TA.AperFunction,Plated,PTH,ViaDrill
T1C0.300
; #@! TA.AperFunction,Plated,PTH,ComponentDrill
T2C0.600
; #@! TA.AperFunction,Plated,PTH,ComponentDrill
T3C0.750
; #@! TA.AperFunction,Plated,PTH,ComponentDrill
T4C0.900
; #@! TA.AperFunction,Plated,PTH,ComponentDrill
T5C1.000
; #@! TA.AperFunction,Plated,PTH,ComponentDrill
T6C3.200
%
G90
G05
T1
X54.96Y-68.84
X56.5Y-72.0
X62.87Y-68.73
X64.0Y-61.0
X64.0Y-74.0
X65.5Y-58.0
X73.0Y-62.5
X81.86Y-96.05
X81.9Y-104.0
X83.8Y-93.64
X90.361Y-77.361
X91.174Y-86.174
X92.93Y-95.82
X94.59Y-94.96
X95.0Y-74.5
X95.35Y-78.83
X95.95Y-97.03
X96.0Y-77.5
X96.38Y-86.21
X96.52Y-83.22
X97.21Y-72.82
X97.24Y-74.51
X99.0Y-82.0
X99.5Y-81.0
X99.68Y-85.99
X99.731Y-88.729
X100.0Y-83.5
X100.06Y-91.81
X100.48Y-90.35
X100.98Y-99.39
X101.18Y-78.24
X101.22Y-82.19
X101.26Y-75.8
X101.45Y-88.67
X101.97Y-95.31
X103.0Y-81.5
X104.34Y-91.55
X104.471Y-82.359
X105.06Y-72.23
X105.35Y-81.04
X106.4Y-94.55
X107.13Y-84.22
X107.2Y-102.25
X107.5Y-73.0
X107.5Y-77.5
X108.72Y-100.6
X110.23Y-74.56
X110.27Y-68.01
X111.0Y-82.0
X111.29Y-74.55
X111.89Y-92.57
X112.8Y-77.8
X112.951Y-95.049
X113.27Y-68.06
X113.45Y-80.66
X114.23Y-78.95
X114.5Y-72.56
X114.5Y-83.5
X114.53Y-85.1
X116.5Y-81.5
X117.54Y-80.87
X117.92Y-92.61
X120.097Y-68.097
X121.458Y-72.749
X121.5Y-69.0
X121.59Y-71.96
X122.037Y-77.356
X122.98Y-79.18
X123.04Y-72.25
X123.2Y-105.49
X123.5Y-69.0
X124.984Y-77.956
X126.5Y-79.0
X126.81Y-87.07
X127.45Y-79.96
X128.0Y-76.5
X128.08Y-84.67
X129.0Y-80.0
X129.5Y-70.0
X129.5Y-73.5
X130.25Y-90.93
X130.4Y-89.47
X131.56Y-76.35
X131.89Y-83.08
X132.53Y-114.35
X133.5Y-74.5
X134.0Y-83.5
X134.66Y-61.85
X135.5Y-73.0
X135.69Y-85.51
X136.0Y-59.0
X136.36Y-94.02
X137.09Y-89.44
X137.9Y-86.07
X138.72Y-110.37
X140.33Y-80.01
X143.38Y-93.22
X143.99Y-80.89
X146.16Y-108.72
X146.44Y-116.05
X146.5Y-66.0
X146.5Y-69.4
X146.55Y-92.13
X146.55Y-110.82
X146.71Y-86.91
X147.01Y-93.951
X147.19Y-83.02
X147.61Y-116.54
X147.87Y-84.94
X148.4Y-98.61
X148.4Y-108.6
X148.565Y-113.081
X148.69Y-92.52
X148.81Y-110.7
X149.0Y-67.5
X149.0Y-69.0
X149.07Y-99.39
X149.24Y-79.18
X149.26Y-86.94
X149.35Y-83.08
X149.35Y-84.32
X149.39Y-114.63
X149.6Y-63.29
X150.0Y-101.0
X150.55Y-66.5
X150.55Y-72.0
X150.55Y-83.543
X151.0Y-79.14
X151.3Y-61.55
X151.74Y-94.22
X152.19Y-64.93
X152.584Y-73.584
X153.0Y-59.0
X153.5Y-93.82
X154.0Y-100.5
X154.4Y-105.19
X154.91Y-90.45
X155.0Y-57.5
X155.64Y-60.36
X156.7Y-83.32
X156.72Y-107.67
X157.16Y-98.53
X157.797Y-74.824
X157.901Y-49.599
X157.97Y-85.24
X158.12Y-83.4
X158.28Y-100.54
X158.306Y-73.624
X158.5Y-51.5
X158.5Y-75.819
X158.9Y-105.84
X159.4Y-73.5
X159.5Y-76.5
X159.549Y-55.049
X159.58Y-71.46
X159.76Y-78.19
X159.874Y-80.944
X159.93Y-57.45
X160.0Y-74.5
X160.1Y-75.951
X160.133Y-59.001
X160.26Y-100.45
X160.4Y-72.5
X160.76Y-78.91
X160.82Y-69.0
X160.9Y-73.5
X160.98Y-88.72
X160.99Y-51.84
X161.21Y-97.49
X161.48Y-77.52
X161.5Y-76.5
X161.6Y-70.651
X161.6Y-71.5
X161.77Y-107.78
X161.85Y-78.34
X161.85Y-86.11
X161.9Y-72.5
X162.13Y-104.12
X162.17Y-66.997
X162.17Y-101.55
X162.35Y-109.26
X162.46Y-80.93
X162.5Y-65.5
X162.94Y-88.0
X163.1Y-72.0
X163.1Y-75.5
X163.24Y-112.03
X163.54Y-91.62
X163.59Y-79.64
X163.82Y-110.19
X163.931Y-81.569
X164.0Y-64.0
X164.06Y-106.15
X164.14Y-87.02
X164.38Y-59.012
X164.4Y-69.151
X164.4Y-70.0
X164.5Y-77.5
X164.995Y-80.24
X165.0Y-63.0
X165.0Y-67.0
X165.47Y-58.14
X165.6Y-59.012
X165.6Y-70.392
X165.685Y-76.185
X165.76Y-65.18
X166.496Y-69.496
X166.586Y-67.934
X167.28Y-53.97
X167.69Y-106.81
X167.89Y-65.94
X167.93Y-108.78
X168.1Y-78.87
X168.19Y-64.09
X168.402Y-74.902
X168.43Y-84.3
X168.442Y-67.73
X168.5Y-78.0
X168.515Y-55.636
X168.91Y-95.97
X169.12Y-66.97
X169.148Y-68.107
X169.297Y-60.379
X169.301Y-54.411
X169.382Y-66.214
X169.389Y-61.174
X169.5Y-69.299
X169.5Y-70.5
X169.63Y-57.6
X169.64Y-59.09
X169.801Y-71.801
X170.34Y-77.44
X170.5Y-78.71
X170.61Y-65.905
X170.9Y-74.58
X170.94Y-108.96
X171.702Y-54.365
X171.75Y-115.68
X171.901Y-59.41
X172.0Y-112.58
X172.28Y-74.2
X172.33Y-68.691
X172.41Y-57.61
X172.49Y-54.5
X172.567Y-91.027
X172.58Y-67.91
X172.613Y-65.613
X172.884Y-53.122
X173.796Y-66.355
X173.83Y-59.89
X173.88Y-59.0
X173.89Y-54.78
X174.089Y-53.568
X174.439Y-52.221
X174.61Y-79.31
X174.675Y-58.91
X175.31Y-67.02
X175.98Y-94.23
X176.4Y-97.65
X176.589Y-66.589
X176.679Y-52.321
X176.93Y-70.24
X176.99Y-74.18
X177.618Y-58.044
X177.693Y-91.057
X178.0Y-62.68
X178.5Y-59.0
X178.78Y-99.82
X178.804Y-55.526
X179.0Y-60.6
X179.214Y-62.772
X179.448Y-61.38
X179.5Y-59.4
X179.79Y-65.61
X180.0Y-62.92
X180.05Y-67.77
X180.1Y-55.406
X180.23Y-61.21
X180.84Y-58.1
X181.29Y-56.06
X181.5Y-60.0
X181.96Y-58.53
X182.72Y-55.87
X182.83Y-63.07
X183.5Y-58.5
X184.18Y-62.88
X185.27Y-60.57
X185.72Y-66.99
X186.32Y-63.31
X186.96Y-57.15
X187.05Y-61.28
X187.32Y-65.8
X187.85Y-95.22
X187.9Y-63.29
X188.26Y-70.99
X189.03Y-58.2
X193.044Y-67.456
X193.9Y-62.91
X194.0Y-72.0
X194.5Y-52.78
X195.0Y-77.0
X195.36Y-71.84
X195.43Y-106.61
X195.5Y-75.5
X197.35Y-79.71
X197.48Y-70.52
X197.57Y-57.45
X198.3Y-75.38
X198.82Y-84.85
X199.106Y-79.616
X200.65Y-92.16
X201.01Y-80.54
X201.83Y-79.61
X201.94Y-70.63
X202.73Y-86.71
X203.49Y-90.85
X203.97Y-80.69
X204.46Y-78.36
X204.88Y-76.161
X205.29Y-94.19
X206.02Y-66.22
X206.14Y-69.43
X206.28Y-61.78
X206.29Y-78.42
X206.87Y-109.09
X207.19Y-81.84
X207.76Y-81.24
X208.72Y-89.69
X209.27Y-85.38
X210.0Y-67.79
X210.63Y-78.64
X210.7Y-89.67
X211.79Y-80.88
X212.74Y-77.69
X214.25Y-80.19
X214.62Y-68.53
X216.5Y-64.72
X216.74Y-74.5
X216.75Y-63.22
X217.5Y-70.83
X219.18Y-86.24
X219.2Y-73.42
X219.32Y-75.95
X222.27Y-73.72
X222.56Y-82.78
X225.68Y-84.22
X227.82Y-81.73
T3
X99.114Y-70.398
X101.026Y-69.813
X102.939Y-69.228
X120.452Y-65.178
X122.365Y-64.593
X124.277Y-64.008
T4
X51.19Y-73.15
X52.46Y-73.15
X53.73Y-73.15
X55.0Y-73.15
X62.955Y-94.82
X64.225Y-94.82
X65.495Y-94.82
X66.33Y-62.6
X66.765Y-94.82
X67.6Y-62.6
X68.87Y-62.6
X70.14Y-62.6
X76.9Y-72.38
X77.18Y-100.52
X78.17Y-72.38
X78.45Y-100.52
X79.44Y-72.38
X79.72Y-100.52
X80.71Y-72.38
X80.99Y-100.52
X87.735Y-69.76
X89.005Y-69.76
X90.275Y-69.76
X91.545Y-69.76
X93.48Y-104.19
X94.75Y-104.19
X96.02Y-104.19
X97.29Y-104.19
X108.325Y-108.01
X109.595Y-108.01
X109.705Y-63.75
X110.865Y-108.01
X110.975Y-63.75
X112.135Y-108.01
X112.245Y-63.75
X113.515Y-63.75
X123.875Y-111.43
X125.145Y-111.43
X126.415Y-111.43
X127.685Y-111.43
X129.17Y-58.4
X130.44Y-58.4
X131.71Y-58.4
X132.98Y-58.4
X138.12Y-113.8
X139.39Y-113.8
X140.66Y-113.8
X141.93Y-113.8
X153.685Y-113.55
X154.955Y-113.55
X156.225Y-113.55
X157.495Y-113.55
X196.55Y-64.98
X197.82Y-64.98
X199.09Y-64.98
X200.36Y-64.98
X209.77Y-63.95
X211.02Y-73.46
X211.04Y-63.95
X212.29Y-73.46
X212.31Y-63.95
X213.56Y-73.46
X213.58Y-63.95
X214.83Y-73.46
X216.85Y-82.34
X218.12Y-82.34
X219.39Y-82.34
X220.66Y-82.34
X224.535Y-88.3
X225.805Y-88.3
X227.075Y-88.3
X228.345Y-88.3
X240.105Y-67.41
X241.12Y-98.09
X241.375Y-67.41
X242.39Y-98.09
X242.645Y-67.41
X243.66Y-98.09
X243.915Y-67.41
X244.93Y-98.09
T5
X57.317Y-62.564
X57.758Y-60.063
X58.199Y-57.562
X59.819Y-63.006
X60.26Y-60.504
X60.701Y-58.003
X136.535Y-83.042
X137.403Y-80.655
X138.272Y-78.268
X139.141Y-75.881
X140.01Y-73.494
X140.878Y-71.107
X141.747Y-68.721
X142.616Y-66.334
X143.485Y-63.947
X144.353Y-61.56
X145.222Y-59.173
X146.091Y-56.787
X146.959Y-54.4
X147.828Y-52.013
X148.697Y-49.626
X150.856Y-88.254
X151.724Y-85.867
X152.593Y-83.48
X153.462Y-81.093
X154.331Y-78.707
X155.199Y-76.32
X156.068Y-73.933
X156.937Y-71.546
X157.805Y-69.159
X158.674Y-66.773
X159.543Y-64.386
X160.412Y-61.999
X161.28Y-59.612
X162.149Y-57.225
X163.018Y-54.838
T6
X232.98Y-70.54
T2
G00X87.854Y-83.172
M15
G01X88.642Y-83.033
M16
G05
G00X89.354Y-91.681
M15
G01X90.142Y-91.542
M16
G05
G00X91.813Y-82.474
M15
G01X92.896Y-82.283
M16
G05
G00X93.313Y-90.983
M15
G01X94.396Y-90.792
M16
G05
M30
