%TF.GenerationSoftware,KiCad,Pcbnew,9.0.6*%
%TF.CreationDate,2025-11-25T23:21:56-06:00*%
%TF.ProjectId,1745LightUpBoard,31373435-4c69-4676-9874-5570426f6172,rev?*%
%TF.SameCoordinates,Original*%
%TF.FileFunction,Drillmap*%
%TF.FilePolarity,Positive*%
%FSLAX45Y45*%
G04 Gerber Fmt 4.5, Leading zero omitted, Abs format (unit mm)*
G04 Created by KiCad (PCBNEW 9.0.6) date 2025-11-25 23:21:56*
%MOMM*%
%LPD*%
G01*
G04 APERTURE LIST*
%ADD10C,2.000000*%
%ADD11C,0.200000*%
%ADD12C,0.100000*%
%ADD13C,0.320000*%
G04 APERTURE END LIST*
D10*
X15994837Y-4252245D02*
X16102881Y-4256765D01*
X16210099Y-4265761D01*
X16316348Y-4279264D01*
X16421487Y-4297307D01*
X16525375Y-4319921D01*
X16627871Y-4347139D01*
X16728832Y-4378993D01*
X16828119Y-4415515D01*
X16925590Y-4456737D01*
X17021102Y-4502692D01*
X17114516Y-4553412D01*
X17205689Y-4608929D01*
X17294480Y-4669275D01*
X17380748Y-4734482D01*
X17464351Y-4804583D01*
X17509966Y-4844487D01*
X17598455Y-4923783D01*
X17642115Y-4964220D01*
X17684991Y-5005472D01*
X17726784Y-5047754D01*
X17747182Y-5069349D01*
X17767199Y-5091282D01*
X17786797Y-5113580D01*
X17805938Y-5136271D01*
X17824587Y-5159381D01*
X17842705Y-5182937D01*
X17842705Y-5234531D01*
X17871433Y-5233985D01*
X18007921Y-5232884D01*
X18075921Y-5233382D01*
X18143829Y-5234758D01*
X18211699Y-5237146D01*
X18279583Y-5240681D01*
X18347536Y-5245497D01*
X18415611Y-5251728D01*
X18507639Y-5260311D01*
X18595735Y-5266779D01*
X18638645Y-5268834D01*
X18680973Y-5269898D01*
X18722855Y-5269816D01*
X18764423Y-5268435D01*
X18805813Y-5265599D01*
X18847157Y-5261154D01*
X18888591Y-5254947D01*
X18930247Y-5246823D01*
X18972261Y-5236628D01*
X19014765Y-5224208D01*
X19057893Y-5209407D01*
X19101781Y-5192073D01*
X19168151Y-5166636D01*
X19237696Y-5144468D01*
X19309969Y-5125554D01*
X19384527Y-5109878D01*
X19460926Y-5097427D01*
X19538719Y-5088184D01*
X19617463Y-5082136D01*
X19696713Y-5079266D01*
X19776023Y-5079561D01*
X19854951Y-5083005D01*
X19933050Y-5089583D01*
X20009876Y-5099280D01*
X20084985Y-5112082D01*
X20157931Y-5127973D01*
X20228271Y-5146939D01*
X20295558Y-5168963D01*
X20351480Y-5193699D01*
X20405013Y-5219909D01*
X20456276Y-5247633D01*
X20505390Y-5276912D01*
X20552474Y-5307785D01*
X20597648Y-5340292D01*
X20641031Y-5374472D01*
X20682743Y-5410366D01*
X20722904Y-5448013D01*
X20761633Y-5487453D01*
X20799050Y-5528725D01*
X20835275Y-5571870D01*
X20870427Y-5616928D01*
X20904626Y-5663937D01*
X20937992Y-5712938D01*
X20970644Y-5763971D01*
X20981760Y-5780451D01*
X20992950Y-5796231D01*
X21004284Y-5811304D01*
X21015832Y-5825664D01*
X21027661Y-5839302D01*
X21039843Y-5852212D01*
X21052447Y-5864386D01*
X21065541Y-5875817D01*
X21079195Y-5886498D01*
X21093480Y-5896421D01*
X21108463Y-5905579D01*
X21124215Y-5913966D01*
X21140806Y-5921573D01*
X21158303Y-5928393D01*
X21176778Y-5934420D01*
X21196299Y-5939645D01*
X21224410Y-5941435D01*
X21252482Y-5942623D01*
X21280530Y-5943295D01*
X21308569Y-5943532D01*
X21364684Y-5943035D01*
X21420947Y-5941795D01*
X21545968Y-5940384D01*
X21606135Y-5939737D01*
X21658475Y-5940288D01*
X21710642Y-5942064D01*
X21762668Y-5944987D01*
X21814585Y-5948978D01*
X21866425Y-5953958D01*
X21918219Y-5959848D01*
X21970000Y-5966569D01*
X22021799Y-5974041D01*
X22079037Y-5980235D01*
X22136285Y-5985132D01*
X22193552Y-5988922D01*
X22250850Y-5991796D01*
X22365579Y-5995553D01*
X22480554Y-5997924D01*
X22718740Y-6004320D01*
X22956587Y-6014091D01*
X23194286Y-6027006D01*
X23432028Y-6042832D01*
X23432028Y-6094426D01*
X23464908Y-6093406D01*
X23515248Y-6093269D01*
X23565232Y-6094495D01*
X23614956Y-6096960D01*
X23664516Y-6100536D01*
X23714009Y-6105099D01*
X23763532Y-6110522D01*
X23813180Y-6116680D01*
X23863051Y-6123447D01*
X23929374Y-6132719D01*
X24043348Y-6150312D01*
X24158589Y-6171257D01*
X24216090Y-6183605D01*
X24273193Y-6197533D01*
X24329662Y-6213290D01*
X24385257Y-6231122D01*
X24439742Y-6251278D01*
X24492877Y-6274005D01*
X24544426Y-6299550D01*
X24594150Y-6328161D01*
X24641811Y-6360087D01*
X24687172Y-6395574D01*
X24729994Y-6434869D01*
X24770039Y-6478222D01*
X24779454Y-6492561D01*
X24787535Y-6507181D01*
X24794367Y-6522061D01*
X24800034Y-6537184D01*
X24804620Y-6552531D01*
X24808209Y-6568083D01*
X24810887Y-6583821D01*
X24812737Y-6599726D01*
X24813844Y-6615781D01*
X24814292Y-6631965D01*
X24814165Y-6648260D01*
X24813547Y-6664648D01*
X24811179Y-6697626D01*
X24807861Y-6730749D01*
X24776827Y-6848543D01*
X24738441Y-6964590D01*
X24693301Y-7078882D01*
X24642004Y-7191411D01*
X24585149Y-7302170D01*
X24523332Y-7411149D01*
X24457152Y-7518341D01*
X24387205Y-7623737D01*
X24314090Y-7727330D01*
X24238404Y-7829112D01*
X24081709Y-8027207D01*
X23921901Y-8217957D01*
X23763760Y-8401299D01*
X23740083Y-8428901D01*
X23707080Y-8467088D01*
X23673941Y-8505157D01*
X23661441Y-8520514D01*
X23656331Y-8526932D01*
X23651879Y-8532706D01*
X23648009Y-8537980D01*
X23644648Y-8542901D01*
X23641717Y-8547614D01*
X23639143Y-8552267D01*
X23636849Y-8557003D01*
X23634759Y-8561970D01*
X23632799Y-8567314D01*
X23630891Y-8573179D01*
X23628961Y-8579713D01*
X23626933Y-8587062D01*
X23622280Y-8604785D01*
X23617655Y-8617101D01*
X23612629Y-8628867D01*
X23607217Y-8640132D01*
X23601432Y-8650944D01*
X23595290Y-8661354D01*
X23588806Y-8671410D01*
X23581993Y-8681162D01*
X23574868Y-8690658D01*
X23567443Y-8699948D01*
X23559735Y-8709081D01*
X23551758Y-8718105D01*
X23543525Y-8727071D01*
X23526356Y-8745023D01*
X23508344Y-8763328D01*
X23477181Y-8796234D01*
X23446613Y-8829392D01*
X23416587Y-8862847D01*
X23387054Y-8896643D01*
X23357961Y-8930826D01*
X23329257Y-8965440D01*
X23300892Y-9000531D01*
X23272813Y-9036144D01*
X23242851Y-9069666D01*
X23208455Y-9069666D01*
X23210874Y-9119916D01*
X23212755Y-9185752D01*
X23215173Y-9251050D01*
X23213577Y-9263499D01*
X23211729Y-9274742D01*
X23209593Y-9284911D01*
X23207135Y-9294137D01*
X23204319Y-9302552D01*
X23201110Y-9310288D01*
X23197472Y-9317475D01*
X23193372Y-9324247D01*
X23188772Y-9330734D01*
X23183639Y-9337068D01*
X23177937Y-9343380D01*
X23171631Y-9349803D01*
X23164686Y-9356468D01*
X23157067Y-9363506D01*
X23139663Y-9379228D01*
X23285888Y-9388216D01*
X23401103Y-9394424D01*
X23495585Y-9397652D01*
X23579613Y-9397698D01*
X23663466Y-9394360D01*
X23757422Y-9387437D01*
X23871760Y-9376728D01*
X24016757Y-9362030D01*
X24059954Y-9353297D01*
X24143928Y-9336099D01*
X24181364Y-9329441D01*
X24218855Y-9323452D01*
X24256418Y-9317909D01*
X24294074Y-9312586D01*
X24373707Y-9299135D01*
X24452722Y-9283251D01*
X24531204Y-9265249D01*
X24609237Y-9245444D01*
X24686906Y-9224148D01*
X24764296Y-9201677D01*
X24918577Y-9154463D01*
X24960829Y-9141413D01*
X24998369Y-9129641D01*
X25009384Y-9126874D01*
X25018291Y-9124795D01*
X25022264Y-9123983D01*
X25026082Y-9123306D01*
X25029870Y-9122751D01*
X25033750Y-9122307D01*
X25037848Y-9121961D01*
X25042287Y-9121702D01*
X25047191Y-9121515D01*
X25052684Y-9121391D01*
X25065933Y-9121276D01*
X25083028Y-9121260D01*
X25083028Y-9086863D01*
X25144694Y-9085919D01*
X25179581Y-9085604D01*
X25200588Y-9085919D01*
X25220611Y-9086863D01*
X25225754Y-9092567D01*
X25230476Y-9098932D01*
X25234792Y-9105918D01*
X25238722Y-9113485D01*
X25242281Y-9121593D01*
X25245487Y-9130204D01*
X25250909Y-9148769D01*
X25255126Y-9168864D01*
X25258276Y-9190168D01*
X25260498Y-9212364D01*
X25261928Y-9235132D01*
X25262706Y-9258154D01*
X25262969Y-9281111D01*
X25262501Y-9325557D01*
X25261629Y-9365920D01*
X25261456Y-9399651D01*
X25263404Y-9440328D01*
X25263624Y-9466060D01*
X25263479Y-9477563D01*
X25263076Y-9488309D01*
X25262346Y-9498414D01*
X25261222Y-9507993D01*
X25259638Y-9517161D01*
X25257526Y-9526031D01*
X25254818Y-9534721D01*
X25251449Y-9543344D01*
X25247349Y-9552014D01*
X25242453Y-9560849D01*
X25236693Y-9569961D01*
X25230002Y-9579466D01*
X25222313Y-9589478D01*
X25213557Y-9600114D01*
X25169017Y-9637197D01*
X25150864Y-9669441D01*
X25144613Y-9680928D01*
X25139439Y-9690938D01*
X25134737Y-9700679D01*
X25129904Y-9711361D01*
X25117424Y-9740384D01*
X25065830Y-9740384D01*
X25056156Y-9769406D01*
X25050343Y-9778336D01*
X25044402Y-9786661D01*
X25038320Y-9794438D01*
X25032090Y-9801724D01*
X25025700Y-9808576D01*
X25019141Y-9815052D01*
X25012403Y-9821209D01*
X25005474Y-9827104D01*
X24998347Y-9832795D01*
X24991009Y-9838339D01*
X24983452Y-9843793D01*
X24975665Y-9849214D01*
X24942018Y-9871720D01*
X24936271Y-9876160D01*
X24930743Y-9880609D01*
X24925417Y-9885077D01*
X24920274Y-9889575D01*
X24915295Y-9894116D01*
X24910460Y-9898709D01*
X24905751Y-9903366D01*
X24901149Y-9908098D01*
X24896634Y-9912916D01*
X24892189Y-9917831D01*
X24883429Y-9927997D01*
X24874718Y-9938685D01*
X24865904Y-9949984D01*
X24858318Y-9958810D01*
X24851048Y-9966918D01*
X24844016Y-9974358D01*
X24837145Y-9981178D01*
X24830358Y-9987430D01*
X24823577Y-9993161D01*
X24816724Y-9998422D01*
X24809723Y-10003261D01*
X24802496Y-10007729D01*
X24794965Y-10011875D01*
X24787054Y-10015748D01*
X24778683Y-10019397D01*
X24769777Y-10022872D01*
X24760258Y-10026223D01*
X24750048Y-10029499D01*
X24739070Y-10032749D01*
X24739070Y-10067145D01*
X24687476Y-10084343D01*
X24653080Y-10135936D01*
X24634471Y-10146148D01*
X24627535Y-10149843D01*
X24621103Y-10153135D01*
X24614368Y-10156426D01*
X24606525Y-10160121D01*
X24584288Y-10170333D01*
X24540219Y-10198279D01*
X24526281Y-10206085D01*
X24520444Y-10209243D01*
X24515178Y-10211950D01*
X24510346Y-10214242D01*
X24505812Y-10216153D01*
X24501439Y-10217718D01*
X24497089Y-10218971D01*
X24492627Y-10219946D01*
X24487913Y-10220679D01*
X24482813Y-10221205D01*
X24477188Y-10221557D01*
X24470901Y-10221771D01*
X24463817Y-10221880D01*
X24446705Y-10221926D01*
X24446705Y-10256322D01*
X24416945Y-10267743D01*
X24365521Y-10288309D01*
X24314444Y-10309573D01*
X24263660Y-10331442D01*
X24213113Y-10353821D01*
X24112508Y-10399737D01*
X24012189Y-10446574D01*
X23894146Y-10498438D01*
X23774304Y-10546883D01*
X23652833Y-10592072D01*
X23529902Y-10634167D01*
X23405680Y-10673331D01*
X23280337Y-10709726D01*
X23026963Y-10774858D01*
X22771133Y-10830866D01*
X22514202Y-10879048D01*
X22257524Y-10920705D01*
X22002451Y-10957137D01*
X21953784Y-10963729D01*
X21925591Y-10967141D01*
X21897513Y-10970228D01*
X21869502Y-10972945D01*
X21841510Y-10975252D01*
X21813488Y-10977104D01*
X21785389Y-10978459D01*
X21757163Y-10979275D01*
X21728762Y-10979507D01*
X21681256Y-10979688D01*
X21658694Y-10980155D01*
X21636829Y-10981054D01*
X21615589Y-10982518D01*
X21594904Y-10984681D01*
X21574700Y-10987678D01*
X21554907Y-10991642D01*
X21535451Y-10996708D01*
X21516261Y-11003010D01*
X21497265Y-11010683D01*
X21478390Y-11019860D01*
X21459566Y-11030675D01*
X21440720Y-11043264D01*
X21421780Y-11057760D01*
X21402674Y-11074298D01*
X21381027Y-11097538D01*
X21359479Y-11120870D01*
X21338031Y-11144295D01*
X21316685Y-11167811D01*
X21294186Y-11187822D01*
X21271462Y-11207580D01*
X21248509Y-11227070D01*
X21225320Y-11246277D01*
X21185752Y-11279665D01*
X21172099Y-11288175D01*
X21166369Y-11291650D01*
X21161186Y-11294673D01*
X21156411Y-11297294D01*
X21151906Y-11299563D01*
X21147533Y-11301530D01*
X21143152Y-11303245D01*
X21138625Y-11304759D01*
X21133814Y-11306121D01*
X21128581Y-11307382D01*
X21122787Y-11308592D01*
X21116293Y-11309801D01*
X21108962Y-11311060D01*
X21091231Y-11313926D01*
X21074711Y-11315281D01*
X21067922Y-11315948D01*
X21061965Y-11316678D01*
X21056725Y-11317520D01*
X21052090Y-11318528D01*
X21047947Y-11319751D01*
X21044183Y-11321241D01*
X21042408Y-11322102D01*
X21040685Y-11323049D01*
X21037341Y-11325227D01*
X21034037Y-11327826D01*
X21030661Y-11330897D01*
X21027100Y-11334491D01*
X21023240Y-11338660D01*
X21014176Y-11348927D01*
X20990999Y-11382786D01*
X20952477Y-11426780D01*
X20911073Y-11468969D01*
X20866944Y-11509393D01*
X20820247Y-11548095D01*
X20771139Y-11585119D01*
X20719776Y-11620507D01*
X20610912Y-11686545D01*
X20494910Y-11746550D01*
X20373024Y-11800864D01*
X20246508Y-11849827D01*
X20116616Y-11893782D01*
X19984601Y-11933069D01*
X19851718Y-11968029D01*
X19719221Y-11999004D01*
X19588363Y-12026335D01*
X19336582Y-12071430D01*
X19106408Y-12106043D01*
X19092663Y-12107162D01*
X19087031Y-12107698D01*
X19082110Y-12108266D01*
X19077812Y-12108904D01*
X19074048Y-12109647D01*
X19070733Y-12110533D01*
X19067777Y-12111596D01*
X19065093Y-12112875D01*
X19062593Y-12114404D01*
X19060190Y-12116221D01*
X19057797Y-12118363D01*
X19055324Y-12120864D01*
X19052686Y-12123762D01*
X19046559Y-12130895D01*
X19009199Y-12133489D01*
X18971882Y-12135778D01*
X18934553Y-12137775D01*
X18897153Y-12139494D01*
X18830736Y-12142874D01*
X18797824Y-12145077D01*
X18765028Y-12147758D01*
X18732290Y-12151018D01*
X18699547Y-12154959D01*
X18666740Y-12159682D01*
X18633809Y-12165290D01*
X18588714Y-12170398D01*
X18543737Y-12174491D01*
X18498824Y-12177634D01*
X18453924Y-12179893D01*
X18408983Y-12181335D01*
X18363950Y-12182025D01*
X18318770Y-12182029D01*
X18273392Y-12181413D01*
X18256261Y-12181316D01*
X18242812Y-12181366D01*
X18231888Y-12181676D01*
X18227011Y-12181963D01*
X18222332Y-12182358D01*
X18217705Y-12182875D01*
X18212986Y-12183527D01*
X18202693Y-12185296D01*
X18190297Y-12187778D01*
X18174639Y-12191087D01*
X18143889Y-12195194D01*
X18113255Y-12198225D01*
X18082722Y-12200244D01*
X18052279Y-12201317D01*
X18021910Y-12201510D01*
X17991603Y-12200888D01*
X17961345Y-12199515D01*
X17931122Y-12197459D01*
X17870728Y-12191554D01*
X17810314Y-12183697D01*
X17749773Y-12174410D01*
X17688999Y-12164216D01*
X17621685Y-12152842D01*
X17527705Y-12136120D01*
X17433514Y-12118319D01*
X17339340Y-12099182D01*
X17245409Y-12078453D01*
X17151949Y-12055876D01*
X17059186Y-12031196D01*
X16967348Y-12004155D01*
X16876662Y-11974497D01*
X16866510Y-11971396D01*
X16856703Y-11968708D01*
X16847189Y-11966412D01*
X16837914Y-11964488D01*
X16828826Y-11962918D01*
X16819870Y-11961680D01*
X16810994Y-11960754D01*
X16802144Y-11960122D01*
X16793267Y-11959762D01*
X16784311Y-11959656D01*
X16775221Y-11959783D01*
X16765945Y-11960122D01*
X16746622Y-11961362D01*
X16725916Y-11963215D01*
X16666731Y-11968858D01*
X16604999Y-11976343D01*
X16543355Y-11984373D01*
X16481778Y-11992910D01*
X16420249Y-12001910D01*
X16317137Y-12013102D01*
X16213811Y-12021148D01*
X16110316Y-12026561D01*
X16006699Y-12029851D01*
X15799282Y-12032108D01*
X15591928Y-12032007D01*
X15556825Y-12032037D01*
X15259797Y-12029613D01*
X15111597Y-12026184D01*
X14963536Y-12021043D01*
X14815560Y-12014015D01*
X14667616Y-12004926D01*
X14519649Y-11993601D01*
X14371608Y-11979865D01*
X14317787Y-11974558D01*
X14263951Y-11969412D01*
X13704653Y-11905707D01*
X13147334Y-11824705D01*
X12592004Y-11728612D01*
X12038679Y-11619636D01*
X11487370Y-11499982D01*
X10938091Y-11371857D01*
X9845674Y-11099020D01*
X9787128Y-11084006D01*
X9179279Y-10926639D01*
X8571235Y-10762591D01*
X8268282Y-10676456D01*
X7966649Y-10586724D01*
X7666795Y-10492755D01*
X7369175Y-10393905D01*
X7369175Y-10359510D01*
X7330815Y-10349433D01*
X7279960Y-10335862D01*
X7229778Y-10322561D01*
X7212272Y-10317331D01*
X7194983Y-10311972D01*
X7177878Y-10306419D01*
X7160927Y-10300608D01*
X7144096Y-10294476D01*
X7127354Y-10287960D01*
X7110668Y-10280996D01*
X7094008Y-10273520D01*
X7076810Y-10239124D01*
X7065731Y-10234706D01*
X7056906Y-10231260D01*
X7049468Y-10228509D01*
X7042546Y-10226175D01*
X7035272Y-10223983D01*
X7026776Y-10221653D01*
X7002643Y-10215477D01*
X6950831Y-10200552D01*
X6899173Y-10185246D01*
X6847658Y-10169470D01*
X6796269Y-10153135D01*
X6745952Y-10137012D01*
X6730189Y-10130929D01*
X6717811Y-10126037D01*
X6707749Y-10121814D01*
X6703252Y-10119791D01*
X6698934Y-10117739D01*
X6694661Y-10115594D01*
X6690300Y-10113289D01*
X6680776Y-10107943D01*
X6669296Y-10101178D01*
X6654790Y-10092472D01*
X6646756Y-10087773D01*
X6638824Y-10083351D01*
X6630969Y-10079186D01*
X6623169Y-10075261D01*
X6615401Y-10071557D01*
X6607641Y-10068057D01*
X6599867Y-10064742D01*
X6592054Y-10061595D01*
X6576222Y-10055730D01*
X6559960Y-10050318D01*
X6543082Y-10045214D01*
X6525403Y-10040273D01*
X6493929Y-10031427D01*
X6478653Y-10026799D01*
X6463594Y-10021890D01*
X6448682Y-10016592D01*
X6433849Y-10010796D01*
X6419025Y-10004394D01*
X6411596Y-10000932D01*
X6404143Y-9997278D01*
X6392632Y-9990895D01*
X6387776Y-9988296D01*
X6383352Y-9986046D01*
X6379233Y-9984110D01*
X6375292Y-9982453D01*
X6371405Y-9981041D01*
X6367443Y-9979839D01*
X6363282Y-9978812D01*
X6358795Y-9977927D01*
X6353855Y-9977147D01*
X6348337Y-9976439D01*
X6342113Y-9975769D01*
X6335059Y-9975100D01*
X6317951Y-9973631D01*
X6276076Y-9966695D01*
X6234550Y-9958153D01*
X6193384Y-9948089D01*
X6152589Y-9936591D01*
X6112177Y-9923744D01*
X6072157Y-9909633D01*
X6032542Y-9894346D01*
X5993342Y-9877968D01*
X5993342Y-9843572D01*
X5872957Y-9826374D01*
X5872957Y-9791978D01*
X5810613Y-9780154D01*
X5706223Y-9756583D01*
X5626724Y-9737570D01*
X5594836Y-9729122D01*
X5567405Y-9721035D01*
X5543840Y-9713048D01*
X5523553Y-9704901D01*
X5505956Y-9696334D01*
X5490459Y-9687088D01*
X5476474Y-9676904D01*
X5463411Y-9665520D01*
X5450683Y-9652678D01*
X5437699Y-9638117D01*
X5408612Y-9602801D01*
X5404733Y-9587081D01*
X5403209Y-9580506D01*
X5401962Y-9574586D01*
X5400992Y-9569169D01*
X5400299Y-9564106D01*
X5399884Y-9559244D01*
X5399745Y-9554432D01*
X5399884Y-9549519D01*
X5400299Y-9544355D01*
X5400992Y-9538788D01*
X5401962Y-9532666D01*
X5403209Y-9525839D01*
X5404733Y-9518155D01*
X5408612Y-9499614D01*
X5419951Y-9482331D01*
X5431860Y-9465500D01*
X5457291Y-9433133D01*
X5484708Y-9402402D01*
X5513915Y-9373191D01*
X5544714Y-9345388D01*
X5576908Y-9318881D01*
X5610301Y-9293554D01*
X5644696Y-9269295D01*
X5679896Y-9245991D01*
X5715703Y-9223529D01*
X5788355Y-9180675D01*
X5932291Y-9100077D01*
X5973389Y-9076854D01*
X6010132Y-9056309D01*
X6022104Y-9049356D01*
X6031534Y-9043783D01*
X6039260Y-9039010D01*
X6042745Y-9036743D01*
X6046119Y-9034458D01*
X6049485Y-9032084D01*
X6052950Y-9029548D01*
X6060590Y-9023700D01*
X6069879Y-9016335D01*
X6081654Y-9006874D01*
X6092308Y-8999217D01*
X6096751Y-8996119D01*
X6100734Y-8993463D01*
X6104355Y-8991214D01*
X6107711Y-8989340D01*
X6110899Y-8987805D01*
X6112461Y-8987154D01*
X6114017Y-8986576D01*
X6115581Y-8986065D01*
X6117163Y-8985619D01*
X6120433Y-8984899D01*
X6123925Y-8984384D01*
X6127736Y-8984039D01*
X6131964Y-8983829D01*
X6136706Y-8983721D01*
X6148122Y-8983676D01*
X6148122Y-8949281D01*
X6190440Y-8942354D01*
X6231850Y-8936706D01*
X6272473Y-8932321D01*
X6312432Y-8929185D01*
X6351847Y-8927284D01*
X6390841Y-8926602D01*
X6429537Y-8927126D01*
X6468055Y-8928840D01*
X6506517Y-8931731D01*
X6545046Y-8935783D01*
X6583764Y-8940982D01*
X6622792Y-8947314D01*
X6662252Y-8954764D01*
X6702267Y-8963317D01*
X6742958Y-8972960D01*
X6784446Y-8983676D01*
X6784446Y-9018072D01*
X6818950Y-9016636D01*
X6864343Y-9016452D01*
X6908712Y-9017992D01*
X6952340Y-9021176D01*
X6995509Y-9025923D01*
X7038502Y-9032151D01*
X7081602Y-9039780D01*
X7125090Y-9048729D01*
X7169249Y-9058917D01*
X7272907Y-9082631D01*
X7322813Y-9093993D01*
X7356331Y-9100993D01*
X7389917Y-9107483D01*
X7423568Y-9113511D01*
X7457284Y-9119127D01*
X7524899Y-9129321D01*
X7592747Y-9138458D01*
X7587100Y-9120380D01*
X7584328Y-9112026D01*
X7581515Y-9104081D01*
X7578601Y-9096508D01*
X7575530Y-9089270D01*
X7572244Y-9082331D01*
X7568684Y-9075654D01*
X7564793Y-9069203D01*
X7560514Y-9062942D01*
X7555788Y-9056834D01*
X7550558Y-9050842D01*
X7544765Y-9044930D01*
X7538353Y-9039062D01*
X7531264Y-9033200D01*
X7523439Y-9027309D01*
X7479685Y-9006786D01*
X7429636Y-8982916D01*
X7374548Y-8957879D01*
X7316440Y-8930861D01*
X7222568Y-8888152D01*
X7128404Y-8846093D01*
X7067229Y-8818911D01*
X6852888Y-8727298D01*
X6636910Y-8639821D01*
X6419534Y-8555911D01*
X6201000Y-8475000D01*
X5761414Y-8319901D01*
X5320068Y-8169977D01*
X5092050Y-8092729D01*
X4864324Y-8014614D01*
X4813406Y-7997124D01*
X4766017Y-7980684D01*
X4724313Y-7966272D01*
X4710527Y-7960877D01*
X4696932Y-7955270D01*
X4683495Y-7949456D01*
X4670181Y-7943438D01*
X4656959Y-7937221D01*
X4643794Y-7930807D01*
X4630655Y-7924201D01*
X4617508Y-7917406D01*
X4617508Y-7883009D01*
X4588487Y-7878710D01*
X4578876Y-7875396D01*
X4569683Y-7871835D01*
X4560868Y-7868028D01*
X4552392Y-7863976D01*
X4544215Y-7859683D01*
X4536298Y-7855149D01*
X4528601Y-7850377D01*
X4521085Y-7845368D01*
X4513711Y-7840125D01*
X4506438Y-7834650D01*
X4499227Y-7828944D01*
X4492040Y-7823009D01*
X4477575Y-7810460D01*
X4462728Y-7797019D01*
X4462728Y-7762624D01*
X4420808Y-7749725D01*
X4376737Y-7728229D01*
X4372824Y-7716455D01*
X4369818Y-7707201D01*
X4367517Y-7699660D01*
X4365720Y-7693026D01*
X4364225Y-7686493D01*
X4362831Y-7679254D01*
X4361336Y-7670505D01*
X4359539Y-7659437D01*
X4325144Y-7642239D01*
X4315921Y-7593455D01*
X4308842Y-7544185D01*
X4303756Y-7494498D01*
X4300507Y-7444465D01*
X4298941Y-7394155D01*
X4298906Y-7343639D01*
X4300245Y-7292987D01*
X4302807Y-7242269D01*
X4310978Y-7140913D01*
X4322187Y-7040132D01*
X4348791Y-6842536D01*
X4360346Y-6756345D01*
X4383136Y-6587825D01*
X4392851Y-6514186D01*
X4402131Y-6440495D01*
X4419875Y-6293008D01*
X4423358Y-6269020D01*
X4427117Y-6245167D01*
X4435369Y-6197729D01*
X4444438Y-6150436D01*
X4454129Y-6103025D01*
X4464844Y-6045345D01*
X4473870Y-5987528D01*
X4481463Y-5929582D01*
X4487881Y-5871514D01*
X4493380Y-5813329D01*
X4498217Y-5755035D01*
X4506931Y-5638144D01*
X4510727Y-5592825D01*
X4515262Y-5548265D01*
X4520678Y-5504272D01*
X4527116Y-5460656D01*
X4534717Y-5417224D01*
X4543623Y-5373786D01*
X4553975Y-5330150D01*
X4565915Y-5286124D01*
X4571311Y-5252256D01*
X4576359Y-5218488D01*
X4581021Y-5184679D01*
X4585261Y-5150691D01*
X4589840Y-5114040D01*
X4592471Y-5090388D01*
X4594734Y-5066897D01*
X4596584Y-5043509D01*
X4597981Y-5020165D01*
X4598879Y-4996806D01*
X4599238Y-4973371D01*
X4599013Y-4949804D01*
X4598161Y-4926043D01*
X4598110Y-4910558D01*
X4598726Y-4895316D01*
X4599993Y-4880306D01*
X4601898Y-4865517D01*
X4604425Y-4850939D01*
X4607560Y-4836562D01*
X4611288Y-4822373D01*
X4615594Y-4808362D01*
X4620464Y-4794519D01*
X4625883Y-4780832D01*
X4631836Y-4767291D01*
X4638309Y-4753885D01*
X4645287Y-4740604D01*
X4652755Y-4727435D01*
X4660698Y-4714369D01*
X4669102Y-4701395D01*
X4680541Y-4690668D01*
X4692387Y-4680688D01*
X4704621Y-4671428D01*
X4717223Y-4662861D01*
X4730175Y-4654961D01*
X4743457Y-4647701D01*
X4757049Y-4641055D01*
X4770932Y-4634994D01*
X4799493Y-4624526D01*
X4828986Y-4616084D01*
X4859254Y-4609453D01*
X4890143Y-4604421D01*
X4921498Y-4600773D01*
X4953162Y-4598296D01*
X4984982Y-4596777D01*
X5016801Y-4596001D01*
X5140969Y-4596058D01*
X5188806Y-4596971D01*
X5236634Y-4598207D01*
X5236634Y-4563812D01*
X5349495Y-4546614D01*
X5412980Y-4536940D01*
X5436237Y-4534475D01*
X5459328Y-4532514D01*
X5482312Y-4531022D01*
X5505253Y-4529966D01*
X5528209Y-4529311D01*
X5551244Y-4529024D01*
X5574417Y-4529071D01*
X5597790Y-4529416D01*
X5597790Y-4495020D01*
X5684840Y-4481553D01*
X5766980Y-4471087D01*
X5806641Y-4467399D01*
X5845593Y-4464965D01*
X5884008Y-4463955D01*
X5922060Y-4464535D01*
X5959921Y-4466874D01*
X5997763Y-4471139D01*
X6035761Y-4477500D01*
X6074085Y-4486124D01*
X6112910Y-4497179D01*
X6152408Y-4510834D01*
X6192751Y-4527256D01*
X6234113Y-4546614D01*
X6255892Y-4563456D01*
X6277500Y-4580521D01*
X6298911Y-4597830D01*
X6320102Y-4615406D01*
X6366320Y-4640128D01*
X6374926Y-4646212D01*
X6378874Y-4649215D01*
X6382600Y-4652200D01*
X6386113Y-4655173D01*
X6389427Y-4658140D01*
X6392550Y-4661107D01*
X6395494Y-4664079D01*
X6398270Y-4667064D01*
X6400888Y-4670068D01*
X6403360Y-4673095D01*
X6405695Y-4676153D01*
X6410002Y-4682383D01*
X6413894Y-4688807D01*
X6417459Y-4695474D01*
X6420782Y-4702431D01*
X6423950Y-4709727D01*
X6427049Y-4717411D01*
X6440487Y-4752989D01*
X6471658Y-4766895D01*
X6481109Y-4772340D01*
X6489875Y-4777988D01*
X6498019Y-4783845D01*
X6505607Y-4789917D01*
X6512704Y-4796212D01*
X6519375Y-4802735D01*
X6525686Y-4809493D01*
X6531701Y-4816492D01*
X6537486Y-4823740D01*
X6543105Y-4831243D01*
X6548624Y-4839007D01*
X6554108Y-4847038D01*
X6576995Y-4881973D01*
X6618043Y-4943039D01*
X6640371Y-4976268D01*
X6672571Y-5022715D01*
X6705293Y-5068787D01*
X6771547Y-5160364D01*
X6800262Y-5200000D01*
X6858577Y-5280439D01*
X6999420Y-5475301D01*
X7055313Y-5552692D01*
X7418657Y-6055785D01*
X7474171Y-6132630D01*
X7619687Y-6334458D01*
X7650185Y-6376815D01*
X7707759Y-6456892D01*
X7734000Y-6498505D01*
X7745062Y-6515647D01*
X7755132Y-6530746D01*
X7764494Y-6544103D01*
X7773434Y-6556018D01*
X7782237Y-6566792D01*
X7791188Y-6576725D01*
X7800572Y-6586117D01*
X7810673Y-6595269D01*
X7821777Y-6604481D01*
X7834168Y-6614054D01*
X7848132Y-6624287D01*
X7863954Y-6635482D01*
X7902310Y-6661957D01*
X7926255Y-6658502D01*
X7935065Y-6657048D01*
X7943095Y-6655497D01*
X7951342Y-6653643D01*
X7960803Y-6651275D01*
X7987351Y-6644168D01*
X8041229Y-6630744D01*
X8101026Y-6615402D01*
X8198692Y-6590968D01*
X8306033Y-6563907D01*
X8707723Y-6463577D01*
X8752174Y-6452530D01*
X9320451Y-6314237D01*
X9889452Y-6178950D01*
X10874255Y-5956428D01*
X11229780Y-5872865D01*
X11545503Y-5794625D01*
X11860008Y-5711848D01*
X12211880Y-5614677D01*
X13182070Y-5337718D01*
X13200244Y-5336849D01*
X13218433Y-5336297D01*
X13236630Y-5336035D01*
X13254826Y-5336039D01*
X13296645Y-5336206D01*
X13340076Y-5336643D01*
X13384112Y-5336878D01*
X13491633Y-5337718D01*
X13505031Y-5306618D01*
X13509334Y-5299113D01*
X13513630Y-5292060D01*
X13517944Y-5285414D01*
X13522301Y-5279132D01*
X13526724Y-5273170D01*
X13531239Y-5267485D01*
X13535870Y-5262032D01*
X13540641Y-5256767D01*
X13545578Y-5251648D01*
X13550705Y-5246629D01*
X13556045Y-5241668D01*
X13561625Y-5236721D01*
X13567469Y-5231743D01*
X13573600Y-5226691D01*
X13586826Y-5216190D01*
X13624248Y-5186884D01*
X13664687Y-5156065D01*
X13706636Y-5123836D01*
X13757733Y-5085701D01*
X13809294Y-5048431D01*
X13861310Y-5011954D01*
X13913774Y-4976199D01*
X13966679Y-4941095D01*
X14020016Y-4906571D01*
X14073778Y-4872556D01*
X14127956Y-4838979D01*
X14163317Y-4816969D01*
X14257900Y-4759743D01*
X14354109Y-4704488D01*
X14451869Y-4651411D01*
X14551108Y-4600720D01*
X14651752Y-4552624D01*
X14753728Y-4507330D01*
X14856961Y-4465046D01*
X14961379Y-4425979D01*
X15066908Y-4390339D01*
X15173475Y-4358333D01*
X15281006Y-4330168D01*
X15389427Y-4306053D01*
X15498666Y-4286196D01*
X15608648Y-4270804D01*
X15719300Y-4260086D01*
X15830549Y-4254249D01*
X15886107Y-4252167D01*
X15994837Y-4252245D01*
D11*
D12*
X5481000Y-6869000D02*
X5511000Y-6899000D01*
X5511000Y-6869000D02*
X5481000Y-6899000D01*
X5635000Y-7185000D02*
X5665000Y-7215000D01*
X5665000Y-7185000D02*
X5635000Y-7215000D01*
X6272000Y-6858000D02*
X6302000Y-6888000D01*
X6302000Y-6858000D02*
X6272000Y-6888000D01*
X6385000Y-6085000D02*
X6415000Y-6115000D01*
X6415000Y-6085000D02*
X6385000Y-6115000D01*
X6385000Y-7385000D02*
X6415000Y-7415000D01*
X6415000Y-7385000D02*
X6385000Y-7415000D01*
X6535000Y-5785000D02*
X6565000Y-5815000D01*
X6565000Y-5785000D02*
X6535000Y-5815000D01*
X7285000Y-6235000D02*
X7315000Y-6265000D01*
X7315000Y-6235000D02*
X7285000Y-6265000D01*
X8171000Y-9590000D02*
X8201000Y-9620000D01*
X8201000Y-9590000D02*
X8171000Y-9620000D01*
X8175000Y-10385000D02*
X8205000Y-10415000D01*
X8205000Y-10385000D02*
X8175000Y-10415000D01*
X8365000Y-9349000D02*
X8395000Y-9379000D01*
X8395000Y-9349000D02*
X8365000Y-9379000D01*
X9021074Y-7721073D02*
X9051074Y-7751073D01*
X9051074Y-7721073D02*
X9021074Y-7751073D01*
X9102427Y-8602427D02*
X9132427Y-8632427D01*
X9132427Y-8602427D02*
X9102427Y-8632427D01*
X9278000Y-9567000D02*
X9308000Y-9597000D01*
X9308000Y-9567000D02*
X9278000Y-9597000D01*
X9444000Y-9481000D02*
X9474000Y-9511000D01*
X9474000Y-9481000D02*
X9444000Y-9511000D01*
X9485000Y-7435000D02*
X9515000Y-7465000D01*
X9515000Y-7435000D02*
X9485000Y-7465000D01*
X9520000Y-7868000D02*
X9550000Y-7898000D01*
X9550000Y-7868000D02*
X9520000Y-7898000D01*
X9580000Y-9688000D02*
X9610000Y-9718000D01*
X9610000Y-9688000D02*
X9580000Y-9718000D01*
X9585000Y-7735000D02*
X9615000Y-7765000D01*
X9615000Y-7735000D02*
X9585000Y-7765000D01*
X9623000Y-8606000D02*
X9653000Y-8636000D01*
X9653000Y-8606000D02*
X9623000Y-8636000D01*
X9637000Y-8307000D02*
X9667000Y-8337000D01*
X9667000Y-8307000D02*
X9637000Y-8337000D01*
X9706000Y-7267000D02*
X9736000Y-7297000D01*
X9736000Y-7267000D02*
X9706000Y-7297000D01*
X9709000Y-7436000D02*
X9739000Y-7466000D01*
X9739000Y-7436000D02*
X9709000Y-7466000D01*
X9885000Y-8185000D02*
X9915000Y-8215000D01*
X9915000Y-8185000D02*
X9885000Y-8215000D01*
X9935000Y-8085000D02*
X9965000Y-8115000D01*
X9965000Y-8085000D02*
X9935000Y-8115000D01*
X9953000Y-8584000D02*
X9983000Y-8614000D01*
X9983000Y-8584000D02*
X9953000Y-8614000D01*
X9958074Y-8857927D02*
X9988074Y-8887927D01*
X9988074Y-8857927D02*
X9958074Y-8887927D01*
X9985000Y-8335000D02*
X10015000Y-8365000D01*
X10015000Y-8335000D02*
X9985000Y-8365000D01*
X9991000Y-9166000D02*
X10021000Y-9196000D01*
X10021000Y-9166000D02*
X9991000Y-9196000D01*
X10033000Y-9020000D02*
X10063000Y-9050000D01*
X10063000Y-9020000D02*
X10033000Y-9050000D01*
X10083000Y-9924000D02*
X10113000Y-9954000D01*
X10113000Y-9924000D02*
X10083000Y-9954000D01*
X10103000Y-7809000D02*
X10133000Y-7839000D01*
X10133000Y-7809000D02*
X10103000Y-7839000D01*
X10107000Y-8204000D02*
X10137000Y-8234000D01*
X10137000Y-8204000D02*
X10107000Y-8234000D01*
X10111000Y-7565000D02*
X10141000Y-7595000D01*
X10141000Y-7565000D02*
X10111000Y-7595000D01*
X10130000Y-8852000D02*
X10160000Y-8882000D01*
X10160000Y-8852000D02*
X10130000Y-8882000D01*
X10182000Y-9516000D02*
X10212000Y-9546000D01*
X10212000Y-9516000D02*
X10182000Y-9546000D01*
X10285000Y-8135000D02*
X10315000Y-8165000D01*
X10315000Y-8135000D02*
X10285000Y-8165000D01*
X10419000Y-9140000D02*
X10449000Y-9170000D01*
X10449000Y-9140000D02*
X10419000Y-9170000D01*
X10432074Y-8220926D02*
X10462074Y-8250926D01*
X10462074Y-8220926D02*
X10432074Y-8250926D01*
X10491000Y-7208000D02*
X10521000Y-7238000D01*
X10521000Y-7208000D02*
X10491000Y-7238000D01*
X10520000Y-8089000D02*
X10550000Y-8119000D01*
X10550000Y-8089000D02*
X10520000Y-8119000D01*
X10625000Y-9440000D02*
X10655000Y-9470000D01*
X10655000Y-9440000D02*
X10625000Y-9470000D01*
X10698000Y-8407000D02*
X10728000Y-8437000D01*
X10728000Y-8407000D02*
X10698000Y-8437000D01*
X10705000Y-10210000D02*
X10735000Y-10240000D01*
X10735000Y-10210000D02*
X10705000Y-10240000D01*
X10735000Y-7285000D02*
X10765000Y-7315000D01*
X10765000Y-7285000D02*
X10735000Y-7315000D01*
X10735000Y-7735000D02*
X10765000Y-7765000D01*
X10765000Y-7735000D02*
X10735000Y-7765000D01*
X10857000Y-10045000D02*
X10887000Y-10075000D01*
X10887000Y-10045000D02*
X10857000Y-10075000D01*
X11008000Y-7441000D02*
X11038000Y-7471000D01*
X11038000Y-7441000D02*
X11008000Y-7471000D01*
X11012000Y-6786000D02*
X11042000Y-6816000D01*
X11042000Y-6786000D02*
X11012000Y-6816000D01*
X11085000Y-8185000D02*
X11115000Y-8215000D01*
X11115000Y-8185000D02*
X11085000Y-8215000D01*
X11114000Y-7440000D02*
X11144000Y-7470000D01*
X11144000Y-7440000D02*
X11114000Y-7470000D01*
X11174000Y-9242000D02*
X11204000Y-9272000D01*
X11204000Y-9242000D02*
X11174000Y-9272000D01*
X11265000Y-7765000D02*
X11295000Y-7795000D01*
X11295000Y-7765000D02*
X11265000Y-7795000D01*
X11280073Y-9489927D02*
X11310073Y-9519927D01*
X11310073Y-9489927D02*
X11280073Y-9519927D01*
X11312000Y-6791000D02*
X11342000Y-6821000D01*
X11342000Y-6791000D02*
X11312000Y-6821000D01*
X11330000Y-8051000D02*
X11360000Y-8081000D01*
X11360000Y-8051000D02*
X11330000Y-8081000D01*
X11408000Y-7880000D02*
X11438000Y-7910000D01*
X11438000Y-7880000D02*
X11408000Y-7910000D01*
X11435000Y-7241000D02*
X11465000Y-7271000D01*
X11465000Y-7241000D02*
X11435000Y-7271000D01*
X11435000Y-8335000D02*
X11465000Y-8365000D01*
X11465000Y-8335000D02*
X11435000Y-8365000D01*
X11438000Y-8495000D02*
X11468000Y-8525000D01*
X11468000Y-8495000D02*
X11438000Y-8525000D01*
X11635000Y-8135000D02*
X11665000Y-8165000D01*
X11665000Y-8135000D02*
X11635000Y-8165000D01*
X11739000Y-8072000D02*
X11769000Y-8102000D01*
X11769000Y-8072000D02*
X11739000Y-8102000D01*
X11777000Y-9246000D02*
X11807000Y-9276000D01*
X11807000Y-9246000D02*
X11777000Y-9276000D01*
X11994728Y-6794728D02*
X12024728Y-6824728D01*
X12024728Y-6794728D02*
X11994728Y-6824728D01*
X12130848Y-7259912D02*
X12160848Y-7289912D01*
X12160848Y-7259912D02*
X12130848Y-7289912D01*
X12135000Y-6885000D02*
X12165000Y-6915000D01*
X12165000Y-6885000D02*
X12135000Y-6915000D01*
X12144000Y-7181000D02*
X12174000Y-7211000D01*
X12174000Y-7181000D02*
X12144000Y-7211000D01*
X12188721Y-7720573D02*
X12218721Y-7750573D01*
X12218721Y-7720573D02*
X12188721Y-7750573D01*
X12283000Y-7903000D02*
X12313000Y-7933000D01*
X12313000Y-7903000D02*
X12283000Y-7933000D01*
X12289000Y-7210000D02*
X12319000Y-7240000D01*
X12319000Y-7210000D02*
X12289000Y-7240000D01*
X12305000Y-10534000D02*
X12335000Y-10564000D01*
X12335000Y-10534000D02*
X12305000Y-10564000D01*
X12335000Y-6885000D02*
X12365000Y-6915000D01*
X12365000Y-6885000D02*
X12335000Y-6915000D01*
X12483426Y-7780573D02*
X12513426Y-7810573D01*
X12513426Y-7780573D02*
X12483426Y-7810573D01*
X12635000Y-7885000D02*
X12665000Y-7915000D01*
X12665000Y-7885000D02*
X12635000Y-7915000D01*
X12666000Y-8692000D02*
X12696000Y-8722000D01*
X12696000Y-8692000D02*
X12666000Y-8722000D01*
X12730000Y-7981000D02*
X12760000Y-8011000D01*
X12760000Y-7981000D02*
X12730000Y-8011000D01*
X12785000Y-7635000D02*
X12815000Y-7665000D01*
X12815000Y-7635000D02*
X12785000Y-7665000D01*
X12793000Y-8452000D02*
X12823000Y-8482000D01*
X12823000Y-8452000D02*
X12793000Y-8482000D01*
X12885000Y-7985000D02*
X12915000Y-8015000D01*
X12915000Y-7985000D02*
X12885000Y-8015000D01*
X12935000Y-6985000D02*
X12965000Y-7015000D01*
X12965000Y-6985000D02*
X12935000Y-7015000D01*
X12935000Y-7335000D02*
X12965000Y-7365000D01*
X12965000Y-7335000D02*
X12935000Y-7365000D01*
X13010000Y-9078000D02*
X13040000Y-9108000D01*
X13040000Y-9078000D02*
X13010000Y-9108000D01*
X13025000Y-8932000D02*
X13055000Y-8962000D01*
X13055000Y-8932000D02*
X13025000Y-8962000D01*
X13141000Y-7620000D02*
X13171000Y-7650000D01*
X13171000Y-7620000D02*
X13141000Y-7650000D01*
X13174000Y-8293000D02*
X13204000Y-8323000D01*
X13204000Y-8293000D02*
X13174000Y-8323000D01*
X13238000Y-11420000D02*
X13268000Y-11450000D01*
X13268000Y-11420000D02*
X13238000Y-11450000D01*
X13335000Y-7435000D02*
X13365000Y-7465000D01*
X13365000Y-7435000D02*
X13335000Y-7465000D01*
X13385000Y-8335000D02*
X13415000Y-8365000D01*
X13415000Y-8335000D02*
X13385000Y-8365000D01*
X13451000Y-6170000D02*
X13481000Y-6200000D01*
X13481000Y-6170000D02*
X13451000Y-6200000D01*
X13535000Y-7285000D02*
X13565000Y-7315000D01*
X13565000Y-7285000D02*
X13535000Y-7315000D01*
X13554000Y-8536000D02*
X13584000Y-8566000D01*
X13584000Y-8536000D02*
X13554000Y-8566000D01*
X13585000Y-5885000D02*
X13615000Y-5915000D01*
X13615000Y-5885000D02*
X13585000Y-5915000D01*
X13621000Y-9387000D02*
X13651000Y-9417000D01*
X13651000Y-9387000D02*
X13621000Y-9417000D01*
X13694000Y-8929000D02*
X13724000Y-8959000D01*
X13724000Y-8929000D02*
X13694000Y-8959000D01*
X13775000Y-8592000D02*
X13805000Y-8622000D01*
X13805000Y-8592000D02*
X13775000Y-8622000D01*
X13857000Y-11022000D02*
X13887000Y-11052000D01*
X13887000Y-11022000D02*
X13857000Y-11052000D01*
X14018000Y-7986000D02*
X14048000Y-8016000D01*
X14048000Y-7986000D02*
X14018000Y-8016000D01*
X14323000Y-9307000D02*
X14353000Y-9337000D01*
X14353000Y-9307000D02*
X14323000Y-9337000D01*
X14384000Y-8074000D02*
X14414000Y-8104000D01*
X14414000Y-8074000D02*
X14384000Y-8104000D01*
X14601000Y-10857000D02*
X14631000Y-10887000D01*
X14631000Y-10857000D02*
X14601000Y-10887000D01*
X14629000Y-11590000D02*
X14659000Y-11620000D01*
X14659000Y-11590000D02*
X14629000Y-11620000D01*
X14635000Y-6585000D02*
X14665000Y-6615000D01*
X14665000Y-6585000D02*
X14635000Y-6615000D01*
X14635000Y-6925000D02*
X14665000Y-6955000D01*
X14665000Y-6925000D02*
X14635000Y-6955000D01*
X14640000Y-9198000D02*
X14670000Y-9228000D01*
X14670000Y-9198000D02*
X14640000Y-9228000D01*
X14640000Y-11067000D02*
X14670000Y-11097000D01*
X14670000Y-11067000D02*
X14640000Y-11097000D01*
X14656000Y-8676000D02*
X14686000Y-8706000D01*
X14686000Y-8676000D02*
X14656000Y-8706000D01*
X14686000Y-9380142D02*
X14716000Y-9410142D01*
X14716000Y-9380142D02*
X14686000Y-9410142D01*
X14704000Y-8287000D02*
X14734000Y-8317000D01*
X14734000Y-8287000D02*
X14704000Y-8317000D01*
X14746000Y-11639000D02*
X14776000Y-11669000D01*
X14776000Y-11639000D02*
X14746000Y-11669000D01*
X14772000Y-8479000D02*
X14802000Y-8509000D01*
X14802000Y-8479000D02*
X14772000Y-8509000D01*
X14825000Y-9846000D02*
X14855000Y-9876000D01*
X14855000Y-9846000D02*
X14825000Y-9876000D01*
X14825000Y-10845000D02*
X14855000Y-10875000D01*
X14855000Y-10845000D02*
X14825000Y-10875000D01*
X14841518Y-11293148D02*
X14871518Y-11323148D01*
X14871518Y-11293148D02*
X14841518Y-11323148D01*
X14854000Y-9237000D02*
X14884000Y-9267000D01*
X14884000Y-9237000D02*
X14854000Y-9267000D01*
X14866000Y-11055000D02*
X14896000Y-11085000D01*
X14896000Y-11055000D02*
X14866000Y-11085000D01*
X14885000Y-6735000D02*
X14915000Y-6765000D01*
X14915000Y-6735000D02*
X14885000Y-6765000D01*
X14885000Y-6885000D02*
X14915000Y-6915000D01*
X14915000Y-6885000D02*
X14885000Y-6915000D01*
X14892000Y-9924000D02*
X14922000Y-9954000D01*
X14922000Y-9924000D02*
X14892000Y-9954000D01*
X14909000Y-7903000D02*
X14939000Y-7933000D01*
X14939000Y-7903000D02*
X14909000Y-7933000D01*
X14911000Y-8679000D02*
X14941000Y-8709000D01*
X14941000Y-8679000D02*
X14911000Y-8709000D01*
X14920000Y-8293000D02*
X14950000Y-8323000D01*
X14950000Y-8293000D02*
X14920000Y-8323000D01*
X14920000Y-8417000D02*
X14950000Y-8447000D01*
X14950000Y-8417000D02*
X14920000Y-8447000D01*
X14924000Y-11448000D02*
X14954000Y-11478000D01*
X14954000Y-11448000D02*
X14924000Y-11478000D01*
X14945000Y-6314000D02*
X14975000Y-6344000D01*
X14975000Y-6314000D02*
X14945000Y-6344000D01*
X14985000Y-10085000D02*
X15015000Y-10115000D01*
X15015000Y-10085000D02*
X14985000Y-10115000D01*
X15040000Y-6635000D02*
X15070000Y-6665000D01*
X15070000Y-6635000D02*
X15040000Y-6665000D01*
X15040000Y-7185000D02*
X15070000Y-7215000D01*
X15070000Y-7185000D02*
X15040000Y-7215000D01*
X15040000Y-8339342D02*
X15070000Y-8369342D01*
X15070000Y-8339342D02*
X15040000Y-8369342D01*
X15085000Y-7899000D02*
X15115000Y-7929000D01*
X15115000Y-7899000D02*
X15085000Y-7929000D01*
X15115000Y-6140000D02*
X15145000Y-6170000D01*
X15145000Y-6140000D02*
X15115000Y-6170000D01*
X15159000Y-9407000D02*
X15189000Y-9437000D01*
X15189000Y-9407000D02*
X15159000Y-9437000D01*
X15204000Y-6478000D02*
X15234000Y-6508000D01*
X15234000Y-6478000D02*
X15204000Y-6508000D01*
X15243426Y-7343426D02*
X15273426Y-7373426D01*
X15273426Y-7343426D02*
X15243426Y-7373426D01*
X15285000Y-5885000D02*
X15315000Y-5915000D01*
X15315000Y-5885000D02*
X15285000Y-5915000D01*
X15335000Y-9367000D02*
X15365000Y-9397000D01*
X15365000Y-9367000D02*
X15335000Y-9397000D01*
X15385000Y-10035000D02*
X15415000Y-10065000D01*
X15415000Y-10035000D02*
X15385000Y-10065000D01*
X15425000Y-10504000D02*
X15455000Y-10534000D01*
X15455000Y-10504000D02*
X15425000Y-10534000D01*
X15476000Y-9030000D02*
X15506000Y-9060000D01*
X15506000Y-9030000D02*
X15476000Y-9060000D01*
X15485000Y-5735000D02*
X15515000Y-5765000D01*
X15515000Y-5735000D02*
X15485000Y-5765000D01*
X15549000Y-6021000D02*
X15579000Y-6051000D01*
X15579000Y-6021000D02*
X15549000Y-6051000D01*
X15655000Y-8317000D02*
X15685000Y-8347000D01*
X15685000Y-8317000D02*
X15655000Y-8347000D01*
X15657000Y-10752000D02*
X15687000Y-10782000D01*
X15687000Y-10752000D02*
X15657000Y-10782000D01*
X15701000Y-9838000D02*
X15731000Y-9868000D01*
X15731000Y-9838000D02*
X15701000Y-9868000D01*
X15764679Y-7467355D02*
X15794679Y-7497355D01*
X15794679Y-7467355D02*
X15764679Y-7497355D01*
X15775073Y-4944927D02*
X15805073Y-4974927D01*
X15805073Y-4944927D02*
X15775073Y-4974927D01*
X15782000Y-8509000D02*
X15812000Y-8539000D01*
X15812000Y-8509000D02*
X15782000Y-8539000D01*
X15797000Y-8325000D02*
X15827000Y-8355000D01*
X15827000Y-8325000D02*
X15797000Y-8355000D01*
X15813000Y-10039000D02*
X15843000Y-10069000D01*
X15843000Y-10039000D02*
X15813000Y-10069000D01*
X15815600Y-7347400D02*
X15845600Y-7377400D01*
X15845600Y-7347400D02*
X15815600Y-7377400D01*
X15835000Y-5135000D02*
X15865000Y-5165000D01*
X15865000Y-5135000D02*
X15835000Y-5165000D01*
X15835000Y-7566882D02*
X15865000Y-7596882D01*
X15865000Y-7566882D02*
X15835000Y-7596882D01*
X15875000Y-10569000D02*
X15905000Y-10599000D01*
X15905000Y-10569000D02*
X15875000Y-10599000D01*
X15925000Y-7335000D02*
X15955000Y-7365000D01*
X15955000Y-7335000D02*
X15925000Y-7365000D01*
X15935000Y-7635000D02*
X15965000Y-7665000D01*
X15965000Y-7635000D02*
X15935000Y-7665000D01*
X15939926Y-5489927D02*
X15969926Y-5519927D01*
X15969926Y-5489927D02*
X15939926Y-5519927D01*
X15943000Y-7131000D02*
X15973000Y-7161000D01*
X15973000Y-7131000D02*
X15943000Y-7161000D01*
X15961000Y-7804000D02*
X15991000Y-7834000D01*
X15991000Y-7804000D02*
X15961000Y-7834000D01*
X15972426Y-8079426D02*
X16002426Y-8109426D01*
X16002426Y-8079426D02*
X15972426Y-8109426D01*
X15978000Y-5730000D02*
X16008000Y-5760000D01*
X16008000Y-5730000D02*
X15978000Y-5760000D01*
X15985000Y-7435000D02*
X16015000Y-7465000D01*
X16015000Y-7435000D02*
X15985000Y-7465000D01*
X15995000Y-7580147D02*
X16025000Y-7610147D01*
X16025000Y-7580147D02*
X15995000Y-7610147D01*
X15998297Y-5885093D02*
X16028297Y-5915093D01*
X16028297Y-5885093D02*
X15998297Y-5915093D01*
X16011000Y-10030000D02*
X16041000Y-10060000D01*
X16041000Y-10030000D02*
X16011000Y-10060000D01*
X16025000Y-7235000D02*
X16055000Y-7265000D01*
X16055000Y-7235000D02*
X16025000Y-7265000D01*
X16061000Y-7876000D02*
X16091000Y-7906000D01*
X16091000Y-7876000D02*
X16061000Y-7906000D01*
X16067000Y-6885000D02*
X16097000Y-6915000D01*
X16097000Y-6885000D02*
X16067000Y-6915000D01*
X16075000Y-7335000D02*
X16105000Y-7365000D01*
X16105000Y-7335000D02*
X16075000Y-7365000D01*
X16083000Y-8857000D02*
X16113000Y-8887000D01*
X16113000Y-8857000D02*
X16083000Y-8887000D01*
X16084000Y-5169000D02*
X16114000Y-5199000D01*
X16114000Y-5169000D02*
X16084000Y-5199000D01*
X16106000Y-9734000D02*
X16136000Y-9764000D01*
X16136000Y-9734000D02*
X16106000Y-9764000D01*
X16133000Y-7737000D02*
X16163000Y-7767000D01*
X16163000Y-7737000D02*
X16133000Y-7767000D01*
X16135000Y-7635000D02*
X16165000Y-7665000D01*
X16165000Y-7635000D02*
X16135000Y-7665000D01*
X16145000Y-7050147D02*
X16175000Y-7080147D01*
X16175000Y-7050147D02*
X16145000Y-7080147D01*
X16145000Y-7135000D02*
X16175000Y-7165000D01*
X16175000Y-7135000D02*
X16145000Y-7165000D01*
X16162000Y-10763000D02*
X16192000Y-10793000D01*
X16192000Y-10763000D02*
X16162000Y-10793000D01*
X16170000Y-7819000D02*
X16200000Y-7849000D01*
X16200000Y-7819000D02*
X16170000Y-7849000D01*
X16170000Y-8596000D02*
X16200000Y-8626000D01*
X16200000Y-8596000D02*
X16170000Y-8626000D01*
X16175000Y-7235000D02*
X16205000Y-7265000D01*
X16205000Y-7235000D02*
X16175000Y-7265000D01*
X16198000Y-10397000D02*
X16228000Y-10427000D01*
X16228000Y-10397000D02*
X16198000Y-10427000D01*
X16202000Y-6684700D02*
X16232000Y-6714700D01*
X16232000Y-6684700D02*
X16202000Y-6714700D01*
X16202000Y-10140000D02*
X16232000Y-10170000D01*
X16232000Y-10140000D02*
X16202000Y-10170000D01*
X16220000Y-10911000D02*
X16250000Y-10941000D01*
X16250000Y-10911000D02*
X16220000Y-10941000D01*
X16231000Y-8078000D02*
X16261000Y-8108000D01*
X16261000Y-8078000D02*
X16231000Y-8108000D01*
X16235000Y-6535000D02*
X16265000Y-6565000D01*
X16265000Y-6535000D02*
X16235000Y-6565000D01*
X16279000Y-8785000D02*
X16309000Y-8815000D01*
X16309000Y-8785000D02*
X16279000Y-8815000D01*
X16295000Y-7185000D02*
X16325000Y-7215000D01*
X16325000Y-7185000D02*
X16295000Y-7215000D01*
X16295000Y-7535000D02*
X16325000Y-7565000D01*
X16325000Y-7535000D02*
X16295000Y-7565000D01*
X16309000Y-11188000D02*
X16339000Y-11218000D01*
X16339000Y-11188000D02*
X16309000Y-11218000D01*
X16339000Y-9147000D02*
X16369000Y-9177000D01*
X16369000Y-9147000D02*
X16339000Y-9177000D01*
X16344000Y-7949000D02*
X16374000Y-7979000D01*
X16374000Y-7949000D02*
X16344000Y-7979000D01*
X16367000Y-11004000D02*
X16397000Y-11034000D01*
X16397000Y-11004000D02*
X16367000Y-11034000D01*
X16378073Y-8141926D02*
X16408073Y-8171926D01*
X16408073Y-8141926D02*
X16378073Y-8171926D01*
X16385000Y-6385000D02*
X16415000Y-6415000D01*
X16415000Y-6385000D02*
X16385000Y-6415000D01*
X16391000Y-10600000D02*
X16421000Y-10630000D01*
X16421000Y-10600000D02*
X16391000Y-10630000D01*
X16399000Y-8687000D02*
X16429000Y-8717000D01*
X16429000Y-8687000D02*
X16399000Y-8717000D01*
X16423000Y-5886209D02*
X16453000Y-5916209D01*
X16453000Y-5886209D02*
X16423000Y-5916209D01*
X16425000Y-6900147D02*
X16455000Y-6930147D01*
X16455000Y-6900147D02*
X16425000Y-6930147D01*
X16425000Y-6985000D02*
X16455000Y-7015000D01*
X16455000Y-6985000D02*
X16425000Y-7015000D01*
X16435000Y-7735000D02*
X16465000Y-7765000D01*
X16465000Y-7735000D02*
X16435000Y-7765000D01*
X16484500Y-8009000D02*
X16514500Y-8039000D01*
X16514500Y-8009000D02*
X16484500Y-8039000D01*
X16485000Y-6285000D02*
X16515000Y-6315000D01*
X16515000Y-6285000D02*
X16485000Y-6315000D01*
X16485000Y-6685000D02*
X16515000Y-6715000D01*
X16515000Y-6685000D02*
X16485000Y-6715000D01*
X16532000Y-5799000D02*
X16562000Y-5829000D01*
X16562000Y-5799000D02*
X16532000Y-5829000D01*
X16545000Y-5886209D02*
X16575000Y-5916209D01*
X16575000Y-5886209D02*
X16545000Y-5916209D01*
X16545000Y-7024153D02*
X16575000Y-7054153D01*
X16575000Y-7024153D02*
X16545000Y-7054153D01*
X16553500Y-7603500D02*
X16583500Y-7633500D01*
X16583500Y-7603500D02*
X16553500Y-7633500D01*
X16561000Y-6503000D02*
X16591000Y-6533000D01*
X16591000Y-6503000D02*
X16561000Y-6533000D01*
X16634576Y-6934576D02*
X16664576Y-6964576D01*
X16664576Y-6934576D02*
X16634576Y-6964576D01*
X16643573Y-6778426D02*
X16673573Y-6808426D01*
X16673573Y-6778426D02*
X16643573Y-6808426D01*
X16713000Y-5382000D02*
X16743000Y-5412000D01*
X16743000Y-5382000D02*
X16713000Y-5412000D01*
X16754000Y-10666000D02*
X16784000Y-10696000D01*
X16784000Y-10666000D02*
X16754000Y-10696000D01*
X16774000Y-6579000D02*
X16804000Y-6609000D01*
X16804000Y-6579000D02*
X16774000Y-6609000D01*
X16778000Y-10863000D02*
X16808000Y-10893000D01*
X16808000Y-10863000D02*
X16778000Y-10893000D01*
X16795000Y-7872000D02*
X16825000Y-7902000D01*
X16825000Y-7872000D02*
X16795000Y-7902000D01*
X16804000Y-6394000D02*
X16834000Y-6424000D01*
X16834000Y-6394000D02*
X16804000Y-6424000D01*
X16825231Y-7475231D02*
X16855231Y-7505231D01*
X16855231Y-7475231D02*
X16825231Y-7505231D01*
X16828000Y-8415000D02*
X16858000Y-8445000D01*
X16858000Y-8415000D02*
X16828000Y-8445000D01*
X16829192Y-6758035D02*
X16859192Y-6788035D01*
X16859192Y-6758035D02*
X16829192Y-6788035D01*
X16835000Y-7785000D02*
X16865000Y-7815000D01*
X16865000Y-7785000D02*
X16835000Y-7815000D01*
X16836500Y-5548647D02*
X16866500Y-5578647D01*
X16866500Y-5548647D02*
X16836500Y-5578647D01*
X16876000Y-9582000D02*
X16906000Y-9612000D01*
X16906000Y-9582000D02*
X16876000Y-9612000D01*
X16897000Y-6682000D02*
X16927000Y-6712000D01*
X16927000Y-6682000D02*
X16897000Y-6712000D01*
X16899773Y-6795696D02*
X16929773Y-6825696D01*
X16929773Y-6795696D02*
X16899773Y-6825696D01*
X16914723Y-6022907D02*
X16944723Y-6052907D01*
X16944723Y-6022907D02*
X16914723Y-6052907D01*
X16915074Y-5426074D02*
X16945074Y-5456074D01*
X16945074Y-5426074D02*
X16915074Y-5456074D01*
X16923241Y-6606426D02*
X16953241Y-6636426D01*
X16953241Y-6606426D02*
X16923241Y-6636426D01*
X16923876Y-6102382D02*
X16953876Y-6132382D01*
X16953876Y-6102382D02*
X16923876Y-6132382D01*
X16935000Y-6914900D02*
X16965000Y-6944900D01*
X16965000Y-6914900D02*
X16935000Y-6944900D01*
X16935000Y-7035000D02*
X16965000Y-7065000D01*
X16965000Y-7035000D02*
X16935000Y-7065000D01*
X16948000Y-5745000D02*
X16978000Y-5775000D01*
X16978000Y-5745000D02*
X16948000Y-5775000D01*
X16949000Y-5894000D02*
X16979000Y-5924000D01*
X16979000Y-5894000D02*
X16949000Y-5924000D01*
X16965074Y-7165073D02*
X16995074Y-7195073D01*
X16995074Y-7165073D02*
X16965074Y-7195073D01*
X17019000Y-7729000D02*
X17049000Y-7759000D01*
X17049000Y-7729000D02*
X17019000Y-7759000D01*
X17035000Y-7856000D02*
X17065000Y-7886000D01*
X17065000Y-7856000D02*
X17035000Y-7886000D01*
X17046024Y-6575500D02*
X17076024Y-6605500D01*
X17076024Y-6575500D02*
X17046024Y-6605500D01*
X17075000Y-7443000D02*
X17105000Y-7473000D01*
X17105000Y-7443000D02*
X17075000Y-7473000D01*
X17079000Y-10881000D02*
X17109000Y-10911000D01*
X17109000Y-10881000D02*
X17079000Y-10911000D01*
X17155152Y-5421472D02*
X17185152Y-5451472D01*
X17185152Y-5421472D02*
X17155152Y-5451472D01*
X17160000Y-11553000D02*
X17190000Y-11583000D01*
X17190000Y-11553000D02*
X17160000Y-11583000D01*
X17175100Y-5926000D02*
X17205100Y-5956000D01*
X17205100Y-5926000D02*
X17175100Y-5956000D01*
X17185000Y-11243000D02*
X17215000Y-11273000D01*
X17215000Y-11243000D02*
X17185000Y-11273000D01*
X17213000Y-7405000D02*
X17243000Y-7435000D01*
X17243000Y-7405000D02*
X17213000Y-7435000D01*
X17218000Y-6854148D02*
X17248000Y-6884148D01*
X17248000Y-6854148D02*
X17218000Y-6884148D01*
X17226000Y-5746000D02*
X17256000Y-5776000D01*
X17256000Y-5746000D02*
X17226000Y-5776000D01*
X17234000Y-5435000D02*
X17264000Y-5465000D01*
X17264000Y-5435000D02*
X17234000Y-5465000D01*
X17241699Y-9087699D02*
X17271699Y-9117699D01*
X17271699Y-9087699D02*
X17241699Y-9117699D01*
X17243000Y-6776000D02*
X17273000Y-6806000D01*
X17273000Y-6776000D02*
X17243000Y-6806000D01*
X17246324Y-6546323D02*
X17276324Y-6576323D01*
X17276324Y-6546323D02*
X17246324Y-6576323D01*
X17273384Y-5297242D02*
X17303384Y-5327242D01*
X17303384Y-5297242D02*
X17273384Y-5327242D01*
X17364647Y-6620500D02*
X17394647Y-6650500D01*
X17394647Y-6620500D02*
X17364647Y-6650500D01*
X17368000Y-5974000D02*
X17398000Y-6004000D01*
X17398000Y-5974000D02*
X17368000Y-6004000D01*
X17373000Y-5885000D02*
X17403000Y-5915000D01*
X17403000Y-5885000D02*
X17373000Y-5915000D01*
X17374000Y-5463000D02*
X17404000Y-5493000D01*
X17404000Y-5463000D02*
X17374000Y-5493000D01*
X17393911Y-5341764D02*
X17423911Y-5371764D01*
X17423911Y-5341764D02*
X17393911Y-5371764D01*
X17428927Y-5207074D02*
X17458927Y-5237074D01*
X17458927Y-5207074D02*
X17428927Y-5237074D01*
X17446000Y-7916000D02*
X17476000Y-7946000D01*
X17476000Y-7916000D02*
X17446000Y-7946000D01*
X17452492Y-5876000D02*
X17482492Y-5906000D01*
X17482492Y-5876000D02*
X17452492Y-5906000D01*
X17516000Y-6687000D02*
X17546000Y-6717000D01*
X17546000Y-6687000D02*
X17516000Y-6717000D01*
X17583000Y-9408000D02*
X17613000Y-9438000D01*
X17613000Y-9408000D02*
X17583000Y-9438000D01*
X17625000Y-9750000D02*
X17655000Y-9780000D01*
X17655000Y-9750000D02*
X17625000Y-9780000D01*
X17643927Y-6643926D02*
X17673927Y-6673926D01*
X17673927Y-6643926D02*
X17643927Y-6673926D01*
X17652927Y-5217074D02*
X17682927Y-5247074D01*
X17682927Y-5217074D02*
X17652927Y-5247074D01*
X17678000Y-7009000D02*
X17708000Y-7039000D01*
X17708000Y-7009000D02*
X17678000Y-7039000D01*
X17684000Y-7403000D02*
X17714000Y-7433000D01*
X17714000Y-7403000D02*
X17684000Y-7433000D01*
X17746813Y-5789449D02*
X17776813Y-5819449D01*
X17776813Y-5789449D02*
X17746813Y-5819449D01*
X17754302Y-9090699D02*
X17784302Y-9120699D01*
X17784302Y-9090699D02*
X17754302Y-9120699D01*
X17785000Y-6253000D02*
X17815000Y-6283000D01*
X17815000Y-6253000D02*
X17785000Y-6283000D01*
X17835000Y-5885000D02*
X17865000Y-5915000D01*
X17865000Y-5885000D02*
X17835000Y-5915000D01*
X17863000Y-9967000D02*
X17893000Y-9997000D01*
X17893000Y-9967000D02*
X17863000Y-9997000D01*
X17865427Y-5537574D02*
X17895427Y-5567574D01*
X17895427Y-5537574D02*
X17865427Y-5567574D01*
X17885000Y-6045000D02*
X17915000Y-6075000D01*
X17915000Y-6045000D02*
X17885000Y-6075000D01*
X17906377Y-6262221D02*
X17936377Y-6292221D01*
X17936377Y-6262221D02*
X17906377Y-6292221D01*
X17929826Y-6122994D02*
X17959826Y-6152994D01*
X17959826Y-6122994D02*
X17929826Y-6152994D01*
X17935000Y-5925000D02*
X17965000Y-5955000D01*
X17965000Y-5925000D02*
X17935000Y-5955000D01*
X17964000Y-6546000D02*
X17994000Y-6576000D01*
X17994000Y-6546000D02*
X17964000Y-6576000D01*
X17985000Y-6277000D02*
X18015000Y-6307000D01*
X18015000Y-6277000D02*
X17985000Y-6307000D01*
X17990000Y-6762000D02*
X18020000Y-6792000D01*
X18020000Y-6762000D02*
X17990000Y-6792000D01*
X17994971Y-5525555D02*
X18024971Y-5555555D01*
X18024971Y-5525555D02*
X17994971Y-5555555D01*
X18008000Y-6106000D02*
X18038000Y-6136000D01*
X18038000Y-6106000D02*
X18008000Y-6136000D01*
X18069000Y-5795000D02*
X18099000Y-5825000D01*
X18099000Y-5795000D02*
X18069000Y-5825000D01*
X18114000Y-5591000D02*
X18144000Y-5621000D01*
X18144000Y-5591000D02*
X18114000Y-5621000D01*
X18135000Y-5985000D02*
X18165000Y-6015000D01*
X18165000Y-5985000D02*
X18135000Y-6015000D01*
X18181000Y-5838000D02*
X18211000Y-5868000D01*
X18211000Y-5838000D02*
X18181000Y-5868000D01*
X18257000Y-5572000D02*
X18287000Y-5602000D01*
X18287000Y-5572000D02*
X18257000Y-5602000D01*
X18268000Y-6292000D02*
X18298000Y-6322000D01*
X18298000Y-6292000D02*
X18268000Y-6322000D01*
X18335000Y-5835000D02*
X18365000Y-5865000D01*
X18365000Y-5835000D02*
X18335000Y-5865000D01*
X18403000Y-6273000D02*
X18433000Y-6303000D01*
X18433000Y-6273000D02*
X18403000Y-6303000D01*
X18512000Y-6042000D02*
X18542000Y-6072000D01*
X18542000Y-6042000D02*
X18512000Y-6072000D01*
X18557000Y-6684000D02*
X18587000Y-6714000D01*
X18587000Y-6684000D02*
X18557000Y-6714000D01*
X18617000Y-6316000D02*
X18647000Y-6346000D01*
X18647000Y-6316000D02*
X18617000Y-6346000D01*
X18681000Y-5700000D02*
X18711000Y-5730000D01*
X18711000Y-5700000D02*
X18681000Y-5730000D01*
X18690000Y-6113000D02*
X18720000Y-6143000D01*
X18720000Y-6113000D02*
X18690000Y-6143000D01*
X18717000Y-6565000D02*
X18747000Y-6595000D01*
X18747000Y-6565000D02*
X18717000Y-6595000D01*
X18770000Y-9507000D02*
X18800000Y-9537000D01*
X18800000Y-9507000D02*
X18770000Y-9537000D01*
X18775000Y-6314000D02*
X18805000Y-6344000D01*
X18805000Y-6314000D02*
X18775000Y-6344000D01*
X18811000Y-7084000D02*
X18841000Y-7114000D01*
X18841000Y-7084000D02*
X18811000Y-7114000D01*
X18888000Y-5805000D02*
X18918000Y-5835000D01*
X18918000Y-5805000D02*
X18888000Y-5835000D01*
X19289427Y-6730573D02*
X19319427Y-6760573D01*
X19319427Y-6730573D02*
X19289427Y-6760573D01*
X19375000Y-6276000D02*
X19405000Y-6306000D01*
X19405000Y-6276000D02*
X19375000Y-6306000D01*
X19385000Y-7185000D02*
X19415000Y-7215000D01*
X19415000Y-7185000D02*
X19385000Y-7215000D01*
X19435000Y-5263000D02*
X19465000Y-5293000D01*
X19465000Y-5263000D02*
X19435000Y-5293000D01*
X19485000Y-7685000D02*
X19515000Y-7715000D01*
X19515000Y-7685000D02*
X19485000Y-7715000D01*
X19521000Y-7169000D02*
X19551000Y-7199000D01*
X19551000Y-7169000D02*
X19521000Y-7199000D01*
X19528000Y-10646000D02*
X19558000Y-10676000D01*
X19558000Y-10646000D02*
X19528000Y-10676000D01*
X19535000Y-7535000D02*
X19565000Y-7565000D01*
X19565000Y-7535000D02*
X19535000Y-7565000D01*
X19720000Y-7956000D02*
X19750000Y-7986000D01*
X19750000Y-7956000D02*
X19720000Y-7986000D01*
X19733000Y-7037000D02*
X19763000Y-7067000D01*
X19763000Y-7037000D02*
X19733000Y-7067000D01*
X19742000Y-5730000D02*
X19772000Y-5760000D01*
X19772000Y-5730000D02*
X19742000Y-5760000D01*
X19815000Y-7523000D02*
X19845000Y-7553000D01*
X19845000Y-7523000D02*
X19815000Y-7553000D01*
X19867000Y-8470000D02*
X19897000Y-8500000D01*
X19897000Y-8470000D02*
X19867000Y-8500000D01*
X19895574Y-7946573D02*
X19925574Y-7976573D01*
X19925574Y-7946573D02*
X19895574Y-7976573D01*
X20050000Y-9201000D02*
X20080000Y-9231000D01*
X20080000Y-9201000D02*
X20050000Y-9231000D01*
X20086000Y-8039000D02*
X20116000Y-8069000D01*
X20116000Y-8039000D02*
X20086000Y-8069000D01*
X20168000Y-7946000D02*
X20198000Y-7976000D01*
X20198000Y-7946000D02*
X20168000Y-7976000D01*
X20179000Y-7048000D02*
X20209000Y-7078000D01*
X20209000Y-7048000D02*
X20179000Y-7078000D01*
X20258000Y-8656000D02*
X20288000Y-8686000D01*
X20288000Y-8656000D02*
X20258000Y-8686000D01*
X20334000Y-9070000D02*
X20364000Y-9100000D01*
X20364000Y-9070000D02*
X20334000Y-9100000D01*
X20382000Y-8054000D02*
X20412000Y-8084000D01*
X20412000Y-8054000D02*
X20382000Y-8084000D01*
X20431000Y-7821000D02*
X20461000Y-7851000D01*
X20461000Y-7821000D02*
X20431000Y-7851000D01*
X20473000Y-7601147D02*
X20503000Y-7631147D01*
X20503000Y-7601147D02*
X20473000Y-7631147D01*
X20514000Y-9404000D02*
X20544000Y-9434000D01*
X20544000Y-9404000D02*
X20514000Y-9434000D01*
X20587000Y-6607000D02*
X20617000Y-6637000D01*
X20617000Y-6607000D02*
X20587000Y-6637000D01*
X20599000Y-6928000D02*
X20629000Y-6958000D01*
X20629000Y-6928000D02*
X20599000Y-6958000D01*
X20613000Y-6163000D02*
X20643000Y-6193000D01*
X20643000Y-6163000D02*
X20613000Y-6193000D01*
X20614000Y-7827000D02*
X20644000Y-7857000D01*
X20644000Y-7827000D02*
X20614000Y-7857000D01*
X20672000Y-10894000D02*
X20702000Y-10924000D01*
X20702000Y-10894000D02*
X20672000Y-10924000D01*
X20704000Y-8169000D02*
X20734000Y-8199000D01*
X20734000Y-8169000D02*
X20704000Y-8199000D01*
X20761000Y-8109000D02*
X20791000Y-8139000D01*
X20791000Y-8109000D02*
X20761000Y-8139000D01*
X20857000Y-8954000D02*
X20887000Y-8984000D01*
X20887000Y-8954000D02*
X20857000Y-8984000D01*
X20912000Y-8523000D02*
X20942000Y-8553000D01*
X20942000Y-8523000D02*
X20912000Y-8553000D01*
X20985000Y-6764000D02*
X21015000Y-6794000D01*
X21015000Y-6764000D02*
X20985000Y-6794000D01*
X21048000Y-7849000D02*
X21078000Y-7879000D01*
X21078000Y-7849000D02*
X21048000Y-7879000D01*
X21055000Y-8952000D02*
X21085000Y-8982000D01*
X21085000Y-8952000D02*
X21055000Y-8982000D01*
X21164000Y-8073000D02*
X21194000Y-8103000D01*
X21194000Y-8073000D02*
X21164000Y-8103000D01*
X21259000Y-7754000D02*
X21289000Y-7784000D01*
X21289000Y-7754000D02*
X21259000Y-7784000D01*
X21410000Y-8004000D02*
X21440000Y-8034000D01*
X21440000Y-8004000D02*
X21410000Y-8034000D01*
X21447000Y-6838000D02*
X21477000Y-6868000D01*
X21477000Y-6838000D02*
X21447000Y-6868000D01*
X21635000Y-6457000D02*
X21665000Y-6487000D01*
X21665000Y-6457000D02*
X21635000Y-6487000D01*
X21659000Y-7435000D02*
X21689000Y-7465000D01*
X21689000Y-7435000D02*
X21659000Y-7465000D01*
X21660000Y-6307000D02*
X21690000Y-6337000D01*
X21690000Y-6307000D02*
X21660000Y-6337000D01*
X21735000Y-7068000D02*
X21765000Y-7098000D01*
X21765000Y-7068000D02*
X21735000Y-7098000D01*
X21903000Y-8609000D02*
X21933000Y-8639000D01*
X21933000Y-8609000D02*
X21903000Y-8639000D01*
X21905000Y-7327000D02*
X21935000Y-7357000D01*
X21935000Y-7327000D02*
X21905000Y-7357000D01*
X21917000Y-7580000D02*
X21947000Y-7610000D01*
X21947000Y-7580000D02*
X21917000Y-7610000D01*
X22212000Y-7357000D02*
X22242000Y-7387000D01*
X22242000Y-7357000D02*
X22212000Y-7387000D01*
X22241000Y-8263000D02*
X22271000Y-8293000D01*
X22271000Y-8263000D02*
X22241000Y-8293000D01*
X22553000Y-8407000D02*
X22583000Y-8437000D01*
X22583000Y-8407000D02*
X22553000Y-8437000D01*
X22767000Y-8158000D02*
X22797000Y-8188000D01*
X22797000Y-8158000D02*
X22767000Y-8188000D01*
X8854774Y-8310249D02*
G75*
G02*
X8794774Y-8310249I-30000J0D01*
G01*
X8794774Y-8310249D02*
G75*
G02*
X8854774Y-8310249I30000J0D01*
G01*
X8790591Y-8346739D02*
X8869376Y-8332847D01*
X8858957Y-8273758D02*
G75*
G02*
X8869376Y-8332847I5209J-29544D01*
G01*
X8858957Y-8273758D02*
X8780173Y-8287650D01*
X8780173Y-8287650D02*
G75*
G03*
X8790591Y-8346739I5209J-29544D01*
G01*
X9004806Y-9161123D02*
G75*
G02*
X8944806Y-9161123I-30000J0D01*
G01*
X8944806Y-9161123D02*
G75*
G02*
X9004806Y-9161123I30000J0D01*
G01*
X8940623Y-9197613D02*
X9019408Y-9183721D01*
X9008989Y-9124632D02*
G75*
G02*
X9019408Y-9183721I5209J-29544D01*
G01*
X9008989Y-9124632D02*
X8930205Y-9138524D01*
X8930205Y-9138524D02*
G75*
G03*
X8940623Y-9197613I5209J-29544D01*
G01*
X9265439Y-8237837D02*
G75*
G02*
X9205439Y-8237837I-30000J0D01*
G01*
X9205439Y-8237837D02*
G75*
G02*
X9265439Y-8237837I30000J0D01*
G01*
X9186484Y-8276932D02*
X9294813Y-8257831D01*
X9284394Y-8198743D02*
G75*
G02*
X9294813Y-8257831I5209J-29544D01*
G01*
X9284394Y-8198742D02*
X9176065Y-8217844D01*
X9176065Y-8217844D02*
G75*
G03*
X9186484Y-8276932I5209J-29544D01*
G01*
X9415471Y-9088711D02*
G75*
G02*
X9355471Y-9088711I-30000J0D01*
G01*
X9355471Y-9088711D02*
G75*
G02*
X9415471Y-9088711I30000J0D01*
G01*
X9336516Y-9127806D02*
X9444845Y-9108705D01*
X9434426Y-9049617D02*
G75*
G02*
X9444845Y-9108705I5209J-29544D01*
G01*
X9434426Y-9049616D02*
X9326097Y-9068718D01*
X9326097Y-9068718D02*
G75*
G03*
X9336516Y-9127806I5209J-29544D01*
G01*
X9911370Y-7002269D02*
X9911370Y-7077269D01*
X9873870Y-7039769D02*
X9948870Y-7039769D01*
X10102631Y-6943794D02*
X10102631Y-7018794D01*
X10065131Y-6981294D02*
X10140131Y-6981294D01*
X10293892Y-6885320D02*
X10293892Y-6960320D01*
X10256392Y-6922820D02*
X10331392Y-6922820D01*
X12045211Y-6480269D02*
X12045211Y-6555269D01*
X12007711Y-6517769D02*
X12082711Y-6517769D01*
X12236472Y-6421795D02*
X12236472Y-6496795D01*
X12198972Y-6459295D02*
X12273972Y-6459295D01*
X12427733Y-6363321D02*
X12427733Y-6438321D01*
X12390233Y-6400821D02*
X12465233Y-6400821D01*
X5150820Y-7346820D02*
X5150820Y-7283180D01*
X5087180Y-7283180D01*
X5087180Y-7346820D01*
X5150820Y-7346820D01*
X5277820Y-7346820D02*
X5277820Y-7283180D01*
X5214180Y-7283180D01*
X5214180Y-7346820D01*
X5277820Y-7346820D01*
X5404820Y-7346820D02*
X5404820Y-7283180D01*
X5341180Y-7283180D01*
X5341180Y-7346820D01*
X5404820Y-7346820D01*
X5531820Y-7346820D02*
X5531820Y-7283180D01*
X5468180Y-7283180D01*
X5468180Y-7346820D01*
X5531820Y-7346820D01*
X6327320Y-9513820D02*
X6327320Y-9450180D01*
X6263680Y-9450180D01*
X6263680Y-9513820D01*
X6327320Y-9513820D01*
X6454320Y-9513820D02*
X6454320Y-9450180D01*
X6390680Y-9450180D01*
X6390680Y-9513820D01*
X6454320Y-9513820D01*
X6581320Y-9513820D02*
X6581320Y-9450180D01*
X6517680Y-9450180D01*
X6517680Y-9513820D01*
X6581320Y-9513820D01*
X6664820Y-6291820D02*
X6664820Y-6228180D01*
X6601180Y-6228180D01*
X6601180Y-6291820D01*
X6664820Y-6291820D01*
X6708320Y-9513820D02*
X6708320Y-9450180D01*
X6644680Y-9450180D01*
X6644680Y-9513820D01*
X6708320Y-9513820D01*
X6791820Y-6291820D02*
X6791820Y-6228180D01*
X6728180Y-6228180D01*
X6728180Y-6291820D01*
X6791820Y-6291820D01*
X6918820Y-6291820D02*
X6918820Y-6228180D01*
X6855180Y-6228180D01*
X6855180Y-6291820D01*
X6918820Y-6291820D01*
X7045820Y-6291820D02*
X7045820Y-6228180D01*
X6982180Y-6228180D01*
X6982180Y-6291820D01*
X7045820Y-6291820D01*
X7721820Y-7269820D02*
X7721820Y-7206180D01*
X7658180Y-7206180D01*
X7658180Y-7269820D01*
X7721820Y-7269820D01*
X7749820Y-10083820D02*
X7749820Y-10020180D01*
X7686180Y-10020180D01*
X7686180Y-10083820D01*
X7749820Y-10083820D01*
X7848820Y-7269820D02*
X7848820Y-7206180D01*
X7785180Y-7206180D01*
X7785180Y-7269820D01*
X7848820Y-7269820D01*
X7876820Y-10083820D02*
X7876820Y-10020180D01*
X7813180Y-10020180D01*
X7813180Y-10083820D01*
X7876820Y-10083820D01*
X7975820Y-7269820D02*
X7975820Y-7206180D01*
X7912180Y-7206180D01*
X7912180Y-7269820D01*
X7975820Y-7269820D01*
X8003820Y-10083820D02*
X8003820Y-10020180D01*
X7940180Y-10020180D01*
X7940180Y-10083820D01*
X8003820Y-10083820D01*
X8102820Y-7269820D02*
X8102820Y-7206180D01*
X8039180Y-7206180D01*
X8039180Y-7269820D01*
X8102820Y-7269820D01*
X8130820Y-10083820D02*
X8130820Y-10020180D01*
X8067180Y-10020180D01*
X8067180Y-10083820D01*
X8130820Y-10083820D01*
X8805320Y-7007820D02*
X8805320Y-6944180D01*
X8741680Y-6944180D01*
X8741680Y-7007820D01*
X8805320Y-7007820D01*
X8932320Y-7007820D02*
X8932320Y-6944180D01*
X8868680Y-6944180D01*
X8868680Y-7007820D01*
X8932320Y-7007820D01*
X9059320Y-7007820D02*
X9059320Y-6944180D01*
X8995680Y-6944180D01*
X8995680Y-7007820D01*
X9059320Y-7007820D01*
X9186320Y-7007820D02*
X9186320Y-6944180D01*
X9122680Y-6944180D01*
X9122680Y-7007820D01*
X9186320Y-7007820D01*
X9379820Y-10450820D02*
X9379820Y-10387180D01*
X9316180Y-10387180D01*
X9316180Y-10450820D01*
X9379820Y-10450820D01*
X9506820Y-10450820D02*
X9506820Y-10387180D01*
X9443180Y-10387180D01*
X9443180Y-10450820D01*
X9506820Y-10450820D01*
X9633820Y-10450820D02*
X9633820Y-10387180D01*
X9570180Y-10387180D01*
X9570180Y-10450820D01*
X9633820Y-10450820D01*
X9760820Y-10450820D02*
X9760820Y-10387180D01*
X9697180Y-10387180D01*
X9697180Y-10450820D01*
X9760820Y-10450820D01*
X10864320Y-10832820D02*
X10864320Y-10769180D01*
X10800680Y-10769180D01*
X10800680Y-10832820D01*
X10864320Y-10832820D01*
X10991320Y-10832820D02*
X10991320Y-10769180D01*
X10927680Y-10769180D01*
X10927680Y-10832820D01*
X10991320Y-10832820D01*
X11002320Y-6406820D02*
X11002320Y-6343180D01*
X10938680Y-6343180D01*
X10938680Y-6406820D01*
X11002320Y-6406820D01*
X11118320Y-10832820D02*
X11118320Y-10769180D01*
X11054680Y-10769180D01*
X11054680Y-10832820D01*
X11118320Y-10832820D01*
X11129320Y-6406820D02*
X11129320Y-6343180D01*
X11065680Y-6343180D01*
X11065680Y-6406820D01*
X11129320Y-6406820D01*
X11245320Y-10832820D02*
X11245320Y-10769180D01*
X11181680Y-10769180D01*
X11181680Y-10832820D01*
X11245320Y-10832820D01*
X11256320Y-6406820D02*
X11256320Y-6343180D01*
X11192680Y-6343180D01*
X11192680Y-6406820D01*
X11256320Y-6406820D01*
X11383320Y-6406820D02*
X11383320Y-6343180D01*
X11319680Y-6343180D01*
X11319680Y-6406820D01*
X11383320Y-6406820D01*
X12419320Y-11174820D02*
X12419320Y-11111180D01*
X12355680Y-11111180D01*
X12355680Y-11174820D01*
X12419320Y-11174820D01*
X12546320Y-11174820D02*
X12546320Y-11111180D01*
X12482680Y-11111180D01*
X12482680Y-11174820D01*
X12546320Y-11174820D01*
X12673320Y-11174820D02*
X12673320Y-11111180D01*
X12609680Y-11111180D01*
X12609680Y-11174820D01*
X12673320Y-11174820D01*
X12800320Y-11174820D02*
X12800320Y-11111180D01*
X12736680Y-11111180D01*
X12736680Y-11174820D01*
X12800320Y-11174820D01*
X12948820Y-5871820D02*
X12948820Y-5808180D01*
X12885180Y-5808180D01*
X12885180Y-5871820D01*
X12948820Y-5871820D01*
X13075820Y-5871820D02*
X13075820Y-5808180D01*
X13012180Y-5808180D01*
X13012180Y-5871820D01*
X13075820Y-5871820D01*
X13202820Y-5871820D02*
X13202820Y-5808180D01*
X13139180Y-5808180D01*
X13139180Y-5871820D01*
X13202820Y-5871820D01*
X13329820Y-5871820D02*
X13329820Y-5808180D01*
X13266180Y-5808180D01*
X13266180Y-5871820D01*
X13329820Y-5871820D01*
X13843820Y-11411820D02*
X13843820Y-11348180D01*
X13780180Y-11348180D01*
X13780180Y-11411820D01*
X13843820Y-11411820D01*
X13970820Y-11411820D02*
X13970820Y-11348180D01*
X13907180Y-11348180D01*
X13907180Y-11411820D01*
X13970820Y-11411820D01*
X14097820Y-11411820D02*
X14097820Y-11348180D01*
X14034180Y-11348180D01*
X14034180Y-11411820D01*
X14097820Y-11411820D01*
X14224820Y-11411820D02*
X14224820Y-11348180D01*
X14161180Y-11348180D01*
X14161180Y-11411820D01*
X14224820Y-11411820D01*
X15400320Y-11386820D02*
X15400320Y-11323180D01*
X15336680Y-11323180D01*
X15336680Y-11386820D01*
X15400320Y-11386820D01*
X15527320Y-11386820D02*
X15527320Y-11323180D01*
X15463680Y-11323180D01*
X15463680Y-11386820D01*
X15527320Y-11386820D01*
X15654320Y-11386820D02*
X15654320Y-11323180D01*
X15590680Y-11323180D01*
X15590680Y-11386820D01*
X15654320Y-11386820D01*
X15781320Y-11386820D02*
X15781320Y-11323180D01*
X15717680Y-11323180D01*
X15717680Y-11386820D01*
X15781320Y-11386820D01*
X19686820Y-6529820D02*
X19686820Y-6466180D01*
X19623180Y-6466180D01*
X19623180Y-6529820D01*
X19686820Y-6529820D01*
X19813820Y-6529820D02*
X19813820Y-6466180D01*
X19750180Y-6466180D01*
X19750180Y-6529820D01*
X19813820Y-6529820D01*
X19940820Y-6529820D02*
X19940820Y-6466180D01*
X19877180Y-6466180D01*
X19877180Y-6529820D01*
X19940820Y-6529820D01*
X20067820Y-6529820D02*
X20067820Y-6466180D01*
X20004180Y-6466180D01*
X20004180Y-6529820D01*
X20067820Y-6529820D01*
X21008820Y-6426820D02*
X21008820Y-6363180D01*
X20945180Y-6363180D01*
X20945180Y-6426820D01*
X21008820Y-6426820D01*
X21133820Y-7377820D02*
X21133820Y-7314180D01*
X21070180Y-7314180D01*
X21070180Y-7377820D01*
X21133820Y-7377820D01*
X21135820Y-6426820D02*
X21135820Y-6363180D01*
X21072180Y-6363180D01*
X21072180Y-6426820D01*
X21135820Y-6426820D01*
X21260820Y-7377820D02*
X21260820Y-7314180D01*
X21197180Y-7314180D01*
X21197180Y-7377820D01*
X21260820Y-7377820D01*
X21262820Y-6426820D02*
X21262820Y-6363180D01*
X21199180Y-6363180D01*
X21199180Y-6426820D01*
X21262820Y-6426820D01*
X21387820Y-7377820D02*
X21387820Y-7314180D01*
X21324180Y-7314180D01*
X21324180Y-7377820D01*
X21387820Y-7377820D01*
X21389820Y-6426820D02*
X21389820Y-6363180D01*
X21326180Y-6363180D01*
X21326180Y-6426820D01*
X21389820Y-6426820D01*
X21514820Y-7377820D02*
X21514820Y-7314180D01*
X21451180Y-7314180D01*
X21451180Y-7377820D01*
X21514820Y-7377820D01*
X21716820Y-8265820D02*
X21716820Y-8202180D01*
X21653180Y-8202180D01*
X21653180Y-8265820D01*
X21716820Y-8265820D01*
X21843820Y-8265820D02*
X21843820Y-8202180D01*
X21780180Y-8202180D01*
X21780180Y-8265820D01*
X21843820Y-8265820D01*
X21970820Y-8265820D02*
X21970820Y-8202180D01*
X21907180Y-8202180D01*
X21907180Y-8265820D01*
X21970820Y-8265820D01*
X22097820Y-8265820D02*
X22097820Y-8202180D01*
X22034180Y-8202180D01*
X22034180Y-8265820D01*
X22097820Y-8265820D01*
X22485320Y-8861820D02*
X22485320Y-8798180D01*
X22421680Y-8798180D01*
X22421680Y-8861820D01*
X22485320Y-8861820D01*
X22612320Y-8861820D02*
X22612320Y-8798180D01*
X22548680Y-8798180D01*
X22548680Y-8861820D01*
X22612320Y-8861820D01*
X22739320Y-8861820D02*
X22739320Y-8798180D01*
X22675680Y-8798180D01*
X22675680Y-8861820D01*
X22739320Y-8861820D01*
X22866320Y-8861820D02*
X22866320Y-8798180D01*
X22802680Y-8798180D01*
X22802680Y-8861820D01*
X22866320Y-8861820D01*
X24042320Y-6772820D02*
X24042320Y-6709180D01*
X23978680Y-6709180D01*
X23978680Y-6772820D01*
X24042320Y-6772820D01*
X24143820Y-9840820D02*
X24143820Y-9777180D01*
X24080180Y-9777180D01*
X24080180Y-9840820D01*
X24143820Y-9840820D01*
X24169320Y-6772820D02*
X24169320Y-6709180D01*
X24105680Y-6709180D01*
X24105680Y-6772820D01*
X24169320Y-6772820D01*
X24270820Y-9840820D02*
X24270820Y-9777180D01*
X24207180Y-9777180D01*
X24207180Y-9840820D01*
X24270820Y-9840820D01*
X24296320Y-6772820D02*
X24296320Y-6709180D01*
X24232680Y-6709180D01*
X24232680Y-6772820D01*
X24296320Y-6772820D01*
X24397820Y-9840820D02*
X24397820Y-9777180D01*
X24334180Y-9777180D01*
X24334180Y-9840820D01*
X24397820Y-9840820D01*
X24423320Y-6772820D02*
X24423320Y-6709180D01*
X24359680Y-6709180D01*
X24359680Y-6772820D01*
X24423320Y-6772820D01*
X24524820Y-9840820D02*
X24524820Y-9777180D01*
X24461180Y-9777180D01*
X24461180Y-9840820D01*
X24524820Y-9840820D01*
X5731723Y-6306449D02*
X5781723Y-6256449D01*
X5731723Y-6206449D01*
X5681723Y-6256449D01*
X5731723Y-6306449D01*
X5775830Y-6056308D02*
X5825830Y-6006308D01*
X5775830Y-5956308D01*
X5725830Y-6006308D01*
X5775830Y-6056308D01*
X5819937Y-5806167D02*
X5869937Y-5756167D01*
X5819937Y-5706167D01*
X5769937Y-5756167D01*
X5819937Y-5806167D01*
X5981865Y-6350556D02*
X6031865Y-6300556D01*
X5981865Y-6250556D01*
X5931865Y-6300556D01*
X5981865Y-6350556D01*
X6025971Y-6100415D02*
X6075971Y-6050415D01*
X6025971Y-6000415D01*
X5975971Y-6050415D01*
X6025971Y-6100415D01*
X6070078Y-5850273D02*
X6120078Y-5800273D01*
X6070078Y-5750273D01*
X6020078Y-5800273D01*
X6070078Y-5850273D01*
X13653466Y-8354153D02*
X13703466Y-8304153D01*
X13653466Y-8254153D01*
X13603466Y-8304153D01*
X13653466Y-8354153D01*
X13740339Y-8115471D02*
X13790339Y-8065471D01*
X13740339Y-8015471D01*
X13690339Y-8065471D01*
X13740339Y-8115471D01*
X13827212Y-7876789D02*
X13877212Y-7826789D01*
X13827212Y-7776789D01*
X13777212Y-7826789D01*
X13827212Y-7876789D01*
X13914085Y-7638107D02*
X13964085Y-7588107D01*
X13914085Y-7538107D01*
X13864085Y-7588107D01*
X13914085Y-7638107D01*
X14000959Y-7399425D02*
X14050959Y-7349425D01*
X14000959Y-7299425D01*
X13950959Y-7349425D01*
X14000959Y-7399425D01*
X14087832Y-7160743D02*
X14137832Y-7110743D01*
X14087832Y-7060743D01*
X14037832Y-7110743D01*
X14087832Y-7160743D01*
X14174705Y-6922061D02*
X14224705Y-6872061D01*
X14174705Y-6822061D01*
X14124705Y-6872061D01*
X14174705Y-6922061D01*
X14261578Y-6683380D02*
X14311578Y-6633380D01*
X14261578Y-6583380D01*
X14211578Y-6633380D01*
X14261578Y-6683380D01*
X14348451Y-6444698D02*
X14398451Y-6394698D01*
X14348451Y-6344698D01*
X14298451Y-6394698D01*
X14348451Y-6444698D01*
X14435324Y-6206016D02*
X14485324Y-6156016D01*
X14435324Y-6106016D01*
X14385324Y-6156016D01*
X14435324Y-6206016D01*
X14522197Y-5967334D02*
X14572197Y-5917334D01*
X14522197Y-5867334D01*
X14472197Y-5917334D01*
X14522197Y-5967334D01*
X14609070Y-5728652D02*
X14659070Y-5678652D01*
X14609070Y-5628652D01*
X14559070Y-5678652D01*
X14609070Y-5728652D01*
X14695944Y-5489970D02*
X14745944Y-5439970D01*
X14695944Y-5389970D01*
X14645944Y-5439970D01*
X14695944Y-5489970D01*
X14782817Y-5251288D02*
X14832817Y-5201288D01*
X14782817Y-5151288D01*
X14732817Y-5201288D01*
X14782817Y-5251288D01*
X14869690Y-5012606D02*
X14919690Y-4962606D01*
X14869690Y-4912606D01*
X14819690Y-4962606D01*
X14869690Y-5012606D01*
X15085558Y-8875392D02*
X15135558Y-8825392D01*
X15085558Y-8775392D01*
X15035558Y-8825392D01*
X15085558Y-8875392D01*
X15172431Y-8636710D02*
X15222431Y-8586710D01*
X15172431Y-8536710D01*
X15122431Y-8586710D01*
X15172431Y-8636710D01*
X15259304Y-8398028D02*
X15309304Y-8348028D01*
X15259304Y-8298028D01*
X15209304Y-8348028D01*
X15259304Y-8398028D01*
X15346177Y-8159346D02*
X15396177Y-8109346D01*
X15346177Y-8059346D01*
X15296177Y-8109346D01*
X15346177Y-8159346D01*
X15433050Y-7920664D02*
X15483050Y-7870664D01*
X15433050Y-7820664D01*
X15383050Y-7870664D01*
X15433050Y-7920664D01*
X15519923Y-7681982D02*
X15569923Y-7631982D01*
X15519923Y-7581982D01*
X15469923Y-7631982D01*
X15519923Y-7681982D01*
X15606796Y-7443300D02*
X15656796Y-7393300D01*
X15606796Y-7343300D01*
X15556796Y-7393300D01*
X15606796Y-7443300D01*
X15693670Y-7204618D02*
X15743670Y-7154618D01*
X15693670Y-7104618D01*
X15643670Y-7154618D01*
X15693670Y-7204618D01*
X15780543Y-6965936D02*
X15830543Y-6915936D01*
X15780543Y-6865936D01*
X15730543Y-6915936D01*
X15780543Y-6965936D01*
X15867416Y-6727254D02*
X15917416Y-6677254D01*
X15867416Y-6627254D01*
X15817416Y-6677254D01*
X15867416Y-6727254D01*
X15954289Y-6488572D02*
X16004289Y-6438572D01*
X15954289Y-6388572D01*
X15904289Y-6438572D01*
X15954289Y-6488572D01*
X16041162Y-6249891D02*
X16091162Y-6199891D01*
X16041162Y-6149891D01*
X15991162Y-6199891D01*
X16041162Y-6249891D01*
X16128035Y-6011209D02*
X16178035Y-5961209D01*
X16128035Y-5911209D01*
X16078035Y-5961209D01*
X16128035Y-6011209D01*
X16214908Y-5772527D02*
X16264908Y-5722527D01*
X16214908Y-5672527D01*
X16164908Y-5722527D01*
X16214908Y-5772527D01*
X16301781Y-5533845D02*
X16351781Y-5483845D01*
X16301781Y-5433845D01*
X16251781Y-5483845D01*
X16301781Y-5533845D01*
D13*
X23138000Y-6894000D02*
X23458000Y-7214000D01*
X23458000Y-6894000D02*
X23138000Y-7214000D01*
X23458000Y-7054000D02*
G75*
G02*
X23138000Y-7054000I-160000J0D01*
G01*
X23138000Y-7054000D02*
G75*
G02*
X23458000Y-7054000I160000J0D01*
G01*
D11*
X4459682Y-12612994D02*
X4459682Y-12412994D01*
X4459682Y-12412994D02*
X4507301Y-12412994D01*
X4507301Y-12412994D02*
X4535873Y-12422518D01*
X4535873Y-12422518D02*
X4554920Y-12441565D01*
X4554920Y-12441565D02*
X4564444Y-12460613D01*
X4564444Y-12460613D02*
X4573968Y-12498708D01*
X4573968Y-12498708D02*
X4573968Y-12527279D01*
X4573968Y-12527279D02*
X4564444Y-12565375D01*
X4564444Y-12565375D02*
X4554920Y-12584422D01*
X4554920Y-12584422D02*
X4535873Y-12603470D01*
X4535873Y-12603470D02*
X4507301Y-12612994D01*
X4507301Y-12612994D02*
X4459682Y-12612994D01*
X4659682Y-12612994D02*
X4659682Y-12479660D01*
X4659682Y-12517756D02*
X4669206Y-12498708D01*
X4669206Y-12498708D02*
X4678730Y-12489184D01*
X4678730Y-12489184D02*
X4697778Y-12479660D01*
X4697778Y-12479660D02*
X4716825Y-12479660D01*
X4783492Y-12612994D02*
X4783492Y-12479660D01*
X4783492Y-12412994D02*
X4773968Y-12422518D01*
X4773968Y-12422518D02*
X4783492Y-12432041D01*
X4783492Y-12432041D02*
X4793016Y-12422518D01*
X4793016Y-12422518D02*
X4783492Y-12412994D01*
X4783492Y-12412994D02*
X4783492Y-12432041D01*
X4907301Y-12612994D02*
X4888254Y-12603470D01*
X4888254Y-12603470D02*
X4878730Y-12584422D01*
X4878730Y-12584422D02*
X4878730Y-12412994D01*
X5012063Y-12612994D02*
X4993016Y-12603470D01*
X4993016Y-12603470D02*
X4983492Y-12584422D01*
X4983492Y-12584422D02*
X4983492Y-12412994D01*
X5240635Y-12612994D02*
X5240635Y-12412994D01*
X5240635Y-12412994D02*
X5307301Y-12555851D01*
X5307301Y-12555851D02*
X5373968Y-12412994D01*
X5373968Y-12412994D02*
X5373968Y-12612994D01*
X5554920Y-12612994D02*
X5554920Y-12508232D01*
X5554920Y-12508232D02*
X5545397Y-12489184D01*
X5545397Y-12489184D02*
X5526349Y-12479660D01*
X5526349Y-12479660D02*
X5488254Y-12479660D01*
X5488254Y-12479660D02*
X5469206Y-12489184D01*
X5554920Y-12603470D02*
X5535873Y-12612994D01*
X5535873Y-12612994D02*
X5488254Y-12612994D01*
X5488254Y-12612994D02*
X5469206Y-12603470D01*
X5469206Y-12603470D02*
X5459682Y-12584422D01*
X5459682Y-12584422D02*
X5459682Y-12565375D01*
X5459682Y-12565375D02*
X5469206Y-12546327D01*
X5469206Y-12546327D02*
X5488254Y-12536803D01*
X5488254Y-12536803D02*
X5535873Y-12536803D01*
X5535873Y-12536803D02*
X5554920Y-12527279D01*
X5650158Y-12479660D02*
X5650158Y-12679660D01*
X5650158Y-12489184D02*
X5669206Y-12479660D01*
X5669206Y-12479660D02*
X5707301Y-12479660D01*
X5707301Y-12479660D02*
X5726349Y-12489184D01*
X5726349Y-12489184D02*
X5735873Y-12498708D01*
X5735873Y-12498708D02*
X5745397Y-12517756D01*
X5745397Y-12517756D02*
X5745397Y-12574898D01*
X5745397Y-12574898D02*
X5735873Y-12593946D01*
X5735873Y-12593946D02*
X5726349Y-12603470D01*
X5726349Y-12603470D02*
X5707301Y-12612994D01*
X5707301Y-12612994D02*
X5669206Y-12612994D01*
X5669206Y-12612994D02*
X5650158Y-12603470D01*
X5831111Y-12593946D02*
X5840635Y-12603470D01*
X5840635Y-12603470D02*
X5831111Y-12612994D01*
X5831111Y-12612994D02*
X5821587Y-12603470D01*
X5821587Y-12603470D02*
X5831111Y-12593946D01*
X5831111Y-12593946D02*
X5831111Y-12612994D01*
X5831111Y-12489184D02*
X5840635Y-12498708D01*
X5840635Y-12498708D02*
X5831111Y-12508232D01*
X5831111Y-12508232D02*
X5821587Y-12498708D01*
X5821587Y-12498708D02*
X5831111Y-12489184D01*
X5831111Y-12489184D02*
X5831111Y-12508232D01*
D12*
X4168905Y-12926510D02*
X4198906Y-12956510D01*
X4198906Y-12926510D02*
X4168905Y-12956510D01*
D11*
X4497778Y-12832994D02*
X4516825Y-12832994D01*
X4516825Y-12832994D02*
X4535873Y-12842518D01*
X4535873Y-12842518D02*
X4545397Y-12852041D01*
X4545397Y-12852041D02*
X4554920Y-12871089D01*
X4554920Y-12871089D02*
X4564444Y-12909184D01*
X4564444Y-12909184D02*
X4564444Y-12956803D01*
X4564444Y-12956803D02*
X4554920Y-12994898D01*
X4554920Y-12994898D02*
X4545397Y-13013946D01*
X4545397Y-13013946D02*
X4535873Y-13023470D01*
X4535873Y-13023470D02*
X4516825Y-13032994D01*
X4516825Y-13032994D02*
X4497778Y-13032994D01*
X4497778Y-13032994D02*
X4478730Y-13023470D01*
X4478730Y-13023470D02*
X4469206Y-13013946D01*
X4469206Y-13013946D02*
X4459682Y-12994898D01*
X4459682Y-12994898D02*
X4450159Y-12956803D01*
X4450159Y-12956803D02*
X4450159Y-12909184D01*
X4450159Y-12909184D02*
X4459682Y-12871089D01*
X4459682Y-12871089D02*
X4469206Y-12852041D01*
X4469206Y-12852041D02*
X4478730Y-12842518D01*
X4478730Y-12842518D02*
X4497778Y-12832994D01*
X4650159Y-13013946D02*
X4659682Y-13023470D01*
X4659682Y-13023470D02*
X4650159Y-13032994D01*
X4650159Y-13032994D02*
X4640635Y-13023470D01*
X4640635Y-13023470D02*
X4650159Y-13013946D01*
X4650159Y-13013946D02*
X4650159Y-13032994D01*
X4726349Y-12832994D02*
X4850159Y-12832994D01*
X4850159Y-12832994D02*
X4783492Y-12909184D01*
X4783492Y-12909184D02*
X4812063Y-12909184D01*
X4812063Y-12909184D02*
X4831111Y-12918708D01*
X4831111Y-12918708D02*
X4840635Y-12928232D01*
X4840635Y-12928232D02*
X4850159Y-12947279D01*
X4850159Y-12947279D02*
X4850159Y-12994898D01*
X4850159Y-12994898D02*
X4840635Y-13013946D01*
X4840635Y-13013946D02*
X4831111Y-13023470D01*
X4831111Y-13023470D02*
X4812063Y-13032994D01*
X4812063Y-13032994D02*
X4754920Y-13032994D01*
X4754920Y-13032994D02*
X4735873Y-13023470D01*
X4735873Y-13023470D02*
X4726349Y-13013946D01*
X4973968Y-12832994D02*
X4993016Y-12832994D01*
X4993016Y-12832994D02*
X5012063Y-12842518D01*
X5012063Y-12842518D02*
X5021587Y-12852041D01*
X5021587Y-12852041D02*
X5031111Y-12871089D01*
X5031111Y-12871089D02*
X5040635Y-12909184D01*
X5040635Y-12909184D02*
X5040635Y-12956803D01*
X5040635Y-12956803D02*
X5031111Y-12994898D01*
X5031111Y-12994898D02*
X5021587Y-13013946D01*
X5021587Y-13013946D02*
X5012063Y-13023470D01*
X5012063Y-13023470D02*
X4993016Y-13032994D01*
X4993016Y-13032994D02*
X4973968Y-13032994D01*
X4973968Y-13032994D02*
X4954920Y-13023470D01*
X4954920Y-13023470D02*
X4945397Y-13013946D01*
X4945397Y-13013946D02*
X4935873Y-12994898D01*
X4935873Y-12994898D02*
X4926349Y-12956803D01*
X4926349Y-12956803D02*
X4926349Y-12909184D01*
X4926349Y-12909184D02*
X4935873Y-12871089D01*
X4935873Y-12871089D02*
X4945397Y-12852041D01*
X4945397Y-12852041D02*
X4954920Y-12842518D01*
X4954920Y-12842518D02*
X4973968Y-12832994D01*
X5164444Y-12832994D02*
X5183492Y-12832994D01*
X5183492Y-12832994D02*
X5202540Y-12842518D01*
X5202540Y-12842518D02*
X5212063Y-12852041D01*
X5212063Y-12852041D02*
X5221587Y-12871089D01*
X5221587Y-12871089D02*
X5231111Y-12909184D01*
X5231111Y-12909184D02*
X5231111Y-12956803D01*
X5231111Y-12956803D02*
X5221587Y-12994898D01*
X5221587Y-12994898D02*
X5212063Y-13013946D01*
X5212063Y-13013946D02*
X5202540Y-13023470D01*
X5202540Y-13023470D02*
X5183492Y-13032994D01*
X5183492Y-13032994D02*
X5164444Y-13032994D01*
X5164444Y-13032994D02*
X5145397Y-13023470D01*
X5145397Y-13023470D02*
X5135873Y-13013946D01*
X5135873Y-13013946D02*
X5126349Y-12994898D01*
X5126349Y-12994898D02*
X5116825Y-12956803D01*
X5116825Y-12956803D02*
X5116825Y-12909184D01*
X5116825Y-12909184D02*
X5126349Y-12871089D01*
X5126349Y-12871089D02*
X5135873Y-12852041D01*
X5135873Y-12852041D02*
X5145397Y-12842518D01*
X5145397Y-12842518D02*
X5164444Y-12832994D01*
X5316825Y-13032994D02*
X5316825Y-12899660D01*
X5316825Y-12918708D02*
X5326349Y-12909184D01*
X5326349Y-12909184D02*
X5345397Y-12899660D01*
X5345397Y-12899660D02*
X5373968Y-12899660D01*
X5373968Y-12899660D02*
X5393016Y-12909184D01*
X5393016Y-12909184D02*
X5402540Y-12928232D01*
X5402540Y-12928232D02*
X5402540Y-13032994D01*
X5402540Y-12928232D02*
X5412063Y-12909184D01*
X5412063Y-12909184D02*
X5431111Y-12899660D01*
X5431111Y-12899660D02*
X5459682Y-12899660D01*
X5459682Y-12899660D02*
X5478730Y-12909184D01*
X5478730Y-12909184D02*
X5488254Y-12928232D01*
X5488254Y-12928232D02*
X5488254Y-13032994D01*
X5583492Y-13032994D02*
X5583492Y-12899660D01*
X5583492Y-12918708D02*
X5593016Y-12909184D01*
X5593016Y-12909184D02*
X5612063Y-12899660D01*
X5612063Y-12899660D02*
X5640635Y-12899660D01*
X5640635Y-12899660D02*
X5659682Y-12909184D01*
X5659682Y-12909184D02*
X5669206Y-12928232D01*
X5669206Y-12928232D02*
X5669206Y-13032994D01*
X5669206Y-12928232D02*
X5678730Y-12909184D01*
X5678730Y-12909184D02*
X5697778Y-12899660D01*
X5697778Y-12899660D02*
X5726349Y-12899660D01*
X5726349Y-12899660D02*
X5745397Y-12909184D01*
X5745397Y-12909184D02*
X5754920Y-12928232D01*
X5754920Y-12928232D02*
X5754920Y-13032994D01*
X6145397Y-12823470D02*
X5973968Y-13080613D01*
X6402540Y-12832994D02*
X6421587Y-12832994D01*
X6421587Y-12832994D02*
X6440635Y-12842518D01*
X6440635Y-12842518D02*
X6450159Y-12852041D01*
X6450159Y-12852041D02*
X6459682Y-12871089D01*
X6459682Y-12871089D02*
X6469206Y-12909184D01*
X6469206Y-12909184D02*
X6469206Y-12956803D01*
X6469206Y-12956803D02*
X6459682Y-12994898D01*
X6459682Y-12994898D02*
X6450159Y-13013946D01*
X6450159Y-13013946D02*
X6440635Y-13023470D01*
X6440635Y-13023470D02*
X6421587Y-13032994D01*
X6421587Y-13032994D02*
X6402540Y-13032994D01*
X6402540Y-13032994D02*
X6383492Y-13023470D01*
X6383492Y-13023470D02*
X6373968Y-13013946D01*
X6373968Y-13013946D02*
X6364444Y-12994898D01*
X6364444Y-12994898D02*
X6354921Y-12956803D01*
X6354921Y-12956803D02*
X6354921Y-12909184D01*
X6354921Y-12909184D02*
X6364444Y-12871089D01*
X6364444Y-12871089D02*
X6373968Y-12852041D01*
X6373968Y-12852041D02*
X6383492Y-12842518D01*
X6383492Y-12842518D02*
X6402540Y-12832994D01*
X6554921Y-13013946D02*
X6564444Y-13023470D01*
X6564444Y-13023470D02*
X6554921Y-13032994D01*
X6554921Y-13032994D02*
X6545397Y-13023470D01*
X6545397Y-13023470D02*
X6554921Y-13013946D01*
X6554921Y-13013946D02*
X6554921Y-13032994D01*
X6688254Y-12832994D02*
X6707302Y-12832994D01*
X6707302Y-12832994D02*
X6726349Y-12842518D01*
X6726349Y-12842518D02*
X6735873Y-12852041D01*
X6735873Y-12852041D02*
X6745397Y-12871089D01*
X6745397Y-12871089D02*
X6754921Y-12909184D01*
X6754921Y-12909184D02*
X6754921Y-12956803D01*
X6754921Y-12956803D02*
X6745397Y-12994898D01*
X6745397Y-12994898D02*
X6735873Y-13013946D01*
X6735873Y-13013946D02*
X6726349Y-13023470D01*
X6726349Y-13023470D02*
X6707302Y-13032994D01*
X6707302Y-13032994D02*
X6688254Y-13032994D01*
X6688254Y-13032994D02*
X6669206Y-13023470D01*
X6669206Y-13023470D02*
X6659682Y-13013946D01*
X6659682Y-13013946D02*
X6650159Y-12994898D01*
X6650159Y-12994898D02*
X6640635Y-12956803D01*
X6640635Y-12956803D02*
X6640635Y-12909184D01*
X6640635Y-12909184D02*
X6650159Y-12871089D01*
X6650159Y-12871089D02*
X6659682Y-12852041D01*
X6659682Y-12852041D02*
X6669206Y-12842518D01*
X6669206Y-12842518D02*
X6688254Y-12832994D01*
X6945397Y-13032994D02*
X6831111Y-13032994D01*
X6888254Y-13032994D02*
X6888254Y-12832994D01*
X6888254Y-12832994D02*
X6869206Y-12861565D01*
X6869206Y-12861565D02*
X6850159Y-12880613D01*
X6850159Y-12880613D02*
X6831111Y-12890137D01*
X7135873Y-13032994D02*
X7021587Y-13032994D01*
X7078730Y-13032994D02*
X7078730Y-12832994D01*
X7078730Y-12832994D02*
X7059682Y-12861565D01*
X7059682Y-12861565D02*
X7040635Y-12880613D01*
X7040635Y-12880613D02*
X7021587Y-12890137D01*
X7250159Y-12918708D02*
X7231111Y-12909184D01*
X7231111Y-12909184D02*
X7221587Y-12899660D01*
X7221587Y-12899660D02*
X7212063Y-12880613D01*
X7212063Y-12880613D02*
X7212063Y-12871089D01*
X7212063Y-12871089D02*
X7221587Y-12852041D01*
X7221587Y-12852041D02*
X7231111Y-12842518D01*
X7231111Y-12842518D02*
X7250159Y-12832994D01*
X7250159Y-12832994D02*
X7288254Y-12832994D01*
X7288254Y-12832994D02*
X7307302Y-12842518D01*
X7307302Y-12842518D02*
X7316825Y-12852041D01*
X7316825Y-12852041D02*
X7326349Y-12871089D01*
X7326349Y-12871089D02*
X7326349Y-12880613D01*
X7326349Y-12880613D02*
X7316825Y-12899660D01*
X7316825Y-12899660D02*
X7307302Y-12909184D01*
X7307302Y-12909184D02*
X7288254Y-12918708D01*
X7288254Y-12918708D02*
X7250159Y-12918708D01*
X7250159Y-12918708D02*
X7231111Y-12928232D01*
X7231111Y-12928232D02*
X7221587Y-12937756D01*
X7221587Y-12937756D02*
X7212063Y-12956803D01*
X7212063Y-12956803D02*
X7212063Y-12994898D01*
X7212063Y-12994898D02*
X7221587Y-13013946D01*
X7221587Y-13013946D02*
X7231111Y-13023470D01*
X7231111Y-13023470D02*
X7250159Y-13032994D01*
X7250159Y-13032994D02*
X7288254Y-13032994D01*
X7288254Y-13032994D02*
X7307302Y-13023470D01*
X7307302Y-13023470D02*
X7316825Y-13013946D01*
X7316825Y-13013946D02*
X7326349Y-12994898D01*
X7326349Y-12994898D02*
X7326349Y-12956803D01*
X7326349Y-12956803D02*
X7316825Y-12937756D01*
X7316825Y-12937756D02*
X7307302Y-12928232D01*
X7307302Y-12928232D02*
X7288254Y-12918708D01*
X7402540Y-12832994D02*
X7402540Y-12871089D01*
X7478730Y-12832994D02*
X7478730Y-12871089D01*
X7773968Y-13109184D02*
X7764444Y-13099660D01*
X7764444Y-13099660D02*
X7745397Y-13071089D01*
X7745397Y-13071089D02*
X7735873Y-13052041D01*
X7735873Y-13052041D02*
X7726349Y-13023470D01*
X7726349Y-13023470D02*
X7716825Y-12975851D01*
X7716825Y-12975851D02*
X7716825Y-12937756D01*
X7716825Y-12937756D02*
X7726349Y-12890137D01*
X7726349Y-12890137D02*
X7735873Y-12861565D01*
X7735873Y-12861565D02*
X7745397Y-12842518D01*
X7745397Y-12842518D02*
X7764444Y-12813946D01*
X7764444Y-12813946D02*
X7773968Y-12804422D01*
X7831111Y-12832994D02*
X7954921Y-12832994D01*
X7954921Y-12832994D02*
X7888254Y-12909184D01*
X7888254Y-12909184D02*
X7916825Y-12909184D01*
X7916825Y-12909184D02*
X7935873Y-12918708D01*
X7935873Y-12918708D02*
X7945397Y-12928232D01*
X7945397Y-12928232D02*
X7954921Y-12947279D01*
X7954921Y-12947279D02*
X7954921Y-12994898D01*
X7954921Y-12994898D02*
X7945397Y-13013946D01*
X7945397Y-13013946D02*
X7935873Y-13023470D01*
X7935873Y-13023470D02*
X7916825Y-13032994D01*
X7916825Y-13032994D02*
X7859683Y-13032994D01*
X7859683Y-13032994D02*
X7840635Y-13023470D01*
X7840635Y-13023470D02*
X7831111Y-13013946D01*
X8126349Y-12899660D02*
X8126349Y-13032994D01*
X8078730Y-12823470D02*
X8031111Y-12966327D01*
X8031111Y-12966327D02*
X8154921Y-12966327D01*
X8212064Y-12832994D02*
X8345397Y-12832994D01*
X8345397Y-12832994D02*
X8259683Y-13032994D01*
X8573968Y-13032994D02*
X8573968Y-12832994D01*
X8659683Y-13032994D02*
X8659683Y-12928232D01*
X8659683Y-12928232D02*
X8650159Y-12909184D01*
X8650159Y-12909184D02*
X8631111Y-12899660D01*
X8631111Y-12899660D02*
X8602540Y-12899660D01*
X8602540Y-12899660D02*
X8583492Y-12909184D01*
X8583492Y-12909184D02*
X8573968Y-12918708D01*
X8783492Y-13032994D02*
X8764445Y-13023470D01*
X8764445Y-13023470D02*
X8754921Y-13013946D01*
X8754921Y-13013946D02*
X8745397Y-12994898D01*
X8745397Y-12994898D02*
X8745397Y-12937756D01*
X8745397Y-12937756D02*
X8754921Y-12918708D01*
X8754921Y-12918708D02*
X8764445Y-12909184D01*
X8764445Y-12909184D02*
X8783492Y-12899660D01*
X8783492Y-12899660D02*
X8812064Y-12899660D01*
X8812064Y-12899660D02*
X8831111Y-12909184D01*
X8831111Y-12909184D02*
X8840635Y-12918708D01*
X8840635Y-12918708D02*
X8850159Y-12937756D01*
X8850159Y-12937756D02*
X8850159Y-12994898D01*
X8850159Y-12994898D02*
X8840635Y-13013946D01*
X8840635Y-13013946D02*
X8831111Y-13023470D01*
X8831111Y-13023470D02*
X8812064Y-13032994D01*
X8812064Y-13032994D02*
X8783492Y-13032994D01*
X8964445Y-13032994D02*
X8945397Y-13023470D01*
X8945397Y-13023470D02*
X8935873Y-13004422D01*
X8935873Y-13004422D02*
X8935873Y-12832994D01*
X9116826Y-13023470D02*
X9097778Y-13032994D01*
X9097778Y-13032994D02*
X9059683Y-13032994D01*
X9059683Y-13032994D02*
X9040635Y-13023470D01*
X9040635Y-13023470D02*
X9031111Y-13004422D01*
X9031111Y-13004422D02*
X9031111Y-12928232D01*
X9031111Y-12928232D02*
X9040635Y-12909184D01*
X9040635Y-12909184D02*
X9059683Y-12899660D01*
X9059683Y-12899660D02*
X9097778Y-12899660D01*
X9097778Y-12899660D02*
X9116826Y-12909184D01*
X9116826Y-12909184D02*
X9126349Y-12928232D01*
X9126349Y-12928232D02*
X9126349Y-12947279D01*
X9126349Y-12947279D02*
X9031111Y-12966327D01*
X9202540Y-13023470D02*
X9221588Y-13032994D01*
X9221588Y-13032994D02*
X9259683Y-13032994D01*
X9259683Y-13032994D02*
X9278730Y-13023470D01*
X9278730Y-13023470D02*
X9288254Y-13004422D01*
X9288254Y-13004422D02*
X9288254Y-12994898D01*
X9288254Y-12994898D02*
X9278730Y-12975851D01*
X9278730Y-12975851D02*
X9259683Y-12966327D01*
X9259683Y-12966327D02*
X9231111Y-12966327D01*
X9231111Y-12966327D02*
X9212064Y-12956803D01*
X9212064Y-12956803D02*
X9202540Y-12937756D01*
X9202540Y-12937756D02*
X9202540Y-12928232D01*
X9202540Y-12928232D02*
X9212064Y-12909184D01*
X9212064Y-12909184D02*
X9231111Y-12899660D01*
X9231111Y-12899660D02*
X9259683Y-12899660D01*
X9259683Y-12899660D02*
X9278730Y-12909184D01*
X9354921Y-13109184D02*
X9364445Y-13099660D01*
X9364445Y-13099660D02*
X9383492Y-13071089D01*
X9383492Y-13071089D02*
X9393016Y-13052041D01*
X9393016Y-13052041D02*
X9402540Y-13023470D01*
X9402540Y-13023470D02*
X9412064Y-12975851D01*
X9412064Y-12975851D02*
X9412064Y-12937756D01*
X9412064Y-12937756D02*
X9402540Y-12890137D01*
X9402540Y-12890137D02*
X9393016Y-12861565D01*
X9393016Y-12861565D02*
X9383492Y-12842518D01*
X9383492Y-12842518D02*
X9364445Y-12813946D01*
X9364445Y-12813946D02*
X9354921Y-12804422D01*
D12*
X4198906Y-13205510D02*
G75*
G02*
X4138905Y-13205510I-30000J0D01*
G01*
X4138905Y-13205510D02*
G75*
G02*
X4198906Y-13205510I30000J0D01*
G01*
D11*
X4497778Y-13096994D02*
X4516825Y-13096994D01*
X4516825Y-13096994D02*
X4535873Y-13106518D01*
X4535873Y-13106518D02*
X4545397Y-13116041D01*
X4545397Y-13116041D02*
X4554920Y-13135089D01*
X4554920Y-13135089D02*
X4564444Y-13173184D01*
X4564444Y-13173184D02*
X4564444Y-13220803D01*
X4564444Y-13220803D02*
X4554920Y-13258898D01*
X4554920Y-13258898D02*
X4545397Y-13277946D01*
X4545397Y-13277946D02*
X4535873Y-13287470D01*
X4535873Y-13287470D02*
X4516825Y-13296994D01*
X4516825Y-13296994D02*
X4497778Y-13296994D01*
X4497778Y-13296994D02*
X4478730Y-13287470D01*
X4478730Y-13287470D02*
X4469206Y-13277946D01*
X4469206Y-13277946D02*
X4459682Y-13258898D01*
X4459682Y-13258898D02*
X4450159Y-13220803D01*
X4450159Y-13220803D02*
X4450159Y-13173184D01*
X4450159Y-13173184D02*
X4459682Y-13135089D01*
X4459682Y-13135089D02*
X4469206Y-13116041D01*
X4469206Y-13116041D02*
X4478730Y-13106518D01*
X4478730Y-13106518D02*
X4497778Y-13096994D01*
X4650159Y-13277946D02*
X4659682Y-13287470D01*
X4659682Y-13287470D02*
X4650159Y-13296994D01*
X4650159Y-13296994D02*
X4640635Y-13287470D01*
X4640635Y-13287470D02*
X4650159Y-13277946D01*
X4650159Y-13277946D02*
X4650159Y-13296994D01*
X4831111Y-13096994D02*
X4793016Y-13096994D01*
X4793016Y-13096994D02*
X4773968Y-13106518D01*
X4773968Y-13106518D02*
X4764444Y-13116041D01*
X4764444Y-13116041D02*
X4745397Y-13144613D01*
X4745397Y-13144613D02*
X4735873Y-13182708D01*
X4735873Y-13182708D02*
X4735873Y-13258898D01*
X4735873Y-13258898D02*
X4745397Y-13277946D01*
X4745397Y-13277946D02*
X4754920Y-13287470D01*
X4754920Y-13287470D02*
X4773968Y-13296994D01*
X4773968Y-13296994D02*
X4812063Y-13296994D01*
X4812063Y-13296994D02*
X4831111Y-13287470D01*
X4831111Y-13287470D02*
X4840635Y-13277946D01*
X4840635Y-13277946D02*
X4850159Y-13258898D01*
X4850159Y-13258898D02*
X4850159Y-13211279D01*
X4850159Y-13211279D02*
X4840635Y-13192232D01*
X4840635Y-13192232D02*
X4831111Y-13182708D01*
X4831111Y-13182708D02*
X4812063Y-13173184D01*
X4812063Y-13173184D02*
X4773968Y-13173184D01*
X4773968Y-13173184D02*
X4754920Y-13182708D01*
X4754920Y-13182708D02*
X4745397Y-13192232D01*
X4745397Y-13192232D02*
X4735873Y-13211279D01*
X4973968Y-13096994D02*
X4993016Y-13096994D01*
X4993016Y-13096994D02*
X5012063Y-13106518D01*
X5012063Y-13106518D02*
X5021587Y-13116041D01*
X5021587Y-13116041D02*
X5031111Y-13135089D01*
X5031111Y-13135089D02*
X5040635Y-13173184D01*
X5040635Y-13173184D02*
X5040635Y-13220803D01*
X5040635Y-13220803D02*
X5031111Y-13258898D01*
X5031111Y-13258898D02*
X5021587Y-13277946D01*
X5021587Y-13277946D02*
X5012063Y-13287470D01*
X5012063Y-13287470D02*
X4993016Y-13296994D01*
X4993016Y-13296994D02*
X4973968Y-13296994D01*
X4973968Y-13296994D02*
X4954920Y-13287470D01*
X4954920Y-13287470D02*
X4945397Y-13277946D01*
X4945397Y-13277946D02*
X4935873Y-13258898D01*
X4935873Y-13258898D02*
X4926349Y-13220803D01*
X4926349Y-13220803D02*
X4926349Y-13173184D01*
X4926349Y-13173184D02*
X4935873Y-13135089D01*
X4935873Y-13135089D02*
X4945397Y-13116041D01*
X4945397Y-13116041D02*
X4954920Y-13106518D01*
X4954920Y-13106518D02*
X4973968Y-13096994D01*
X5164444Y-13096994D02*
X5183492Y-13096994D01*
X5183492Y-13096994D02*
X5202540Y-13106518D01*
X5202540Y-13106518D02*
X5212063Y-13116041D01*
X5212063Y-13116041D02*
X5221587Y-13135089D01*
X5221587Y-13135089D02*
X5231111Y-13173184D01*
X5231111Y-13173184D02*
X5231111Y-13220803D01*
X5231111Y-13220803D02*
X5221587Y-13258898D01*
X5221587Y-13258898D02*
X5212063Y-13277946D01*
X5212063Y-13277946D02*
X5202540Y-13287470D01*
X5202540Y-13287470D02*
X5183492Y-13296994D01*
X5183492Y-13296994D02*
X5164444Y-13296994D01*
X5164444Y-13296994D02*
X5145397Y-13287470D01*
X5145397Y-13287470D02*
X5135873Y-13277946D01*
X5135873Y-13277946D02*
X5126349Y-13258898D01*
X5126349Y-13258898D02*
X5116825Y-13220803D01*
X5116825Y-13220803D02*
X5116825Y-13173184D01*
X5116825Y-13173184D02*
X5126349Y-13135089D01*
X5126349Y-13135089D02*
X5135873Y-13116041D01*
X5135873Y-13116041D02*
X5145397Y-13106518D01*
X5145397Y-13106518D02*
X5164444Y-13096994D01*
X5316825Y-13296994D02*
X5316825Y-13163660D01*
X5316825Y-13182708D02*
X5326349Y-13173184D01*
X5326349Y-13173184D02*
X5345397Y-13163660D01*
X5345397Y-13163660D02*
X5373968Y-13163660D01*
X5373968Y-13163660D02*
X5393016Y-13173184D01*
X5393016Y-13173184D02*
X5402540Y-13192232D01*
X5402540Y-13192232D02*
X5402540Y-13296994D01*
X5402540Y-13192232D02*
X5412063Y-13173184D01*
X5412063Y-13173184D02*
X5431111Y-13163660D01*
X5431111Y-13163660D02*
X5459682Y-13163660D01*
X5459682Y-13163660D02*
X5478730Y-13173184D01*
X5478730Y-13173184D02*
X5488254Y-13192232D01*
X5488254Y-13192232D02*
X5488254Y-13296994D01*
X5583492Y-13296994D02*
X5583492Y-13163660D01*
X5583492Y-13182708D02*
X5593016Y-13173184D01*
X5593016Y-13173184D02*
X5612063Y-13163660D01*
X5612063Y-13163660D02*
X5640635Y-13163660D01*
X5640635Y-13163660D02*
X5659682Y-13173184D01*
X5659682Y-13173184D02*
X5669206Y-13192232D01*
X5669206Y-13192232D02*
X5669206Y-13296994D01*
X5669206Y-13192232D02*
X5678730Y-13173184D01*
X5678730Y-13173184D02*
X5697778Y-13163660D01*
X5697778Y-13163660D02*
X5726349Y-13163660D01*
X5726349Y-13163660D02*
X5745397Y-13173184D01*
X5745397Y-13173184D02*
X5754920Y-13192232D01*
X5754920Y-13192232D02*
X5754920Y-13296994D01*
X6145397Y-13087470D02*
X5973968Y-13344613D01*
X6402540Y-13096994D02*
X6421587Y-13096994D01*
X6421587Y-13096994D02*
X6440635Y-13106518D01*
X6440635Y-13106518D02*
X6450159Y-13116041D01*
X6450159Y-13116041D02*
X6459682Y-13135089D01*
X6459682Y-13135089D02*
X6469206Y-13173184D01*
X6469206Y-13173184D02*
X6469206Y-13220803D01*
X6469206Y-13220803D02*
X6459682Y-13258898D01*
X6459682Y-13258898D02*
X6450159Y-13277946D01*
X6450159Y-13277946D02*
X6440635Y-13287470D01*
X6440635Y-13287470D02*
X6421587Y-13296994D01*
X6421587Y-13296994D02*
X6402540Y-13296994D01*
X6402540Y-13296994D02*
X6383492Y-13287470D01*
X6383492Y-13287470D02*
X6373968Y-13277946D01*
X6373968Y-13277946D02*
X6364444Y-13258898D01*
X6364444Y-13258898D02*
X6354921Y-13220803D01*
X6354921Y-13220803D02*
X6354921Y-13173184D01*
X6354921Y-13173184D02*
X6364444Y-13135089D01*
X6364444Y-13135089D02*
X6373968Y-13116041D01*
X6373968Y-13116041D02*
X6383492Y-13106518D01*
X6383492Y-13106518D02*
X6402540Y-13096994D01*
X6554921Y-13277946D02*
X6564444Y-13287470D01*
X6564444Y-13287470D02*
X6554921Y-13296994D01*
X6554921Y-13296994D02*
X6545397Y-13287470D01*
X6545397Y-13287470D02*
X6554921Y-13277946D01*
X6554921Y-13277946D02*
X6554921Y-13296994D01*
X6688254Y-13096994D02*
X6707302Y-13096994D01*
X6707302Y-13096994D02*
X6726349Y-13106518D01*
X6726349Y-13106518D02*
X6735873Y-13116041D01*
X6735873Y-13116041D02*
X6745397Y-13135089D01*
X6745397Y-13135089D02*
X6754921Y-13173184D01*
X6754921Y-13173184D02*
X6754921Y-13220803D01*
X6754921Y-13220803D02*
X6745397Y-13258898D01*
X6745397Y-13258898D02*
X6735873Y-13277946D01*
X6735873Y-13277946D02*
X6726349Y-13287470D01*
X6726349Y-13287470D02*
X6707302Y-13296994D01*
X6707302Y-13296994D02*
X6688254Y-13296994D01*
X6688254Y-13296994D02*
X6669206Y-13287470D01*
X6669206Y-13287470D02*
X6659682Y-13277946D01*
X6659682Y-13277946D02*
X6650159Y-13258898D01*
X6650159Y-13258898D02*
X6640635Y-13220803D01*
X6640635Y-13220803D02*
X6640635Y-13173184D01*
X6640635Y-13173184D02*
X6650159Y-13135089D01*
X6650159Y-13135089D02*
X6659682Y-13116041D01*
X6659682Y-13116041D02*
X6669206Y-13106518D01*
X6669206Y-13106518D02*
X6688254Y-13096994D01*
X6831111Y-13116041D02*
X6840635Y-13106518D01*
X6840635Y-13106518D02*
X6859682Y-13096994D01*
X6859682Y-13096994D02*
X6907302Y-13096994D01*
X6907302Y-13096994D02*
X6926349Y-13106518D01*
X6926349Y-13106518D02*
X6935873Y-13116041D01*
X6935873Y-13116041D02*
X6945397Y-13135089D01*
X6945397Y-13135089D02*
X6945397Y-13154137D01*
X6945397Y-13154137D02*
X6935873Y-13182708D01*
X6935873Y-13182708D02*
X6821587Y-13296994D01*
X6821587Y-13296994D02*
X6945397Y-13296994D01*
X7012063Y-13096994D02*
X7135873Y-13096994D01*
X7135873Y-13096994D02*
X7069206Y-13173184D01*
X7069206Y-13173184D02*
X7097778Y-13173184D01*
X7097778Y-13173184D02*
X7116825Y-13182708D01*
X7116825Y-13182708D02*
X7126349Y-13192232D01*
X7126349Y-13192232D02*
X7135873Y-13211279D01*
X7135873Y-13211279D02*
X7135873Y-13258898D01*
X7135873Y-13258898D02*
X7126349Y-13277946D01*
X7126349Y-13277946D02*
X7116825Y-13287470D01*
X7116825Y-13287470D02*
X7097778Y-13296994D01*
X7097778Y-13296994D02*
X7040635Y-13296994D01*
X7040635Y-13296994D02*
X7021587Y-13287470D01*
X7021587Y-13287470D02*
X7012063Y-13277946D01*
X7307302Y-13096994D02*
X7269206Y-13096994D01*
X7269206Y-13096994D02*
X7250159Y-13106518D01*
X7250159Y-13106518D02*
X7240635Y-13116041D01*
X7240635Y-13116041D02*
X7221587Y-13144613D01*
X7221587Y-13144613D02*
X7212063Y-13182708D01*
X7212063Y-13182708D02*
X7212063Y-13258898D01*
X7212063Y-13258898D02*
X7221587Y-13277946D01*
X7221587Y-13277946D02*
X7231111Y-13287470D01*
X7231111Y-13287470D02*
X7250159Y-13296994D01*
X7250159Y-13296994D02*
X7288254Y-13296994D01*
X7288254Y-13296994D02*
X7307302Y-13287470D01*
X7307302Y-13287470D02*
X7316825Y-13277946D01*
X7316825Y-13277946D02*
X7326349Y-13258898D01*
X7326349Y-13258898D02*
X7326349Y-13211279D01*
X7326349Y-13211279D02*
X7316825Y-13192232D01*
X7316825Y-13192232D02*
X7307302Y-13182708D01*
X7307302Y-13182708D02*
X7288254Y-13173184D01*
X7288254Y-13173184D02*
X7250159Y-13173184D01*
X7250159Y-13173184D02*
X7231111Y-13182708D01*
X7231111Y-13182708D02*
X7221587Y-13192232D01*
X7221587Y-13192232D02*
X7212063Y-13211279D01*
X7402540Y-13096994D02*
X7402540Y-13135089D01*
X7478730Y-13096994D02*
X7478730Y-13135089D01*
X7773968Y-13373184D02*
X7764444Y-13363660D01*
X7764444Y-13363660D02*
X7745397Y-13335089D01*
X7745397Y-13335089D02*
X7735873Y-13316041D01*
X7735873Y-13316041D02*
X7726349Y-13287470D01*
X7726349Y-13287470D02*
X7716825Y-13239851D01*
X7716825Y-13239851D02*
X7716825Y-13201756D01*
X7716825Y-13201756D02*
X7726349Y-13154137D01*
X7726349Y-13154137D02*
X7735873Y-13125565D01*
X7735873Y-13125565D02*
X7745397Y-13106518D01*
X7745397Y-13106518D02*
X7764444Y-13077946D01*
X7764444Y-13077946D02*
X7773968Y-13068422D01*
X7888254Y-13096994D02*
X7907302Y-13096994D01*
X7907302Y-13096994D02*
X7926349Y-13106518D01*
X7926349Y-13106518D02*
X7935873Y-13116041D01*
X7935873Y-13116041D02*
X7945397Y-13135089D01*
X7945397Y-13135089D02*
X7954921Y-13173184D01*
X7954921Y-13173184D02*
X7954921Y-13220803D01*
X7954921Y-13220803D02*
X7945397Y-13258898D01*
X7945397Y-13258898D02*
X7935873Y-13277946D01*
X7935873Y-13277946D02*
X7926349Y-13287470D01*
X7926349Y-13287470D02*
X7907302Y-13296994D01*
X7907302Y-13296994D02*
X7888254Y-13296994D01*
X7888254Y-13296994D02*
X7869206Y-13287470D01*
X7869206Y-13287470D02*
X7859683Y-13277946D01*
X7859683Y-13277946D02*
X7850159Y-13258898D01*
X7850159Y-13258898D02*
X7840635Y-13220803D01*
X7840635Y-13220803D02*
X7840635Y-13173184D01*
X7840635Y-13173184D02*
X7850159Y-13135089D01*
X7850159Y-13135089D02*
X7859683Y-13116041D01*
X7859683Y-13116041D02*
X7869206Y-13106518D01*
X7869206Y-13106518D02*
X7888254Y-13096994D01*
X8193016Y-13296994D02*
X8193016Y-13096994D01*
X8278730Y-13296994D02*
X8278730Y-13192232D01*
X8278730Y-13192232D02*
X8269206Y-13173184D01*
X8269206Y-13173184D02*
X8250159Y-13163660D01*
X8250159Y-13163660D02*
X8221587Y-13163660D01*
X8221587Y-13163660D02*
X8202540Y-13173184D01*
X8202540Y-13173184D02*
X8193016Y-13182708D01*
X8402540Y-13296994D02*
X8383492Y-13287470D01*
X8383492Y-13287470D02*
X8373968Y-13277946D01*
X8373968Y-13277946D02*
X8364445Y-13258898D01*
X8364445Y-13258898D02*
X8364445Y-13201756D01*
X8364445Y-13201756D02*
X8373968Y-13182708D01*
X8373968Y-13182708D02*
X8383492Y-13173184D01*
X8383492Y-13173184D02*
X8402540Y-13163660D01*
X8402540Y-13163660D02*
X8431111Y-13163660D01*
X8431111Y-13163660D02*
X8450159Y-13173184D01*
X8450159Y-13173184D02*
X8459683Y-13182708D01*
X8459683Y-13182708D02*
X8469207Y-13201756D01*
X8469207Y-13201756D02*
X8469207Y-13258898D01*
X8469207Y-13258898D02*
X8459683Y-13277946D01*
X8459683Y-13277946D02*
X8450159Y-13287470D01*
X8450159Y-13287470D02*
X8431111Y-13296994D01*
X8431111Y-13296994D02*
X8402540Y-13296994D01*
X8583492Y-13296994D02*
X8564445Y-13287470D01*
X8564445Y-13287470D02*
X8554921Y-13268422D01*
X8554921Y-13268422D02*
X8554921Y-13096994D01*
X8735873Y-13287470D02*
X8716826Y-13296994D01*
X8716826Y-13296994D02*
X8678730Y-13296994D01*
X8678730Y-13296994D02*
X8659683Y-13287470D01*
X8659683Y-13287470D02*
X8650159Y-13268422D01*
X8650159Y-13268422D02*
X8650159Y-13192232D01*
X8650159Y-13192232D02*
X8659683Y-13173184D01*
X8659683Y-13173184D02*
X8678730Y-13163660D01*
X8678730Y-13163660D02*
X8716826Y-13163660D01*
X8716826Y-13163660D02*
X8735873Y-13173184D01*
X8735873Y-13173184D02*
X8745397Y-13192232D01*
X8745397Y-13192232D02*
X8745397Y-13211279D01*
X8745397Y-13211279D02*
X8650159Y-13230327D01*
X8821588Y-13287470D02*
X8840635Y-13296994D01*
X8840635Y-13296994D02*
X8878730Y-13296994D01*
X8878730Y-13296994D02*
X8897778Y-13287470D01*
X8897778Y-13287470D02*
X8907302Y-13268422D01*
X8907302Y-13268422D02*
X8907302Y-13258898D01*
X8907302Y-13258898D02*
X8897778Y-13239851D01*
X8897778Y-13239851D02*
X8878730Y-13230327D01*
X8878730Y-13230327D02*
X8850159Y-13230327D01*
X8850159Y-13230327D02*
X8831111Y-13220803D01*
X8831111Y-13220803D02*
X8821588Y-13201756D01*
X8821588Y-13201756D02*
X8821588Y-13192232D01*
X8821588Y-13192232D02*
X8831111Y-13173184D01*
X8831111Y-13173184D02*
X8850159Y-13163660D01*
X8850159Y-13163660D02*
X8878730Y-13163660D01*
X8878730Y-13163660D02*
X8897778Y-13173184D01*
X9145397Y-13220803D02*
X9297778Y-13220803D01*
X9221588Y-13296994D02*
X9221588Y-13144613D01*
X9631111Y-13163660D02*
X9631111Y-13296994D01*
X9583492Y-13087470D02*
X9535873Y-13230327D01*
X9535873Y-13230327D02*
X9659683Y-13230327D01*
X9878731Y-13287470D02*
X9897778Y-13296994D01*
X9897778Y-13296994D02*
X9935873Y-13296994D01*
X9935873Y-13296994D02*
X9954921Y-13287470D01*
X9954921Y-13287470D02*
X9964445Y-13268422D01*
X9964445Y-13268422D02*
X9964445Y-13258898D01*
X9964445Y-13258898D02*
X9954921Y-13239851D01*
X9954921Y-13239851D02*
X9935873Y-13230327D01*
X9935873Y-13230327D02*
X9907302Y-13230327D01*
X9907302Y-13230327D02*
X9888254Y-13220803D01*
X9888254Y-13220803D02*
X9878731Y-13201756D01*
X9878731Y-13201756D02*
X9878731Y-13192232D01*
X9878731Y-13192232D02*
X9888254Y-13173184D01*
X9888254Y-13173184D02*
X9907302Y-13163660D01*
X9907302Y-13163660D02*
X9935873Y-13163660D01*
X9935873Y-13163660D02*
X9954921Y-13173184D01*
X10078731Y-13296994D02*
X10059683Y-13287470D01*
X10059683Y-13287470D02*
X10050159Y-13268422D01*
X10050159Y-13268422D02*
X10050159Y-13096994D01*
X10183492Y-13296994D02*
X10164445Y-13287470D01*
X10164445Y-13287470D02*
X10154921Y-13277946D01*
X10154921Y-13277946D02*
X10145397Y-13258898D01*
X10145397Y-13258898D02*
X10145397Y-13201756D01*
X10145397Y-13201756D02*
X10154921Y-13182708D01*
X10154921Y-13182708D02*
X10164445Y-13173184D01*
X10164445Y-13173184D02*
X10183492Y-13163660D01*
X10183492Y-13163660D02*
X10212064Y-13163660D01*
X10212064Y-13163660D02*
X10231112Y-13173184D01*
X10231112Y-13173184D02*
X10240635Y-13182708D01*
X10240635Y-13182708D02*
X10250159Y-13201756D01*
X10250159Y-13201756D02*
X10250159Y-13258898D01*
X10250159Y-13258898D02*
X10240635Y-13277946D01*
X10240635Y-13277946D02*
X10231112Y-13287470D01*
X10231112Y-13287470D02*
X10212064Y-13296994D01*
X10212064Y-13296994D02*
X10183492Y-13296994D01*
X10307302Y-13163660D02*
X10383492Y-13163660D01*
X10335873Y-13096994D02*
X10335873Y-13268422D01*
X10335873Y-13268422D02*
X10345397Y-13287470D01*
X10345397Y-13287470D02*
X10364445Y-13296994D01*
X10364445Y-13296994D02*
X10383492Y-13296994D01*
X10440635Y-13287470D02*
X10459683Y-13296994D01*
X10459683Y-13296994D02*
X10497778Y-13296994D01*
X10497778Y-13296994D02*
X10516826Y-13287470D01*
X10516826Y-13287470D02*
X10526350Y-13268422D01*
X10526350Y-13268422D02*
X10526350Y-13258898D01*
X10526350Y-13258898D02*
X10516826Y-13239851D01*
X10516826Y-13239851D02*
X10497778Y-13230327D01*
X10497778Y-13230327D02*
X10469207Y-13230327D01*
X10469207Y-13230327D02*
X10450159Y-13220803D01*
X10450159Y-13220803D02*
X10440635Y-13201756D01*
X10440635Y-13201756D02*
X10440635Y-13192232D01*
X10440635Y-13192232D02*
X10450159Y-13173184D01*
X10450159Y-13173184D02*
X10469207Y-13163660D01*
X10469207Y-13163660D02*
X10497778Y-13163660D01*
X10497778Y-13163660D02*
X10516826Y-13173184D01*
X10593016Y-13373184D02*
X10602540Y-13363660D01*
X10602540Y-13363660D02*
X10621588Y-13335089D01*
X10621588Y-13335089D02*
X10631112Y-13316041D01*
X10631112Y-13316041D02*
X10640635Y-13287470D01*
X10640635Y-13287470D02*
X10650159Y-13239851D01*
X10650159Y-13239851D02*
X10650159Y-13201756D01*
X10650159Y-13201756D02*
X10640635Y-13154137D01*
X10640635Y-13154137D02*
X10631112Y-13125565D01*
X10631112Y-13125565D02*
X10621588Y-13106518D01*
X10621588Y-13106518D02*
X10602540Y-13077946D01*
X10602540Y-13077946D02*
X10593016Y-13068422D01*
D12*
X4161405Y-13432010D02*
X4161405Y-13507010D01*
X4123905Y-13469510D02*
X4198906Y-13469510D01*
D11*
X4497778Y-13360994D02*
X4516825Y-13360994D01*
X4516825Y-13360994D02*
X4535873Y-13370518D01*
X4535873Y-13370518D02*
X4545397Y-13380041D01*
X4545397Y-13380041D02*
X4554920Y-13399089D01*
X4554920Y-13399089D02*
X4564444Y-13437184D01*
X4564444Y-13437184D02*
X4564444Y-13484803D01*
X4564444Y-13484803D02*
X4554920Y-13522898D01*
X4554920Y-13522898D02*
X4545397Y-13541946D01*
X4545397Y-13541946D02*
X4535873Y-13551470D01*
X4535873Y-13551470D02*
X4516825Y-13560994D01*
X4516825Y-13560994D02*
X4497778Y-13560994D01*
X4497778Y-13560994D02*
X4478730Y-13551470D01*
X4478730Y-13551470D02*
X4469206Y-13541946D01*
X4469206Y-13541946D02*
X4459682Y-13522898D01*
X4459682Y-13522898D02*
X4450159Y-13484803D01*
X4450159Y-13484803D02*
X4450159Y-13437184D01*
X4450159Y-13437184D02*
X4459682Y-13399089D01*
X4459682Y-13399089D02*
X4469206Y-13380041D01*
X4469206Y-13380041D02*
X4478730Y-13370518D01*
X4478730Y-13370518D02*
X4497778Y-13360994D01*
X4650159Y-13541946D02*
X4659682Y-13551470D01*
X4659682Y-13551470D02*
X4650159Y-13560994D01*
X4650159Y-13560994D02*
X4640635Y-13551470D01*
X4640635Y-13551470D02*
X4650159Y-13541946D01*
X4650159Y-13541946D02*
X4650159Y-13560994D01*
X4726349Y-13360994D02*
X4859682Y-13360994D01*
X4859682Y-13360994D02*
X4773968Y-13560994D01*
X5031111Y-13360994D02*
X4935873Y-13360994D01*
X4935873Y-13360994D02*
X4926349Y-13456232D01*
X4926349Y-13456232D02*
X4935873Y-13446708D01*
X4935873Y-13446708D02*
X4954920Y-13437184D01*
X4954920Y-13437184D02*
X5002540Y-13437184D01*
X5002540Y-13437184D02*
X5021587Y-13446708D01*
X5021587Y-13446708D02*
X5031111Y-13456232D01*
X5031111Y-13456232D02*
X5040635Y-13475279D01*
X5040635Y-13475279D02*
X5040635Y-13522898D01*
X5040635Y-13522898D02*
X5031111Y-13541946D01*
X5031111Y-13541946D02*
X5021587Y-13551470D01*
X5021587Y-13551470D02*
X5002540Y-13560994D01*
X5002540Y-13560994D02*
X4954920Y-13560994D01*
X4954920Y-13560994D02*
X4935873Y-13551470D01*
X4935873Y-13551470D02*
X4926349Y-13541946D01*
X5164444Y-13360994D02*
X5183492Y-13360994D01*
X5183492Y-13360994D02*
X5202540Y-13370518D01*
X5202540Y-13370518D02*
X5212063Y-13380041D01*
X5212063Y-13380041D02*
X5221587Y-13399089D01*
X5221587Y-13399089D02*
X5231111Y-13437184D01*
X5231111Y-13437184D02*
X5231111Y-13484803D01*
X5231111Y-13484803D02*
X5221587Y-13522898D01*
X5221587Y-13522898D02*
X5212063Y-13541946D01*
X5212063Y-13541946D02*
X5202540Y-13551470D01*
X5202540Y-13551470D02*
X5183492Y-13560994D01*
X5183492Y-13560994D02*
X5164444Y-13560994D01*
X5164444Y-13560994D02*
X5145397Y-13551470D01*
X5145397Y-13551470D02*
X5135873Y-13541946D01*
X5135873Y-13541946D02*
X5126349Y-13522898D01*
X5126349Y-13522898D02*
X5116825Y-13484803D01*
X5116825Y-13484803D02*
X5116825Y-13437184D01*
X5116825Y-13437184D02*
X5126349Y-13399089D01*
X5126349Y-13399089D02*
X5135873Y-13380041D01*
X5135873Y-13380041D02*
X5145397Y-13370518D01*
X5145397Y-13370518D02*
X5164444Y-13360994D01*
X5316825Y-13560994D02*
X5316825Y-13427660D01*
X5316825Y-13446708D02*
X5326349Y-13437184D01*
X5326349Y-13437184D02*
X5345397Y-13427660D01*
X5345397Y-13427660D02*
X5373968Y-13427660D01*
X5373968Y-13427660D02*
X5393016Y-13437184D01*
X5393016Y-13437184D02*
X5402540Y-13456232D01*
X5402540Y-13456232D02*
X5402540Y-13560994D01*
X5402540Y-13456232D02*
X5412063Y-13437184D01*
X5412063Y-13437184D02*
X5431111Y-13427660D01*
X5431111Y-13427660D02*
X5459682Y-13427660D01*
X5459682Y-13427660D02*
X5478730Y-13437184D01*
X5478730Y-13437184D02*
X5488254Y-13456232D01*
X5488254Y-13456232D02*
X5488254Y-13560994D01*
X5583492Y-13560994D02*
X5583492Y-13427660D01*
X5583492Y-13446708D02*
X5593016Y-13437184D01*
X5593016Y-13437184D02*
X5612063Y-13427660D01*
X5612063Y-13427660D02*
X5640635Y-13427660D01*
X5640635Y-13427660D02*
X5659682Y-13437184D01*
X5659682Y-13437184D02*
X5669206Y-13456232D01*
X5669206Y-13456232D02*
X5669206Y-13560994D01*
X5669206Y-13456232D02*
X5678730Y-13437184D01*
X5678730Y-13437184D02*
X5697778Y-13427660D01*
X5697778Y-13427660D02*
X5726349Y-13427660D01*
X5726349Y-13427660D02*
X5745397Y-13437184D01*
X5745397Y-13437184D02*
X5754920Y-13456232D01*
X5754920Y-13456232D02*
X5754920Y-13560994D01*
X6145397Y-13351470D02*
X5973968Y-13608613D01*
X6402540Y-13360994D02*
X6421587Y-13360994D01*
X6421587Y-13360994D02*
X6440635Y-13370518D01*
X6440635Y-13370518D02*
X6450159Y-13380041D01*
X6450159Y-13380041D02*
X6459682Y-13399089D01*
X6459682Y-13399089D02*
X6469206Y-13437184D01*
X6469206Y-13437184D02*
X6469206Y-13484803D01*
X6469206Y-13484803D02*
X6459682Y-13522898D01*
X6459682Y-13522898D02*
X6450159Y-13541946D01*
X6450159Y-13541946D02*
X6440635Y-13551470D01*
X6440635Y-13551470D02*
X6421587Y-13560994D01*
X6421587Y-13560994D02*
X6402540Y-13560994D01*
X6402540Y-13560994D02*
X6383492Y-13551470D01*
X6383492Y-13551470D02*
X6373968Y-13541946D01*
X6373968Y-13541946D02*
X6364444Y-13522898D01*
X6364444Y-13522898D02*
X6354921Y-13484803D01*
X6354921Y-13484803D02*
X6354921Y-13437184D01*
X6354921Y-13437184D02*
X6364444Y-13399089D01*
X6364444Y-13399089D02*
X6373968Y-13380041D01*
X6373968Y-13380041D02*
X6383492Y-13370518D01*
X6383492Y-13370518D02*
X6402540Y-13360994D01*
X6554921Y-13541946D02*
X6564444Y-13551470D01*
X6564444Y-13551470D02*
X6554921Y-13560994D01*
X6554921Y-13560994D02*
X6545397Y-13551470D01*
X6545397Y-13551470D02*
X6554921Y-13541946D01*
X6554921Y-13541946D02*
X6554921Y-13560994D01*
X6688254Y-13360994D02*
X6707302Y-13360994D01*
X6707302Y-13360994D02*
X6726349Y-13370518D01*
X6726349Y-13370518D02*
X6735873Y-13380041D01*
X6735873Y-13380041D02*
X6745397Y-13399089D01*
X6745397Y-13399089D02*
X6754921Y-13437184D01*
X6754921Y-13437184D02*
X6754921Y-13484803D01*
X6754921Y-13484803D02*
X6745397Y-13522898D01*
X6745397Y-13522898D02*
X6735873Y-13541946D01*
X6735873Y-13541946D02*
X6726349Y-13551470D01*
X6726349Y-13551470D02*
X6707302Y-13560994D01*
X6707302Y-13560994D02*
X6688254Y-13560994D01*
X6688254Y-13560994D02*
X6669206Y-13551470D01*
X6669206Y-13551470D02*
X6659682Y-13541946D01*
X6659682Y-13541946D02*
X6650159Y-13522898D01*
X6650159Y-13522898D02*
X6640635Y-13484803D01*
X6640635Y-13484803D02*
X6640635Y-13437184D01*
X6640635Y-13437184D02*
X6650159Y-13399089D01*
X6650159Y-13399089D02*
X6659682Y-13380041D01*
X6659682Y-13380041D02*
X6669206Y-13370518D01*
X6669206Y-13370518D02*
X6688254Y-13360994D01*
X6831111Y-13380041D02*
X6840635Y-13370518D01*
X6840635Y-13370518D02*
X6859682Y-13360994D01*
X6859682Y-13360994D02*
X6907302Y-13360994D01*
X6907302Y-13360994D02*
X6926349Y-13370518D01*
X6926349Y-13370518D02*
X6935873Y-13380041D01*
X6935873Y-13380041D02*
X6945397Y-13399089D01*
X6945397Y-13399089D02*
X6945397Y-13418137D01*
X6945397Y-13418137D02*
X6935873Y-13446708D01*
X6935873Y-13446708D02*
X6821587Y-13560994D01*
X6821587Y-13560994D02*
X6945397Y-13560994D01*
X7040635Y-13560994D02*
X7078730Y-13560994D01*
X7078730Y-13560994D02*
X7097778Y-13551470D01*
X7097778Y-13551470D02*
X7107302Y-13541946D01*
X7107302Y-13541946D02*
X7126349Y-13513375D01*
X7126349Y-13513375D02*
X7135873Y-13475279D01*
X7135873Y-13475279D02*
X7135873Y-13399089D01*
X7135873Y-13399089D02*
X7126349Y-13380041D01*
X7126349Y-13380041D02*
X7116825Y-13370518D01*
X7116825Y-13370518D02*
X7097778Y-13360994D01*
X7097778Y-13360994D02*
X7059682Y-13360994D01*
X7059682Y-13360994D02*
X7040635Y-13370518D01*
X7040635Y-13370518D02*
X7031111Y-13380041D01*
X7031111Y-13380041D02*
X7021587Y-13399089D01*
X7021587Y-13399089D02*
X7021587Y-13446708D01*
X7021587Y-13446708D02*
X7031111Y-13465756D01*
X7031111Y-13465756D02*
X7040635Y-13475279D01*
X7040635Y-13475279D02*
X7059682Y-13484803D01*
X7059682Y-13484803D02*
X7097778Y-13484803D01*
X7097778Y-13484803D02*
X7116825Y-13475279D01*
X7116825Y-13475279D02*
X7126349Y-13465756D01*
X7126349Y-13465756D02*
X7135873Y-13446708D01*
X7316825Y-13360994D02*
X7221587Y-13360994D01*
X7221587Y-13360994D02*
X7212063Y-13456232D01*
X7212063Y-13456232D02*
X7221587Y-13446708D01*
X7221587Y-13446708D02*
X7240635Y-13437184D01*
X7240635Y-13437184D02*
X7288254Y-13437184D01*
X7288254Y-13437184D02*
X7307302Y-13446708D01*
X7307302Y-13446708D02*
X7316825Y-13456232D01*
X7316825Y-13456232D02*
X7326349Y-13475279D01*
X7326349Y-13475279D02*
X7326349Y-13522898D01*
X7326349Y-13522898D02*
X7316825Y-13541946D01*
X7316825Y-13541946D02*
X7307302Y-13551470D01*
X7307302Y-13551470D02*
X7288254Y-13560994D01*
X7288254Y-13560994D02*
X7240635Y-13560994D01*
X7240635Y-13560994D02*
X7221587Y-13551470D01*
X7221587Y-13551470D02*
X7212063Y-13541946D01*
X7402540Y-13360994D02*
X7402540Y-13399089D01*
X7478730Y-13360994D02*
X7478730Y-13399089D01*
X7773968Y-13637184D02*
X7764444Y-13627660D01*
X7764444Y-13627660D02*
X7745397Y-13599089D01*
X7745397Y-13599089D02*
X7735873Y-13580041D01*
X7735873Y-13580041D02*
X7726349Y-13551470D01*
X7726349Y-13551470D02*
X7716825Y-13503851D01*
X7716825Y-13503851D02*
X7716825Y-13465756D01*
X7716825Y-13465756D02*
X7726349Y-13418137D01*
X7726349Y-13418137D02*
X7735873Y-13389565D01*
X7735873Y-13389565D02*
X7745397Y-13370518D01*
X7745397Y-13370518D02*
X7764444Y-13341946D01*
X7764444Y-13341946D02*
X7773968Y-13332422D01*
X7935873Y-13360994D02*
X7897778Y-13360994D01*
X7897778Y-13360994D02*
X7878730Y-13370518D01*
X7878730Y-13370518D02*
X7869206Y-13380041D01*
X7869206Y-13380041D02*
X7850159Y-13408613D01*
X7850159Y-13408613D02*
X7840635Y-13446708D01*
X7840635Y-13446708D02*
X7840635Y-13522898D01*
X7840635Y-13522898D02*
X7850159Y-13541946D01*
X7850159Y-13541946D02*
X7859683Y-13551470D01*
X7859683Y-13551470D02*
X7878730Y-13560994D01*
X7878730Y-13560994D02*
X7916825Y-13560994D01*
X7916825Y-13560994D02*
X7935873Y-13551470D01*
X7935873Y-13551470D02*
X7945397Y-13541946D01*
X7945397Y-13541946D02*
X7954921Y-13522898D01*
X7954921Y-13522898D02*
X7954921Y-13475279D01*
X7954921Y-13475279D02*
X7945397Y-13456232D01*
X7945397Y-13456232D02*
X7935873Y-13446708D01*
X7935873Y-13446708D02*
X7916825Y-13437184D01*
X7916825Y-13437184D02*
X7878730Y-13437184D01*
X7878730Y-13437184D02*
X7859683Y-13446708D01*
X7859683Y-13446708D02*
X7850159Y-13456232D01*
X7850159Y-13456232D02*
X7840635Y-13475279D01*
X8193016Y-13560994D02*
X8193016Y-13360994D01*
X8278730Y-13560994D02*
X8278730Y-13456232D01*
X8278730Y-13456232D02*
X8269206Y-13437184D01*
X8269206Y-13437184D02*
X8250159Y-13427660D01*
X8250159Y-13427660D02*
X8221587Y-13427660D01*
X8221587Y-13427660D02*
X8202540Y-13437184D01*
X8202540Y-13437184D02*
X8193016Y-13446708D01*
X8402540Y-13560994D02*
X8383492Y-13551470D01*
X8383492Y-13551470D02*
X8373968Y-13541946D01*
X8373968Y-13541946D02*
X8364445Y-13522898D01*
X8364445Y-13522898D02*
X8364445Y-13465756D01*
X8364445Y-13465756D02*
X8373968Y-13446708D01*
X8373968Y-13446708D02*
X8383492Y-13437184D01*
X8383492Y-13437184D02*
X8402540Y-13427660D01*
X8402540Y-13427660D02*
X8431111Y-13427660D01*
X8431111Y-13427660D02*
X8450159Y-13437184D01*
X8450159Y-13437184D02*
X8459683Y-13446708D01*
X8459683Y-13446708D02*
X8469207Y-13465756D01*
X8469207Y-13465756D02*
X8469207Y-13522898D01*
X8469207Y-13522898D02*
X8459683Y-13541946D01*
X8459683Y-13541946D02*
X8450159Y-13551470D01*
X8450159Y-13551470D02*
X8431111Y-13560994D01*
X8431111Y-13560994D02*
X8402540Y-13560994D01*
X8583492Y-13560994D02*
X8564445Y-13551470D01*
X8564445Y-13551470D02*
X8554921Y-13532422D01*
X8554921Y-13532422D02*
X8554921Y-13360994D01*
X8735873Y-13551470D02*
X8716826Y-13560994D01*
X8716826Y-13560994D02*
X8678730Y-13560994D01*
X8678730Y-13560994D02*
X8659683Y-13551470D01*
X8659683Y-13551470D02*
X8650159Y-13532422D01*
X8650159Y-13532422D02*
X8650159Y-13456232D01*
X8650159Y-13456232D02*
X8659683Y-13437184D01*
X8659683Y-13437184D02*
X8678730Y-13427660D01*
X8678730Y-13427660D02*
X8716826Y-13427660D01*
X8716826Y-13427660D02*
X8735873Y-13437184D01*
X8735873Y-13437184D02*
X8745397Y-13456232D01*
X8745397Y-13456232D02*
X8745397Y-13475279D01*
X8745397Y-13475279D02*
X8650159Y-13494327D01*
X8821588Y-13551470D02*
X8840635Y-13560994D01*
X8840635Y-13560994D02*
X8878730Y-13560994D01*
X8878730Y-13560994D02*
X8897778Y-13551470D01*
X8897778Y-13551470D02*
X8907302Y-13532422D01*
X8907302Y-13532422D02*
X8907302Y-13522898D01*
X8907302Y-13522898D02*
X8897778Y-13503851D01*
X8897778Y-13503851D02*
X8878730Y-13494327D01*
X8878730Y-13494327D02*
X8850159Y-13494327D01*
X8850159Y-13494327D02*
X8831111Y-13484803D01*
X8831111Y-13484803D02*
X8821588Y-13465756D01*
X8821588Y-13465756D02*
X8821588Y-13456232D01*
X8821588Y-13456232D02*
X8831111Y-13437184D01*
X8831111Y-13437184D02*
X8850159Y-13427660D01*
X8850159Y-13427660D02*
X8878730Y-13427660D01*
X8878730Y-13427660D02*
X8897778Y-13437184D01*
X8973969Y-13637184D02*
X8983492Y-13627660D01*
X8983492Y-13627660D02*
X9002540Y-13599089D01*
X9002540Y-13599089D02*
X9012064Y-13580041D01*
X9012064Y-13580041D02*
X9021588Y-13551470D01*
X9021588Y-13551470D02*
X9031111Y-13503851D01*
X9031111Y-13503851D02*
X9031111Y-13465756D01*
X9031111Y-13465756D02*
X9021588Y-13418137D01*
X9021588Y-13418137D02*
X9012064Y-13389565D01*
X9012064Y-13389565D02*
X9002540Y-13370518D01*
X9002540Y-13370518D02*
X8983492Y-13341946D01*
X8983492Y-13341946D02*
X8973969Y-13332422D01*
D12*
X4185726Y-13765330D02*
X4185726Y-13701690D01*
X4122085Y-13701690D01*
X4122085Y-13765330D01*
X4185726Y-13765330D01*
D11*
X4497778Y-13624994D02*
X4516825Y-13624994D01*
X4516825Y-13624994D02*
X4535873Y-13634518D01*
X4535873Y-13634518D02*
X4545397Y-13644041D01*
X4545397Y-13644041D02*
X4554920Y-13663089D01*
X4554920Y-13663089D02*
X4564444Y-13701184D01*
X4564444Y-13701184D02*
X4564444Y-13748803D01*
X4564444Y-13748803D02*
X4554920Y-13786898D01*
X4554920Y-13786898D02*
X4545397Y-13805946D01*
X4545397Y-13805946D02*
X4535873Y-13815470D01*
X4535873Y-13815470D02*
X4516825Y-13824994D01*
X4516825Y-13824994D02*
X4497778Y-13824994D01*
X4497778Y-13824994D02*
X4478730Y-13815470D01*
X4478730Y-13815470D02*
X4469206Y-13805946D01*
X4469206Y-13805946D02*
X4459682Y-13786898D01*
X4459682Y-13786898D02*
X4450159Y-13748803D01*
X4450159Y-13748803D02*
X4450159Y-13701184D01*
X4450159Y-13701184D02*
X4459682Y-13663089D01*
X4459682Y-13663089D02*
X4469206Y-13644041D01*
X4469206Y-13644041D02*
X4478730Y-13634518D01*
X4478730Y-13634518D02*
X4497778Y-13624994D01*
X4650159Y-13805946D02*
X4659682Y-13815470D01*
X4659682Y-13815470D02*
X4650159Y-13824994D01*
X4650159Y-13824994D02*
X4640635Y-13815470D01*
X4640635Y-13815470D02*
X4650159Y-13805946D01*
X4650159Y-13805946D02*
X4650159Y-13824994D01*
X4754920Y-13824994D02*
X4793016Y-13824994D01*
X4793016Y-13824994D02*
X4812063Y-13815470D01*
X4812063Y-13815470D02*
X4821587Y-13805946D01*
X4821587Y-13805946D02*
X4840635Y-13777375D01*
X4840635Y-13777375D02*
X4850159Y-13739279D01*
X4850159Y-13739279D02*
X4850159Y-13663089D01*
X4850159Y-13663089D02*
X4840635Y-13644041D01*
X4840635Y-13644041D02*
X4831111Y-13634518D01*
X4831111Y-13634518D02*
X4812063Y-13624994D01*
X4812063Y-13624994D02*
X4773968Y-13624994D01*
X4773968Y-13624994D02*
X4754920Y-13634518D01*
X4754920Y-13634518D02*
X4745397Y-13644041D01*
X4745397Y-13644041D02*
X4735873Y-13663089D01*
X4735873Y-13663089D02*
X4735873Y-13710708D01*
X4735873Y-13710708D02*
X4745397Y-13729756D01*
X4745397Y-13729756D02*
X4754920Y-13739279D01*
X4754920Y-13739279D02*
X4773968Y-13748803D01*
X4773968Y-13748803D02*
X4812063Y-13748803D01*
X4812063Y-13748803D02*
X4831111Y-13739279D01*
X4831111Y-13739279D02*
X4840635Y-13729756D01*
X4840635Y-13729756D02*
X4850159Y-13710708D01*
X4973968Y-13624994D02*
X4993016Y-13624994D01*
X4993016Y-13624994D02*
X5012063Y-13634518D01*
X5012063Y-13634518D02*
X5021587Y-13644041D01*
X5021587Y-13644041D02*
X5031111Y-13663089D01*
X5031111Y-13663089D02*
X5040635Y-13701184D01*
X5040635Y-13701184D02*
X5040635Y-13748803D01*
X5040635Y-13748803D02*
X5031111Y-13786898D01*
X5031111Y-13786898D02*
X5021587Y-13805946D01*
X5021587Y-13805946D02*
X5012063Y-13815470D01*
X5012063Y-13815470D02*
X4993016Y-13824994D01*
X4993016Y-13824994D02*
X4973968Y-13824994D01*
X4973968Y-13824994D02*
X4954920Y-13815470D01*
X4954920Y-13815470D02*
X4945397Y-13805946D01*
X4945397Y-13805946D02*
X4935873Y-13786898D01*
X4935873Y-13786898D02*
X4926349Y-13748803D01*
X4926349Y-13748803D02*
X4926349Y-13701184D01*
X4926349Y-13701184D02*
X4935873Y-13663089D01*
X4935873Y-13663089D02*
X4945397Y-13644041D01*
X4945397Y-13644041D02*
X4954920Y-13634518D01*
X4954920Y-13634518D02*
X4973968Y-13624994D01*
X5164444Y-13624994D02*
X5183492Y-13624994D01*
X5183492Y-13624994D02*
X5202540Y-13634518D01*
X5202540Y-13634518D02*
X5212063Y-13644041D01*
X5212063Y-13644041D02*
X5221587Y-13663089D01*
X5221587Y-13663089D02*
X5231111Y-13701184D01*
X5231111Y-13701184D02*
X5231111Y-13748803D01*
X5231111Y-13748803D02*
X5221587Y-13786898D01*
X5221587Y-13786898D02*
X5212063Y-13805946D01*
X5212063Y-13805946D02*
X5202540Y-13815470D01*
X5202540Y-13815470D02*
X5183492Y-13824994D01*
X5183492Y-13824994D02*
X5164444Y-13824994D01*
X5164444Y-13824994D02*
X5145397Y-13815470D01*
X5145397Y-13815470D02*
X5135873Y-13805946D01*
X5135873Y-13805946D02*
X5126349Y-13786898D01*
X5126349Y-13786898D02*
X5116825Y-13748803D01*
X5116825Y-13748803D02*
X5116825Y-13701184D01*
X5116825Y-13701184D02*
X5126349Y-13663089D01*
X5126349Y-13663089D02*
X5135873Y-13644041D01*
X5135873Y-13644041D02*
X5145397Y-13634518D01*
X5145397Y-13634518D02*
X5164444Y-13624994D01*
X5316825Y-13824994D02*
X5316825Y-13691660D01*
X5316825Y-13710708D02*
X5326349Y-13701184D01*
X5326349Y-13701184D02*
X5345397Y-13691660D01*
X5345397Y-13691660D02*
X5373968Y-13691660D01*
X5373968Y-13691660D02*
X5393016Y-13701184D01*
X5393016Y-13701184D02*
X5402540Y-13720232D01*
X5402540Y-13720232D02*
X5402540Y-13824994D01*
X5402540Y-13720232D02*
X5412063Y-13701184D01*
X5412063Y-13701184D02*
X5431111Y-13691660D01*
X5431111Y-13691660D02*
X5459682Y-13691660D01*
X5459682Y-13691660D02*
X5478730Y-13701184D01*
X5478730Y-13701184D02*
X5488254Y-13720232D01*
X5488254Y-13720232D02*
X5488254Y-13824994D01*
X5583492Y-13824994D02*
X5583492Y-13691660D01*
X5583492Y-13710708D02*
X5593016Y-13701184D01*
X5593016Y-13701184D02*
X5612063Y-13691660D01*
X5612063Y-13691660D02*
X5640635Y-13691660D01*
X5640635Y-13691660D02*
X5659682Y-13701184D01*
X5659682Y-13701184D02*
X5669206Y-13720232D01*
X5669206Y-13720232D02*
X5669206Y-13824994D01*
X5669206Y-13720232D02*
X5678730Y-13701184D01*
X5678730Y-13701184D02*
X5697778Y-13691660D01*
X5697778Y-13691660D02*
X5726349Y-13691660D01*
X5726349Y-13691660D02*
X5745397Y-13701184D01*
X5745397Y-13701184D02*
X5754920Y-13720232D01*
X5754920Y-13720232D02*
X5754920Y-13824994D01*
X6145397Y-13615470D02*
X5973968Y-13872613D01*
X6402540Y-13624994D02*
X6421587Y-13624994D01*
X6421587Y-13624994D02*
X6440635Y-13634518D01*
X6440635Y-13634518D02*
X6450159Y-13644041D01*
X6450159Y-13644041D02*
X6459682Y-13663089D01*
X6459682Y-13663089D02*
X6469206Y-13701184D01*
X6469206Y-13701184D02*
X6469206Y-13748803D01*
X6469206Y-13748803D02*
X6459682Y-13786898D01*
X6459682Y-13786898D02*
X6450159Y-13805946D01*
X6450159Y-13805946D02*
X6440635Y-13815470D01*
X6440635Y-13815470D02*
X6421587Y-13824994D01*
X6421587Y-13824994D02*
X6402540Y-13824994D01*
X6402540Y-13824994D02*
X6383492Y-13815470D01*
X6383492Y-13815470D02*
X6373968Y-13805946D01*
X6373968Y-13805946D02*
X6364444Y-13786898D01*
X6364444Y-13786898D02*
X6354921Y-13748803D01*
X6354921Y-13748803D02*
X6354921Y-13701184D01*
X6354921Y-13701184D02*
X6364444Y-13663089D01*
X6364444Y-13663089D02*
X6373968Y-13644041D01*
X6373968Y-13644041D02*
X6383492Y-13634518D01*
X6383492Y-13634518D02*
X6402540Y-13624994D01*
X6554921Y-13805946D02*
X6564444Y-13815470D01*
X6564444Y-13815470D02*
X6554921Y-13824994D01*
X6554921Y-13824994D02*
X6545397Y-13815470D01*
X6545397Y-13815470D02*
X6554921Y-13805946D01*
X6554921Y-13805946D02*
X6554921Y-13824994D01*
X6688254Y-13624994D02*
X6707302Y-13624994D01*
X6707302Y-13624994D02*
X6726349Y-13634518D01*
X6726349Y-13634518D02*
X6735873Y-13644041D01*
X6735873Y-13644041D02*
X6745397Y-13663089D01*
X6745397Y-13663089D02*
X6754921Y-13701184D01*
X6754921Y-13701184D02*
X6754921Y-13748803D01*
X6754921Y-13748803D02*
X6745397Y-13786898D01*
X6745397Y-13786898D02*
X6735873Y-13805946D01*
X6735873Y-13805946D02*
X6726349Y-13815470D01*
X6726349Y-13815470D02*
X6707302Y-13824994D01*
X6707302Y-13824994D02*
X6688254Y-13824994D01*
X6688254Y-13824994D02*
X6669206Y-13815470D01*
X6669206Y-13815470D02*
X6659682Y-13805946D01*
X6659682Y-13805946D02*
X6650159Y-13786898D01*
X6650159Y-13786898D02*
X6640635Y-13748803D01*
X6640635Y-13748803D02*
X6640635Y-13701184D01*
X6640635Y-13701184D02*
X6650159Y-13663089D01*
X6650159Y-13663089D02*
X6659682Y-13644041D01*
X6659682Y-13644041D02*
X6669206Y-13634518D01*
X6669206Y-13634518D02*
X6688254Y-13624994D01*
X6821587Y-13624994D02*
X6945397Y-13624994D01*
X6945397Y-13624994D02*
X6878730Y-13701184D01*
X6878730Y-13701184D02*
X6907302Y-13701184D01*
X6907302Y-13701184D02*
X6926349Y-13710708D01*
X6926349Y-13710708D02*
X6935873Y-13720232D01*
X6935873Y-13720232D02*
X6945397Y-13739279D01*
X6945397Y-13739279D02*
X6945397Y-13786898D01*
X6945397Y-13786898D02*
X6935873Y-13805946D01*
X6935873Y-13805946D02*
X6926349Y-13815470D01*
X6926349Y-13815470D02*
X6907302Y-13824994D01*
X6907302Y-13824994D02*
X6850159Y-13824994D01*
X6850159Y-13824994D02*
X6831111Y-13815470D01*
X6831111Y-13815470D02*
X6821587Y-13805946D01*
X7126349Y-13624994D02*
X7031111Y-13624994D01*
X7031111Y-13624994D02*
X7021587Y-13720232D01*
X7021587Y-13720232D02*
X7031111Y-13710708D01*
X7031111Y-13710708D02*
X7050159Y-13701184D01*
X7050159Y-13701184D02*
X7097778Y-13701184D01*
X7097778Y-13701184D02*
X7116825Y-13710708D01*
X7116825Y-13710708D02*
X7126349Y-13720232D01*
X7126349Y-13720232D02*
X7135873Y-13739279D01*
X7135873Y-13739279D02*
X7135873Y-13786898D01*
X7135873Y-13786898D02*
X7126349Y-13805946D01*
X7126349Y-13805946D02*
X7116825Y-13815470D01*
X7116825Y-13815470D02*
X7097778Y-13824994D01*
X7097778Y-13824994D02*
X7050159Y-13824994D01*
X7050159Y-13824994D02*
X7031111Y-13815470D01*
X7031111Y-13815470D02*
X7021587Y-13805946D01*
X7307302Y-13691660D02*
X7307302Y-13824994D01*
X7259682Y-13615470D02*
X7212063Y-13758327D01*
X7212063Y-13758327D02*
X7335873Y-13758327D01*
X7402540Y-13624994D02*
X7402540Y-13663089D01*
X7478730Y-13624994D02*
X7478730Y-13663089D01*
X7773968Y-13901184D02*
X7764444Y-13891660D01*
X7764444Y-13891660D02*
X7745397Y-13863089D01*
X7745397Y-13863089D02*
X7735873Y-13844041D01*
X7735873Y-13844041D02*
X7726349Y-13815470D01*
X7726349Y-13815470D02*
X7716825Y-13767851D01*
X7716825Y-13767851D02*
X7716825Y-13729756D01*
X7716825Y-13729756D02*
X7726349Y-13682137D01*
X7726349Y-13682137D02*
X7735873Y-13653565D01*
X7735873Y-13653565D02*
X7745397Y-13634518D01*
X7745397Y-13634518D02*
X7764444Y-13605946D01*
X7764444Y-13605946D02*
X7773968Y-13596422D01*
X7878730Y-13710708D02*
X7859683Y-13701184D01*
X7859683Y-13701184D02*
X7850159Y-13691660D01*
X7850159Y-13691660D02*
X7840635Y-13672613D01*
X7840635Y-13672613D02*
X7840635Y-13663089D01*
X7840635Y-13663089D02*
X7850159Y-13644041D01*
X7850159Y-13644041D02*
X7859683Y-13634518D01*
X7859683Y-13634518D02*
X7878730Y-13624994D01*
X7878730Y-13624994D02*
X7916825Y-13624994D01*
X7916825Y-13624994D02*
X7935873Y-13634518D01*
X7935873Y-13634518D02*
X7945397Y-13644041D01*
X7945397Y-13644041D02*
X7954921Y-13663089D01*
X7954921Y-13663089D02*
X7954921Y-13672613D01*
X7954921Y-13672613D02*
X7945397Y-13691660D01*
X7945397Y-13691660D02*
X7935873Y-13701184D01*
X7935873Y-13701184D02*
X7916825Y-13710708D01*
X7916825Y-13710708D02*
X7878730Y-13710708D01*
X7878730Y-13710708D02*
X7859683Y-13720232D01*
X7859683Y-13720232D02*
X7850159Y-13729756D01*
X7850159Y-13729756D02*
X7840635Y-13748803D01*
X7840635Y-13748803D02*
X7840635Y-13786898D01*
X7840635Y-13786898D02*
X7850159Y-13805946D01*
X7850159Y-13805946D02*
X7859683Y-13815470D01*
X7859683Y-13815470D02*
X7878730Y-13824994D01*
X7878730Y-13824994D02*
X7916825Y-13824994D01*
X7916825Y-13824994D02*
X7935873Y-13815470D01*
X7935873Y-13815470D02*
X7945397Y-13805946D01*
X7945397Y-13805946D02*
X7954921Y-13786898D01*
X7954921Y-13786898D02*
X7954921Y-13748803D01*
X7954921Y-13748803D02*
X7945397Y-13729756D01*
X7945397Y-13729756D02*
X7935873Y-13720232D01*
X7935873Y-13720232D02*
X7916825Y-13710708D01*
X8078730Y-13624994D02*
X8097778Y-13624994D01*
X8097778Y-13624994D02*
X8116825Y-13634518D01*
X8116825Y-13634518D02*
X8126349Y-13644041D01*
X8126349Y-13644041D02*
X8135873Y-13663089D01*
X8135873Y-13663089D02*
X8145397Y-13701184D01*
X8145397Y-13701184D02*
X8145397Y-13748803D01*
X8145397Y-13748803D02*
X8135873Y-13786898D01*
X8135873Y-13786898D02*
X8126349Y-13805946D01*
X8126349Y-13805946D02*
X8116825Y-13815470D01*
X8116825Y-13815470D02*
X8097778Y-13824994D01*
X8097778Y-13824994D02*
X8078730Y-13824994D01*
X8078730Y-13824994D02*
X8059683Y-13815470D01*
X8059683Y-13815470D02*
X8050159Y-13805946D01*
X8050159Y-13805946D02*
X8040635Y-13786898D01*
X8040635Y-13786898D02*
X8031111Y-13748803D01*
X8031111Y-13748803D02*
X8031111Y-13701184D01*
X8031111Y-13701184D02*
X8040635Y-13663089D01*
X8040635Y-13663089D02*
X8050159Y-13644041D01*
X8050159Y-13644041D02*
X8059683Y-13634518D01*
X8059683Y-13634518D02*
X8078730Y-13624994D01*
X8383492Y-13824994D02*
X8383492Y-13624994D01*
X8469207Y-13824994D02*
X8469207Y-13720232D01*
X8469207Y-13720232D02*
X8459683Y-13701184D01*
X8459683Y-13701184D02*
X8440635Y-13691660D01*
X8440635Y-13691660D02*
X8412064Y-13691660D01*
X8412064Y-13691660D02*
X8393016Y-13701184D01*
X8393016Y-13701184D02*
X8383492Y-13710708D01*
X8593016Y-13824994D02*
X8573968Y-13815470D01*
X8573968Y-13815470D02*
X8564445Y-13805946D01*
X8564445Y-13805946D02*
X8554921Y-13786898D01*
X8554921Y-13786898D02*
X8554921Y-13729756D01*
X8554921Y-13729756D02*
X8564445Y-13710708D01*
X8564445Y-13710708D02*
X8573968Y-13701184D01*
X8573968Y-13701184D02*
X8593016Y-13691660D01*
X8593016Y-13691660D02*
X8621588Y-13691660D01*
X8621588Y-13691660D02*
X8640635Y-13701184D01*
X8640635Y-13701184D02*
X8650159Y-13710708D01*
X8650159Y-13710708D02*
X8659683Y-13729756D01*
X8659683Y-13729756D02*
X8659683Y-13786898D01*
X8659683Y-13786898D02*
X8650159Y-13805946D01*
X8650159Y-13805946D02*
X8640635Y-13815470D01*
X8640635Y-13815470D02*
X8621588Y-13824994D01*
X8621588Y-13824994D02*
X8593016Y-13824994D01*
X8773968Y-13824994D02*
X8754921Y-13815470D01*
X8754921Y-13815470D02*
X8745397Y-13796422D01*
X8745397Y-13796422D02*
X8745397Y-13624994D01*
X8926349Y-13815470D02*
X8907302Y-13824994D01*
X8907302Y-13824994D02*
X8869207Y-13824994D01*
X8869207Y-13824994D02*
X8850159Y-13815470D01*
X8850159Y-13815470D02*
X8840635Y-13796422D01*
X8840635Y-13796422D02*
X8840635Y-13720232D01*
X8840635Y-13720232D02*
X8850159Y-13701184D01*
X8850159Y-13701184D02*
X8869207Y-13691660D01*
X8869207Y-13691660D02*
X8907302Y-13691660D01*
X8907302Y-13691660D02*
X8926349Y-13701184D01*
X8926349Y-13701184D02*
X8935873Y-13720232D01*
X8935873Y-13720232D02*
X8935873Y-13739279D01*
X8935873Y-13739279D02*
X8840635Y-13758327D01*
X9012064Y-13815470D02*
X9031111Y-13824994D01*
X9031111Y-13824994D02*
X9069207Y-13824994D01*
X9069207Y-13824994D02*
X9088254Y-13815470D01*
X9088254Y-13815470D02*
X9097778Y-13796422D01*
X9097778Y-13796422D02*
X9097778Y-13786898D01*
X9097778Y-13786898D02*
X9088254Y-13767851D01*
X9088254Y-13767851D02*
X9069207Y-13758327D01*
X9069207Y-13758327D02*
X9040635Y-13758327D01*
X9040635Y-13758327D02*
X9021588Y-13748803D01*
X9021588Y-13748803D02*
X9012064Y-13729756D01*
X9012064Y-13729756D02*
X9012064Y-13720232D01*
X9012064Y-13720232D02*
X9021588Y-13701184D01*
X9021588Y-13701184D02*
X9040635Y-13691660D01*
X9040635Y-13691660D02*
X9069207Y-13691660D01*
X9069207Y-13691660D02*
X9088254Y-13701184D01*
X9164445Y-13901184D02*
X9173969Y-13891660D01*
X9173969Y-13891660D02*
X9193016Y-13863089D01*
X9193016Y-13863089D02*
X9202540Y-13844041D01*
X9202540Y-13844041D02*
X9212064Y-13815470D01*
X9212064Y-13815470D02*
X9221588Y-13767851D01*
X9221588Y-13767851D02*
X9221588Y-13729756D01*
X9221588Y-13729756D02*
X9212064Y-13682137D01*
X9212064Y-13682137D02*
X9202540Y-13653565D01*
X9202540Y-13653565D02*
X9193016Y-13634518D01*
X9193016Y-13634518D02*
X9173969Y-13605946D01*
X9173969Y-13605946D02*
X9164445Y-13596422D01*
D12*
X4148905Y-14047510D02*
X4198906Y-13997510D01*
X4148905Y-13947510D01*
X4098905Y-13997510D01*
X4148905Y-14047510D01*
D11*
X4564444Y-14088994D02*
X4450159Y-14088994D01*
X4507301Y-14088994D02*
X4507301Y-13888994D01*
X4507301Y-13888994D02*
X4488254Y-13917565D01*
X4488254Y-13917565D02*
X4469206Y-13936613D01*
X4469206Y-13936613D02*
X4450159Y-13946137D01*
X4650159Y-14069946D02*
X4659682Y-14079470D01*
X4659682Y-14079470D02*
X4650159Y-14088994D01*
X4650159Y-14088994D02*
X4640635Y-14079470D01*
X4640635Y-14079470D02*
X4650159Y-14069946D01*
X4650159Y-14069946D02*
X4650159Y-14088994D01*
X4783492Y-13888994D02*
X4802540Y-13888994D01*
X4802540Y-13888994D02*
X4821587Y-13898518D01*
X4821587Y-13898518D02*
X4831111Y-13908041D01*
X4831111Y-13908041D02*
X4840635Y-13927089D01*
X4840635Y-13927089D02*
X4850159Y-13965184D01*
X4850159Y-13965184D02*
X4850159Y-14012803D01*
X4850159Y-14012803D02*
X4840635Y-14050898D01*
X4840635Y-14050898D02*
X4831111Y-14069946D01*
X4831111Y-14069946D02*
X4821587Y-14079470D01*
X4821587Y-14079470D02*
X4802540Y-14088994D01*
X4802540Y-14088994D02*
X4783492Y-14088994D01*
X4783492Y-14088994D02*
X4764444Y-14079470D01*
X4764444Y-14079470D02*
X4754920Y-14069946D01*
X4754920Y-14069946D02*
X4745397Y-14050898D01*
X4745397Y-14050898D02*
X4735873Y-14012803D01*
X4735873Y-14012803D02*
X4735873Y-13965184D01*
X4735873Y-13965184D02*
X4745397Y-13927089D01*
X4745397Y-13927089D02*
X4754920Y-13908041D01*
X4754920Y-13908041D02*
X4764444Y-13898518D01*
X4764444Y-13898518D02*
X4783492Y-13888994D01*
X4973968Y-13888994D02*
X4993016Y-13888994D01*
X4993016Y-13888994D02*
X5012063Y-13898518D01*
X5012063Y-13898518D02*
X5021587Y-13908041D01*
X5021587Y-13908041D02*
X5031111Y-13927089D01*
X5031111Y-13927089D02*
X5040635Y-13965184D01*
X5040635Y-13965184D02*
X5040635Y-14012803D01*
X5040635Y-14012803D02*
X5031111Y-14050898D01*
X5031111Y-14050898D02*
X5021587Y-14069946D01*
X5021587Y-14069946D02*
X5012063Y-14079470D01*
X5012063Y-14079470D02*
X4993016Y-14088994D01*
X4993016Y-14088994D02*
X4973968Y-14088994D01*
X4973968Y-14088994D02*
X4954920Y-14079470D01*
X4954920Y-14079470D02*
X4945397Y-14069946D01*
X4945397Y-14069946D02*
X4935873Y-14050898D01*
X4935873Y-14050898D02*
X4926349Y-14012803D01*
X4926349Y-14012803D02*
X4926349Y-13965184D01*
X4926349Y-13965184D02*
X4935873Y-13927089D01*
X4935873Y-13927089D02*
X4945397Y-13908041D01*
X4945397Y-13908041D02*
X4954920Y-13898518D01*
X4954920Y-13898518D02*
X4973968Y-13888994D01*
X5164444Y-13888994D02*
X5183492Y-13888994D01*
X5183492Y-13888994D02*
X5202540Y-13898518D01*
X5202540Y-13898518D02*
X5212063Y-13908041D01*
X5212063Y-13908041D02*
X5221587Y-13927089D01*
X5221587Y-13927089D02*
X5231111Y-13965184D01*
X5231111Y-13965184D02*
X5231111Y-14012803D01*
X5231111Y-14012803D02*
X5221587Y-14050898D01*
X5221587Y-14050898D02*
X5212063Y-14069946D01*
X5212063Y-14069946D02*
X5202540Y-14079470D01*
X5202540Y-14079470D02*
X5183492Y-14088994D01*
X5183492Y-14088994D02*
X5164444Y-14088994D01*
X5164444Y-14088994D02*
X5145397Y-14079470D01*
X5145397Y-14079470D02*
X5135873Y-14069946D01*
X5135873Y-14069946D02*
X5126349Y-14050898D01*
X5126349Y-14050898D02*
X5116825Y-14012803D01*
X5116825Y-14012803D02*
X5116825Y-13965184D01*
X5116825Y-13965184D02*
X5126349Y-13927089D01*
X5126349Y-13927089D02*
X5135873Y-13908041D01*
X5135873Y-13908041D02*
X5145397Y-13898518D01*
X5145397Y-13898518D02*
X5164444Y-13888994D01*
X5316825Y-14088994D02*
X5316825Y-13955660D01*
X5316825Y-13974708D02*
X5326349Y-13965184D01*
X5326349Y-13965184D02*
X5345397Y-13955660D01*
X5345397Y-13955660D02*
X5373968Y-13955660D01*
X5373968Y-13955660D02*
X5393016Y-13965184D01*
X5393016Y-13965184D02*
X5402540Y-13984232D01*
X5402540Y-13984232D02*
X5402540Y-14088994D01*
X5402540Y-13984232D02*
X5412063Y-13965184D01*
X5412063Y-13965184D02*
X5431111Y-13955660D01*
X5431111Y-13955660D02*
X5459682Y-13955660D01*
X5459682Y-13955660D02*
X5478730Y-13965184D01*
X5478730Y-13965184D02*
X5488254Y-13984232D01*
X5488254Y-13984232D02*
X5488254Y-14088994D01*
X5583492Y-14088994D02*
X5583492Y-13955660D01*
X5583492Y-13974708D02*
X5593016Y-13965184D01*
X5593016Y-13965184D02*
X5612063Y-13955660D01*
X5612063Y-13955660D02*
X5640635Y-13955660D01*
X5640635Y-13955660D02*
X5659682Y-13965184D01*
X5659682Y-13965184D02*
X5669206Y-13984232D01*
X5669206Y-13984232D02*
X5669206Y-14088994D01*
X5669206Y-13984232D02*
X5678730Y-13965184D01*
X5678730Y-13965184D02*
X5697778Y-13955660D01*
X5697778Y-13955660D02*
X5726349Y-13955660D01*
X5726349Y-13955660D02*
X5745397Y-13965184D01*
X5745397Y-13965184D02*
X5754920Y-13984232D01*
X5754920Y-13984232D02*
X5754920Y-14088994D01*
X6145397Y-13879470D02*
X5973968Y-14136613D01*
X6402540Y-13888994D02*
X6421587Y-13888994D01*
X6421587Y-13888994D02*
X6440635Y-13898518D01*
X6440635Y-13898518D02*
X6450159Y-13908041D01*
X6450159Y-13908041D02*
X6459682Y-13927089D01*
X6459682Y-13927089D02*
X6469206Y-13965184D01*
X6469206Y-13965184D02*
X6469206Y-14012803D01*
X6469206Y-14012803D02*
X6459682Y-14050898D01*
X6459682Y-14050898D02*
X6450159Y-14069946D01*
X6450159Y-14069946D02*
X6440635Y-14079470D01*
X6440635Y-14079470D02*
X6421587Y-14088994D01*
X6421587Y-14088994D02*
X6402540Y-14088994D01*
X6402540Y-14088994D02*
X6383492Y-14079470D01*
X6383492Y-14079470D02*
X6373968Y-14069946D01*
X6373968Y-14069946D02*
X6364444Y-14050898D01*
X6364444Y-14050898D02*
X6354921Y-14012803D01*
X6354921Y-14012803D02*
X6354921Y-13965184D01*
X6354921Y-13965184D02*
X6364444Y-13927089D01*
X6364444Y-13927089D02*
X6373968Y-13908041D01*
X6373968Y-13908041D02*
X6383492Y-13898518D01*
X6383492Y-13898518D02*
X6402540Y-13888994D01*
X6554921Y-14069946D02*
X6564444Y-14079470D01*
X6564444Y-14079470D02*
X6554921Y-14088994D01*
X6554921Y-14088994D02*
X6545397Y-14079470D01*
X6545397Y-14079470D02*
X6554921Y-14069946D01*
X6554921Y-14069946D02*
X6554921Y-14088994D01*
X6688254Y-13888994D02*
X6707302Y-13888994D01*
X6707302Y-13888994D02*
X6726349Y-13898518D01*
X6726349Y-13898518D02*
X6735873Y-13908041D01*
X6735873Y-13908041D02*
X6745397Y-13927089D01*
X6745397Y-13927089D02*
X6754921Y-13965184D01*
X6754921Y-13965184D02*
X6754921Y-14012803D01*
X6754921Y-14012803D02*
X6745397Y-14050898D01*
X6745397Y-14050898D02*
X6735873Y-14069946D01*
X6735873Y-14069946D02*
X6726349Y-14079470D01*
X6726349Y-14079470D02*
X6707302Y-14088994D01*
X6707302Y-14088994D02*
X6688254Y-14088994D01*
X6688254Y-14088994D02*
X6669206Y-14079470D01*
X6669206Y-14079470D02*
X6659682Y-14069946D01*
X6659682Y-14069946D02*
X6650159Y-14050898D01*
X6650159Y-14050898D02*
X6640635Y-14012803D01*
X6640635Y-14012803D02*
X6640635Y-13965184D01*
X6640635Y-13965184D02*
X6650159Y-13927089D01*
X6650159Y-13927089D02*
X6659682Y-13908041D01*
X6659682Y-13908041D02*
X6669206Y-13898518D01*
X6669206Y-13898518D02*
X6688254Y-13888994D01*
X6821587Y-13888994D02*
X6945397Y-13888994D01*
X6945397Y-13888994D02*
X6878730Y-13965184D01*
X6878730Y-13965184D02*
X6907302Y-13965184D01*
X6907302Y-13965184D02*
X6926349Y-13974708D01*
X6926349Y-13974708D02*
X6935873Y-13984232D01*
X6935873Y-13984232D02*
X6945397Y-14003279D01*
X6945397Y-14003279D02*
X6945397Y-14050898D01*
X6945397Y-14050898D02*
X6935873Y-14069946D01*
X6935873Y-14069946D02*
X6926349Y-14079470D01*
X6926349Y-14079470D02*
X6907302Y-14088994D01*
X6907302Y-14088994D02*
X6850159Y-14088994D01*
X6850159Y-14088994D02*
X6831111Y-14079470D01*
X6831111Y-14079470D02*
X6821587Y-14069946D01*
X7040635Y-14088994D02*
X7078730Y-14088994D01*
X7078730Y-14088994D02*
X7097778Y-14079470D01*
X7097778Y-14079470D02*
X7107302Y-14069946D01*
X7107302Y-14069946D02*
X7126349Y-14041375D01*
X7126349Y-14041375D02*
X7135873Y-14003279D01*
X7135873Y-14003279D02*
X7135873Y-13927089D01*
X7135873Y-13927089D02*
X7126349Y-13908041D01*
X7126349Y-13908041D02*
X7116825Y-13898518D01*
X7116825Y-13898518D02*
X7097778Y-13888994D01*
X7097778Y-13888994D02*
X7059682Y-13888994D01*
X7059682Y-13888994D02*
X7040635Y-13898518D01*
X7040635Y-13898518D02*
X7031111Y-13908041D01*
X7031111Y-13908041D02*
X7021587Y-13927089D01*
X7021587Y-13927089D02*
X7021587Y-13974708D01*
X7021587Y-13974708D02*
X7031111Y-13993756D01*
X7031111Y-13993756D02*
X7040635Y-14003279D01*
X7040635Y-14003279D02*
X7059682Y-14012803D01*
X7059682Y-14012803D02*
X7097778Y-14012803D01*
X7097778Y-14012803D02*
X7116825Y-14003279D01*
X7116825Y-14003279D02*
X7126349Y-13993756D01*
X7126349Y-13993756D02*
X7135873Y-13974708D01*
X7307302Y-13955660D02*
X7307302Y-14088994D01*
X7259682Y-13879470D02*
X7212063Y-14022327D01*
X7212063Y-14022327D02*
X7335873Y-14022327D01*
X7402540Y-13888994D02*
X7402540Y-13927089D01*
X7478730Y-13888994D02*
X7478730Y-13927089D01*
X7773968Y-14165184D02*
X7764444Y-14155660D01*
X7764444Y-14155660D02*
X7745397Y-14127089D01*
X7745397Y-14127089D02*
X7735873Y-14108041D01*
X7735873Y-14108041D02*
X7726349Y-14079470D01*
X7726349Y-14079470D02*
X7716825Y-14031851D01*
X7716825Y-14031851D02*
X7716825Y-13993756D01*
X7716825Y-13993756D02*
X7726349Y-13946137D01*
X7726349Y-13946137D02*
X7735873Y-13917565D01*
X7735873Y-13917565D02*
X7745397Y-13898518D01*
X7745397Y-13898518D02*
X7764444Y-13869946D01*
X7764444Y-13869946D02*
X7773968Y-13860422D01*
X7831111Y-13888994D02*
X7954921Y-13888994D01*
X7954921Y-13888994D02*
X7888254Y-13965184D01*
X7888254Y-13965184D02*
X7916825Y-13965184D01*
X7916825Y-13965184D02*
X7935873Y-13974708D01*
X7935873Y-13974708D02*
X7945397Y-13984232D01*
X7945397Y-13984232D02*
X7954921Y-14003279D01*
X7954921Y-14003279D02*
X7954921Y-14050898D01*
X7954921Y-14050898D02*
X7945397Y-14069946D01*
X7945397Y-14069946D02*
X7935873Y-14079470D01*
X7935873Y-14079470D02*
X7916825Y-14088994D01*
X7916825Y-14088994D02*
X7859683Y-14088994D01*
X7859683Y-14088994D02*
X7840635Y-14079470D01*
X7840635Y-14079470D02*
X7831111Y-14069946D01*
X8126349Y-13888994D02*
X8088254Y-13888994D01*
X8088254Y-13888994D02*
X8069206Y-13898518D01*
X8069206Y-13898518D02*
X8059683Y-13908041D01*
X8059683Y-13908041D02*
X8040635Y-13936613D01*
X8040635Y-13936613D02*
X8031111Y-13974708D01*
X8031111Y-13974708D02*
X8031111Y-14050898D01*
X8031111Y-14050898D02*
X8040635Y-14069946D01*
X8040635Y-14069946D02*
X8050159Y-14079470D01*
X8050159Y-14079470D02*
X8069206Y-14088994D01*
X8069206Y-14088994D02*
X8107302Y-14088994D01*
X8107302Y-14088994D02*
X8126349Y-14079470D01*
X8126349Y-14079470D02*
X8135873Y-14069946D01*
X8135873Y-14069946D02*
X8145397Y-14050898D01*
X8145397Y-14050898D02*
X8145397Y-14003279D01*
X8145397Y-14003279D02*
X8135873Y-13984232D01*
X8135873Y-13984232D02*
X8126349Y-13974708D01*
X8126349Y-13974708D02*
X8107302Y-13965184D01*
X8107302Y-13965184D02*
X8069206Y-13965184D01*
X8069206Y-13965184D02*
X8050159Y-13974708D01*
X8050159Y-13974708D02*
X8040635Y-13984232D01*
X8040635Y-13984232D02*
X8031111Y-14003279D01*
X8383492Y-14088994D02*
X8383492Y-13888994D01*
X8469207Y-14088994D02*
X8469207Y-13984232D01*
X8469207Y-13984232D02*
X8459683Y-13965184D01*
X8459683Y-13965184D02*
X8440635Y-13955660D01*
X8440635Y-13955660D02*
X8412064Y-13955660D01*
X8412064Y-13955660D02*
X8393016Y-13965184D01*
X8393016Y-13965184D02*
X8383492Y-13974708D01*
X8593016Y-14088994D02*
X8573968Y-14079470D01*
X8573968Y-14079470D02*
X8564445Y-14069946D01*
X8564445Y-14069946D02*
X8554921Y-14050898D01*
X8554921Y-14050898D02*
X8554921Y-13993756D01*
X8554921Y-13993756D02*
X8564445Y-13974708D01*
X8564445Y-13974708D02*
X8573968Y-13965184D01*
X8573968Y-13965184D02*
X8593016Y-13955660D01*
X8593016Y-13955660D02*
X8621588Y-13955660D01*
X8621588Y-13955660D02*
X8640635Y-13965184D01*
X8640635Y-13965184D02*
X8650159Y-13974708D01*
X8650159Y-13974708D02*
X8659683Y-13993756D01*
X8659683Y-13993756D02*
X8659683Y-14050898D01*
X8659683Y-14050898D02*
X8650159Y-14069946D01*
X8650159Y-14069946D02*
X8640635Y-14079470D01*
X8640635Y-14079470D02*
X8621588Y-14088994D01*
X8621588Y-14088994D02*
X8593016Y-14088994D01*
X8773968Y-14088994D02*
X8754921Y-14079470D01*
X8754921Y-14079470D02*
X8745397Y-14060422D01*
X8745397Y-14060422D02*
X8745397Y-13888994D01*
X8926349Y-14079470D02*
X8907302Y-14088994D01*
X8907302Y-14088994D02*
X8869207Y-14088994D01*
X8869207Y-14088994D02*
X8850159Y-14079470D01*
X8850159Y-14079470D02*
X8840635Y-14060422D01*
X8840635Y-14060422D02*
X8840635Y-13984232D01*
X8840635Y-13984232D02*
X8850159Y-13965184D01*
X8850159Y-13965184D02*
X8869207Y-13955660D01*
X8869207Y-13955660D02*
X8907302Y-13955660D01*
X8907302Y-13955660D02*
X8926349Y-13965184D01*
X8926349Y-13965184D02*
X8935873Y-13984232D01*
X8935873Y-13984232D02*
X8935873Y-14003279D01*
X8935873Y-14003279D02*
X8840635Y-14022327D01*
X9012064Y-14079470D02*
X9031111Y-14088994D01*
X9031111Y-14088994D02*
X9069207Y-14088994D01*
X9069207Y-14088994D02*
X9088254Y-14079470D01*
X9088254Y-14079470D02*
X9097778Y-14060422D01*
X9097778Y-14060422D02*
X9097778Y-14050898D01*
X9097778Y-14050898D02*
X9088254Y-14031851D01*
X9088254Y-14031851D02*
X9069207Y-14022327D01*
X9069207Y-14022327D02*
X9040635Y-14022327D01*
X9040635Y-14022327D02*
X9021588Y-14012803D01*
X9021588Y-14012803D02*
X9012064Y-13993756D01*
X9012064Y-13993756D02*
X9012064Y-13984232D01*
X9012064Y-13984232D02*
X9021588Y-13965184D01*
X9021588Y-13965184D02*
X9040635Y-13955660D01*
X9040635Y-13955660D02*
X9069207Y-13955660D01*
X9069207Y-13955660D02*
X9088254Y-13965184D01*
X9164445Y-14165184D02*
X9173969Y-14155660D01*
X9173969Y-14155660D02*
X9193016Y-14127089D01*
X9193016Y-14127089D02*
X9202540Y-14108041D01*
X9202540Y-14108041D02*
X9212064Y-14079470D01*
X9212064Y-14079470D02*
X9221588Y-14031851D01*
X9221588Y-14031851D02*
X9221588Y-13993756D01*
X9221588Y-13993756D02*
X9212064Y-13946137D01*
X9212064Y-13946137D02*
X9202540Y-13917565D01*
X9202540Y-13917565D02*
X9193016Y-13898518D01*
X9193016Y-13898518D02*
X9173969Y-13869946D01*
X9173969Y-13869946D02*
X9164445Y-13860422D01*
X3998905Y-14161510D02*
X4198906Y-14361510D01*
X4198906Y-14161510D02*
X3998905Y-14361510D01*
X4198906Y-14261510D02*
G75*
G02*
X3998905Y-14261510I-100000J0D01*
G01*
X3998905Y-14261510D02*
G75*
G02*
X4198906Y-14261510I100000J0D01*
G01*
X4440635Y-14152994D02*
X4564444Y-14152994D01*
X4564444Y-14152994D02*
X4497778Y-14229184D01*
X4497778Y-14229184D02*
X4526349Y-14229184D01*
X4526349Y-14229184D02*
X4545397Y-14238708D01*
X4545397Y-14238708D02*
X4554920Y-14248232D01*
X4554920Y-14248232D02*
X4564444Y-14267279D01*
X4564444Y-14267279D02*
X4564444Y-14314898D01*
X4564444Y-14314898D02*
X4554920Y-14333946D01*
X4554920Y-14333946D02*
X4545397Y-14343470D01*
X4545397Y-14343470D02*
X4526349Y-14352994D01*
X4526349Y-14352994D02*
X4469206Y-14352994D01*
X4469206Y-14352994D02*
X4450159Y-14343470D01*
X4450159Y-14343470D02*
X4440635Y-14333946D01*
X4650159Y-14333946D02*
X4659682Y-14343470D01*
X4659682Y-14343470D02*
X4650159Y-14352994D01*
X4650159Y-14352994D02*
X4640635Y-14343470D01*
X4640635Y-14343470D02*
X4650159Y-14333946D01*
X4650159Y-14333946D02*
X4650159Y-14352994D01*
X4735873Y-14172041D02*
X4745397Y-14162518D01*
X4745397Y-14162518D02*
X4764444Y-14152994D01*
X4764444Y-14152994D02*
X4812063Y-14152994D01*
X4812063Y-14152994D02*
X4831111Y-14162518D01*
X4831111Y-14162518D02*
X4840635Y-14172041D01*
X4840635Y-14172041D02*
X4850159Y-14191089D01*
X4850159Y-14191089D02*
X4850159Y-14210137D01*
X4850159Y-14210137D02*
X4840635Y-14238708D01*
X4840635Y-14238708D02*
X4726349Y-14352994D01*
X4726349Y-14352994D02*
X4850159Y-14352994D01*
X4973968Y-14152994D02*
X4993016Y-14152994D01*
X4993016Y-14152994D02*
X5012063Y-14162518D01*
X5012063Y-14162518D02*
X5021587Y-14172041D01*
X5021587Y-14172041D02*
X5031111Y-14191089D01*
X5031111Y-14191089D02*
X5040635Y-14229184D01*
X5040635Y-14229184D02*
X5040635Y-14276803D01*
X5040635Y-14276803D02*
X5031111Y-14314898D01*
X5031111Y-14314898D02*
X5021587Y-14333946D01*
X5021587Y-14333946D02*
X5012063Y-14343470D01*
X5012063Y-14343470D02*
X4993016Y-14352994D01*
X4993016Y-14352994D02*
X4973968Y-14352994D01*
X4973968Y-14352994D02*
X4954920Y-14343470D01*
X4954920Y-14343470D02*
X4945397Y-14333946D01*
X4945397Y-14333946D02*
X4935873Y-14314898D01*
X4935873Y-14314898D02*
X4926349Y-14276803D01*
X4926349Y-14276803D02*
X4926349Y-14229184D01*
X4926349Y-14229184D02*
X4935873Y-14191089D01*
X4935873Y-14191089D02*
X4945397Y-14172041D01*
X4945397Y-14172041D02*
X4954920Y-14162518D01*
X4954920Y-14162518D02*
X4973968Y-14152994D01*
X5164444Y-14152994D02*
X5183492Y-14152994D01*
X5183492Y-14152994D02*
X5202540Y-14162518D01*
X5202540Y-14162518D02*
X5212063Y-14172041D01*
X5212063Y-14172041D02*
X5221587Y-14191089D01*
X5221587Y-14191089D02*
X5231111Y-14229184D01*
X5231111Y-14229184D02*
X5231111Y-14276803D01*
X5231111Y-14276803D02*
X5221587Y-14314898D01*
X5221587Y-14314898D02*
X5212063Y-14333946D01*
X5212063Y-14333946D02*
X5202540Y-14343470D01*
X5202540Y-14343470D02*
X5183492Y-14352994D01*
X5183492Y-14352994D02*
X5164444Y-14352994D01*
X5164444Y-14352994D02*
X5145397Y-14343470D01*
X5145397Y-14343470D02*
X5135873Y-14333946D01*
X5135873Y-14333946D02*
X5126349Y-14314898D01*
X5126349Y-14314898D02*
X5116825Y-14276803D01*
X5116825Y-14276803D02*
X5116825Y-14229184D01*
X5116825Y-14229184D02*
X5126349Y-14191089D01*
X5126349Y-14191089D02*
X5135873Y-14172041D01*
X5135873Y-14172041D02*
X5145397Y-14162518D01*
X5145397Y-14162518D02*
X5164444Y-14152994D01*
X5316825Y-14352994D02*
X5316825Y-14219660D01*
X5316825Y-14238708D02*
X5326349Y-14229184D01*
X5326349Y-14229184D02*
X5345397Y-14219660D01*
X5345397Y-14219660D02*
X5373968Y-14219660D01*
X5373968Y-14219660D02*
X5393016Y-14229184D01*
X5393016Y-14229184D02*
X5402540Y-14248232D01*
X5402540Y-14248232D02*
X5402540Y-14352994D01*
X5402540Y-14248232D02*
X5412063Y-14229184D01*
X5412063Y-14229184D02*
X5431111Y-14219660D01*
X5431111Y-14219660D02*
X5459682Y-14219660D01*
X5459682Y-14219660D02*
X5478730Y-14229184D01*
X5478730Y-14229184D02*
X5488254Y-14248232D01*
X5488254Y-14248232D02*
X5488254Y-14352994D01*
X5583492Y-14352994D02*
X5583492Y-14219660D01*
X5583492Y-14238708D02*
X5593016Y-14229184D01*
X5593016Y-14229184D02*
X5612063Y-14219660D01*
X5612063Y-14219660D02*
X5640635Y-14219660D01*
X5640635Y-14219660D02*
X5659682Y-14229184D01*
X5659682Y-14229184D02*
X5669206Y-14248232D01*
X5669206Y-14248232D02*
X5669206Y-14352994D01*
X5669206Y-14248232D02*
X5678730Y-14229184D01*
X5678730Y-14229184D02*
X5697778Y-14219660D01*
X5697778Y-14219660D02*
X5726349Y-14219660D01*
X5726349Y-14219660D02*
X5745397Y-14229184D01*
X5745397Y-14229184D02*
X5754920Y-14248232D01*
X5754920Y-14248232D02*
X5754920Y-14352994D01*
X6145397Y-14143470D02*
X5973968Y-14400613D01*
X6402540Y-14152994D02*
X6421587Y-14152994D01*
X6421587Y-14152994D02*
X6440635Y-14162518D01*
X6440635Y-14162518D02*
X6450159Y-14172041D01*
X6450159Y-14172041D02*
X6459682Y-14191089D01*
X6459682Y-14191089D02*
X6469206Y-14229184D01*
X6469206Y-14229184D02*
X6469206Y-14276803D01*
X6469206Y-14276803D02*
X6459682Y-14314898D01*
X6459682Y-14314898D02*
X6450159Y-14333946D01*
X6450159Y-14333946D02*
X6440635Y-14343470D01*
X6440635Y-14343470D02*
X6421587Y-14352994D01*
X6421587Y-14352994D02*
X6402540Y-14352994D01*
X6402540Y-14352994D02*
X6383492Y-14343470D01*
X6383492Y-14343470D02*
X6373968Y-14333946D01*
X6373968Y-14333946D02*
X6364444Y-14314898D01*
X6364444Y-14314898D02*
X6354921Y-14276803D01*
X6354921Y-14276803D02*
X6354921Y-14229184D01*
X6354921Y-14229184D02*
X6364444Y-14191089D01*
X6364444Y-14191089D02*
X6373968Y-14172041D01*
X6373968Y-14172041D02*
X6383492Y-14162518D01*
X6383492Y-14162518D02*
X6402540Y-14152994D01*
X6554921Y-14333946D02*
X6564444Y-14343470D01*
X6564444Y-14343470D02*
X6554921Y-14352994D01*
X6554921Y-14352994D02*
X6545397Y-14343470D01*
X6545397Y-14343470D02*
X6554921Y-14333946D01*
X6554921Y-14333946D02*
X6554921Y-14352994D01*
X6754921Y-14352994D02*
X6640635Y-14352994D01*
X6697778Y-14352994D02*
X6697778Y-14152994D01*
X6697778Y-14152994D02*
X6678730Y-14181565D01*
X6678730Y-14181565D02*
X6659682Y-14200613D01*
X6659682Y-14200613D02*
X6640635Y-14210137D01*
X6831111Y-14172041D02*
X6840635Y-14162518D01*
X6840635Y-14162518D02*
X6859682Y-14152994D01*
X6859682Y-14152994D02*
X6907302Y-14152994D01*
X6907302Y-14152994D02*
X6926349Y-14162518D01*
X6926349Y-14162518D02*
X6935873Y-14172041D01*
X6935873Y-14172041D02*
X6945397Y-14191089D01*
X6945397Y-14191089D02*
X6945397Y-14210137D01*
X6945397Y-14210137D02*
X6935873Y-14238708D01*
X6935873Y-14238708D02*
X6821587Y-14352994D01*
X6821587Y-14352994D02*
X6945397Y-14352994D01*
X7116825Y-14152994D02*
X7078730Y-14152994D01*
X7078730Y-14152994D02*
X7059682Y-14162518D01*
X7059682Y-14162518D02*
X7050159Y-14172041D01*
X7050159Y-14172041D02*
X7031111Y-14200613D01*
X7031111Y-14200613D02*
X7021587Y-14238708D01*
X7021587Y-14238708D02*
X7021587Y-14314898D01*
X7021587Y-14314898D02*
X7031111Y-14333946D01*
X7031111Y-14333946D02*
X7040635Y-14343470D01*
X7040635Y-14343470D02*
X7059682Y-14352994D01*
X7059682Y-14352994D02*
X7097778Y-14352994D01*
X7097778Y-14352994D02*
X7116825Y-14343470D01*
X7116825Y-14343470D02*
X7126349Y-14333946D01*
X7126349Y-14333946D02*
X7135873Y-14314898D01*
X7135873Y-14314898D02*
X7135873Y-14267279D01*
X7135873Y-14267279D02*
X7126349Y-14248232D01*
X7126349Y-14248232D02*
X7116825Y-14238708D01*
X7116825Y-14238708D02*
X7097778Y-14229184D01*
X7097778Y-14229184D02*
X7059682Y-14229184D01*
X7059682Y-14229184D02*
X7040635Y-14238708D01*
X7040635Y-14238708D02*
X7031111Y-14248232D01*
X7031111Y-14248232D02*
X7021587Y-14267279D01*
X7259682Y-14152994D02*
X7278730Y-14152994D01*
X7278730Y-14152994D02*
X7297778Y-14162518D01*
X7297778Y-14162518D02*
X7307302Y-14172041D01*
X7307302Y-14172041D02*
X7316825Y-14191089D01*
X7316825Y-14191089D02*
X7326349Y-14229184D01*
X7326349Y-14229184D02*
X7326349Y-14276803D01*
X7326349Y-14276803D02*
X7316825Y-14314898D01*
X7316825Y-14314898D02*
X7307302Y-14333946D01*
X7307302Y-14333946D02*
X7297778Y-14343470D01*
X7297778Y-14343470D02*
X7278730Y-14352994D01*
X7278730Y-14352994D02*
X7259682Y-14352994D01*
X7259682Y-14352994D02*
X7240635Y-14343470D01*
X7240635Y-14343470D02*
X7231111Y-14333946D01*
X7231111Y-14333946D02*
X7221587Y-14314898D01*
X7221587Y-14314898D02*
X7212063Y-14276803D01*
X7212063Y-14276803D02*
X7212063Y-14229184D01*
X7212063Y-14229184D02*
X7221587Y-14191089D01*
X7221587Y-14191089D02*
X7231111Y-14172041D01*
X7231111Y-14172041D02*
X7240635Y-14162518D01*
X7240635Y-14162518D02*
X7259682Y-14152994D01*
X7402540Y-14152994D02*
X7402540Y-14191089D01*
X7478730Y-14152994D02*
X7478730Y-14191089D01*
X7773968Y-14429184D02*
X7764444Y-14419660D01*
X7764444Y-14419660D02*
X7745397Y-14391089D01*
X7745397Y-14391089D02*
X7735873Y-14372041D01*
X7735873Y-14372041D02*
X7726349Y-14343470D01*
X7726349Y-14343470D02*
X7716825Y-14295851D01*
X7716825Y-14295851D02*
X7716825Y-14257756D01*
X7716825Y-14257756D02*
X7726349Y-14210137D01*
X7726349Y-14210137D02*
X7735873Y-14181565D01*
X7735873Y-14181565D02*
X7745397Y-14162518D01*
X7745397Y-14162518D02*
X7764444Y-14133946D01*
X7764444Y-14133946D02*
X7773968Y-14124422D01*
X7954921Y-14352994D02*
X7840635Y-14352994D01*
X7897778Y-14352994D02*
X7897778Y-14152994D01*
X7897778Y-14152994D02*
X7878730Y-14181565D01*
X7878730Y-14181565D02*
X7859683Y-14200613D01*
X7859683Y-14200613D02*
X7840635Y-14210137D01*
X8193016Y-14352994D02*
X8193016Y-14152994D01*
X8278730Y-14352994D02*
X8278730Y-14248232D01*
X8278730Y-14248232D02*
X8269206Y-14229184D01*
X8269206Y-14229184D02*
X8250159Y-14219660D01*
X8250159Y-14219660D02*
X8221587Y-14219660D01*
X8221587Y-14219660D02*
X8202540Y-14229184D01*
X8202540Y-14229184D02*
X8193016Y-14238708D01*
X8402540Y-14352994D02*
X8383492Y-14343470D01*
X8383492Y-14343470D02*
X8373968Y-14333946D01*
X8373968Y-14333946D02*
X8364445Y-14314898D01*
X8364445Y-14314898D02*
X8364445Y-14257756D01*
X8364445Y-14257756D02*
X8373968Y-14238708D01*
X8373968Y-14238708D02*
X8383492Y-14229184D01*
X8383492Y-14229184D02*
X8402540Y-14219660D01*
X8402540Y-14219660D02*
X8431111Y-14219660D01*
X8431111Y-14219660D02*
X8450159Y-14229184D01*
X8450159Y-14229184D02*
X8459683Y-14238708D01*
X8459683Y-14238708D02*
X8469207Y-14257756D01*
X8469207Y-14257756D02*
X8469207Y-14314898D01*
X8469207Y-14314898D02*
X8459683Y-14333946D01*
X8459683Y-14333946D02*
X8450159Y-14343470D01*
X8450159Y-14343470D02*
X8431111Y-14352994D01*
X8431111Y-14352994D02*
X8402540Y-14352994D01*
X8583492Y-14352994D02*
X8564445Y-14343470D01*
X8564445Y-14343470D02*
X8554921Y-14324422D01*
X8554921Y-14324422D02*
X8554921Y-14152994D01*
X8735873Y-14343470D02*
X8716826Y-14352994D01*
X8716826Y-14352994D02*
X8678730Y-14352994D01*
X8678730Y-14352994D02*
X8659683Y-14343470D01*
X8659683Y-14343470D02*
X8650159Y-14324422D01*
X8650159Y-14324422D02*
X8650159Y-14248232D01*
X8650159Y-14248232D02*
X8659683Y-14229184D01*
X8659683Y-14229184D02*
X8678730Y-14219660D01*
X8678730Y-14219660D02*
X8716826Y-14219660D01*
X8716826Y-14219660D02*
X8735873Y-14229184D01*
X8735873Y-14229184D02*
X8745397Y-14248232D01*
X8745397Y-14248232D02*
X8745397Y-14267279D01*
X8745397Y-14267279D02*
X8650159Y-14286327D01*
X8812064Y-14429184D02*
X8821588Y-14419660D01*
X8821588Y-14419660D02*
X8840635Y-14391089D01*
X8840635Y-14391089D02*
X8850159Y-14372041D01*
X8850159Y-14372041D02*
X8859683Y-14343470D01*
X8859683Y-14343470D02*
X8869207Y-14295851D01*
X8869207Y-14295851D02*
X8869207Y-14257756D01*
X8869207Y-14257756D02*
X8859683Y-14210137D01*
X8859683Y-14210137D02*
X8850159Y-14181565D01*
X8850159Y-14181565D02*
X8840635Y-14162518D01*
X8840635Y-14162518D02*
X8821588Y-14133946D01*
X8821588Y-14133946D02*
X8812064Y-14124422D01*
M02*
