%TF.GenerationSoftware,KiCad,Pcbnew,9.0.6*%
%TF.CreationDate,2025-11-25T23:45:00-06:00*%
%TF.ProjectId,1745LightUpBoard,31373435-4c69-4676-9874-5570426f6172,rev?*%
%TF.SameCoordinates,Original*%
%TF.FileFunction,Copper,L2,Bot*%
%TF.FilePolarity,Positive*%
%FSLAX46Y46*%
G04 Gerber Fmt 4.6, Leading zero omitted, Abs format (unit mm)*
G04 Created by KiCad (PCBNEW 9.0.6) date 2025-11-25 23:45:00*
%MOMM*%
%LPD*%
G01*
G04 APERTURE LIST*
G04 Aperture macros list*
%AMRoundRect*
0 Rectangle with rounded corners*
0 $1 Rounding radius*
0 $2 $3 $4 $5 $6 $7 $8 $9 X,Y pos of 4 corners*
0 Add a 4 corners polygon primitive as box body*
4,1,4,$2,$3,$4,$5,$6,$7,$8,$9,$2,$3,0*
0 Add four circle primitives for the rounded corners*
1,1,$1+$1,$2,$3*
1,1,$1+$1,$4,$5*
1,1,$1+$1,$6,$7*
1,1,$1+$1,$8,$9*
0 Add four rect primitives between the rounded corners*
20,1,$1+$1,$2,$3,$4,$5,0*
20,1,$1+$1,$4,$5,$6,$7,0*
20,1,$1+$1,$6,$7,$8,$9,0*
20,1,$1+$1,$8,$9,$2,$3,0*%
%AMHorizOval*
0 Thick line with rounded ends*
0 $1 width*
0 $2 $3 position (X,Y) of the first rounded end (center of the circle)*
0 $4 $5 position (X,Y) of the second rounded end (center of the circle)*
0 Add line between two ends*
20,1,$1,$2,$3,$4,$5,0*
0 Add two circle primitives to create the rounded ends*
1,1,$1,$2,$3*
1,1,$1,$4,$5*%
%AMRotRect*
0 Rectangle, with rotation*
0 The origin of the aperture is its center*
0 $1 length*
0 $2 width*
0 $3 Rotation angle, in degrees counterclockwise*
0 Add horizontal line*
21,1,$1,$2,0,0,$3*%
G04 Aperture macros list end*
%TA.AperFunction,ComponentPad*%
%ADD10C,5.600000*%
%TD*%
%TA.AperFunction,ComponentPad*%
%ADD11R,1.070000X1.800000*%
%TD*%
%TA.AperFunction,ComponentPad*%
%ADD12O,1.070000X1.800000*%
%TD*%
%TA.AperFunction,ComponentPad*%
%ADD13RotRect,1.600000X1.600000X160.000000*%
%TD*%
%TA.AperFunction,ComponentPad*%
%ADD14HorizOval,1.600000X0.000000X0.000000X0.000000X0.000000X0*%
%TD*%
%TA.AperFunction,ComponentPad*%
%ADD15RoundRect,0.250000X0.151974X0.700021X-0.517439X0.495360X-0.151974X-0.700021X0.517439X-0.495360X0*%
%TD*%
%TA.AperFunction,ComponentPad*%
%ADD16HorizOval,1.200000X-0.080402X0.262984X0.080402X-0.262984X0*%
%TD*%
%TA.AperFunction,ComponentPad*%
%ADD17RoundRect,0.250000X0.695074X0.486696X-0.486696X0.695074X-0.695074X-0.486696X0.486696X-0.695074X0*%
%TD*%
%TA.AperFunction,ComponentPad*%
%ADD18C,1.700000*%
%TD*%
%TA.AperFunction,HeatsinkPad*%
%ADD19HorizOval,0.900000X0.541644X0.095506X-0.541644X-0.095506X0*%
%TD*%
%TA.AperFunction,HeatsinkPad*%
%ADD20HorizOval,0.900000X0.393923X0.069459X-0.393923X-0.069459X0*%
%TD*%
%TA.AperFunction,ViaPad*%
%ADD21C,0.600000*%
%TD*%
%TA.AperFunction,Conductor*%
%ADD22C,0.200000*%
%TD*%
G04 APERTURE END LIST*
D10*
%TO.P,REF\u002A\u002A,1*%
%TO.N,N/C*%
X232980000Y-70540000D03*
%TD*%
D11*
%TO.P,D15,1,DOUT*%
%TO.N,Net-(D15-DOUT)*%
X66330000Y-62600000D03*
D12*
%TO.P,D15,2,GND*%
%TO.N,GND*%
X67600000Y-62600000D03*
%TO.P,D15,3,VDD*%
%TO.N,Vdrive*%
X68870000Y-62600000D03*
%TO.P,D15,4,DIN*%
%TO.N,Net-(D15-DIN)*%
X70140000Y-62600000D03*
%TD*%
D11*
%TO.P,D7,1,DOUT*%
%TO.N,Net-(D7-DOUT)*%
X51190000Y-73150000D03*
D12*
%TO.P,D7,2,GND*%
%TO.N,GND*%
X52460000Y-73150000D03*
%TO.P,D7,3,VDD*%
%TO.N,Vdrive*%
X53730000Y-73150000D03*
%TO.P,D7,4,DIN*%
%TO.N,Net-(D7-DIN)*%
X55000000Y-73150000D03*
%TD*%
D11*
%TO.P,D8,1,DOUT*%
%TO.N,Net-(D10-DIN)*%
X153685000Y-113550000D03*
D12*
%TO.P,D8,2,GND*%
%TO.N,GND*%
X154955000Y-113550000D03*
%TO.P,D8,3,VDD*%
%TO.N,Vdrive*%
X156225000Y-113550000D03*
%TO.P,D8,4,DIN*%
%TO.N,Net-(D8-DIN)*%
X157495000Y-113550000D03*
%TD*%
D11*
%TO.P,D13,1,DOUT*%
%TO.N,Net-(D13-DOUT)*%
X77180000Y-100520000D03*
D12*
%TO.P,D13,2,GND*%
%TO.N,GND*%
X78450000Y-100520000D03*
%TO.P,D13,3,VDD*%
%TO.N,Vdrive*%
X79720000Y-100520000D03*
%TO.P,D13,4,DIN*%
%TO.N,Net-(D13-DIN)*%
X80990000Y-100520000D03*
%TD*%
D13*
%TO.P,A1,1,D1/TX*%
%TO.N,D1*%
X150855577Y-88253918D03*
D14*
%TO.P,A1,2,D0/RX*%
%TO.N,D0*%
X151724308Y-85867099D03*
%TO.P,A1,3,~{RESET}*%
%TO.N,/RESET*%
X152593040Y-83480278D03*
%TO.P,A1,4,GND*%
%TO.N,GND*%
X153461770Y-81093459D03*
%TO.P,A1,5,D2*%
%TO.N,D2*%
X154330501Y-78706640D03*
%TO.P,A1,6,D3*%
%TO.N,D3*%
X155199233Y-76319822D03*
%TO.P,A1,7,D4*%
%TO.N,D4*%
X156067964Y-73933002D03*
%TO.P,A1,8,D5*%
%TO.N,D5*%
X156936696Y-71546184D03*
%TO.P,A1,9,D6*%
%TO.N,D6*%
X157805426Y-69159365D03*
%TO.P,A1,10,D7*%
%TO.N,D7*%
X158674158Y-66772545D03*
%TO.P,A1,11,D8*%
%TO.N,D11*%
X159542889Y-64385724D03*
%TO.P,A1,12,D9*%
%TO.N,D12*%
X160411620Y-61998906D03*
%TO.P,A1,13,D10*%
%TO.N,D13*%
X161280349Y-59612087D03*
%TO.P,A1,14,D11*%
%TO.N,D14*%
X162149082Y-57225267D03*
%TO.P,A1,15,D12*%
%TO.N,D15*%
X163017813Y-54838447D03*
%TO.P,A1,16,D13*%
%TO.N,16*%
X148696898Y-49626061D03*
%TO.P,A1,17,3V3*%
%TO.N,VCC*%
X147828166Y-52012882D03*
%TO.P,A1,18,AREF*%
%TO.N,AREF*%
X146959436Y-54399699D03*
%TO.P,A1,19,A0*%
%TO.N,A0*%
X146090705Y-56786520D03*
%TO.P,A1,20,A1*%
%TO.N,A1*%
X145221975Y-59173339D03*
%TO.P,A1,21,A2*%
%TO.N,A2*%
X144353241Y-61560158D03*
%TO.P,A1,22,A3*%
%TO.N,A3*%
X143484511Y-63946977D03*
%TO.P,A1,23,A4*%
%TO.N,A4*%
X142615779Y-66333798D03*
%TO.P,A1,24,A5*%
%TO.N,A5*%
X141747049Y-68720615D03*
%TO.P,A1,25,A6*%
%TO.N,A6*%
X140878317Y-71107433D03*
%TO.P,A1,26,A7*%
%TO.N,A7*%
X140009587Y-73494254D03*
%TO.P,A1,27,+5V*%
%TO.N,VBUS*%
X139140855Y-75881073D03*
%TO.P,A1,28,~{RESET}*%
%TO.N,/RESET*%
X138272125Y-78267892D03*
%TO.P,A1,29,GND*%
%TO.N,GND*%
X137403392Y-80654711D03*
%TO.P,A1,30,VIN*%
%TO.N,unconnected-(A1-VIN-Pad30)*%
X136534661Y-83041531D03*
%TD*%
D11*
%TO.P,D26,1,DOUT*%
%TO.N,Net-(D25-DIN)*%
X240105000Y-67410000D03*
D12*
%TO.P,D26,2,GND*%
%TO.N,GND*%
X241375000Y-67410000D03*
%TO.P,D26,3,VDD*%
%TO.N,Vdrive*%
X242645000Y-67410000D03*
%TO.P,D26,4,DIN*%
%TO.N,Net-(D19-DOUT)*%
X243915000Y-67410000D03*
%TD*%
D11*
%TO.P,D22,1,DOUT*%
%TO.N,Net-(D21-DIN)*%
X241120000Y-98090000D03*
D12*
%TO.P,D22,2,GND*%
%TO.N,GND*%
X242390000Y-98090000D03*
%TO.P,D22,3,VDD*%
%TO.N,Vdrive*%
X243660000Y-98090000D03*
%TO.P,D22,4,DIN*%
%TO.N,Net-(D13-DOUT)*%
X244930000Y-98090000D03*
%TD*%
D11*
%TO.P,D23,1,DOUT*%
%TO.N,unconnected-(D23-DOUT-Pad1)*%
X216850000Y-82340000D03*
D12*
%TO.P,D23,2,GND*%
%TO.N,GND*%
X218120000Y-82340000D03*
%TO.P,D23,3,VDD*%
%TO.N,Vdrive*%
X219390000Y-82340000D03*
%TO.P,D23,4,DIN*%
%TO.N,Net-(D23-DIN)*%
X220660000Y-82340000D03*
%TD*%
D11*
%TO.P,D20,1,DOUT*%
%TO.N,Net-(D19-DIN)*%
X196550000Y-64980000D03*
D12*
%TO.P,D20,2,GND*%
%TO.N,GND*%
X197820000Y-64980000D03*
%TO.P,D20,3,VDD*%
%TO.N,Vdrive*%
X199090000Y-64980000D03*
%TO.P,D20,4,DIN*%
%TO.N,Net-(D20-DIN)*%
X200360000Y-64980000D03*
%TD*%
D11*
%TO.P,D25,1,DOUT*%
%TO.N,unconnected-(D25-DOUT-Pad1)*%
X209770000Y-63950000D03*
D12*
%TO.P,D25,2,GND*%
%TO.N,GND*%
X211040000Y-63950000D03*
%TO.P,D25,3,VDD*%
%TO.N,Vdrive*%
X212310000Y-63950000D03*
%TO.P,D25,4,DIN*%
%TO.N,Net-(D25-DIN)*%
X213580000Y-63950000D03*
%TD*%
D11*
%TO.P,D21,1,DOUT*%
%TO.N,Net-(D20-DIN)*%
X224535000Y-88300000D03*
D12*
%TO.P,D21,2,GND*%
%TO.N,GND*%
X225805000Y-88300000D03*
%TO.P,D21,3,VDD*%
%TO.N,Vdrive*%
X227075000Y-88300000D03*
%TO.P,D21,4,DIN*%
%TO.N,Net-(D21-DIN)*%
X228345000Y-88300000D03*
%TD*%
D11*
%TO.P,D11,1,DOUT*%
%TO.N,Net-(D11-DOUT)*%
X108325000Y-108010000D03*
D12*
%TO.P,D11,2,GND*%
%TO.N,GND*%
X109595000Y-108010000D03*
%TO.P,D11,3,VDD*%
%TO.N,Vdrive*%
X110865000Y-108010000D03*
%TO.P,D11,4,DIN*%
%TO.N,Net-(D11-DIN)*%
X112135000Y-108010000D03*
%TD*%
D15*
%TO.P,J3,1,Pin_1*%
%TO.N,GND*%
X102938920Y-69228203D03*
D16*
%TO.P,J3,2,Pin_2*%
%TO.N,Net-(D7-DIN)*%
X101026310Y-69812945D03*
%TO.P,J3,3,Pin_3*%
%TO.N,Vdrive*%
X99113701Y-70397689D03*
%TD*%
D11*
%TO.P,D16,1,DOUT*%
%TO.N,Net-(D15-DIN)*%
X76900000Y-72380000D03*
D12*
%TO.P,D16,2,GND*%
%TO.N,GND*%
X78170000Y-72380000D03*
%TO.P,D16,3,VDD*%
%TO.N,Vdrive*%
X79440000Y-72380000D03*
%TO.P,D16,4,DIN*%
%TO.N,Net-(D16-DIN)*%
X80710000Y-72380000D03*
%TD*%
D11*
%TO.P,D18,1,DOUT*%
%TO.N,Net-(D17-DIN)*%
X109705000Y-63750000D03*
D12*
%TO.P,D18,2,GND*%
%TO.N,GND*%
X110975000Y-63750000D03*
%TO.P,D18,3,VDD*%
%TO.N,Vdrive*%
X112245000Y-63750000D03*
%TO.P,D18,4,DIN*%
%TO.N,Net-(D11-DOUT)*%
X113515000Y-63750000D03*
%TD*%
D11*
%TO.P,D12,1,DOUT*%
%TO.N,Net-(D11-DIN)*%
X93480000Y-104190000D03*
D12*
%TO.P,D12,2,GND*%
%TO.N,GND*%
X94750000Y-104190000D03*
%TO.P,D12,3,VDD*%
%TO.N,Vdrive*%
X96020000Y-104190000D03*
%TO.P,D12,4,DIN*%
%TO.N,Net-(D12-DIN)*%
X97290000Y-104190000D03*
%TD*%
D17*
%TO.P,J1,1,Pin_1*%
%TO.N,D12*%
X59818646Y-63005559D03*
D18*
%TO.P,J1,2,Pin_2*%
%TO.N,VCC*%
X57317234Y-62564492D03*
%TO.P,J1,3,Pin_3*%
%TO.N,D13*%
X60259713Y-60504147D03*
%TO.P,J1,4,Pin_4*%
%TO.N,D11*%
X57758302Y-60063081D03*
%TO.P,J1,5,Pin_5*%
%TO.N,/RESET*%
X60700778Y-58002735D03*
%TO.P,J1,6,Pin_6*%
%TO.N,GND*%
X58199368Y-57561667D03*
%TD*%
D11*
%TO.P,D10,1,DOUT*%
%TO.N,Net-(D10-DOUT)*%
X123875000Y-111430000D03*
D12*
%TO.P,D10,2,GND*%
%TO.N,GND*%
X125145000Y-111430000D03*
%TO.P,D10,3,VDD*%
%TO.N,Vdrive*%
X126415000Y-111430000D03*
%TO.P,D10,4,DIN*%
%TO.N,Net-(D10-DIN)*%
X127685000Y-111430000D03*
%TD*%
D11*
%TO.P,D14,1,DOUT*%
%TO.N,Net-(D13-DIN)*%
X62955000Y-94820000D03*
D12*
%TO.P,D14,2,GND*%
%TO.N,GND*%
X64225000Y-94820000D03*
%TO.P,D14,3,VDD*%
%TO.N,Vdrive*%
X65495000Y-94820000D03*
%TO.P,D14,4,DIN*%
%TO.N,Net-(D10-DOUT)*%
X66765000Y-94820000D03*
%TD*%
D15*
%TO.P,J4,1,Pin_1*%
%TO.N,GND*%
X124277335Y-64008206D03*
D16*
%TO.P,J4,2,Pin_2*%
%TO.N,Net-(D8-DIN)*%
X122364725Y-64592948D03*
%TO.P,J4,3,Pin_3*%
%TO.N,Vdrive*%
X120452115Y-65177693D03*
%TD*%
D11*
%TO.P,D24,1,DOUT*%
%TO.N,Net-(D23-DIN)*%
X211020000Y-73460000D03*
D12*
%TO.P,D24,2,GND*%
%TO.N,GND*%
X212290000Y-73460000D03*
%TO.P,D24,3,VDD*%
%TO.N,Vdrive*%
X213560000Y-73460000D03*
%TO.P,D24,4,DIN*%
%TO.N,Net-(D15-DOUT)*%
X214830000Y-73460000D03*
%TD*%
D11*
%TO.P,D19,1,DOUT*%
%TO.N,Net-(D19-DOUT)*%
X129170000Y-58400000D03*
D12*
%TO.P,D19,2,GND*%
%TO.N,GND*%
X130440000Y-58400000D03*
%TO.P,D19,3,VDD*%
%TO.N,Vdrive*%
X131710000Y-58400000D03*
%TO.P,D19,4,DIN*%
%TO.N,Net-(D19-DIN)*%
X132980000Y-58400000D03*
%TD*%
D11*
%TO.P,D9,1,DOUT*%
%TO.N,Net-(D12-DIN)*%
X138120000Y-113800000D03*
D12*
%TO.P,D9,2,GND*%
%TO.N,GND*%
X139390000Y-113800000D03*
%TO.P,D9,3,VDD*%
%TO.N,Vdrive*%
X140660000Y-113800000D03*
%TO.P,D9,4,DIN*%
%TO.N,Net-(D7-DOUT)*%
X141930000Y-113800000D03*
%TD*%
D11*
%TO.P,D17,1,DOUT*%
%TO.N,Net-(D16-DIN)*%
X87735000Y-69760000D03*
D12*
%TO.P,D17,2,GND*%
%TO.N,GND*%
X89005000Y-69760000D03*
%TO.P,D17,3,VDD*%
%TO.N,Vdrive*%
X90275000Y-69760000D03*
%TO.P,D17,4,DIN*%
%TO.N,Net-(D17-DIN)*%
X91545000Y-69760000D03*
%TD*%
D19*
%TO.P,J2,S1,SHIELD*%
%TO.N,unconnected-(J2-SHIELD-PadS1)_3*%
X92354391Y-82378374D03*
D20*
%TO.N,unconnected-(J2-SHIELD-PadS1)*%
X88247743Y-83102486D03*
D19*
%TO.N,unconnected-(J2-SHIELD-PadS1)_1*%
X93854711Y-90887113D03*
D20*
%TO.N,unconnected-(J2-SHIELD-PadS1)_2*%
X89748063Y-91611225D03*
%TD*%
D21*
%TO.N,GND*%
X149390000Y-114630000D03*
X148565182Y-113081478D03*
%TO.N,A2*%
X159930000Y-57450000D03*
X151300000Y-61550000D03*
X172883835Y-53122420D03*
X155640000Y-60360000D03*
%TO.N,A3*%
X149600000Y-63290000D03*
X152190000Y-64930000D03*
X173890000Y-54780000D03*
X165470000Y-58140000D03*
X168515000Y-55636472D03*
X160132966Y-59000927D03*
%TO.N,D3*%
X169640000Y-59090000D03*
X168190000Y-64090000D03*
X167890000Y-65940000D03*
%TO.N,D7*%
X170610235Y-65905000D03*
X162170000Y-66997000D03*
X165760000Y-65180000D03*
%TO.N,D6*%
X169382410Y-66214258D03*
X168441916Y-67730351D03*
X166585735Y-67934265D03*
%TO.N,D5*%
X161600000Y-70651472D03*
X159580000Y-71460000D03*
%TO.N,D4*%
X158305996Y-73624004D03*
X165600000Y-59012087D03*
X164380000Y-59012087D03*
%TO.N,D1*%
X169630000Y-57600000D03*
X146500000Y-66000000D03*
X129500000Y-73500000D03*
X105350000Y-81040000D03*
X104470735Y-82359265D03*
X167280000Y-53970000D03*
X135500000Y-73000000D03*
X121458480Y-72749117D03*
%TO.N,GND*%
X143990000Y-80890000D03*
X110230000Y-74560000D03*
X95350000Y-78830000D03*
X113450000Y-80660000D03*
X160980000Y-88720000D03*
X94590000Y-94960000D03*
X176990000Y-74180000D03*
X176930000Y-70240000D03*
X219180000Y-86240000D03*
X195360000Y-71840000D03*
X54960000Y-68840000D03*
X132530000Y-114350000D03*
X188260000Y-70990000D03*
X81900000Y-104000000D03*
X197480000Y-70520000D03*
X164140000Y-87020000D03*
X112800000Y-77800000D03*
X172280000Y-74200000D03*
%TO.N,D11*%
X112950735Y-95049265D03*
X163930735Y-81569265D03*
X162940000Y-88000000D03*
X164500000Y-77500000D03*
X164400000Y-69151470D03*
X56500000Y-72000000D03*
X165000000Y-67000000D03*
X164995000Y-80240000D03*
X150000000Y-101000000D03*
X154000000Y-100500000D03*
X153500000Y-93820000D03*
%TO.N,A0*%
X165000000Y-63000000D03*
X178000000Y-62680000D03*
X179500000Y-59400000D03*
X155000000Y-57500000D03*
X177618125Y-58044489D03*
X172613235Y-65613235D03*
X173796470Y-66355000D03*
X169147725Y-68106964D03*
X179000000Y-60600000D03*
X159549265Y-55049265D03*
%TO.N,A1*%
X157900735Y-49599265D03*
X158500000Y-51500000D03*
X176679265Y-52320735D03*
X181500000Y-60000000D03*
X180099712Y-55405553D03*
X183500000Y-58500000D03*
X174674924Y-58910000D03*
%TO.N,/RESET*%
X64000000Y-74000000D03*
X147610000Y-116540000D03*
X172410000Y-57610000D03*
X65500000Y-58000000D03*
X131560000Y-76350000D03*
X64000000Y-61000000D03*
X117540000Y-80870000D03*
X114230000Y-78950000D03*
X107500000Y-77500000D03*
X147190000Y-83020000D03*
X96000000Y-77500000D03*
X128080000Y-84670000D03*
%TO.N,D3*%
X160400000Y-72500000D03*
X157796795Y-74823555D03*
X180840000Y-58100000D03*
X171901000Y-59410000D03*
X159400000Y-73500000D03*
X169800735Y-71800735D03*
X161600000Y-71500000D03*
X178500000Y-59000000D03*
X169120000Y-66970000D03*
X181290000Y-56060000D03*
%TO.N,A4*%
X174439265Y-52220735D03*
X169300735Y-54410735D03*
X189030000Y-58200000D03*
X178804265Y-55525735D03*
X158500000Y-75818822D03*
X161900000Y-72500000D03*
X168500000Y-78000000D03*
X160900000Y-73500000D03*
X163100000Y-72000000D03*
X160100000Y-75951473D03*
X171701518Y-54364717D03*
X197570000Y-57450000D03*
X149000000Y-67500000D03*
X170340000Y-77440000D03*
X150550000Y-66500000D03*
%TO.N,A5*%
X180000000Y-62920000D03*
X165600000Y-70391530D03*
X165685001Y-76185000D03*
X182720000Y-55870000D03*
X170900000Y-74580000D03*
X146500000Y-69400000D03*
X173880000Y-59000000D03*
X175310000Y-67020000D03*
X181960000Y-58530000D03*
X150550000Y-72000000D03*
X168402309Y-74902309D03*
X172490000Y-54500000D03*
X152584265Y-73584265D03*
X161500000Y-76500000D03*
X180230000Y-61210000D03*
%TO.N,VCC*%
X179790000Y-65610000D03*
X206280000Y-61780000D03*
X149350000Y-83080000D03*
X90360735Y-77360735D03*
X99500000Y-81000000D03*
X127450000Y-79960000D03*
X222270000Y-73720000D03*
X146550000Y-92130000D03*
X111000000Y-82000000D03*
X114500000Y-83500000D03*
X146710000Y-86910000D03*
X137900000Y-86070000D03*
X133500000Y-74500000D03*
X135690000Y-85510000D03*
X128000000Y-76500000D03*
X163540000Y-91620000D03*
X158900000Y-105840000D03*
X168910000Y-95970000D03*
X178780000Y-99820000D03*
X131890000Y-83080000D03*
X156700000Y-83320000D03*
X147870000Y-84940000D03*
X116500000Y-81500000D03*
X103000000Y-81500000D03*
X176400000Y-97650000D03*
X162130000Y-104120000D03*
X122980000Y-79180000D03*
X187050000Y-61280000D03*
%TO.N,VBUS*%
X202730000Y-86710000D03*
X180050000Y-67770000D03*
X198300000Y-75380000D03*
X205290000Y-94190000D03*
X169500000Y-70500000D03*
X195430000Y-106610000D03*
X172580000Y-67910000D03*
X130250000Y-90930000D03*
%TO.N,D12*%
X129500000Y-70000000D03*
X169388755Y-61173820D03*
X114500000Y-72560000D03*
X107500000Y-73000000D03*
X95000000Y-74500000D03*
X149000000Y-69000000D03*
%TO.N,D13*%
X73000000Y-62500000D03*
X153000000Y-59000000D03*
X136000000Y-59000000D03*
X169297225Y-60379071D03*
%TO.N,D0*%
X134000000Y-83500000D03*
X227820000Y-81730000D03*
X129000000Y-80000000D03*
X184180000Y-62880000D03*
X211790000Y-80880000D03*
X122037207Y-77355735D03*
X158120000Y-83400000D03*
X163100000Y-75500000D03*
X176589265Y-66589265D03*
X210630000Y-78640000D03*
X204460000Y-78360000D03*
X157970000Y-85240000D03*
X204880000Y-76161472D03*
X126500000Y-79000000D03*
X186320000Y-63310000D03*
X173830000Y-59890000D03*
%TO.N,A6*%
X162500000Y-65500000D03*
X179448256Y-61379944D03*
X164000000Y-64000000D03*
X169500000Y-69299000D03*
X179213767Y-62772207D03*
%TO.N,D2*%
X195000000Y-77000000D03*
X170500000Y-78710000D03*
X201940000Y-70630000D03*
X193044265Y-67455735D03*
X160000000Y-74500000D03*
X164400000Y-70000000D03*
X194000000Y-72000000D03*
X186960000Y-57150000D03*
X166495764Y-69495764D03*
X195500000Y-75500000D03*
X193900000Y-62910000D03*
X217500000Y-70830000D03*
X159500000Y-76500000D03*
%TO.N,A7*%
X174089113Y-53567643D03*
%TO.N,Net-(U1-PB7)*%
X130400000Y-89470000D03*
X149350000Y-84320000D03*
X160760000Y-78910000D03*
X159874265Y-80944265D03*
X148400000Y-98610000D03*
X149260000Y-86940000D03*
X150550000Y-83543421D03*
X126810000Y-87070000D03*
%TO.N,Net-(U1-PB6)*%
X136360000Y-94020000D03*
X161850000Y-86110000D03*
X160820000Y-69000000D03*
X154910000Y-90450000D03*
X143380000Y-93220000D03*
X162460000Y-80930000D03*
%TO.N,Net-(U2-V3)*%
X156720000Y-107670000D03*
X163240000Y-112030000D03*
%TO.N,+BATT*%
X206870000Y-109090000D03*
X203490000Y-90850000D03*
%TO.N,Vdrive*%
X160260000Y-100450000D03*
X62870000Y-68730000D03*
X163820000Y-110190000D03*
X120097282Y-68097282D03*
X101970000Y-95310000D03*
X158280000Y-100540000D03*
X100480000Y-90350000D03*
X101220000Y-82190000D03*
X101260000Y-75800000D03*
X100980000Y-99390000D03*
X157160000Y-98530000D03*
X148690000Y-92520000D03*
X167690000Y-106810000D03*
X168430000Y-84300000D03*
X101180000Y-78240000D03*
X123500000Y-69000000D03*
X210000000Y-67790000D03*
X225680000Y-84220000D03*
X222560000Y-82780000D03*
X121500000Y-69000000D03*
%TO.N,/USB_P*%
X210700000Y-89670000D03*
X104340000Y-91550000D03*
X208720000Y-89690000D03*
X177693015Y-91056985D03*
X154400000Y-105190000D03*
X100060000Y-91810000D03*
X162170000Y-101550000D03*
X172566985Y-91026985D03*
%TO.N,Net-(D2-A)*%
X175980000Y-94230000D03*
X187850000Y-95220000D03*
%TO.N,Net-(D3-A)*%
X161770000Y-107780000D03*
X137090000Y-89440000D03*
X117920000Y-92610000D03*
X164060000Y-106150000D03*
X167930000Y-108780000D03*
X170940000Y-108960000D03*
%TO.N,Net-(D4-A)*%
X187900000Y-63290000D03*
X161480000Y-77520000D03*
X140330000Y-80010000D03*
X187320000Y-65800000D03*
X185720000Y-66990000D03*
X114530000Y-85100000D03*
X172329995Y-68691476D03*
X124984265Y-77955735D03*
%TO.N,Net-(D4-K)*%
X146160000Y-108720000D03*
X99680000Y-85990000D03*
X148400000Y-108600000D03*
X209270000Y-85380000D03*
%TO.N,Net-(D5-K)*%
X198820000Y-84850000D03*
X147010000Y-93951415D03*
X201010000Y-80540000D03*
X107130000Y-84220000D03*
X203970000Y-80690000D03*
X151740000Y-94220000D03*
%TO.N,Net-(D7-DIN)*%
X149240000Y-79180000D03*
X174610000Y-79310000D03*
X199105735Y-79615735D03*
X159760000Y-78190000D03*
X214250000Y-80190000D03*
X161850000Y-78340000D03*
X219320000Y-75950000D03*
X97210000Y-72820000D03*
X197350000Y-79710000D03*
X105060000Y-72230000D03*
X97240000Y-74510000D03*
X207190000Y-81840000D03*
X121590000Y-71960000D03*
X168100000Y-78870000D03*
X216500000Y-64720000D03*
X151000000Y-79140000D03*
X123040000Y-72250000D03*
X216750000Y-63220000D03*
X163590000Y-79640000D03*
%TO.N,Net-(D7-DOUT)*%
X83800000Y-93640000D03*
X138720000Y-110370000D03*
%TO.N,Net-(D10-DIN)*%
X146440000Y-116050000D03*
%TO.N,Net-(D8-DIN)*%
X201830000Y-79610000D03*
X219200000Y-73420000D03*
X162350000Y-109260000D03*
X200650000Y-92160000D03*
%TO.N,Net-(D11-DOUT)*%
X108720000Y-100600000D03*
X113270000Y-68060000D03*
X110270000Y-68010000D03*
X111890000Y-92570000D03*
%TO.N,Net-(D13-DOUT)*%
X123200000Y-105490000D03*
X171750000Y-115680000D03*
X92930000Y-95820000D03*
X81860000Y-96050000D03*
X107200000Y-102250000D03*
X95950000Y-97030000D03*
%TO.N,Net-(D15-DOUT)*%
X134660000Y-61850000D03*
X214620000Y-68530000D03*
%TO.N,Net-(D19-DOUT)*%
X194500000Y-52780000D03*
%TO.N,Net-(D19-DIN)*%
X160990000Y-51840000D03*
%TO.N,Net-(D20-DIN)*%
X206290000Y-78420000D03*
X207760000Y-81240000D03*
%TO.N,Net-(D23-DIN)*%
X216740000Y-74500000D03*
X212740000Y-77690000D03*
%TO.N,/UD+*%
X96380000Y-86210000D03*
X96520000Y-83220000D03*
%TO.N,Net-(J2-CC1)*%
X172000000Y-112580000D03*
X148810000Y-110700000D03*
X106400000Y-94550000D03*
X146550000Y-110820000D03*
%TO.N,/UD-*%
X111290000Y-74550000D03*
X91174265Y-86174265D03*
X100000000Y-83500000D03*
X99000000Y-82000000D03*
%TO.N,Net-(J2-CC2)*%
X149070000Y-99390000D03*
X161210000Y-97490000D03*
X99730735Y-88729265D03*
X101450000Y-88670000D03*
%TO.N,Net-(U3-CS)*%
X182830000Y-63070000D03*
X185270000Y-60570000D03*
%TO.N,Net-(U4-PROG)*%
X206020000Y-66220000D03*
X206140000Y-69430000D03*
%TD*%
D22*
%TO.N,GND*%
X149390000Y-114630000D02*
X149390000Y-113906296D01*
X149390000Y-113906296D02*
X148565182Y-113081478D01*
%TO.N,A2*%
X161440553Y-55939447D02*
X164460610Y-55939447D01*
X159930000Y-57450000D02*
X161440553Y-55939447D01*
X164460610Y-55939447D02*
X167277637Y-53122420D01*
X167277637Y-53122420D02*
X172883835Y-53122420D01*
X151300000Y-61550000D02*
X154450000Y-61550000D01*
X154450000Y-61550000D02*
X155640000Y-60360000D01*
%TO.N,A3*%
X150550000Y-63290000D02*
X149600000Y-63290000D01*
X152190000Y-64930000D02*
X150550000Y-63290000D01*
X168515000Y-54346527D02*
X168515000Y-55636472D01*
X173890000Y-54780000D02*
X172830000Y-53720000D01*
X163765312Y-58140000D02*
X163394225Y-58511087D01*
X172830000Y-53720000D02*
X169141527Y-53720000D01*
X169141527Y-53720000D02*
X168515000Y-54346527D01*
X160150000Y-59010000D02*
X160142039Y-59010000D01*
X165470000Y-58140000D02*
X163765312Y-58140000D01*
X160142039Y-59010000D02*
X160132966Y-59000927D01*
X163394225Y-58511087D02*
X160648913Y-58511087D01*
X160648913Y-58511087D02*
X160150000Y-59010000D01*
%TO.N,A4*%
X169300735Y-54410735D02*
X169541470Y-54170000D01*
X169541470Y-54170000D02*
X171506801Y-54170000D01*
X171506801Y-54170000D02*
X171701518Y-54364717D01*
X171210235Y-65032092D02*
X171500000Y-64742327D01*
X171500000Y-66484143D02*
X171210235Y-66194378D01*
X170340000Y-77440000D02*
X169910000Y-77440000D01*
X170420000Y-54910000D02*
X170965283Y-54364717D01*
X171500000Y-67005857D02*
X171500000Y-66484143D01*
X171500000Y-64742327D02*
X171500000Y-61953200D01*
X171177000Y-67860330D02*
X171177000Y-67328857D01*
X170926995Y-69272619D02*
X170926995Y-68110333D01*
X170926995Y-68110333D02*
X171177000Y-67860330D01*
X171500000Y-70950000D02*
X171500000Y-69845624D01*
X171210235Y-66194378D02*
X171210235Y-65032092D01*
X170965283Y-54364717D02*
X171701518Y-54364717D01*
X171177000Y-67328857D02*
X171500000Y-67005857D01*
X167460000Y-74990000D02*
X171500000Y-70950000D01*
X169910000Y-77440000D02*
X167460000Y-74990000D01*
X171500000Y-69845624D02*
X170926995Y-69272619D01*
X170499000Y-60952200D02*
X170499000Y-59289000D01*
X171500000Y-61953200D02*
X170499000Y-60952200D01*
X170499000Y-59289000D02*
X170420000Y-59210000D01*
X170420000Y-59210000D02*
X170420000Y-54910000D01*
X171480000Y-54120000D02*
X171701518Y-54341518D01*
X171701518Y-54341518D02*
X171701518Y-54364717D01*
%TO.N,D3*%
X169989755Y-59439755D02*
X169640000Y-59090000D01*
X169989755Y-62290245D02*
X169989755Y-59439755D01*
X168190000Y-64090000D02*
X169989755Y-62290245D01*
%TO.N,D13*%
X169297225Y-60379071D02*
X169297225Y-59977225D01*
X169297225Y-59977225D02*
X168932087Y-59612087D01*
X168932087Y-59612087D02*
X161280349Y-59612087D01*
%TO.N,D3*%
X169120000Y-66970000D02*
X169476611Y-66970000D01*
X169476611Y-66970000D02*
X170009235Y-66437376D01*
X170009235Y-66437376D02*
X170009235Y-65991140D01*
X170009235Y-65991140D02*
X169631353Y-65613258D01*
X169631353Y-65613258D02*
X168216742Y-65613258D01*
X168216742Y-65613258D02*
X167890000Y-65940000D01*
%TO.N,D7*%
X170610235Y-65905000D02*
X170610235Y-65860235D01*
X170610235Y-65860235D02*
X169930000Y-65180000D01*
X169930000Y-65180000D02*
X165760000Y-65180000D01*
X162170000Y-66997000D02*
X161945545Y-66772545D01*
X161945545Y-66772545D02*
X158674158Y-66772545D01*
%TO.N,D6*%
X169025799Y-66214258D02*
X169382410Y-66214258D01*
X168441916Y-66798141D02*
X169025799Y-66214258D01*
X168441916Y-67730351D02*
X168441916Y-66798141D01*
%TO.N,D3*%
X170101000Y-68501000D02*
X170101000Y-71500470D01*
X169748725Y-68148725D02*
X170101000Y-68501000D01*
X169120000Y-66970000D02*
X169396668Y-67246668D01*
X169748725Y-67858021D02*
X169748725Y-68148725D01*
X169396668Y-67246668D02*
X169396668Y-67505964D01*
X170101000Y-71500470D02*
X169800735Y-71800735D01*
X169396668Y-67505964D02*
X169748725Y-67858021D01*
%TO.N,A0*%
X169147725Y-68106964D02*
X168386689Y-68868000D01*
X168386689Y-68868000D02*
X167852143Y-68868000D01*
X167587735Y-68603592D02*
X167587735Y-67519222D01*
X167852143Y-68868000D02*
X167587735Y-68603592D01*
X167587735Y-67519222D02*
X167000778Y-66932265D01*
X167000778Y-66932265D02*
X166999365Y-66932265D01*
X166999365Y-66932265D02*
X166567100Y-66500000D01*
X166567100Y-66500000D02*
X166086957Y-66500000D01*
X166086957Y-66500000D02*
X166002000Y-66584957D01*
X166002000Y-66584957D02*
X165415043Y-65998000D01*
X165132200Y-65998000D02*
X165000000Y-65865800D01*
X165415043Y-65998000D02*
X165132200Y-65998000D01*
X165000000Y-65865800D02*
X165000000Y-63000000D01*
%TO.N,A6*%
X166401000Y-66901000D02*
X166253057Y-66901000D01*
X166833265Y-67333265D02*
X166401000Y-66901000D01*
X166834678Y-67333265D02*
X166833265Y-67333265D01*
X167186735Y-67685322D02*
X166834678Y-67333265D01*
X167089000Y-68280943D02*
X167186735Y-68183208D01*
X169500000Y-69299000D02*
X168866100Y-69299000D01*
X167186735Y-68183208D02*
X167186735Y-67685322D01*
X168866100Y-69299000D02*
X168836100Y-69269000D01*
X167089000Y-68671957D02*
X167089000Y-68280943D01*
X167497764Y-69080721D02*
X167089000Y-68671957D01*
X166253057Y-66901000D02*
X166168100Y-66985957D01*
X167497764Y-69269000D02*
X167497764Y-69080721D01*
X168836100Y-69269000D02*
X167497764Y-69269000D01*
X166168100Y-66985957D02*
X165835900Y-66985957D01*
X165835900Y-66985957D02*
X165248943Y-66399000D01*
X165248943Y-66399000D02*
X164966100Y-66399000D01*
X164966100Y-66399000D02*
X164000000Y-65432900D01*
X164000000Y-65432900D02*
X164000000Y-64000000D01*
%TO.N,D6*%
X166370530Y-68149470D02*
X166585735Y-67934265D01*
X164040000Y-68149470D02*
X166370530Y-68149470D01*
X157805426Y-69159365D02*
X157844388Y-69159365D01*
X157844388Y-69159365D02*
X159406753Y-67597000D01*
X159406753Y-67597000D02*
X163487530Y-67597000D01*
X163487530Y-67597000D02*
X164040000Y-68149470D01*
%TO.N,VBUS*%
X164648943Y-68550470D02*
X164151057Y-68550470D01*
X167096764Y-69670000D02*
X167096764Y-69246821D01*
X165001000Y-68902527D02*
X164648943Y-68550470D01*
X149438927Y-75881073D02*
X139140855Y-75881073D01*
X165001000Y-69185370D02*
X165001000Y-68902527D01*
X165894764Y-69670000D02*
X165401000Y-69670000D01*
X158579000Y-70210000D02*
X158579000Y-70360000D01*
X166246821Y-68894764D02*
X165894764Y-69246821D01*
X165401000Y-69585370D02*
X165001000Y-69185370D01*
X166744707Y-68894764D02*
X166246821Y-68894764D01*
X165401000Y-69670000D02*
X165401000Y-69585370D01*
X167096764Y-69246821D02*
X166744707Y-68894764D01*
X154960000Y-70360000D02*
X149438927Y-75881073D01*
X165894764Y-69246821D02*
X165894764Y-69670000D01*
X168670000Y-69670000D02*
X167096764Y-69670000D01*
X169500000Y-70500000D02*
X168670000Y-69670000D01*
X164151057Y-68550470D02*
X163834313Y-68867214D01*
X163834313Y-68867214D02*
X162965100Y-67998000D01*
X162965100Y-67998000D02*
X160404957Y-67998000D01*
X160404957Y-67998000D02*
X158906426Y-69496531D01*
X158906426Y-69496531D02*
X158906426Y-69882574D01*
X158906426Y-69882574D02*
X158579000Y-70210000D01*
X158579000Y-70360000D02*
X154960000Y-70360000D01*
%TO.N,D11*%
X165000000Y-69751470D02*
X165000000Y-77000000D01*
X164400000Y-69151470D02*
X165000000Y-69751470D01*
X165000000Y-77000000D02*
X164500000Y-77500000D01*
%TO.N,D2*%
X158979000Y-71708943D02*
X158979000Y-71211057D01*
X159480000Y-72570057D02*
X159480000Y-72061000D01*
X162799000Y-68399000D02*
X164400000Y-70000000D01*
X159331057Y-72061000D02*
X158979000Y-71708943D01*
X158979000Y-71211057D02*
X159331057Y-70859000D01*
X159480000Y-72061000D02*
X159331057Y-72061000D01*
X159151057Y-72899000D02*
X159480000Y-72570057D01*
X159601000Y-74101000D02*
X159648943Y-74101000D01*
X160000000Y-74500000D02*
X159601000Y-74101000D01*
X159648943Y-72899000D02*
X159151057Y-72899000D01*
X160001000Y-73251057D02*
X159648943Y-72899000D01*
X159331057Y-70859000D02*
X159480000Y-70859000D01*
X160001000Y-73748943D02*
X160001000Y-73251057D01*
X160571057Y-68399000D02*
X162799000Y-68399000D01*
X159648943Y-74101000D02*
X160001000Y-73748943D01*
X159480000Y-70859000D02*
X159480000Y-69490057D01*
X159480000Y-69490057D02*
X160571057Y-68399000D01*
%TO.N,D5*%
X159580000Y-71460000D02*
X160791473Y-71460000D01*
X160791473Y-71460000D02*
X161600000Y-70651472D01*
%TO.N,D4*%
X164290000Y-59060000D02*
X164332087Y-59060000D01*
X165600000Y-59012087D02*
X164337913Y-59012087D01*
X164337913Y-59012087D02*
X164290000Y-59060000D01*
X164332087Y-59060000D02*
X164380000Y-59012087D01*
X158305996Y-73624004D02*
X157996998Y-73933002D01*
X157996998Y-73933002D02*
X156067964Y-73933002D01*
%TO.N,D1*%
X169630000Y-57600000D02*
X167280000Y-55250000D01*
X141065202Y-67434798D02*
X145065202Y-67434798D01*
X145065202Y-67434798D02*
X146500000Y-66000000D01*
X167280000Y-55250000D02*
X167280000Y-53970000D01*
X104470735Y-82359265D02*
X104470735Y-81919265D01*
X122209363Y-73500000D02*
X129500000Y-73500000D01*
X104470735Y-81919265D02*
X105350000Y-81040000D01*
X135500000Y-73000000D02*
X141065202Y-67434798D01*
X121458480Y-72749117D02*
X122209363Y-73500000D01*
%TO.N,GND*%
X120360521Y-68840000D02*
X112610000Y-68840000D01*
X125145000Y-111795000D02*
X127700000Y-114350000D01*
X89005000Y-69760000D02*
X89005000Y-73055000D01*
X130440000Y-73691320D02*
X137403392Y-80654712D01*
X64225000Y-95155000D02*
X67440000Y-98370000D01*
X58199368Y-57561667D02*
X59791436Y-59153735D01*
X130440000Y-58400000D02*
X130440000Y-73691320D01*
X109494000Y-109211000D02*
X109595000Y-109110000D01*
X78170000Y-72380000D02*
X78170000Y-69660000D01*
X72795000Y-68160000D02*
X67600000Y-62965000D01*
X109595000Y-109110000D02*
X109595000Y-108010000D01*
X125931794Y-64008206D02*
X124277335Y-64008206D01*
X112610000Y-68840000D02*
X110975000Y-67205000D01*
X195360000Y-71840000D02*
X196160000Y-71840000D01*
X67600000Y-62965000D02*
X67600000Y-62600000D01*
X143990000Y-80890000D02*
X144193459Y-81093459D01*
X110975000Y-64850000D02*
X106596797Y-69228203D01*
X102819000Y-107039000D02*
X104991000Y-109211000D01*
X104991000Y-109211000D02*
X109494000Y-109211000D01*
X124277335Y-64008206D02*
X124277335Y-64923186D01*
X94750000Y-104555000D02*
X97234000Y-107039000D01*
X125145000Y-111430000D02*
X125145000Y-111795000D01*
X144193459Y-81093459D02*
X153461770Y-81093459D01*
X224512000Y-86240000D02*
X225650000Y-86240000D01*
X78450000Y-98950000D02*
X78450000Y-100520000D01*
X110975000Y-67205000D02*
X110975000Y-63750000D01*
X225805000Y-87533000D02*
X225805000Y-88300000D01*
X162680000Y-87020000D02*
X160980000Y-88720000D01*
X94750000Y-104190000D02*
X94750000Y-104555000D01*
X67440000Y-98370000D02*
X77870000Y-98370000D01*
X91090000Y-75140000D02*
X92850000Y-76900000D01*
X94750000Y-103423000D02*
X94316000Y-102989000D01*
X64225000Y-94820000D02*
X64225000Y-95155000D01*
X94590000Y-104030000D02*
X94590000Y-94960000D01*
X89005000Y-73055000D02*
X91090000Y-75140000D01*
X225650000Y-86240000D02*
X241375000Y-70515000D01*
X106596797Y-69228203D02*
X102938920Y-69228203D01*
X108880000Y-73210000D02*
X110230000Y-74560000D01*
X113450000Y-80660000D02*
X113450000Y-79630000D01*
X105190000Y-76900000D02*
X108880000Y-73210000D01*
X54960000Y-60801035D02*
X58199368Y-57561667D01*
X97234000Y-107039000D02*
X102819000Y-107039000D01*
X176930000Y-70240000D02*
X187510000Y-70240000D01*
X127700000Y-114350000D02*
X132530000Y-114350000D01*
X164140000Y-87020000D02*
X162680000Y-87020000D01*
X92850000Y-76900000D02*
X93750000Y-76900000D01*
X76670000Y-68160000D02*
X72795000Y-68160000D01*
X95350000Y-78830000D02*
X95350000Y-78500000D01*
X130440000Y-58400000D02*
X130440000Y-59500000D01*
X78170000Y-69660000D02*
X76670000Y-68160000D01*
X59791436Y-59153735D02*
X65253735Y-59153735D01*
X172280000Y-74200000D02*
X172300000Y-74180000D01*
X65253735Y-59153735D02*
X67600000Y-61500000D01*
X78170000Y-72745000D02*
X80565000Y-75140000D01*
X102938920Y-69228203D02*
X104898203Y-69228203D01*
X80565000Y-75140000D02*
X91090000Y-75140000D01*
X78170000Y-72380000D02*
X78170000Y-72745000D01*
X112800000Y-78980000D02*
X112800000Y-77800000D01*
X196160000Y-71840000D02*
X197480000Y-70520000D01*
X94750000Y-104190000D02*
X94750000Y-103423000D01*
X187510000Y-70240000D02*
X188260000Y-70990000D01*
X113070000Y-79250000D02*
X112800000Y-78980000D01*
X219180000Y-86240000D02*
X224512000Y-86240000D01*
X67600000Y-61500000D02*
X67600000Y-62600000D01*
X95350000Y-78500000D02*
X93750000Y-76900000D01*
X124277335Y-64923186D02*
X120360521Y-68840000D01*
X130440000Y-59500000D02*
X125931794Y-64008206D01*
X224512000Y-86240000D02*
X225805000Y-87533000D01*
X104898203Y-69228203D02*
X108880000Y-73210000D01*
X94316000Y-102989000D02*
X82911000Y-102989000D01*
X172300000Y-74180000D02*
X176990000Y-74180000D01*
X113450000Y-79630000D02*
X113070000Y-79250000D01*
X110975000Y-63750000D02*
X110975000Y-64850000D01*
X93750000Y-76900000D02*
X105190000Y-76900000D01*
X82911000Y-102989000D02*
X81900000Y-104000000D01*
X241375000Y-70515000D02*
X241375000Y-67410000D01*
X77870000Y-98370000D02*
X78450000Y-98950000D01*
X94750000Y-104190000D02*
X94590000Y-104030000D01*
X54960000Y-68840000D02*
X54960000Y-60801035D01*
%TO.N,D11*%
X163930735Y-81569265D02*
X163930735Y-81304265D01*
X163930735Y-81304265D02*
X164995000Y-80240000D01*
X157120000Y-93820000D02*
X162940000Y-88000000D01*
X106122900Y-93000000D02*
X108172165Y-95049265D01*
X108172165Y-95049265D02*
X112950735Y-95049265D01*
X153500000Y-93820000D02*
X157120000Y-93820000D01*
X150000000Y-101000000D02*
X150500000Y-100500000D01*
X56500000Y-73000000D02*
X65500000Y-82000000D01*
X150500000Y-100500000D02*
X154000000Y-100500000D01*
X65500000Y-82000000D02*
X74500000Y-82000000D01*
X56500000Y-72000000D02*
X56500000Y-73000000D01*
X162385724Y-64385724D02*
X159542889Y-64385724D01*
X74500000Y-82000000D02*
X85500000Y-93000000D01*
X165000000Y-67000000D02*
X162385724Y-64385724D01*
X85500000Y-93000000D02*
X106122900Y-93000000D01*
%TO.N,A0*%
X178000000Y-62680000D02*
X178000000Y-61600000D01*
X178748943Y-58399000D02*
X177972636Y-58399000D01*
X155000000Y-57500000D02*
X157098530Y-57500000D01*
X157098530Y-57500000D02*
X159549265Y-55049265D01*
X177972636Y-58399000D02*
X177618125Y-58044489D01*
X178000000Y-61600000D02*
X179000000Y-60600000D01*
X173054705Y-65613235D02*
X173796470Y-66355000D01*
X179500000Y-59400000D02*
X179500000Y-59150057D01*
X179500000Y-59150057D02*
X178748943Y-58399000D01*
X172613235Y-65613235D02*
X173054705Y-65613235D01*
%TO.N,A1*%
X158900735Y-48599265D02*
X172957795Y-48599265D01*
X180236265Y-55269000D02*
X182968943Y-55269000D01*
X146397314Y-57998000D02*
X152002000Y-57998000D01*
X181500000Y-60000000D02*
X175764924Y-60000000D01*
X182968943Y-55269000D02*
X183500000Y-55800057D01*
X152002000Y-57998000D02*
X158500000Y-51500000D01*
X175764924Y-60000000D02*
X174674924Y-58910000D01*
X145221975Y-59173339D02*
X146397314Y-57998000D01*
X172957795Y-48599265D02*
X176679265Y-52320735D01*
X157900735Y-49599265D02*
X158900735Y-48599265D01*
X180099712Y-55405553D02*
X180236265Y-55269000D01*
X183500000Y-55800057D02*
X183500000Y-58500000D01*
%TO.N,/RESET*%
X171301000Y-58939000D02*
X171301000Y-60620000D01*
X147190000Y-83020000D02*
X148810974Y-84640974D01*
X172500000Y-67309000D02*
X172331057Y-67309000D01*
X172331057Y-67309000D02*
X171979000Y-67661057D01*
X172410000Y-57830000D02*
X171301000Y-58939000D01*
X128080000Y-84670000D02*
X128080000Y-79830000D01*
X172500000Y-69292476D02*
X172500000Y-73599000D01*
X107500000Y-77500000D02*
X96000000Y-77500000D01*
X171728995Y-68442533D02*
X171728995Y-68940419D01*
X172500000Y-73599000D02*
X172031057Y-73599000D01*
X172500000Y-66214235D02*
X172500000Y-67309000D01*
X171679000Y-73951057D02*
X171679000Y-74448943D01*
X172364292Y-65012235D02*
X172012235Y-65364292D01*
X172500000Y-74801000D02*
X172500000Y-78100000D01*
X171995793Y-68175736D02*
X171728995Y-68442533D01*
X172081052Y-69292476D02*
X172500000Y-69292476D01*
X171301000Y-60620000D02*
X172500000Y-61819000D01*
X64000000Y-74000000D02*
X64000000Y-61000000D01*
X172500000Y-61819000D02*
X172500000Y-65012235D01*
X172364292Y-66214235D02*
X172500000Y-66214235D01*
X147610000Y-116540000D02*
X147610000Y-87331948D01*
X172500000Y-65012235D02*
X172364292Y-65012235D01*
X172031057Y-74801000D02*
X172500000Y-74801000D01*
X166410000Y-84190000D02*
X153302762Y-84190000D01*
X128080000Y-79830000D02*
X131560000Y-76350000D01*
X115620000Y-78950000D02*
X117540000Y-80870000D01*
X171679000Y-74448943D02*
X172031057Y-74801000D01*
X172012235Y-65364292D02*
X172012235Y-65862178D01*
X171979000Y-67661057D02*
X171979000Y-68158943D01*
X172031057Y-73599000D02*
X171679000Y-73951057D01*
X148810974Y-86130974D02*
X151461670Y-83480278D01*
X171979000Y-68158943D02*
X171995793Y-68175736D01*
X147610000Y-87331948D02*
X148810974Y-86130974D01*
X172410000Y-57610000D02*
X172410000Y-57830000D01*
X153302762Y-84190000D02*
X152593040Y-83480278D01*
X65500000Y-58000000D02*
X65497265Y-58002735D01*
X171728995Y-68940419D02*
X172081052Y-69292476D01*
X172500000Y-78100000D02*
X166410000Y-84190000D01*
X148810974Y-84640974D02*
X148810974Y-86130974D01*
X172012235Y-65862178D02*
X172364292Y-66214235D01*
X151461670Y-83480278D02*
X152593040Y-83480278D01*
X65497265Y-58002735D02*
X60700778Y-58002735D01*
X114230000Y-78950000D02*
X115620000Y-78950000D01*
%TO.N,D3*%
X175332024Y-59000000D02*
X175275924Y-58943900D01*
X181290000Y-56060000D02*
X181290000Y-57650000D01*
X174232462Y-58502519D02*
X174128943Y-58399000D01*
X174425981Y-58309000D02*
X174232462Y-58502519D01*
X175275924Y-58661057D02*
X174923867Y-58309000D01*
X173279000Y-58751057D02*
X173279000Y-59000000D01*
X160400000Y-72500000D02*
X160600000Y-72500000D01*
X173631057Y-58399000D02*
X173279000Y-58751057D01*
X172311000Y-59000000D02*
X171901000Y-59410000D01*
X173279000Y-59000000D02*
X172311000Y-59000000D01*
X158076445Y-74823555D02*
X159400000Y-73500000D01*
X181290000Y-57650000D02*
X180840000Y-58100000D01*
X175275924Y-58943900D02*
X175275924Y-58661057D01*
X157796795Y-74823555D02*
X158076445Y-74823555D01*
X178500000Y-59000000D02*
X175332024Y-59000000D01*
X160600000Y-72500000D02*
X161600000Y-71500000D01*
X174923867Y-58309000D02*
X174425981Y-58309000D01*
X174128943Y-58399000D02*
X173631057Y-58399000D01*
%TO.N,A4*%
X196690000Y-58330000D02*
X189160000Y-58330000D01*
X175677265Y-52735778D02*
X175677265Y-52734365D01*
X189160000Y-58330000D02*
X189030000Y-58200000D01*
X197570000Y-57450000D02*
X196690000Y-58330000D01*
X160900000Y-73500000D02*
X161900000Y-72500000D01*
X163899000Y-77748943D02*
X164251057Y-78101000D01*
X168399000Y-78101000D02*
X168500000Y-78000000D01*
X163100000Y-72000000D02*
X163899000Y-72799000D01*
X163899000Y-72799000D02*
X163899000Y-77748943D01*
X178804265Y-55525735D02*
X178525735Y-55525735D01*
X178525735Y-55525735D02*
X177621000Y-54621000D01*
X175163635Y-52220735D02*
X174439265Y-52220735D01*
X159967349Y-75818822D02*
X160100000Y-75951473D01*
X177563900Y-54621000D02*
X176265635Y-53322735D01*
X175677265Y-52734365D02*
X175163635Y-52220735D01*
X149550000Y-67500000D02*
X150550000Y-66500000D01*
X149000000Y-67500000D02*
X149550000Y-67500000D01*
X177621000Y-54621000D02*
X177563900Y-54621000D01*
X176265635Y-53322735D02*
X176264222Y-53322735D01*
X176264222Y-53322735D02*
X175677265Y-52735778D01*
X164251057Y-78101000D02*
X168399000Y-78101000D01*
X158500000Y-75818822D02*
X159967349Y-75818822D01*
%TO.N,A5*%
X156300233Y-76775872D02*
X156300233Y-75863772D01*
X154481002Y-75481002D02*
X152584265Y-73584265D01*
X158948943Y-75417822D02*
X158748943Y-75217822D01*
X171327995Y-68276433D02*
X171327995Y-69106519D01*
X158748943Y-75217822D02*
X158251057Y-75217822D01*
X160101000Y-76552473D02*
X160348943Y-76552473D01*
X155655283Y-75218822D02*
X154743183Y-75218822D01*
X160348943Y-76552473D02*
X160701000Y-76200416D01*
X171327995Y-69106519D02*
X171914952Y-69693476D01*
X171578000Y-67494957D02*
X171578000Y-68026429D01*
X161000000Y-77000000D02*
X159849943Y-77000000D01*
X173229000Y-59641057D02*
X173870057Y-59000000D01*
X172000000Y-57170057D02*
X171809000Y-57361057D01*
X165685001Y-76185000D02*
X165600000Y-76099999D01*
X173229000Y-64939000D02*
X173229000Y-59641057D01*
X158513078Y-76419822D02*
X157932900Y-77000000D01*
X172000000Y-73198000D02*
X171864957Y-73198000D01*
X170900000Y-58772900D02*
X170900000Y-60786100D01*
X158251057Y-75217822D02*
X157899000Y-75569879D01*
X171611235Y-66028278D02*
X172000000Y-66417043D01*
X171864957Y-73198000D02*
X171278000Y-73784957D01*
X171809000Y-57858943D02*
X171811478Y-57861422D01*
X171811478Y-57861422D02*
X170900000Y-58772900D01*
X180230000Y-61630000D02*
X180230000Y-61210000D01*
X172000000Y-64809427D02*
X171611235Y-65198192D01*
X182720000Y-57770000D02*
X181960000Y-58530000D01*
X161500000Y-76500000D02*
X161000000Y-77000000D01*
X172490000Y-54500000D02*
X172000000Y-54990000D01*
X149100000Y-72000000D02*
X146500000Y-69400000D01*
X160701000Y-76200416D02*
X160701000Y-75702530D01*
X159851057Y-75350473D02*
X159783708Y-75417822D01*
X182720000Y-55870000D02*
X182720000Y-57770000D01*
X157932900Y-77000000D02*
X156076105Y-77000000D01*
X159783708Y-75417822D02*
X158948943Y-75417822D01*
X160101000Y-76748943D02*
X160101000Y-76552473D01*
X172000000Y-67072957D02*
X171578000Y-67494957D01*
X173870057Y-59000000D02*
X173880000Y-59000000D01*
X171578000Y-68026429D02*
X171327995Y-68276433D01*
X159849943Y-77000000D02*
X160101000Y-76748943D01*
X170900000Y-60786100D02*
X172000000Y-61886100D01*
X172000000Y-54990000D02*
X172000000Y-57170057D01*
X180000000Y-62920000D02*
X180000000Y-61860000D01*
X157899000Y-76067765D02*
X158251057Y-76419822D01*
X175310000Y-67020000D02*
X173229000Y-64939000D01*
X172000000Y-61886100D02*
X172000000Y-64809427D01*
X150550000Y-72000000D02*
X149100000Y-72000000D01*
X158251057Y-76419822D02*
X158513078Y-76419822D01*
X160348943Y-75350473D02*
X159851057Y-75350473D01*
X171809000Y-57361057D02*
X171809000Y-57858943D01*
X156076105Y-77000000D02*
X156300233Y-76775872D01*
X172000000Y-69693476D02*
X172000000Y-73198000D01*
X172000000Y-66417043D02*
X172000000Y-67072957D01*
X180000000Y-61860000D02*
X180230000Y-61630000D01*
X157899000Y-75569879D02*
X157899000Y-76067765D01*
X171914952Y-69693476D02*
X172000000Y-69693476D01*
X165600000Y-76099999D02*
X165600000Y-70391530D01*
X171278000Y-74202000D02*
X170900000Y-74580000D01*
X171278000Y-73784957D02*
X171278000Y-74202000D01*
X168724618Y-74580000D02*
X168402309Y-74902309D01*
X170900000Y-74580000D02*
X168724618Y-74580000D01*
X156300233Y-75863772D02*
X155655283Y-75218822D01*
X160701000Y-75702530D02*
X160348943Y-75350473D01*
X154743183Y-75218822D02*
X154481002Y-75481002D01*
X171611235Y-65198192D02*
X171611235Y-66028278D01*
%TO.N,VCC*%
X167890000Y-95970000D02*
X163540000Y-91620000D01*
X133500000Y-62160057D02*
X133500000Y-74500000D01*
X134411057Y-61249000D02*
X133500000Y-62160057D01*
X176610000Y-97650000D02*
X176400000Y-97650000D01*
X187050000Y-61280000D02*
X184050000Y-64280000D01*
X146710000Y-86910000D02*
X146710000Y-86100000D01*
X109000000Y-80000000D02*
X111000000Y-82000000D01*
X160410000Y-105840000D02*
X158900000Y-105840000D01*
X155759278Y-82379278D02*
X156700000Y-83320000D01*
X126500000Y-79960000D02*
X123760000Y-79960000D01*
X104500000Y-80000000D02*
X109000000Y-80000000D01*
X131890000Y-83080000D02*
X134320000Y-85510000D01*
X162130000Y-104120000D02*
X160410000Y-105840000D01*
X146710000Y-86100000D02*
X147870000Y-84940000D01*
X147828166Y-52012882D02*
X143930018Y-52012882D01*
X90360735Y-77360735D02*
X94000000Y-81000000D01*
X168910000Y-95970000D02*
X167890000Y-95970000D01*
X207440000Y-67860000D02*
X209280000Y-69700000D01*
X207440000Y-62940000D02*
X207440000Y-67860000D01*
X103000000Y-81500000D02*
X104500000Y-80000000D01*
X114500000Y-83500000D02*
X116500000Y-81500000D01*
X128000000Y-78460000D02*
X126500000Y-79960000D01*
X143960000Y-92130000D02*
X146550000Y-92130000D01*
X178780000Y-99820000D02*
X176610000Y-97650000D01*
X209280000Y-69700000D02*
X217660000Y-69700000D01*
X123760000Y-79960000D02*
X122980000Y-79180000D01*
X134320000Y-85510000D02*
X135690000Y-85510000D01*
X127450000Y-79960000D02*
X126500000Y-79960000D01*
X181120000Y-64280000D02*
X179790000Y-65610000D01*
X218250000Y-69700000D02*
X222270000Y-73720000D01*
X206280000Y-61780000D02*
X207440000Y-62940000D01*
X143930018Y-52012882D02*
X134693900Y-61249000D01*
X217660000Y-69700000D02*
X218250000Y-69700000D01*
X134693900Y-61249000D02*
X134411057Y-61249000D01*
X149350000Y-83080000D02*
X150050722Y-82379278D01*
X184050000Y-64280000D02*
X181330000Y-64280000D01*
X137900000Y-86070000D02*
X143960000Y-92130000D01*
X128000000Y-76500000D02*
X128000000Y-78460000D01*
X150050722Y-82379278D02*
X155759278Y-82379278D01*
X94000000Y-81000000D02*
X99500000Y-81000000D01*
X181330000Y-64280000D02*
X181120000Y-64280000D01*
%TO.N,VBUS*%
X130250000Y-90930000D02*
X131930000Y-90930000D01*
X195430000Y-104050000D02*
X205290000Y-94190000D01*
X195430000Y-106610000D02*
X195430000Y-104050000D01*
X198300000Y-82280000D02*
X198300000Y-75380000D01*
X131930000Y-90930000D02*
X139730000Y-83130000D01*
X202730000Y-86710000D02*
X198300000Y-82280000D01*
X172720000Y-67770000D02*
X172580000Y-67910000D01*
X139730000Y-83130000D02*
X139730000Y-76470218D01*
X139730000Y-76470218D02*
X139140855Y-75881073D01*
X180050000Y-67770000D02*
X172720000Y-67770000D01*
%TO.N,D12*%
X114500000Y-72560000D02*
X117060000Y-70000000D01*
X149000000Y-69000000D02*
X156001094Y-61998906D01*
X169388755Y-61173820D02*
X168563669Y-61998906D01*
X168563669Y-61998906D02*
X160411620Y-61998906D01*
X117060000Y-70000000D02*
X129500000Y-70000000D01*
X95000000Y-74500000D02*
X96901000Y-76401000D01*
X156001094Y-61998906D02*
X160411620Y-61998906D01*
X104099000Y-76401000D02*
X107500000Y-73000000D01*
X96901000Y-76401000D02*
X104099000Y-76401000D01*
%TO.N,D13*%
X133500000Y-56500000D02*
X136000000Y-59000000D01*
X107721000Y-61279000D02*
X122221000Y-61279000D01*
X127000000Y-56500000D02*
X133500000Y-56500000D01*
X84000000Y-68500000D02*
X85500000Y-68500000D01*
X107500000Y-61500000D02*
X107721000Y-61279000D01*
X153000000Y-59000000D02*
X153612087Y-59612087D01*
X77577100Y-68500000D02*
X84000000Y-68500000D01*
X73000000Y-63922900D02*
X77538550Y-68461450D01*
X96000000Y-66500000D02*
X97500000Y-66500000D01*
X97500000Y-66500000D02*
X100000000Y-64000000D01*
X73000000Y-62500000D02*
X73000000Y-63922900D01*
X77538550Y-68461450D02*
X77577100Y-68500000D01*
X122221000Y-61279000D02*
X127000000Y-56500000D01*
X100000000Y-64000000D02*
X105000000Y-64000000D01*
X87500000Y-66500000D02*
X96000000Y-66500000D01*
X85500000Y-68500000D02*
X87500000Y-66500000D01*
X105000000Y-64000000D02*
X107500000Y-61500000D01*
X153612087Y-59612087D02*
X161280349Y-59612087D01*
%TO.N,D0*%
X163061000Y-80681057D02*
X163061000Y-81298000D01*
X162960000Y-80580057D02*
X163061000Y-80681057D01*
X204460000Y-78360000D02*
X200110000Y-74010000D01*
X177611000Y-63671000D02*
X173830000Y-59890000D01*
X177470000Y-63881000D02*
X177680000Y-63671000D01*
X216920000Y-80880000D02*
X211790000Y-80880000D01*
X125234208Y-77355735D02*
X122037207Y-77355735D01*
X176589265Y-66589265D02*
X177470000Y-65708530D01*
X207358528Y-78640000D02*
X204880000Y-76161472D01*
X227820000Y-81730000D02*
X225270000Y-81730000D01*
X163100000Y-77000000D02*
X162960000Y-77140000D01*
X157970000Y-85240000D02*
X157342901Y-85867099D01*
X130500000Y-80000000D02*
X129000000Y-80000000D01*
X210630000Y-78640000D02*
X207358528Y-78640000D01*
X163061000Y-81298000D02*
X160959000Y-83400000D01*
X162960000Y-77140000D02*
X162960000Y-80580057D01*
X177470000Y-65708530D02*
X177470000Y-63881000D01*
X177680000Y-63671000D02*
X177611000Y-63671000D01*
X225270000Y-81730000D02*
X220670000Y-77130000D01*
X200110000Y-74010000D02*
X192810000Y-74010000D01*
X184180000Y-62880000D02*
X183389000Y-63671000D01*
X192810000Y-74010000D02*
X186320000Y-67520000D01*
X183389000Y-63671000D02*
X177680000Y-63671000D01*
X163100000Y-75500000D02*
X163100000Y-77000000D01*
X160959000Y-83400000D02*
X158120000Y-83400000D01*
X157342901Y-85867099D02*
X151724308Y-85867099D01*
X220670000Y-77130000D02*
X216920000Y-80880000D01*
X126500000Y-79000000D02*
X126500000Y-78621527D01*
X186320000Y-67520000D02*
X186320000Y-63310000D01*
X126500000Y-78621527D02*
X125234208Y-77355735D01*
X134000000Y-83500000D02*
X130500000Y-80000000D01*
%TO.N,A6*%
X139553537Y-74595254D02*
X149294399Y-74595254D01*
X140839357Y-71107434D02*
X138908587Y-73038204D01*
X138908587Y-73950304D02*
X139553537Y-74595254D01*
X179213767Y-61614433D02*
X179213767Y-62772207D01*
X140878317Y-71107434D02*
X140839357Y-71107434D01*
X179448256Y-61379944D02*
X179213767Y-61614433D01*
X158389653Y-65500000D02*
X162500000Y-65500000D01*
X149294399Y-74595254D02*
X158389653Y-65500000D01*
X138908587Y-73038204D02*
X138908587Y-73950304D01*
%TO.N,D2*%
X154330501Y-78706640D02*
X156793360Y-78706640D01*
X195000000Y-77000000D02*
X195000000Y-76000000D01*
X166495764Y-74995764D02*
X170210000Y-78710000D01*
X159000000Y-76500000D02*
X159500000Y-76500000D01*
X193044265Y-71044265D02*
X193044265Y-67455735D01*
X202140000Y-70830000D02*
X201940000Y-70630000D01*
X195000000Y-76000000D02*
X195500000Y-75500000D01*
X156793360Y-78706640D02*
X159000000Y-76500000D01*
X193900000Y-62190000D02*
X191990000Y-60280000D01*
X194000000Y-72000000D02*
X193044265Y-71044265D01*
X191990000Y-60280000D02*
X190090000Y-60280000D01*
X217500000Y-70830000D02*
X202140000Y-70830000D01*
X170210000Y-78710000D02*
X170500000Y-78710000D01*
X166495764Y-69495764D02*
X166495764Y-74995764D01*
X193900000Y-62910000D02*
X193900000Y-62190000D01*
X190090000Y-60280000D02*
X186960000Y-57150000D01*
%TO.N,A7*%
X149000000Y-65500000D02*
X141005746Y-73494254D01*
X174089113Y-53567643D02*
X174089113Y-53479170D01*
X165500000Y-50500000D02*
X157601000Y-58399000D01*
X157601000Y-58399000D02*
X151601000Y-58399000D01*
X141005746Y-73494254D02*
X140009587Y-73494254D01*
X170432900Y-50500000D02*
X165500000Y-50500000D01*
X151601000Y-58399000D02*
X149000000Y-61000000D01*
X149000000Y-61000000D02*
X149000000Y-65500000D01*
X172109943Y-51500000D02*
X171432900Y-51500000D01*
X174089113Y-53479170D02*
X172109943Y-51500000D01*
X171432900Y-51500000D02*
X170432900Y-50500000D01*
%TO.N,Net-(U1-PB7)*%
X160760000Y-80058530D02*
X159874265Y-80944265D01*
X130400000Y-89470000D02*
X129210000Y-89470000D01*
X149260000Y-86940000D02*
X148089000Y-88111000D01*
X148089000Y-88111000D02*
X148089000Y-98299000D01*
X150126579Y-83543421D02*
X149350000Y-84320000D01*
X129210000Y-89470000D02*
X126810000Y-87070000D01*
X160760000Y-78910000D02*
X160760000Y-80058530D01*
X150550000Y-83543421D02*
X150126579Y-83543421D01*
X148089000Y-98299000D02*
X148400000Y-98610000D01*
%TO.N,Net-(U1-PB6)*%
X154910000Y-90450000D02*
X157510000Y-90450000D01*
X141080000Y-92420000D02*
X142580000Y-92420000D01*
X162559000Y-76973900D02*
X162500000Y-76914900D01*
X162500000Y-70680000D02*
X160820000Y-69000000D01*
X157510000Y-90450000D02*
X161850000Y-86110000D01*
X162500000Y-76914900D02*
X162500000Y-70680000D01*
X137960000Y-92420000D02*
X141080000Y-92420000D01*
X162601422Y-80788578D02*
X162559000Y-80746157D01*
X162559000Y-80746157D02*
X162559000Y-76973900D01*
X162460000Y-80930000D02*
X162601422Y-80788578D01*
X142580000Y-92420000D02*
X143380000Y-93220000D01*
X136360000Y-94020000D02*
X137960000Y-92420000D01*
%TO.N,Net-(U2-V3)*%
X163240000Y-112030000D02*
X158880000Y-107670000D01*
X158880000Y-107670000D02*
X156720000Y-107670000D01*
%TO.N,+BATT*%
X206870000Y-109090000D02*
X206870000Y-94230000D01*
X206870000Y-94230000D02*
X203490000Y-90850000D01*
%TO.N,Vdrive*%
X106760000Y-64850000D02*
X106800000Y-64850000D01*
X163820000Y-110190000D02*
X164840000Y-110190000D01*
X100980000Y-96300000D02*
X101970000Y-95310000D01*
X78010000Y-96770000D02*
X79720000Y-98480000D01*
X210000000Y-67790000D02*
X212310000Y-65480000D01*
X168430000Y-84300000D02*
X178319000Y-74411000D01*
X167690000Y-107340000D02*
X167690000Y-106810000D01*
X65495000Y-94820000D02*
X65495000Y-95185000D01*
X199090000Y-72140057D02*
X199090000Y-64980000D01*
X106800000Y-63710000D02*
X108830000Y-61680000D01*
X108830000Y-61680000D02*
X110935000Y-61680000D01*
X65495000Y-95185000D02*
X67080000Y-96770000D01*
X98620000Y-88490000D02*
X98620000Y-83250000D01*
X205061000Y-78608943D02*
X205061000Y-78111057D01*
X100980000Y-99390000D02*
X100980000Y-96300000D01*
X101020000Y-75800000D02*
X101260000Y-75800000D01*
X123500000Y-69000000D02*
X121500000Y-69000000D01*
X148690000Y-92520000D02*
X154700000Y-98530000D01*
X112245000Y-62990000D02*
X112245000Y-63750000D01*
X224240000Y-82780000D02*
X225680000Y-84220000D01*
X106800000Y-64850000D02*
X106800000Y-63710000D01*
X57785000Y-68730000D02*
X62870000Y-68730000D01*
X98550390Y-70961000D02*
X90976000Y-70961000D01*
X160170000Y-100540000D02*
X160260000Y-100450000D01*
X199661057Y-74411000D02*
X204211057Y-78961000D01*
X79720000Y-98480000D02*
X79720000Y-100520000D01*
X222560000Y-82780000D02*
X224240000Y-82780000D01*
X120452115Y-67742449D02*
X120452115Y-65177693D01*
X120097282Y-68097282D02*
X120452115Y-67742449D01*
X100570000Y-75350000D02*
X101020000Y-75800000D01*
X105260000Y-66350000D02*
X106760000Y-64850000D01*
X204211057Y-78961000D02*
X204708943Y-78961000D01*
X164840000Y-110190000D02*
X166740000Y-108290000D01*
X205061000Y-78111057D02*
X199090000Y-72140057D01*
X99113701Y-70397689D02*
X98550390Y-70961000D01*
X166740000Y-108290000D02*
X167690000Y-107340000D01*
X53730000Y-72785000D02*
X57785000Y-68730000D01*
X67080000Y-96770000D02*
X78010000Y-96770000D01*
X101980000Y-66350000D02*
X105260000Y-66350000D01*
X100480000Y-90350000D02*
X98620000Y-88490000D01*
X53730000Y-73150000D02*
X53730000Y-72785000D01*
X204708943Y-78961000D02*
X205061000Y-78608943D01*
X90976000Y-70961000D02*
X90275000Y-70260000D01*
X99113701Y-69216299D02*
X101980000Y-66350000D01*
X212310000Y-65480000D02*
X212310000Y-63950000D01*
X98620000Y-83250000D02*
X101180000Y-80690000D01*
X99113701Y-70397689D02*
X99113701Y-69216299D01*
X110935000Y-61680000D02*
X112245000Y-62990000D01*
X154700000Y-98530000D02*
X157160000Y-98530000D01*
X101180000Y-78240000D02*
X101180000Y-80690000D01*
X101180000Y-80690000D02*
X101180000Y-82150000D01*
X90275000Y-70260000D02*
X90275000Y-69760000D01*
X101180000Y-82150000D02*
X101220000Y-82190000D01*
X99113701Y-73893701D02*
X100570000Y-75350000D01*
X178319000Y-74411000D02*
X199661057Y-74411000D01*
X99113701Y-70397689D02*
X99113701Y-73893701D01*
X158280000Y-100540000D02*
X160170000Y-100540000D01*
%TO.N,/USB_P*%
X172566985Y-91026985D02*
X177663015Y-91026985D01*
X154400000Y-105190000D02*
X156410000Y-103180000D01*
X157610000Y-101550000D02*
X162170000Y-101550000D01*
X156410000Y-102750000D02*
X157610000Y-101550000D01*
X177663015Y-91026985D02*
X177693015Y-91056985D01*
X208720000Y-89690000D02*
X210680000Y-89690000D01*
X156410000Y-103180000D02*
X156410000Y-102750000D01*
X210680000Y-89690000D02*
X210700000Y-89670000D01*
X100060000Y-91810000D02*
X104080000Y-91810000D01*
X104080000Y-91810000D02*
X104340000Y-91550000D01*
%TO.N,Net-(D2-A)*%
X175980000Y-94230000D02*
X183960000Y-94230000D01*
X183960000Y-94230000D02*
X184330000Y-94230000D01*
X185780000Y-95680000D02*
X187390000Y-95680000D01*
X187390000Y-95680000D02*
X187850000Y-95220000D01*
X184330000Y-94230000D02*
X185780000Y-95680000D01*
%TO.N,Net-(D3-A)*%
X133920000Y-92610000D02*
X117920000Y-92610000D01*
X168110000Y-108960000D02*
X167930000Y-108780000D01*
X137090000Y-89440000D02*
X133920000Y-92610000D01*
X170940000Y-108960000D02*
X168110000Y-108960000D01*
X164060000Y-106150000D02*
X163400000Y-106150000D01*
X163400000Y-106150000D02*
X161770000Y-107780000D01*
%TO.N,Net-(D4-A)*%
X140830000Y-80510000D02*
X140330000Y-80010000D01*
X161480000Y-77520000D02*
X158700000Y-77520000D01*
X185720000Y-66990000D02*
X184020000Y-68690000D01*
X184020000Y-68690000D02*
X173210000Y-68690000D01*
X172331471Y-68690000D02*
X172329995Y-68691476D01*
X187900000Y-63290000D02*
X187900000Y-65220000D01*
X156265000Y-79955000D02*
X156210000Y-80010000D01*
X124984265Y-77955735D02*
X121674265Y-77955735D01*
X187900000Y-65220000D02*
X187320000Y-65800000D01*
X156265000Y-79955000D02*
X141595000Y-79955000D01*
X121674265Y-77955735D02*
X114530000Y-85100000D01*
X173210000Y-68690000D02*
X172331471Y-68690000D01*
X141595000Y-79955000D02*
X141040000Y-80510000D01*
X141040000Y-80510000D02*
X140830000Y-80510000D01*
X158700000Y-77520000D02*
X156265000Y-79955000D01*
%TO.N,Net-(D4-K)*%
X186620000Y-94530000D02*
X186540000Y-94610000D01*
X207430000Y-88590000D02*
X200700000Y-88590000D01*
X146160000Y-108720000D02*
X138020000Y-100580000D01*
X163760000Y-104430000D02*
X161749000Y-106441000D01*
X186540000Y-94610000D02*
X185559000Y-93629000D01*
X209270000Y-85380000D02*
X209270000Y-86750000D01*
X185559000Y-93629000D02*
X174561000Y-93629000D01*
X138020000Y-100580000D02*
X119330000Y-100580000D01*
X163760000Y-100980000D02*
X163760000Y-104430000D01*
X209270000Y-86750000D02*
X207430000Y-88590000D01*
X107940000Y-94250000D02*
X99680000Y-85990000D01*
X109390000Y-94250000D02*
X107940000Y-94250000D01*
X167770000Y-97130000D02*
X167690000Y-97050000D01*
X161749000Y-106441000D02*
X150559000Y-106441000D01*
X113000000Y-94250000D02*
X109390000Y-94250000D01*
X167690000Y-97050000D02*
X163760000Y-100980000D01*
X119330000Y-100580000D02*
X113000000Y-94250000D01*
X171060000Y-97130000D02*
X167770000Y-97130000D01*
X174561000Y-93629000D02*
X171060000Y-97130000D01*
X150559000Y-106441000D02*
X148400000Y-108600000D01*
X194760000Y-94530000D02*
X186620000Y-94530000D01*
X200700000Y-88590000D02*
X194760000Y-94530000D01*
%TO.N,Net-(D5-K)*%
X198820000Y-84850000D02*
X198161000Y-85509000D01*
X201160000Y-80690000D02*
X201010000Y-80540000D01*
X160681000Y-85509000D02*
X157030000Y-89160000D01*
X134701057Y-93211000D02*
X111681057Y-93211000D01*
X203970000Y-80690000D02*
X201160000Y-80690000D01*
X147010000Y-93951415D02*
X146340415Y-94621000D01*
X107130000Y-88659943D02*
X107130000Y-84220000D01*
X146340415Y-94621000D02*
X136111057Y-94621000D01*
X151740000Y-92770057D02*
X151740000Y-94220000D01*
X155350057Y-89160000D02*
X151740000Y-92770057D01*
X157030000Y-89160000D02*
X155350057Y-89160000D01*
X136111057Y-94621000D02*
X134701057Y-93211000D01*
X111681057Y-93211000D02*
X107130000Y-88659943D01*
X198161000Y-85509000D02*
X160681000Y-85509000D01*
%TO.N,Net-(D7-DIN)*%
X219320000Y-75950000D02*
X215080000Y-80190000D01*
X207190000Y-81840000D02*
X201330000Y-81840000D01*
X161850000Y-78340000D02*
X161700000Y-78190000D01*
X197350000Y-79710000D02*
X196950000Y-79310000D01*
X123040000Y-72250000D02*
X121880000Y-72250000D01*
X97240000Y-72850000D02*
X97210000Y-72820000D01*
X216750000Y-63220000D02*
X216750000Y-64470000D01*
X121880000Y-72250000D02*
X121590000Y-71960000D01*
X151000000Y-79140000D02*
X149280000Y-79140000D01*
X161700000Y-78190000D02*
X159760000Y-78190000D01*
X105060000Y-72230000D02*
X103443364Y-72230000D01*
X149280000Y-79140000D02*
X149240000Y-79180000D01*
X215080000Y-80190000D02*
X214250000Y-80190000D01*
X168100000Y-78870000D02*
X167330000Y-79640000D01*
X167330000Y-79640000D02*
X163590000Y-79640000D01*
X201330000Y-81840000D02*
X199105735Y-79615735D01*
X216750000Y-64470000D02*
X216500000Y-64720000D01*
X103443364Y-72230000D02*
X101026310Y-69812946D01*
X196950000Y-79310000D02*
X174610000Y-79310000D01*
X97240000Y-74510000D02*
X97240000Y-72850000D01*
%TO.N,Net-(D7-DOUT)*%
X51190000Y-78070000D02*
X52390000Y-79270000D01*
X141930000Y-113435000D02*
X141930000Y-113800000D01*
X51190000Y-73150000D02*
X51190000Y-78070000D01*
X60400000Y-79620000D02*
X61160000Y-79620000D01*
X61160000Y-79620000D02*
X66100000Y-84560000D01*
X138720000Y-110370000D02*
X138865000Y-110370000D01*
X77540000Y-89450000D02*
X81730000Y-93640000D01*
X138865000Y-110370000D02*
X141930000Y-113435000D01*
X81730000Y-93640000D02*
X83800000Y-93640000D01*
X72650000Y-84560000D02*
X77540000Y-89450000D01*
X66100000Y-84560000D02*
X72650000Y-84560000D01*
X52740000Y-79620000D02*
X60400000Y-79620000D01*
X52390000Y-79270000D02*
X52740000Y-79620000D01*
%TO.N,Net-(D10-DIN)*%
X131040000Y-111430000D02*
X127685000Y-111430000D01*
X146440000Y-116050000D02*
X144920000Y-117570000D01*
X144920000Y-117570000D02*
X137180000Y-117570000D01*
X137180000Y-117570000D02*
X131040000Y-111430000D01*
%TO.N,Net-(D8-DIN)*%
X162350000Y-109260000D02*
X166100000Y-105510000D01*
X212690000Y-79610000D02*
X212810000Y-79730000D01*
X212810000Y-79730000D02*
X219120000Y-73420000D01*
X201830000Y-79610000D02*
X212690000Y-79610000D01*
X166100000Y-105510000D02*
X188330000Y-105510000D01*
X188330000Y-105510000D02*
X200650000Y-93190000D01*
X219120000Y-73420000D02*
X219200000Y-73420000D01*
X200650000Y-93190000D02*
X200650000Y-92160000D01*
%TO.N,Net-(D10-DOUT)*%
X66765000Y-94820000D02*
X67235000Y-94350000D01*
X67235000Y-94350000D02*
X104730000Y-94350000D01*
X104730000Y-94350000D02*
X108900000Y-98520000D01*
X108900000Y-98520000D02*
X114570000Y-98520000D01*
X114570000Y-98520000D02*
X123875000Y-107825000D01*
X123875000Y-107825000D02*
X123875000Y-111430000D01*
%TO.N,Net-(D11-DOUT)*%
X113515000Y-67815000D02*
X113270000Y-68060000D01*
X108720000Y-100600000D02*
X108325000Y-100995000D01*
X108325000Y-100995000D02*
X108325000Y-108010000D01*
X111890000Y-69630000D02*
X111890000Y-92570000D01*
X113515000Y-63750000D02*
X113515000Y-67815000D01*
X110270000Y-68010000D02*
X111890000Y-69630000D01*
%TO.N,Net-(D11-DIN)*%
X99970000Y-109800000D02*
X97610000Y-107440000D01*
X107220000Y-111720000D02*
X105300000Y-109800000D01*
X112135000Y-108287283D02*
X108702283Y-111720000D01*
X96365000Y-107440000D02*
X93480000Y-104555000D01*
X93480000Y-104555000D02*
X93480000Y-104190000D01*
X97610000Y-107440000D02*
X96365000Y-107440000D01*
X112135000Y-108010000D02*
X112135000Y-108287283D01*
X105300000Y-109800000D02*
X99970000Y-109800000D01*
X108702283Y-111720000D02*
X107220000Y-111720000D01*
%TO.N,Net-(D13-DIN)*%
X62955000Y-94820000D02*
X62955000Y-95097283D01*
X62955000Y-95097283D02*
X67057717Y-99200000D01*
X67057717Y-99200000D02*
X73160000Y-99200000D01*
X76410000Y-102450000D02*
X79425000Y-102450000D01*
X79425000Y-102450000D02*
X80990000Y-100885000D01*
X80990000Y-100885000D02*
X80990000Y-100520000D01*
X73160000Y-99200000D02*
X76410000Y-102450000D01*
%TO.N,Net-(D13-DOUT)*%
X171750000Y-115680000D02*
X170289000Y-117141000D01*
X147041000Y-114551000D02*
X139010000Y-106520000D01*
X107200000Y-102250000D02*
X101170000Y-102250000D01*
X139010000Y-106520000D02*
X124230000Y-106520000D01*
X147361057Y-117141000D02*
X147009000Y-116788943D01*
X124230000Y-106520000D02*
X123200000Y-105490000D01*
X147009000Y-116788943D02*
X147009000Y-116330943D01*
X82090000Y-95820000D02*
X81860000Y-96050000D01*
X101170000Y-102250000D02*
X95950000Y-97030000D01*
X92930000Y-95820000D02*
X82090000Y-95820000D01*
X147041000Y-116298943D02*
X147041000Y-114551000D01*
X170289000Y-117141000D02*
X147361057Y-117141000D01*
X147009000Y-116330943D02*
X147041000Y-116298943D01*
%TO.N,Net-(D15-DOUT)*%
X176078265Y-52568265D02*
X176078265Y-52569678D01*
X158501735Y-49848208D02*
X158501735Y-49600000D01*
X193120000Y-53380000D02*
X200950000Y-53380000D01*
X172680000Y-50600000D02*
X174110000Y-50600000D01*
X209700000Y-68530000D02*
X214620000Y-68530000D01*
X157640764Y-50189236D02*
X157651792Y-50200265D01*
X158501735Y-49600000D02*
X171680000Y-49600000D01*
X176078265Y-52569678D02*
X176430322Y-52921735D01*
X134660000Y-61850000D02*
X143396118Y-53113882D01*
X176430322Y-52921735D02*
X176431735Y-52921735D01*
X176431735Y-52921735D02*
X177730000Y-54220000D01*
X193120000Y-53380000D02*
X193060000Y-53440000D01*
X177730000Y-54220000D02*
X192280000Y-54220000D01*
X192280000Y-54220000D02*
X193120000Y-53380000D01*
X200950000Y-53380000D02*
X205730000Y-58160000D01*
X174110000Y-50600000D02*
X176078265Y-52568265D01*
X208320000Y-64720000D02*
X208320000Y-67150000D01*
X208320000Y-67150000D02*
X209430000Y-68260000D01*
X171680000Y-49600000D02*
X172680000Y-50600000D01*
X154716118Y-53113882D02*
X157640764Y-50189236D01*
X205730000Y-58160000D02*
X208320000Y-60750000D01*
X158149678Y-50200265D02*
X158501735Y-49848208D01*
X157651792Y-50200265D02*
X158149678Y-50200265D01*
X193060000Y-53440000D02*
X192790000Y-53440000D01*
X143396118Y-53113882D02*
X154716118Y-53113882D01*
X209430000Y-68260000D02*
X209700000Y-68530000D01*
X208320000Y-60750000D02*
X208320000Y-64720000D01*
%TO.N,Net-(D19-DOUT)*%
X243915000Y-67410000D02*
X243915000Y-67045000D01*
X211470000Y-61010000D02*
X210050000Y-61010000D01*
X216910000Y-61420000D02*
X216500000Y-61010000D01*
X202240000Y-53200000D02*
X201950000Y-53200000D01*
X201950000Y-53200000D02*
X201600000Y-52850000D01*
X223870000Y-61520000D02*
X223420000Y-61520000D01*
X207590000Y-58550000D02*
X202240000Y-53200000D01*
X223420000Y-61520000D02*
X217010000Y-61520000D01*
X243915000Y-67045000D02*
X240280000Y-63410000D01*
X194570000Y-52850000D02*
X194500000Y-52780000D01*
X196090000Y-52850000D02*
X194570000Y-52850000D01*
X225760000Y-63410000D02*
X223870000Y-61520000D01*
X216500000Y-61010000D02*
X211470000Y-61010000D01*
X210050000Y-61010000D02*
X207590000Y-58550000D01*
X217010000Y-61520000D02*
X216910000Y-61420000D01*
X240280000Y-63410000D02*
X225760000Y-63410000D01*
X201600000Y-52850000D02*
X196090000Y-52850000D01*
%TO.N,Net-(D19-DIN)*%
X176098122Y-53723735D02*
X176099535Y-53723735D01*
X162830000Y-50000000D02*
X170500000Y-50000000D01*
X173599000Y-51099000D02*
X174155029Y-51655029D01*
X174190322Y-52821735D02*
X174338056Y-52821735D01*
X180000000Y-57500000D02*
X180000000Y-58500000D01*
X175374387Y-53000000D02*
X176098122Y-53723735D01*
X192990000Y-64980000D02*
X196550000Y-64980000D01*
X174338056Y-52966643D02*
X174371413Y-53000000D01*
X177454900Y-55022000D02*
X177926735Y-55493835D01*
X174338056Y-52821735D02*
X174338056Y-52966643D01*
X173838265Y-52469678D02*
X174190322Y-52821735D01*
X174371413Y-53000000D02*
X175374387Y-53000000D01*
X187270000Y-59260000D02*
X192990000Y-64980000D01*
X173838265Y-51971792D02*
X173838265Y-52469678D01*
X171599000Y-51099000D02*
X173599000Y-51099000D01*
X177397800Y-55022000D02*
X177454900Y-55022000D01*
X174155029Y-51655029D02*
X173838265Y-51971792D01*
X179500000Y-57000000D02*
X180000000Y-57500000D01*
X177926735Y-55926735D02*
X179000000Y-57000000D01*
X160990000Y-51840000D02*
X162830000Y-50000000D01*
X180000000Y-58500000D02*
X180760000Y-59260000D01*
X180760000Y-59260000D02*
X187270000Y-59260000D01*
X170500000Y-50000000D02*
X171599000Y-51099000D01*
X179000000Y-57000000D02*
X179500000Y-57000000D01*
X177926735Y-55493835D02*
X177926735Y-55926735D01*
X176099535Y-53723735D02*
X177397800Y-55022000D01*
%TO.N,Net-(D20-DIN)*%
X206290000Y-78420000D02*
X200360000Y-72490000D01*
X214820000Y-88300000D02*
X207760000Y-81240000D01*
X200360000Y-72490000D02*
X200360000Y-64980000D01*
X224535000Y-88300000D02*
X214820000Y-88300000D01*
%TO.N,Net-(D21-DIN)*%
X230590000Y-98430000D02*
X239150000Y-98430000D01*
X239490000Y-98090000D02*
X241120000Y-98090000D01*
X228345000Y-96185000D02*
X230590000Y-98430000D01*
X228345000Y-88300000D02*
X228345000Y-96185000D01*
X239150000Y-98430000D02*
X239490000Y-98090000D01*
%TO.N,Net-(D23-DIN)*%
X215930000Y-74500000D02*
X212740000Y-77690000D01*
X216740000Y-74500000D02*
X215930000Y-74500000D01*
%TO.N,/UD+*%
X96520000Y-83220000D02*
X96520000Y-85700000D01*
X96520000Y-85700000D02*
X96620000Y-85800000D01*
X96620000Y-85970000D02*
X96380000Y-86210000D01*
X96620000Y-85800000D02*
X96620000Y-85970000D01*
%TO.N,Net-(J2-CC1)*%
X158050000Y-109000000D02*
X150510000Y-109000000D01*
X107970000Y-96120000D02*
X106400000Y-94550000D01*
X146550000Y-110820000D02*
X137000000Y-101270000D01*
X137000000Y-101270000D02*
X136940000Y-101270000D01*
X150510000Y-109000000D02*
X148810000Y-110700000D01*
X163830000Y-114780000D02*
X158050000Y-109000000D01*
X172000000Y-112580000D02*
X167160000Y-112580000D01*
X167160000Y-112580000D02*
X164960000Y-114780000D01*
X118720000Y-101270000D02*
X113570000Y-96120000D01*
X136940000Y-101270000D02*
X118720000Y-101270000D01*
X164960000Y-114780000D02*
X163830000Y-114780000D01*
X113570000Y-96120000D02*
X107970000Y-96120000D01*
%TO.N,/UD-*%
X106401000Y-79599000D02*
X104051057Y-79599000D01*
X111290000Y-74550000D02*
X111290000Y-74710000D01*
X95500000Y-82000000D02*
X99000000Y-82000000D01*
X101821000Y-81829057D02*
X101821000Y-82438943D01*
X91325735Y-86174265D02*
X95500000Y-82000000D01*
X104051057Y-79599000D02*
X101821000Y-81829057D01*
X101821000Y-82438943D02*
X100759943Y-83500000D01*
X100759943Y-83500000D02*
X100000000Y-83500000D01*
X91174265Y-86174265D02*
X91325735Y-86174265D01*
X111290000Y-74710000D02*
X106401000Y-79599000D01*
%TO.N,Net-(J2-CC2)*%
X159310000Y-99390000D02*
X161210000Y-97490000D01*
X99730735Y-88729265D02*
X101390735Y-88729265D01*
X101390735Y-88729265D02*
X101450000Y-88670000D01*
X149070000Y-99390000D02*
X159310000Y-99390000D01*
%TO.N,Net-(U3-CS)*%
X185270000Y-60570000D02*
X182830000Y-63010000D01*
X182830000Y-63010000D02*
X182830000Y-63070000D01*
%TO.N,Net-(U4-PROG)*%
X206020000Y-66220000D02*
X206020000Y-69310000D01*
X206020000Y-69310000D02*
X206140000Y-69430000D01*
%TD*%
M02*
