%TF.GenerationSoftware,KiCad,Pcbnew,9.0.6*%
%TF.CreationDate,2025-11-25T23:45:01-06:00*%
%TF.ProjectId,1745LightUpBoard,31373435-4c69-4676-9874-5570426f6172,rev?*%
%TF.SameCoordinates,Original*%
%TF.FileFunction,Profile,NP*%
%FSLAX46Y46*%
G04 Gerber Fmt 4.6, Leading zero omitted, Abs format (unit mm)*
G04 Created by KiCad (PCBNEW 9.0.6) date 2025-11-25 23:45:01*
%MOMM*%
%LPD*%
G01*
G04 APERTURE LIST*
%TA.AperFunction,Profile*%
%ADD10C,2.000000*%
%TD*%
G04 APERTURE END LIST*
D10*
X159948369Y-42522447D02*
X161028813Y-42567653D01*
X162100986Y-42657611D01*
X163163476Y-42792641D01*
X164214867Y-42973066D01*
X165253749Y-43199206D01*
X166278706Y-43471386D01*
X167288325Y-43789925D01*
X168281193Y-44155146D01*
X169255897Y-44567371D01*
X170211023Y-45026922D01*
X171145157Y-45534120D01*
X172056887Y-46089288D01*
X172944799Y-46692747D01*
X173807479Y-47344819D01*
X174643514Y-48045826D01*
X175099662Y-48444870D01*
X175984551Y-49237825D01*
X176421154Y-49642202D01*
X176849907Y-50054722D01*
X177267841Y-50477542D01*
X177471824Y-50693488D01*
X177671989Y-50912817D01*
X177867966Y-51135801D01*
X178059383Y-51362707D01*
X178245869Y-51593805D01*
X178427054Y-51829366D01*
X178427054Y-52345307D01*
X178714330Y-52339847D01*
X180079209Y-52328841D01*
X180759207Y-52333819D01*
X181438288Y-52347577D01*
X182116985Y-52371458D01*
X182795833Y-52406807D01*
X183475364Y-52454968D01*
X184156112Y-52517284D01*
X185076387Y-52603110D01*
X185957354Y-52667789D01*
X186386446Y-52688342D01*
X186809730Y-52698981D01*
X187228545Y-52698162D01*
X187644230Y-52684345D01*
X188058127Y-52655985D01*
X188471572Y-52611542D01*
X188885908Y-52549471D01*
X189302472Y-52468232D01*
X189722605Y-52366281D01*
X190147646Y-52242075D01*
X190578934Y-52094074D01*
X191017809Y-51920733D01*
X191681512Y-51666363D01*
X192376955Y-51444681D01*
X193099691Y-51255538D01*
X193845273Y-51098784D01*
X194609255Y-50974269D01*
X195387188Y-50881843D01*
X196174627Y-50821359D01*
X196967125Y-50792664D01*
X197760234Y-50795611D01*
X198549508Y-50830050D01*
X199330500Y-50895831D01*
X200098762Y-50992804D01*
X200849849Y-51120821D01*
X201579313Y-51279731D01*
X202282706Y-51469385D01*
X202955583Y-51689633D01*
X203514800Y-51936985D01*
X204050128Y-52199085D01*
X204562763Y-52476330D01*
X205053903Y-52769119D01*
X205524742Y-53077848D01*
X205976479Y-53402916D01*
X206410309Y-53744720D01*
X206827430Y-54103658D01*
X207229037Y-54480128D01*
X207616328Y-54874527D01*
X207990499Y-55287253D01*
X208352747Y-55718704D01*
X208704268Y-56169277D01*
X209046258Y-56639371D01*
X209379915Y-57129382D01*
X209706435Y-57639708D01*
X209817597Y-57804506D01*
X209929501Y-57962309D01*
X210042842Y-58113044D01*
X210158315Y-58256640D01*
X210276614Y-58393022D01*
X210398433Y-58522120D01*
X210524466Y-58643860D01*
X210655408Y-58758170D01*
X210791954Y-58864977D01*
X210934797Y-58964209D01*
X211084632Y-59055793D01*
X211242153Y-59139656D01*
X211408056Y-59215726D01*
X211583033Y-59283930D01*
X211767781Y-59344197D01*
X211962992Y-59396452D01*
X212244100Y-59414346D01*
X212524818Y-59426235D01*
X212805298Y-59432950D01*
X213085692Y-59435321D01*
X213646835Y-59430346D01*
X214209467Y-59417950D01*
X215459678Y-59403841D01*
X216061351Y-59397374D01*
X216584753Y-59402878D01*
X217106423Y-59420641D01*
X217626683Y-59449873D01*
X218145850Y-59489784D01*
X218664245Y-59539583D01*
X219182187Y-59598481D01*
X219699996Y-59665687D01*
X220217990Y-59740410D01*
X220790371Y-59802349D01*
X221362847Y-59851320D01*
X221935523Y-59889225D01*
X222508502Y-59917962D01*
X223655787Y-59955534D01*
X224805538Y-59979236D01*
X227187398Y-60043196D01*
X229565871Y-60140914D01*
X231942864Y-60270064D01*
X234320280Y-60428323D01*
X234320280Y-60944263D01*
X234649081Y-60934057D01*
X235152484Y-60932687D01*
X235652322Y-60944952D01*
X236149559Y-60969596D01*
X236645161Y-61005361D01*
X237140093Y-61050989D01*
X237635318Y-61105222D01*
X238131801Y-61166804D01*
X238630507Y-61234475D01*
X239293736Y-61327186D01*
X240433482Y-61503125D01*
X241585893Y-61712572D01*
X242160899Y-61836051D01*
X242731934Y-61975335D01*
X243296618Y-62132901D01*
X243852572Y-62311224D01*
X244397416Y-62512781D01*
X244928771Y-62740047D01*
X245444258Y-62995500D01*
X245941498Y-63281615D01*
X246418110Y-63600868D01*
X246871716Y-63955736D01*
X247299937Y-64348695D01*
X247700393Y-64782220D01*
X247794541Y-64925613D01*
X247875351Y-65071806D01*
X247943669Y-65220612D01*
X248000336Y-65371843D01*
X248046197Y-65525311D01*
X248082094Y-65680829D01*
X248108871Y-65838210D01*
X248127372Y-65997265D01*
X248138439Y-66157807D01*
X248142916Y-66319649D01*
X248141647Y-66482604D01*
X248135474Y-66646482D01*
X248111790Y-66976263D01*
X248078613Y-67307491D01*
X247768269Y-68485426D01*
X247384408Y-69645896D01*
X246933008Y-70788818D01*
X246420043Y-71914112D01*
X245851489Y-73021696D01*
X245233322Y-74111488D01*
X244571518Y-75183408D01*
X243872053Y-76237374D01*
X243140901Y-77273304D01*
X242384040Y-78291117D01*
X240817089Y-80272068D01*
X239219007Y-82179574D01*
X237637598Y-84012985D01*
X237400832Y-84289009D01*
X237070798Y-84670878D01*
X236739409Y-85051571D01*
X236614412Y-85205137D01*
X236563306Y-85269323D01*
X236518786Y-85327057D01*
X236480095Y-85379799D01*
X236446477Y-85429009D01*
X236417174Y-85476144D01*
X236391431Y-85522665D01*
X236368490Y-85570031D01*
X236347595Y-85619702D01*
X236327988Y-85673136D01*
X236308913Y-85731794D01*
X236289614Y-85797134D01*
X236269332Y-85870617D01*
X236222799Y-86047845D01*
X236176552Y-86171008D01*
X236126292Y-86288667D01*
X236072166Y-86401315D01*
X236014320Y-86509443D01*
X235952902Y-86613542D01*
X235888058Y-86714104D01*
X235819934Y-86811620D01*
X235748677Y-86906582D01*
X235674434Y-86999480D01*
X235597352Y-87090807D01*
X235517576Y-87181053D01*
X235435254Y-87270711D01*
X235263558Y-87450225D01*
X235083437Y-87633282D01*
X234771811Y-87962342D01*
X234466128Y-88293921D01*
X234165875Y-88628466D01*
X233870541Y-88966428D01*
X233579611Y-89308257D01*
X233292575Y-89654401D01*
X233008918Y-90005310D01*
X232728129Y-90361435D01*
X232428510Y-90696660D01*
X232084551Y-90696660D01*
X232108737Y-91199157D01*
X232127547Y-91857518D01*
X232151730Y-92510503D01*
X232135772Y-92634991D01*
X232117290Y-92747421D01*
X232095933Y-92849108D01*
X232071350Y-92941368D01*
X232043189Y-93025519D01*
X232011097Y-93102875D01*
X231974723Y-93174753D01*
X231933716Y-93242469D01*
X231887723Y-93307338D01*
X231836393Y-93370678D01*
X231779374Y-93433804D01*
X231716315Y-93498031D01*
X231646863Y-93564677D01*
X231570666Y-93635057D01*
X231396634Y-93792284D01*
X232858884Y-93882157D01*
X234011027Y-93944240D01*
X234955848Y-93976519D01*
X235796131Y-93976978D01*
X236634660Y-93943601D01*
X237574221Y-93874373D01*
X238717597Y-93767278D01*
X240167572Y-93620302D01*
X240599536Y-93532972D01*
X241439277Y-93360990D01*
X241813641Y-93294406D01*
X242188547Y-93234520D01*
X242564182Y-93179087D01*
X242940736Y-93125859D01*
X243737069Y-92991345D01*
X244527221Y-92832510D01*
X245312038Y-92652493D01*
X246092368Y-92454437D01*
X246869059Y-92241481D01*
X247642958Y-92016767D01*
X249185771Y-91544628D01*
X249608287Y-91414134D01*
X249983693Y-91296405D01*
X250093841Y-91268742D01*
X250182911Y-91247953D01*
X250222643Y-91239830D01*
X250260825Y-91233057D01*
X250298698Y-91227512D01*
X250337503Y-91223072D01*
X250378479Y-91219614D01*
X250422867Y-91217016D01*
X250471906Y-91215154D01*
X250526837Y-91213906D01*
X250659334Y-91212760D01*
X250830280Y-91212596D01*
X250830280Y-90868632D01*
X251446944Y-90859187D01*
X251795815Y-90856039D01*
X252005876Y-90859187D01*
X252206113Y-90868632D01*
X252257545Y-90925670D01*
X252304758Y-90989317D01*
X252347925Y-91059176D01*
X252387216Y-91134847D01*
X252422806Y-91215933D01*
X252454866Y-91302035D01*
X252509088Y-91487694D01*
X252551261Y-91688639D01*
X252582765Y-91901682D01*
X252604979Y-92123637D01*
X252619285Y-92351319D01*
X252627061Y-92581539D01*
X252629687Y-92811111D01*
X252625009Y-93255569D01*
X252616288Y-93659199D01*
X252614563Y-93996509D01*
X252634045Y-94403275D01*
X252636240Y-94660603D01*
X252634795Y-94775627D01*
X252630758Y-94883090D01*
X252623458Y-94984142D01*
X252612223Y-95079930D01*
X252596380Y-95171605D01*
X252575258Y-95260314D01*
X252548184Y-95347208D01*
X252514487Y-95433435D01*
X252473494Y-95520144D01*
X252424533Y-95608485D01*
X252366933Y-95699605D01*
X252300021Y-95794655D01*
X252223126Y-95894783D01*
X252135574Y-96001139D01*
X251690175Y-96371971D01*
X251508642Y-96694409D01*
X251446128Y-96809280D01*
X251394387Y-96909375D01*
X251347374Y-97006786D01*
X251299042Y-97113606D01*
X251174238Y-97403842D01*
X250658301Y-97403842D01*
X250561562Y-97694059D01*
X250503435Y-97783364D01*
X250444016Y-97866614D01*
X250383205Y-97944382D01*
X250320901Y-98017240D01*
X250257004Y-98085763D01*
X250191412Y-98150522D01*
X250124026Y-98212090D01*
X250054744Y-98271042D01*
X249983467Y-98327950D01*
X249910093Y-98383386D01*
X249834521Y-98437925D01*
X249756652Y-98492138D01*
X249420185Y-98717202D01*
X249362707Y-98761603D01*
X249307433Y-98806088D01*
X249254175Y-98850768D01*
X249202743Y-98895754D01*
X249152948Y-98941158D01*
X249104600Y-98987089D01*
X249057509Y-99033659D01*
X249011487Y-99080978D01*
X248966344Y-99129159D01*
X248921891Y-99178311D01*
X248834295Y-99279973D01*
X248747184Y-99386853D01*
X248659043Y-99499838D01*
X248583181Y-99588097D01*
X248510477Y-99669178D01*
X248440159Y-99743575D01*
X248371450Y-99811783D01*
X248303578Y-99874297D01*
X248235768Y-99931610D01*
X248167244Y-99984218D01*
X248097234Y-100032614D01*
X248024962Y-100077292D01*
X247949655Y-100118748D01*
X247870537Y-100157476D01*
X247786835Y-100193970D01*
X247697775Y-100228724D01*
X247602581Y-100262233D01*
X247500479Y-100294991D01*
X247390696Y-100327493D01*
X247390696Y-100671447D01*
X246874759Y-100843429D01*
X246530800Y-101359364D01*
X246344714Y-101461478D01*
X246275351Y-101498428D01*
X246211027Y-101531346D01*
X246143679Y-101564264D01*
X246065248Y-101601214D01*
X245842884Y-101703328D01*
X245402187Y-101982793D01*
X245262811Y-102060847D01*
X245204436Y-102092426D01*
X245151776Y-102119503D01*
X245103462Y-102142422D01*
X245058124Y-102161531D01*
X245014391Y-102177177D01*
X244970895Y-102189705D01*
X244926266Y-102199461D01*
X244879133Y-102206793D01*
X244828126Y-102212047D01*
X244771877Y-102215568D01*
X244709014Y-102217705D01*
X244638169Y-102218801D01*
X244467051Y-102219263D01*
X244467051Y-102563217D01*
X244169446Y-102677425D01*
X243655208Y-102883091D01*
X243144445Y-103095733D01*
X242636603Y-103314415D01*
X242131131Y-103538205D01*
X241125085Y-103997365D01*
X240121889Y-104465739D01*
X238941457Y-104984381D01*
X237743040Y-105468834D01*
X236528331Y-105920723D01*
X235299021Y-106341673D01*
X234056804Y-106733308D01*
X232803371Y-107097255D01*
X230269628Y-107748583D01*
X227711332Y-108308657D01*
X225142021Y-108790478D01*
X222575235Y-109207047D01*
X220024513Y-109571367D01*
X219537838Y-109637293D01*
X219255907Y-109671413D01*
X218975128Y-109702275D01*
X218695020Y-109729453D01*
X218415099Y-109752517D01*
X218134881Y-109771039D01*
X217853885Y-109784591D01*
X217571627Y-109792745D01*
X217287624Y-109795072D01*
X216812561Y-109796875D01*
X216586935Y-109801554D01*
X216368285Y-109810541D01*
X216155894Y-109825179D01*
X215949040Y-109846810D01*
X215747004Y-109876775D01*
X215549066Y-109916416D01*
X215354507Y-109967077D01*
X215162607Y-110030099D01*
X214972646Y-110106825D01*
X214783904Y-110198595D01*
X214595663Y-110306754D01*
X214407201Y-110432641D01*
X214217800Y-110577602D01*
X214026739Y-110742975D01*
X213810272Y-110975383D01*
X213594789Y-111208704D01*
X213380307Y-111442945D01*
X213166845Y-111678114D01*
X212941860Y-111878225D01*
X212714623Y-112075804D01*
X212485087Y-112270703D01*
X212253204Y-112462774D01*
X211857517Y-112796651D01*
X211720987Y-112881746D01*
X211663690Y-112916502D01*
X211611861Y-112946734D01*
X211564113Y-112972943D01*
X211519063Y-112995631D01*
X211475326Y-113015300D01*
X211431516Y-113032451D01*
X211386251Y-113047587D01*
X211338144Y-113061210D01*
X211285812Y-113073820D01*
X211227869Y-113085922D01*
X211162932Y-113098015D01*
X211089615Y-113110602D01*
X210912306Y-113139265D01*
X210747106Y-113152807D01*
X210679222Y-113159482D01*
X210619645Y-113166777D01*
X210567246Y-113175204D01*
X210520896Y-113185276D01*
X210479465Y-113197506D01*
X210441826Y-113212406D01*
X210424076Y-113221018D01*
X210406850Y-113230489D01*
X210373407Y-113252269D01*
X210340370Y-113278257D01*
X210306609Y-113308966D01*
X210270996Y-113344909D01*
X210232402Y-113386599D01*
X210141755Y-113489269D01*
X209909986Y-113827857D01*
X209524767Y-114267805D01*
X209110730Y-114689686D01*
X208669443Y-115093927D01*
X208202474Y-115480953D01*
X207711389Y-115851192D01*
X207197757Y-116205070D01*
X206109120Y-116865448D01*
X204949102Y-117465500D01*
X203730242Y-118008638D01*
X202465079Y-118498274D01*
X201166155Y-118937821D01*
X199846009Y-119330690D01*
X198517179Y-119680294D01*
X197192206Y-119990045D01*
X195883629Y-120263355D01*
X193365823Y-120714300D01*
X191064078Y-121060426D01*
X190926627Y-121071619D01*
X190870311Y-121076978D01*
X190821100Y-121082664D01*
X190778117Y-121089042D01*
X190740484Y-121096475D01*
X190707326Y-121105328D01*
X190677765Y-121115964D01*
X190650926Y-121128748D01*
X190625930Y-121144044D01*
X190601903Y-121162215D01*
X190577966Y-121183626D01*
X190553243Y-121208640D01*
X190526858Y-121237623D01*
X190465593Y-121308947D01*
X190091989Y-121334887D01*
X189718822Y-121357778D01*
X189345525Y-121377751D01*
X188971528Y-121394938D01*
X188307363Y-121428737D01*
X187978239Y-121450768D01*
X187650284Y-121477576D01*
X187322895Y-121510177D01*
X186995469Y-121549588D01*
X186667403Y-121596823D01*
X186338094Y-121652901D01*
X185887143Y-121703981D01*
X185437368Y-121744908D01*
X184988242Y-121776340D01*
X184539239Y-121798935D01*
X184089832Y-121813353D01*
X183639495Y-121820252D01*
X183187702Y-121820292D01*
X182733924Y-121814131D01*
X182562611Y-121813165D01*
X182428121Y-121813662D01*
X182318881Y-121816757D01*
X182270113Y-121819633D01*
X182223318Y-121823583D01*
X182177050Y-121828750D01*
X182129860Y-121835274D01*
X182026934Y-121852964D01*
X181902968Y-121877785D01*
X181746388Y-121910873D01*
X181438891Y-121951944D01*
X181132548Y-121982248D01*
X180827224Y-122002440D01*
X180522786Y-122013172D01*
X180219100Y-122015100D01*
X179916033Y-122008876D01*
X179613451Y-121995154D01*
X179311220Y-121974589D01*
X178707279Y-121915544D01*
X178103139Y-121836970D01*
X177497732Y-121744098D01*
X176889989Y-121642159D01*
X176216850Y-121528417D01*
X175277048Y-121361201D01*
X174335140Y-121183188D01*
X173393397Y-120991819D01*
X172454090Y-120784531D01*
X171519487Y-120558764D01*
X170591861Y-120311956D01*
X169673480Y-120041547D01*
X168766616Y-119744974D01*
X168665096Y-119713965D01*
X168567032Y-119687080D01*
X168471892Y-119664120D01*
X168379144Y-119644885D01*
X168288256Y-119629177D01*
X168198697Y-119616796D01*
X168109935Y-119607543D01*
X168021437Y-119601219D01*
X167932672Y-119597624D01*
X167843108Y-119596560D01*
X167752212Y-119597827D01*
X167659455Y-119601225D01*
X167466222Y-119613621D01*
X167259156Y-119632154D01*
X166667307Y-119688579D01*
X166049992Y-119763428D01*
X165433549Y-119843735D01*
X164817782Y-119929096D01*
X164202492Y-120019103D01*
X163171373Y-120131018D01*
X162138111Y-120211483D01*
X161103165Y-120265610D01*
X160066995Y-120298510D01*
X157992824Y-120321076D01*
X155919277Y-120320071D01*
X155568251Y-120320369D01*
X152597970Y-120296133D01*
X151115975Y-120261837D01*
X149635365Y-120210426D01*
X148155605Y-120140149D01*
X146676160Y-120049260D01*
X145196495Y-119936010D01*
X143716076Y-119798651D01*
X143177869Y-119745584D01*
X142639514Y-119694123D01*
X137046535Y-119057071D01*
X131473336Y-118247051D01*
X125920044Y-117286125D01*
X120386791Y-116196360D01*
X114873704Y-114999820D01*
X109380914Y-113718569D01*
X98456742Y-110990197D01*
X97871280Y-110840055D01*
X91792785Y-109266390D01*
X85712349Y-107625906D01*
X82682817Y-106764557D01*
X79666495Y-105867244D01*
X76667950Y-104927549D01*
X73691748Y-103939052D01*
X73691748Y-103595098D01*
X73308151Y-103494329D01*
X72799605Y-103358618D01*
X72297783Y-103225605D01*
X72122722Y-103173314D01*
X71949829Y-103119720D01*
X71778784Y-103064187D01*
X71609268Y-103006080D01*
X71440959Y-102944763D01*
X71273538Y-102879601D01*
X71106684Y-102809958D01*
X70940078Y-102735199D01*
X70768097Y-102391235D01*
X70657306Y-102347057D01*
X70569065Y-102312598D01*
X70494682Y-102285087D01*
X70425464Y-102261753D01*
X70352723Y-102239825D01*
X70267764Y-102216532D01*
X70026432Y-102154765D01*
X69508306Y-102005519D01*
X68991735Y-101852458D01*
X68476577Y-101694696D01*
X67962691Y-101531346D01*
X67459520Y-101370116D01*
X67301892Y-101309286D01*
X67178109Y-101260369D01*
X67077487Y-101218144D01*
X67032524Y-101197909D01*
X66989344Y-101177391D01*
X66946614Y-101155936D01*
X66902997Y-101132892D01*
X66807762Y-101079426D01*
X66692956Y-101011775D01*
X66547897Y-100924718D01*
X66467562Y-100877734D01*
X66388238Y-100833507D01*
X66309693Y-100791858D01*
X66231695Y-100752606D01*
X66154013Y-100715569D01*
X66076414Y-100680567D01*
X65998667Y-100647420D01*
X65920540Y-100615947D01*
X65762219Y-100557299D01*
X65599596Y-100503178D01*
X65430817Y-100452138D01*
X65254026Y-100402733D01*
X64939287Y-100314274D01*
X64786535Y-100267993D01*
X64635943Y-100218901D01*
X64486825Y-100165916D01*
X64338491Y-100107955D01*
X64190254Y-100043937D01*
X64115957Y-100009318D01*
X64041426Y-99972778D01*
X63926320Y-99908953D01*
X63877763Y-99882963D01*
X63833519Y-99860460D01*
X63792328Y-99841098D01*
X63752925Y-99824529D01*
X63714048Y-99810409D01*
X63674435Y-99798389D01*
X63632822Y-99788124D01*
X63587949Y-99779268D01*
X63538551Y-99771473D01*
X63483367Y-99764394D01*
X63421134Y-99757685D01*
X63350589Y-99750998D01*
X63179513Y-99736308D01*
X62760765Y-99666953D01*
X62345505Y-99581527D01*
X61933844Y-99480893D01*
X61525894Y-99365909D01*
X61121766Y-99237435D01*
X60721570Y-99096332D01*
X60325418Y-98943459D01*
X59933421Y-98779677D01*
X59933421Y-98435723D01*
X58729568Y-98263741D01*
X58729568Y-97919778D01*
X58106129Y-97801543D01*
X57062235Y-97565834D01*
X56267243Y-97375697D01*
X55948364Y-97291224D01*
X55674045Y-97210349D01*
X55438397Y-97130476D01*
X55235530Y-97049006D01*
X55059558Y-96963341D01*
X54904590Y-96870883D01*
X54764738Y-96769035D01*
X54634114Y-96655199D01*
X54506829Y-96526776D01*
X54376994Y-96381168D01*
X54086119Y-96028007D01*
X54047326Y-95870809D01*
X54032086Y-95805057D01*
X54019617Y-95745856D01*
X54009919Y-95691693D01*
X54002992Y-95641056D01*
X53998835Y-95592435D01*
X53997450Y-95544319D01*
X53998835Y-95495194D01*
X54002992Y-95443550D01*
X54009919Y-95387875D01*
X54019617Y-95326658D01*
X54032086Y-95258387D01*
X54047326Y-95181551D01*
X54086119Y-94996136D01*
X54199507Y-94823310D01*
X54318600Y-94654995D01*
X54572911Y-94331332D01*
X54847084Y-94024015D01*
X55139149Y-93731910D01*
X55447138Y-93453884D01*
X55769083Y-93188805D01*
X56103013Y-92935539D01*
X56446961Y-92692952D01*
X56798957Y-92459913D01*
X57157034Y-92235288D01*
X57883551Y-91806746D01*
X59322915Y-91000773D01*
X59733887Y-90768538D01*
X60101316Y-90563092D01*
X60221044Y-90493562D01*
X60315344Y-90437829D01*
X60392599Y-90390100D01*
X60427453Y-90367426D01*
X60461189Y-90344580D01*
X60494854Y-90320839D01*
X60529497Y-90295477D01*
X60605903Y-90236998D01*
X60698790Y-90163350D01*
X60816539Y-90068738D01*
X60923078Y-89992168D01*
X60967506Y-89961189D01*
X61007338Y-89934627D01*
X61043547Y-89912143D01*
X61077107Y-89893396D01*
X61108992Y-89878048D01*
X61124610Y-89871542D01*
X61140175Y-89865758D01*
X61155808Y-89860654D01*
X61171630Y-89856187D01*
X61204331Y-89848994D01*
X61239251Y-89843841D01*
X61277364Y-89840386D01*
X61319643Y-89838290D01*
X61367063Y-89837214D01*
X61481218Y-89836761D01*
X61481218Y-89492808D01*
X61904404Y-89423543D01*
X62318503Y-89367059D01*
X62724735Y-89323210D01*
X63124318Y-89291851D01*
X63518471Y-89272836D01*
X63908414Y-89266019D01*
X64295366Y-89271256D01*
X64680546Y-89288400D01*
X65065172Y-89317305D01*
X65450464Y-89357828D01*
X65837640Y-89409821D01*
X66227921Y-89473140D01*
X66622525Y-89547639D01*
X67022671Y-89633173D01*
X67429578Y-89729595D01*
X67844465Y-89836761D01*
X67844465Y-90180715D01*
X68189500Y-90166363D01*
X68643431Y-90164521D01*
X69087123Y-90179924D01*
X69523402Y-90211762D01*
X69955093Y-90259226D01*
X70385023Y-90321508D01*
X70816016Y-90397798D01*
X71250897Y-90487288D01*
X71692494Y-90589167D01*
X72729066Y-90826311D01*
X73228131Y-90939934D01*
X73563312Y-91009931D01*
X73899169Y-91074825D01*
X74235685Y-91135107D01*
X74572840Y-91191271D01*
X75248991Y-91293209D01*
X75927472Y-91384578D01*
X75870998Y-91203795D01*
X75843284Y-91120260D01*
X75815149Y-91040808D01*
X75786015Y-90965075D01*
X75755304Y-90892695D01*
X75722438Y-90823305D01*
X75686841Y-90756539D01*
X75647934Y-90692033D01*
X75605139Y-90629420D01*
X75557879Y-90568337D01*
X75505577Y-90508419D01*
X75447654Y-90449300D01*
X75383533Y-90390616D01*
X75312637Y-90332002D01*
X75234387Y-90273093D01*
X74796855Y-90067856D01*
X74296362Y-89829164D01*
X73745485Y-89578789D01*
X73164396Y-89308607D01*
X72225677Y-88881520D01*
X71284042Y-88460927D01*
X70672287Y-88189108D01*
X68528877Y-87272979D01*
X66369097Y-86398207D01*
X64195340Y-85559109D01*
X62010000Y-84750000D01*
X57614145Y-83199013D01*
X53200680Y-81699770D01*
X50920495Y-80927293D01*
X48643242Y-80146142D01*
X48134060Y-79971244D01*
X47660168Y-79806840D01*
X47243127Y-79662718D01*
X47105273Y-79608767D01*
X46969322Y-79552703D01*
X46834946Y-79494563D01*
X46701811Y-79434385D01*
X46569588Y-79372207D01*
X46437944Y-79308068D01*
X46306550Y-79242006D01*
X46175075Y-79174058D01*
X46175075Y-78830094D01*
X45884868Y-78787099D01*
X45788760Y-78753963D01*
X45696829Y-78718350D01*
X45608681Y-78680276D01*
X45523920Y-78639762D01*
X45442152Y-78596827D01*
X45362981Y-78551489D01*
X45286013Y-78503769D01*
X45210853Y-78453684D01*
X45137106Y-78401255D01*
X45064378Y-78346499D01*
X44992273Y-78289437D01*
X44920396Y-78230088D01*
X44775749Y-78104602D01*
X44627278Y-77970195D01*
X44627278Y-77626241D01*
X44208075Y-77497255D01*
X43767369Y-77282287D01*
X43728240Y-77164553D01*
X43698180Y-77072012D01*
X43675172Y-76996602D01*
X43657202Y-76930262D01*
X43642254Y-76864930D01*
X43628312Y-76792545D01*
X43613362Y-76705046D01*
X43595387Y-76594370D01*
X43251443Y-76422388D01*
X43159205Y-75934549D01*
X43088424Y-75441846D01*
X43037558Y-74944979D01*
X43005068Y-74444648D01*
X42989414Y-73941553D01*
X42989055Y-73436395D01*
X43002452Y-72929873D01*
X43028065Y-72422689D01*
X43109777Y-71409130D01*
X43221869Y-70401322D01*
X43487913Y-68425358D01*
X43603460Y-67563446D01*
X43831361Y-65878252D01*
X43928511Y-65141859D01*
X44021305Y-64404952D01*
X44198752Y-62930083D01*
X44233578Y-62690205D01*
X44271172Y-62451666D01*
X44353691Y-61977295D01*
X44444375Y-61504362D01*
X44541287Y-61030254D01*
X44648437Y-60453447D01*
X44738696Y-59875281D01*
X44814631Y-59295822D01*
X44878809Y-58715136D01*
X44933798Y-58133288D01*
X44982167Y-57550346D01*
X45069313Y-56381439D01*
X45107270Y-55928249D01*
X45152621Y-55482649D01*
X45206779Y-55042724D01*
X45271158Y-54606560D01*
X45347172Y-54172244D01*
X45436232Y-53737862D01*
X45539753Y-53301499D01*
X45659149Y-52861242D01*
X45713111Y-52522562D01*
X45763588Y-52184875D01*
X45810211Y-51846788D01*
X45852613Y-51506905D01*
X45898396Y-51140402D01*
X45924709Y-50903878D01*
X45947335Y-50668971D01*
X45965844Y-50435093D01*
X45979807Y-50201651D01*
X45988794Y-49968055D01*
X45992377Y-49733713D01*
X45990125Y-49498035D01*
X45981610Y-49260430D01*
X45981101Y-49105577D01*
X45987258Y-48953155D01*
X45999933Y-48803056D01*
X46018980Y-48655172D01*
X46044251Y-48509394D01*
X46075600Y-48365615D01*
X46112879Y-48223727D01*
X46155942Y-48083620D01*
X46204642Y-47945188D01*
X46258831Y-47808322D01*
X46318363Y-47672913D01*
X46383091Y-47538854D01*
X46452868Y-47406036D01*
X46527546Y-47274352D01*
X46606979Y-47143692D01*
X46691020Y-47013950D01*
X46805406Y-46906682D01*
X46923867Y-46806881D01*
X47046208Y-46714281D01*
X47172234Y-46628614D01*
X47301753Y-46549614D01*
X47434569Y-46477013D01*
X47570490Y-46410545D01*
X47709320Y-46349941D01*
X47994934Y-46245262D01*
X48289859Y-46160838D01*
X48592543Y-46094533D01*
X48901432Y-46044210D01*
X49214976Y-46007732D01*
X49531621Y-45982964D01*
X49849815Y-45967767D01*
X50168006Y-45960006D01*
X51409689Y-45960581D01*
X51888059Y-45969713D01*
X52366340Y-45982074D01*
X52366340Y-45638120D01*
X53494954Y-45466138D01*
X54129799Y-45369401D01*
X54362372Y-45344749D01*
X54593276Y-45325135D01*
X54823123Y-45310218D01*
X55052525Y-45299657D01*
X55282091Y-45293112D01*
X55512435Y-45290242D01*
X55744167Y-45290705D01*
X55977899Y-45294162D01*
X55977899Y-44950203D01*
X56848398Y-44815531D01*
X57669801Y-44710865D01*
X58066410Y-44673987D01*
X58455928Y-44649654D01*
X58840082Y-44639547D01*
X59220599Y-44645347D01*
X59599207Y-44668735D01*
X59977634Y-44711392D01*
X60357607Y-44775000D01*
X60740854Y-44861240D01*
X61129102Y-44971793D01*
X61524078Y-45108339D01*
X61927511Y-45272561D01*
X62341127Y-45466138D01*
X62558924Y-45634561D01*
X62774999Y-45805206D01*
X62989110Y-45978297D01*
X63201016Y-46154056D01*
X63663205Y-46401277D01*
X63749263Y-46462123D01*
X63788741Y-46492153D01*
X63825996Y-46522002D01*
X63861135Y-46551730D01*
X63894268Y-46581398D01*
X63925501Y-46611065D01*
X63954942Y-46640794D01*
X63982701Y-46670644D01*
X64008884Y-46700675D01*
X64033599Y-46730949D01*
X64056955Y-46761526D01*
X64100021Y-46823830D01*
X64138944Y-46888073D01*
X64174589Y-46954737D01*
X64207820Y-47024309D01*
X64239499Y-47097270D01*
X64270492Y-47174107D01*
X64404869Y-47529890D01*
X64716578Y-47668949D01*
X64811094Y-47723403D01*
X64898747Y-47779881D01*
X64980189Y-47838449D01*
X65056069Y-47899172D01*
X65127041Y-47962116D01*
X65193755Y-48027345D01*
X65256861Y-48094925D01*
X65317012Y-48164922D01*
X65374858Y-48237401D01*
X65431051Y-48312427D01*
X65486242Y-48390066D01*
X65541081Y-48470382D01*
X65769952Y-48819734D01*
X66180427Y-49430394D01*
X66403706Y-49762678D01*
X66725714Y-50227151D01*
X67052930Y-50687873D01*
X67715469Y-51603643D01*
X68002621Y-52000004D01*
X68585772Y-52804391D01*
X69994198Y-54753012D01*
X70553129Y-55526921D01*
X74186567Y-60557855D01*
X74741710Y-61326303D01*
X76196870Y-63344580D01*
X76501855Y-63768147D01*
X77077588Y-64568924D01*
X77339996Y-64985052D01*
X77450617Y-65156469D01*
X77551316Y-65307461D01*
X77644942Y-65441031D01*
X77734345Y-65560184D01*
X77822375Y-65667922D01*
X77911883Y-65767250D01*
X78005718Y-65861172D01*
X78106729Y-65952691D01*
X78217767Y-66044812D01*
X78341682Y-66140538D01*
X78481323Y-66242873D01*
X78639541Y-66354822D01*
X79023104Y-66619574D01*
X79262553Y-66585022D01*
X79350652Y-66570477D01*
X79430954Y-66554974D01*
X79513425Y-66536426D01*
X79608031Y-66512751D01*
X79873512Y-66441676D01*
X80412289Y-66307443D01*
X81010258Y-66154023D01*
X81986924Y-65909678D01*
X83060333Y-65639069D01*
X87077229Y-64635768D01*
X87521743Y-64525299D01*
X93204510Y-63142369D01*
X98894522Y-61789498D01*
X108742546Y-59564276D01*
X112297803Y-58728655D01*
X115455030Y-57946252D01*
X118600079Y-57118484D01*
X122118804Y-56146771D01*
X131820697Y-53377178D01*
X132002441Y-53368494D01*
X132184333Y-53362965D01*
X132366297Y-53360345D01*
X132548258Y-53360386D01*
X132966449Y-53362062D01*
X133400758Y-53366431D01*
X133841117Y-53368782D01*
X134916330Y-53377178D01*
X135050306Y-53066182D01*
X135093338Y-52991134D01*
X135136301Y-52920600D01*
X135179442Y-52854142D01*
X135223007Y-52791323D01*
X135267240Y-52731704D01*
X135312388Y-52674848D01*
X135358697Y-52620317D01*
X135406413Y-52567672D01*
X135455780Y-52516477D01*
X135507046Y-52466293D01*
X135560455Y-52416682D01*
X135616254Y-52367207D01*
X135674688Y-52317430D01*
X135736004Y-52266912D01*
X135868261Y-52161904D01*
X136242485Y-51868836D01*
X136646870Y-51560652D01*
X137066361Y-51238355D01*
X137577331Y-50857009D01*
X138092937Y-50484306D01*
X138613101Y-50119535D01*
X139137745Y-49761986D01*
X139666791Y-49410947D01*
X140200160Y-49065708D01*
X140737776Y-48725557D01*
X141279558Y-48389785D01*
X141633172Y-48169689D01*
X142579003Y-47597432D01*
X143541089Y-47044879D01*
X144518694Y-46514110D01*
X145511084Y-46007203D01*
X146517523Y-45526239D01*
X147537278Y-45073297D01*
X148569613Y-44650456D01*
X149613793Y-44259794D01*
X150669084Y-43903392D01*
X151734750Y-43583328D01*
X152810058Y-43301682D01*
X153894271Y-43060533D01*
X154986656Y-42861960D01*
X156086477Y-42708043D01*
X157193000Y-42600861D01*
X158305490Y-42542492D01*
X158861068Y-42521669D01*
X159948369Y-42522447D01*
M02*
