%TF.GenerationSoftware,KiCad,Pcbnew,9.0.6*%
%TF.CreationDate,2025-11-25T23:45:00-06:00*%
%TF.ProjectId,1745LightUpBoard,31373435-4c69-4676-9874-5570426f6172,rev?*%
%TF.SameCoordinates,Original*%
%TF.FileFunction,Paste,Top*%
%TF.FilePolarity,Positive*%
%FSLAX46Y46*%
G04 Gerber Fmt 4.6, Leading zero omitted, Abs format (unit mm)*
G04 Created by KiCad (PCBNEW 9.0.6) date 2025-11-25 23:45:00*
%MOMM*%
%LPD*%
G01*
G04 APERTURE LIST*
G04 Aperture macros list*
%AMRoundRect*
0 Rectangle with rounded corners*
0 $1 Rounding radius*
0 $2 $3 $4 $5 $6 $7 $8 $9 X,Y pos of 4 corners*
0 Add a 4 corners polygon primitive as box body*
4,1,4,$2,$3,$4,$5,$6,$7,$8,$9,$2,$3,0*
0 Add four circle primitives for the rounded corners*
1,1,$1+$1,$2,$3*
1,1,$1+$1,$4,$5*
1,1,$1+$1,$6,$7*
1,1,$1+$1,$8,$9*
0 Add four rect primitives between the rounded corners*
20,1,$1+$1,$2,$3,$4,$5,0*
20,1,$1+$1,$4,$5,$6,$7,0*
20,1,$1+$1,$6,$7,$8,$9,0*
20,1,$1+$1,$8,$9,$2,$3,0*%
%AMRotRect*
0 Rectangle, with rotation*
0 The origin of the aperture is its center*
0 $1 length*
0 $2 width*
0 $3 Rotation angle, in degrees counterclockwise*
0 Add horizontal line*
21,1,$1,$2,0,0,$3*%
G04 Aperture macros list end*
%ADD10RoundRect,0.090000X-0.139000X-0.090000X0.139000X-0.090000X0.139000X0.090000X-0.139000X0.090000X0*%
%ADD11RoundRect,0.087500X-0.187500X-0.087500X0.187500X-0.087500X0.187500X0.087500X-0.187500X0.087500X0*%
%ADD12RoundRect,0.087500X-0.087500X-0.187500X0.087500X-0.187500X0.087500X0.187500X-0.087500X0.187500X0*%
%ADD13RoundRect,0.250001X-1.099999X-0.799999X1.099999X-0.799999X1.099999X0.799999X-1.099999X0.799999X0*%
%ADD14RoundRect,0.137500X-0.612500X-0.137500X0.612500X-0.137500X0.612500X0.137500X-0.612500X0.137500X0*%
%ADD15RoundRect,0.068750X-0.666250X-0.206250X0.666250X-0.206250X0.666250X0.206250X-0.666250X0.206250X0*%
%ADD16RoundRect,0.068750X-0.206250X-0.666250X0.206250X-0.666250X0.206250X0.666250X-0.206250X0.666250X0*%
%ADD17RoundRect,0.150000X-0.512500X-0.150000X0.512500X-0.150000X0.512500X0.150000X-0.512500X0.150000X0*%
%ADD18RotRect,0.600000X1.160000X280.000000*%
%ADD19RotRect,0.300000X1.160000X100.000000*%
G04 APERTURE END LIST*
D10*
%TO.C,C11*%
X198810000Y-108260000D03*
X199675000Y-108260000D03*
%TD*%
%TO.C,C12*%
X210330000Y-109720000D03*
X211195000Y-109720000D03*
%TD*%
%TO.C,C9*%
X179020000Y-96310000D03*
X179885000Y-96310000D03*
%TD*%
%TO.C,C7*%
X168772500Y-116880000D03*
X169637500Y-116880000D03*
%TD*%
D11*
%TO.C,U3*%
X173435000Y-71755000D03*
X173435000Y-72255000D03*
X173435000Y-72755000D03*
X173435000Y-73255000D03*
X173435000Y-73755000D03*
D12*
X174160000Y-73980000D03*
X174660000Y-73980000D03*
X175160000Y-73980000D03*
D11*
X175885000Y-73755000D03*
X175885000Y-73255000D03*
X175885000Y-72755000D03*
X175885000Y-72255000D03*
X175885000Y-71755000D03*
D12*
X175160000Y-71530000D03*
X174660000Y-71530000D03*
X174160000Y-71530000D03*
%TD*%
D10*
%TO.C,R13*%
X219600000Y-62540000D03*
X220465000Y-62540000D03*
%TD*%
D13*
%TO.C,Y1*%
X117830000Y-88990000D03*
X123130000Y-88990000D03*
X123130000Y-85890000D03*
X117830000Y-85890000D03*
%TD*%
D10*
%TO.C,D6*%
X106880000Y-87500000D03*
X107745000Y-87500000D03*
%TD*%
%TO.C,R2*%
X189425000Y-116480000D03*
X190290000Y-116480000D03*
%TD*%
%TO.C,D3*%
X104445000Y-85210000D03*
X105310000Y-85210000D03*
%TD*%
%TO.C,C10*%
X187475000Y-102770000D03*
X188340000Y-102770000D03*
%TD*%
%TO.C,D5*%
X109097500Y-84310000D03*
X109962500Y-84310000D03*
%TD*%
%TO.C,C8*%
X173987500Y-89040000D03*
X174852500Y-89040000D03*
%TD*%
%TO.C,C15*%
X167830000Y-92600000D03*
X168695000Y-92600000D03*
%TD*%
%TO.C,R10*%
X183887500Y-65820000D03*
X184752500Y-65820000D03*
%TD*%
%TO.C,R1*%
X176297500Y-106850000D03*
X177162500Y-106850000D03*
%TD*%
%TO.C,C5*%
X158812500Y-103250000D03*
X159677500Y-103250000D03*
%TD*%
D14*
%TO.C,U2*%
X114590000Y-73950000D03*
X114590000Y-75220000D03*
X114590000Y-76490000D03*
X114590000Y-77760000D03*
X119890000Y-77760000D03*
X119890000Y-76490000D03*
X119890000Y-75220000D03*
X119890000Y-73950000D03*
%TD*%
D10*
%TO.C,R11*%
X190127500Y-65300000D03*
X190992500Y-65300000D03*
%TD*%
%TO.C,C3*%
X157295000Y-87160000D03*
X158160000Y-87160000D03*
%TD*%
%TO.C,R6*%
X189910000Y-56510000D03*
X190775000Y-56510000D03*
%TD*%
%TO.C,R8*%
X198810000Y-57320000D03*
X199675000Y-57320000D03*
%TD*%
%TO.C,R3*%
X166820000Y-88220000D03*
X167685000Y-88220000D03*
%TD*%
%TO.C,R5*%
X182415000Y-111560000D03*
X183280000Y-111560000D03*
%TD*%
%TO.C,C2*%
X160550000Y-82020000D03*
X161415000Y-82020000D03*
%TD*%
%TO.C,C14*%
X169995000Y-82900000D03*
X170860000Y-82900000D03*
%TD*%
%TO.C,D4*%
X106682500Y-82260000D03*
X107547500Y-82260000D03*
%TD*%
D15*
%TO.C,U1*%
X167920000Y-57280000D03*
X167920000Y-58080000D03*
X167920000Y-58880000D03*
X167920000Y-59680000D03*
X167920000Y-60480000D03*
X167920000Y-61280000D03*
X167920000Y-62080000D03*
X167920000Y-62880000D03*
D16*
X169290000Y-64250000D03*
X170090000Y-64250000D03*
X170890000Y-64250000D03*
X171690000Y-64250000D03*
X172490000Y-64250000D03*
X173290000Y-64250000D03*
X174090000Y-64250000D03*
X174890000Y-64250000D03*
D15*
X176260000Y-62880000D03*
X176260000Y-62080000D03*
X176260000Y-61280000D03*
X176260000Y-60480000D03*
X176260000Y-59680000D03*
X176260000Y-58880000D03*
X176260000Y-58080000D03*
X176260000Y-57280000D03*
D16*
X174890000Y-55910000D03*
X174090000Y-55910000D03*
X173290000Y-55910000D03*
X172490000Y-55910000D03*
X171690000Y-55910000D03*
X170890000Y-55910000D03*
X170090000Y-55910000D03*
X169290000Y-55910000D03*
%TD*%
D10*
%TO.C,R4*%
X170270000Y-98170000D03*
X171135000Y-98170000D03*
%TD*%
%TO.C,D1*%
X225397500Y-77390000D03*
X226262500Y-77390000D03*
%TD*%
%TO.C,R9*%
X204937500Y-64410000D03*
X205802500Y-64410000D03*
%TD*%
%TO.C,C13*%
X165570000Y-83030000D03*
X166435000Y-83030000D03*
%TD*%
%TO.C,C16*%
X172877500Y-102630000D03*
X173742500Y-102630000D03*
%TD*%
%TO.C,C6*%
X164425000Y-111960000D03*
X165290000Y-111960000D03*
%TD*%
%TO.C,C1*%
X165734079Y-78594068D03*
X166599079Y-78594068D03*
%TD*%
D17*
%TO.C,U5*%
X131740000Y-78910000D03*
X131740000Y-80810000D03*
X134015000Y-79860000D03*
%TD*%
D10*
%TO.C,R14*%
X220930000Y-68410000D03*
X221795000Y-68410000D03*
%TD*%
D18*
%TO.C,J2*%
X93120065Y-83380642D03*
X93258984Y-84168488D03*
D19*
X93458679Y-85301017D03*
X93632327Y-86285825D03*
X93719152Y-86778229D03*
X93892800Y-87763037D03*
D18*
X94092495Y-88895566D03*
X94231414Y-89683412D03*
X94231414Y-89683412D03*
X94092495Y-88895566D03*
D19*
X93979624Y-88255441D03*
X93805976Y-87270633D03*
X93545503Y-85793421D03*
X93371855Y-84808614D03*
D18*
X93258984Y-84168488D03*
X93120065Y-83380642D03*
%TD*%
D10*
%TO.C,R7*%
X194570000Y-55030000D03*
X195435000Y-55030000D03*
%TD*%
%TO.C,D2*%
X232480000Y-82870000D03*
X233345000Y-82870000D03*
%TD*%
D17*
%TO.C,U4*%
X203985000Y-83550000D03*
X203985000Y-84500000D03*
X203985000Y-85450000D03*
X206260000Y-85450000D03*
X206260000Y-84500000D03*
X206260000Y-83550000D03*
%TD*%
D10*
%TO.C,C4*%
X156732500Y-94040000D03*
X157597500Y-94040000D03*
%TD*%
%TO.C,R12*%
X197477500Y-72350000D03*
X198342500Y-72350000D03*
%TD*%
M02*
