%TF.GenerationSoftware,KiCad,Pcbnew,9.0.6*%
%TF.CreationDate,2025-11-25T23:45:00-06:00*%
%TF.ProjectId,1745LightUpBoard,31373435-4c69-4676-9874-5570426f6172,rev?*%
%TF.SameCoordinates,Original*%
%TF.FileFunction,Legend,Top*%
%TF.FilePolarity,Positive*%
%FSLAX46Y46*%
G04 Gerber Fmt 4.6, Leading zero omitted, Abs format (unit mm)*
G04 Created by KiCad (PCBNEW 9.0.6) date 2025-11-25 23:45:00*
%MOMM*%
%LPD*%
G01*
G04 APERTURE LIST*
%ADD10C,0.150000*%
%ADD11C,0.120000*%
%ADD12C,0.100000*%
%ADD13C,0.127000*%
%ADD14C,0.200000*%
G04 APERTURE END LIST*
D10*
X198599642Y-107569580D02*
X198552023Y-107617200D01*
X198552023Y-107617200D02*
X198409166Y-107664819D01*
X198409166Y-107664819D02*
X198313928Y-107664819D01*
X198313928Y-107664819D02*
X198171071Y-107617200D01*
X198171071Y-107617200D02*
X198075833Y-107521961D01*
X198075833Y-107521961D02*
X198028214Y-107426723D01*
X198028214Y-107426723D02*
X197980595Y-107236247D01*
X197980595Y-107236247D02*
X197980595Y-107093390D01*
X197980595Y-107093390D02*
X198028214Y-106902914D01*
X198028214Y-106902914D02*
X198075833Y-106807676D01*
X198075833Y-106807676D02*
X198171071Y-106712438D01*
X198171071Y-106712438D02*
X198313928Y-106664819D01*
X198313928Y-106664819D02*
X198409166Y-106664819D01*
X198409166Y-106664819D02*
X198552023Y-106712438D01*
X198552023Y-106712438D02*
X198599642Y-106760057D01*
X199552023Y-107664819D02*
X198980595Y-107664819D01*
X199266309Y-107664819D02*
X199266309Y-106664819D01*
X199266309Y-106664819D02*
X199171071Y-106807676D01*
X199171071Y-106807676D02*
X199075833Y-106902914D01*
X199075833Y-106902914D02*
X198980595Y-106950533D01*
X200504404Y-107664819D02*
X199932976Y-107664819D01*
X200218690Y-107664819D02*
X200218690Y-106664819D01*
X200218690Y-106664819D02*
X200123452Y-106807676D01*
X200123452Y-106807676D02*
X200028214Y-106902914D01*
X200028214Y-106902914D02*
X199932976Y-106950533D01*
X210119642Y-109029580D02*
X210072023Y-109077200D01*
X210072023Y-109077200D02*
X209929166Y-109124819D01*
X209929166Y-109124819D02*
X209833928Y-109124819D01*
X209833928Y-109124819D02*
X209691071Y-109077200D01*
X209691071Y-109077200D02*
X209595833Y-108981961D01*
X209595833Y-108981961D02*
X209548214Y-108886723D01*
X209548214Y-108886723D02*
X209500595Y-108696247D01*
X209500595Y-108696247D02*
X209500595Y-108553390D01*
X209500595Y-108553390D02*
X209548214Y-108362914D01*
X209548214Y-108362914D02*
X209595833Y-108267676D01*
X209595833Y-108267676D02*
X209691071Y-108172438D01*
X209691071Y-108172438D02*
X209833928Y-108124819D01*
X209833928Y-108124819D02*
X209929166Y-108124819D01*
X209929166Y-108124819D02*
X210072023Y-108172438D01*
X210072023Y-108172438D02*
X210119642Y-108220057D01*
X211072023Y-109124819D02*
X210500595Y-109124819D01*
X210786309Y-109124819D02*
X210786309Y-108124819D01*
X210786309Y-108124819D02*
X210691071Y-108267676D01*
X210691071Y-108267676D02*
X210595833Y-108362914D01*
X210595833Y-108362914D02*
X210500595Y-108410533D01*
X211452976Y-108220057D02*
X211500595Y-108172438D01*
X211500595Y-108172438D02*
X211595833Y-108124819D01*
X211595833Y-108124819D02*
X211833928Y-108124819D01*
X211833928Y-108124819D02*
X211929166Y-108172438D01*
X211929166Y-108172438D02*
X211976785Y-108220057D01*
X211976785Y-108220057D02*
X212024404Y-108315295D01*
X212024404Y-108315295D02*
X212024404Y-108410533D01*
X212024404Y-108410533D02*
X211976785Y-108553390D01*
X211976785Y-108553390D02*
X211405357Y-109124819D01*
X211405357Y-109124819D02*
X212024404Y-109124819D01*
X179285833Y-95619580D02*
X179238214Y-95667200D01*
X179238214Y-95667200D02*
X179095357Y-95714819D01*
X179095357Y-95714819D02*
X179000119Y-95714819D01*
X179000119Y-95714819D02*
X178857262Y-95667200D01*
X178857262Y-95667200D02*
X178762024Y-95571961D01*
X178762024Y-95571961D02*
X178714405Y-95476723D01*
X178714405Y-95476723D02*
X178666786Y-95286247D01*
X178666786Y-95286247D02*
X178666786Y-95143390D01*
X178666786Y-95143390D02*
X178714405Y-94952914D01*
X178714405Y-94952914D02*
X178762024Y-94857676D01*
X178762024Y-94857676D02*
X178857262Y-94762438D01*
X178857262Y-94762438D02*
X179000119Y-94714819D01*
X179000119Y-94714819D02*
X179095357Y-94714819D01*
X179095357Y-94714819D02*
X179238214Y-94762438D01*
X179238214Y-94762438D02*
X179285833Y-94810057D01*
X179762024Y-95714819D02*
X179952500Y-95714819D01*
X179952500Y-95714819D02*
X180047738Y-95667200D01*
X180047738Y-95667200D02*
X180095357Y-95619580D01*
X180095357Y-95619580D02*
X180190595Y-95476723D01*
X180190595Y-95476723D02*
X180238214Y-95286247D01*
X180238214Y-95286247D02*
X180238214Y-94905295D01*
X180238214Y-94905295D02*
X180190595Y-94810057D01*
X180190595Y-94810057D02*
X180142976Y-94762438D01*
X180142976Y-94762438D02*
X180047738Y-94714819D01*
X180047738Y-94714819D02*
X179857262Y-94714819D01*
X179857262Y-94714819D02*
X179762024Y-94762438D01*
X179762024Y-94762438D02*
X179714405Y-94810057D01*
X179714405Y-94810057D02*
X179666786Y-94905295D01*
X179666786Y-94905295D02*
X179666786Y-95143390D01*
X179666786Y-95143390D02*
X179714405Y-95238628D01*
X179714405Y-95238628D02*
X179762024Y-95286247D01*
X179762024Y-95286247D02*
X179857262Y-95333866D01*
X179857262Y-95333866D02*
X180047738Y-95333866D01*
X180047738Y-95333866D02*
X180142976Y-95286247D01*
X180142976Y-95286247D02*
X180190595Y-95238628D01*
X180190595Y-95238628D02*
X180238214Y-95143390D01*
X169038333Y-116189580D02*
X168990714Y-116237200D01*
X168990714Y-116237200D02*
X168847857Y-116284819D01*
X168847857Y-116284819D02*
X168752619Y-116284819D01*
X168752619Y-116284819D02*
X168609762Y-116237200D01*
X168609762Y-116237200D02*
X168514524Y-116141961D01*
X168514524Y-116141961D02*
X168466905Y-116046723D01*
X168466905Y-116046723D02*
X168419286Y-115856247D01*
X168419286Y-115856247D02*
X168419286Y-115713390D01*
X168419286Y-115713390D02*
X168466905Y-115522914D01*
X168466905Y-115522914D02*
X168514524Y-115427676D01*
X168514524Y-115427676D02*
X168609762Y-115332438D01*
X168609762Y-115332438D02*
X168752619Y-115284819D01*
X168752619Y-115284819D02*
X168847857Y-115284819D01*
X168847857Y-115284819D02*
X168990714Y-115332438D01*
X168990714Y-115332438D02*
X169038333Y-115380057D01*
X169371667Y-115284819D02*
X170038333Y-115284819D01*
X170038333Y-115284819D02*
X169609762Y-116284819D01*
X67020714Y-59094819D02*
X67020714Y-58094819D01*
X67020714Y-58094819D02*
X67258809Y-58094819D01*
X67258809Y-58094819D02*
X67401666Y-58142438D01*
X67401666Y-58142438D02*
X67496904Y-58237676D01*
X67496904Y-58237676D02*
X67544523Y-58332914D01*
X67544523Y-58332914D02*
X67592142Y-58523390D01*
X67592142Y-58523390D02*
X67592142Y-58666247D01*
X67592142Y-58666247D02*
X67544523Y-58856723D01*
X67544523Y-58856723D02*
X67496904Y-58951961D01*
X67496904Y-58951961D02*
X67401666Y-59047200D01*
X67401666Y-59047200D02*
X67258809Y-59094819D01*
X67258809Y-59094819D02*
X67020714Y-59094819D01*
X68544523Y-59094819D02*
X67973095Y-59094819D01*
X68258809Y-59094819D02*
X68258809Y-58094819D01*
X68258809Y-58094819D02*
X68163571Y-58237676D01*
X68163571Y-58237676D02*
X68068333Y-58332914D01*
X68068333Y-58332914D02*
X67973095Y-58380533D01*
X69449285Y-58094819D02*
X68973095Y-58094819D01*
X68973095Y-58094819D02*
X68925476Y-58571009D01*
X68925476Y-58571009D02*
X68973095Y-58523390D01*
X68973095Y-58523390D02*
X69068333Y-58475771D01*
X69068333Y-58475771D02*
X69306428Y-58475771D01*
X69306428Y-58475771D02*
X69401666Y-58523390D01*
X69401666Y-58523390D02*
X69449285Y-58571009D01*
X69449285Y-58571009D02*
X69496904Y-58666247D01*
X69496904Y-58666247D02*
X69496904Y-58904342D01*
X69496904Y-58904342D02*
X69449285Y-58999580D01*
X69449285Y-58999580D02*
X69401666Y-59047200D01*
X69401666Y-59047200D02*
X69306428Y-59094819D01*
X69306428Y-59094819D02*
X69068333Y-59094819D01*
X69068333Y-59094819D02*
X68973095Y-59047200D01*
X68973095Y-59047200D02*
X68925476Y-58999580D01*
X173898095Y-69759819D02*
X173898095Y-70569342D01*
X173898095Y-70569342D02*
X173945714Y-70664580D01*
X173945714Y-70664580D02*
X173993333Y-70712200D01*
X173993333Y-70712200D02*
X174088571Y-70759819D01*
X174088571Y-70759819D02*
X174279047Y-70759819D01*
X174279047Y-70759819D02*
X174374285Y-70712200D01*
X174374285Y-70712200D02*
X174421904Y-70664580D01*
X174421904Y-70664580D02*
X174469523Y-70569342D01*
X174469523Y-70569342D02*
X174469523Y-69759819D01*
X174850476Y-69759819D02*
X175469523Y-69759819D01*
X175469523Y-69759819D02*
X175136190Y-70140771D01*
X175136190Y-70140771D02*
X175279047Y-70140771D01*
X175279047Y-70140771D02*
X175374285Y-70188390D01*
X175374285Y-70188390D02*
X175421904Y-70236009D01*
X175421904Y-70236009D02*
X175469523Y-70331247D01*
X175469523Y-70331247D02*
X175469523Y-70569342D01*
X175469523Y-70569342D02*
X175421904Y-70664580D01*
X175421904Y-70664580D02*
X175374285Y-70712200D01*
X175374285Y-70712200D02*
X175279047Y-70759819D01*
X175279047Y-70759819D02*
X174993333Y-70759819D01*
X174993333Y-70759819D02*
X174898095Y-70712200D01*
X174898095Y-70712200D02*
X174850476Y-70664580D01*
X219389642Y-61944819D02*
X219056309Y-61468628D01*
X218818214Y-61944819D02*
X218818214Y-60944819D01*
X218818214Y-60944819D02*
X219199166Y-60944819D01*
X219199166Y-60944819D02*
X219294404Y-60992438D01*
X219294404Y-60992438D02*
X219342023Y-61040057D01*
X219342023Y-61040057D02*
X219389642Y-61135295D01*
X219389642Y-61135295D02*
X219389642Y-61278152D01*
X219389642Y-61278152D02*
X219342023Y-61373390D01*
X219342023Y-61373390D02*
X219294404Y-61421009D01*
X219294404Y-61421009D02*
X219199166Y-61468628D01*
X219199166Y-61468628D02*
X218818214Y-61468628D01*
X220342023Y-61944819D02*
X219770595Y-61944819D01*
X220056309Y-61944819D02*
X220056309Y-60944819D01*
X220056309Y-60944819D02*
X219961071Y-61087676D01*
X219961071Y-61087676D02*
X219865833Y-61182914D01*
X219865833Y-61182914D02*
X219770595Y-61230533D01*
X220675357Y-60944819D02*
X221294404Y-60944819D01*
X221294404Y-60944819D02*
X220961071Y-61325771D01*
X220961071Y-61325771D02*
X221103928Y-61325771D01*
X221103928Y-61325771D02*
X221199166Y-61373390D01*
X221199166Y-61373390D02*
X221246785Y-61421009D01*
X221246785Y-61421009D02*
X221294404Y-61516247D01*
X221294404Y-61516247D02*
X221294404Y-61754342D01*
X221294404Y-61754342D02*
X221246785Y-61849580D01*
X221246785Y-61849580D02*
X221199166Y-61897200D01*
X221199166Y-61897200D02*
X221103928Y-61944819D01*
X221103928Y-61944819D02*
X220818214Y-61944819D01*
X220818214Y-61944819D02*
X220722976Y-61897200D01*
X220722976Y-61897200D02*
X220675357Y-61849580D01*
X52356905Y-69644819D02*
X52356905Y-68644819D01*
X52356905Y-68644819D02*
X52595000Y-68644819D01*
X52595000Y-68644819D02*
X52737857Y-68692438D01*
X52737857Y-68692438D02*
X52833095Y-68787676D01*
X52833095Y-68787676D02*
X52880714Y-68882914D01*
X52880714Y-68882914D02*
X52928333Y-69073390D01*
X52928333Y-69073390D02*
X52928333Y-69216247D01*
X52928333Y-69216247D02*
X52880714Y-69406723D01*
X52880714Y-69406723D02*
X52833095Y-69501961D01*
X52833095Y-69501961D02*
X52737857Y-69597200D01*
X52737857Y-69597200D02*
X52595000Y-69644819D01*
X52595000Y-69644819D02*
X52356905Y-69644819D01*
X53261667Y-68644819D02*
X53928333Y-68644819D01*
X53928333Y-68644819D02*
X53499762Y-69644819D01*
X154851905Y-110044819D02*
X154851905Y-109044819D01*
X154851905Y-109044819D02*
X155090000Y-109044819D01*
X155090000Y-109044819D02*
X155232857Y-109092438D01*
X155232857Y-109092438D02*
X155328095Y-109187676D01*
X155328095Y-109187676D02*
X155375714Y-109282914D01*
X155375714Y-109282914D02*
X155423333Y-109473390D01*
X155423333Y-109473390D02*
X155423333Y-109616247D01*
X155423333Y-109616247D02*
X155375714Y-109806723D01*
X155375714Y-109806723D02*
X155328095Y-109901961D01*
X155328095Y-109901961D02*
X155232857Y-109997200D01*
X155232857Y-109997200D02*
X155090000Y-110044819D01*
X155090000Y-110044819D02*
X154851905Y-110044819D01*
X155994762Y-109473390D02*
X155899524Y-109425771D01*
X155899524Y-109425771D02*
X155851905Y-109378152D01*
X155851905Y-109378152D02*
X155804286Y-109282914D01*
X155804286Y-109282914D02*
X155804286Y-109235295D01*
X155804286Y-109235295D02*
X155851905Y-109140057D01*
X155851905Y-109140057D02*
X155899524Y-109092438D01*
X155899524Y-109092438D02*
X155994762Y-109044819D01*
X155994762Y-109044819D02*
X156185238Y-109044819D01*
X156185238Y-109044819D02*
X156280476Y-109092438D01*
X156280476Y-109092438D02*
X156328095Y-109140057D01*
X156328095Y-109140057D02*
X156375714Y-109235295D01*
X156375714Y-109235295D02*
X156375714Y-109282914D01*
X156375714Y-109282914D02*
X156328095Y-109378152D01*
X156328095Y-109378152D02*
X156280476Y-109425771D01*
X156280476Y-109425771D02*
X156185238Y-109473390D01*
X156185238Y-109473390D02*
X155994762Y-109473390D01*
X155994762Y-109473390D02*
X155899524Y-109521009D01*
X155899524Y-109521009D02*
X155851905Y-109568628D01*
X155851905Y-109568628D02*
X155804286Y-109663866D01*
X155804286Y-109663866D02*
X155804286Y-109854342D01*
X155804286Y-109854342D02*
X155851905Y-109949580D01*
X155851905Y-109949580D02*
X155899524Y-109997200D01*
X155899524Y-109997200D02*
X155994762Y-110044819D01*
X155994762Y-110044819D02*
X156185238Y-110044819D01*
X156185238Y-110044819D02*
X156280476Y-109997200D01*
X156280476Y-109997200D02*
X156328095Y-109949580D01*
X156328095Y-109949580D02*
X156375714Y-109854342D01*
X156375714Y-109854342D02*
X156375714Y-109663866D01*
X156375714Y-109663866D02*
X156328095Y-109568628D01*
X156328095Y-109568628D02*
X156280476Y-109521009D01*
X156280476Y-109521009D02*
X156185238Y-109473390D01*
X77870714Y-97014819D02*
X77870714Y-96014819D01*
X77870714Y-96014819D02*
X78108809Y-96014819D01*
X78108809Y-96014819D02*
X78251666Y-96062438D01*
X78251666Y-96062438D02*
X78346904Y-96157676D01*
X78346904Y-96157676D02*
X78394523Y-96252914D01*
X78394523Y-96252914D02*
X78442142Y-96443390D01*
X78442142Y-96443390D02*
X78442142Y-96586247D01*
X78442142Y-96586247D02*
X78394523Y-96776723D01*
X78394523Y-96776723D02*
X78346904Y-96871961D01*
X78346904Y-96871961D02*
X78251666Y-96967200D01*
X78251666Y-96967200D02*
X78108809Y-97014819D01*
X78108809Y-97014819D02*
X77870714Y-97014819D01*
X79394523Y-97014819D02*
X78823095Y-97014819D01*
X79108809Y-97014819D02*
X79108809Y-96014819D01*
X79108809Y-96014819D02*
X79013571Y-96157676D01*
X79013571Y-96157676D02*
X78918333Y-96252914D01*
X78918333Y-96252914D02*
X78823095Y-96300533D01*
X79727857Y-96014819D02*
X80346904Y-96014819D01*
X80346904Y-96014819D02*
X80013571Y-96395771D01*
X80013571Y-96395771D02*
X80156428Y-96395771D01*
X80156428Y-96395771D02*
X80251666Y-96443390D01*
X80251666Y-96443390D02*
X80299285Y-96491009D01*
X80299285Y-96491009D02*
X80346904Y-96586247D01*
X80346904Y-96586247D02*
X80346904Y-96824342D01*
X80346904Y-96824342D02*
X80299285Y-96919580D01*
X80299285Y-96919580D02*
X80251666Y-96967200D01*
X80251666Y-96967200D02*
X80156428Y-97014819D01*
X80156428Y-97014819D02*
X79870714Y-97014819D01*
X79870714Y-97014819D02*
X79775476Y-96967200D01*
X79775476Y-96967200D02*
X79727857Y-96919580D01*
X120003809Y-83868628D02*
X120003809Y-84344819D01*
X119670476Y-83344819D02*
X120003809Y-83868628D01*
X120003809Y-83868628D02*
X120337142Y-83344819D01*
X121194285Y-84344819D02*
X120622857Y-84344819D01*
X120908571Y-84344819D02*
X120908571Y-83344819D01*
X120908571Y-83344819D02*
X120813333Y-83487676D01*
X120813333Y-83487676D02*
X120718095Y-83582914D01*
X120718095Y-83582914D02*
X120622857Y-83630533D01*
X106574405Y-86904819D02*
X106574405Y-85904819D01*
X106574405Y-85904819D02*
X106812500Y-85904819D01*
X106812500Y-85904819D02*
X106955357Y-85952438D01*
X106955357Y-85952438D02*
X107050595Y-86047676D01*
X107050595Y-86047676D02*
X107098214Y-86142914D01*
X107098214Y-86142914D02*
X107145833Y-86333390D01*
X107145833Y-86333390D02*
X107145833Y-86476247D01*
X107145833Y-86476247D02*
X107098214Y-86666723D01*
X107098214Y-86666723D02*
X107050595Y-86761961D01*
X107050595Y-86761961D02*
X106955357Y-86857200D01*
X106955357Y-86857200D02*
X106812500Y-86904819D01*
X106812500Y-86904819D02*
X106574405Y-86904819D01*
X108002976Y-85904819D02*
X107812500Y-85904819D01*
X107812500Y-85904819D02*
X107717262Y-85952438D01*
X107717262Y-85952438D02*
X107669643Y-86000057D01*
X107669643Y-86000057D02*
X107574405Y-86142914D01*
X107574405Y-86142914D02*
X107526786Y-86333390D01*
X107526786Y-86333390D02*
X107526786Y-86714342D01*
X107526786Y-86714342D02*
X107574405Y-86809580D01*
X107574405Y-86809580D02*
X107622024Y-86857200D01*
X107622024Y-86857200D02*
X107717262Y-86904819D01*
X107717262Y-86904819D02*
X107907738Y-86904819D01*
X107907738Y-86904819D02*
X108002976Y-86857200D01*
X108002976Y-86857200D02*
X108050595Y-86809580D01*
X108050595Y-86809580D02*
X108098214Y-86714342D01*
X108098214Y-86714342D02*
X108098214Y-86476247D01*
X108098214Y-86476247D02*
X108050595Y-86381009D01*
X108050595Y-86381009D02*
X108002976Y-86333390D01*
X108002976Y-86333390D02*
X107907738Y-86285771D01*
X107907738Y-86285771D02*
X107717262Y-86285771D01*
X107717262Y-86285771D02*
X107622024Y-86333390D01*
X107622024Y-86333390D02*
X107574405Y-86381009D01*
X107574405Y-86381009D02*
X107526786Y-86476247D01*
X189690833Y-115884819D02*
X189357500Y-115408628D01*
X189119405Y-115884819D02*
X189119405Y-114884819D01*
X189119405Y-114884819D02*
X189500357Y-114884819D01*
X189500357Y-114884819D02*
X189595595Y-114932438D01*
X189595595Y-114932438D02*
X189643214Y-114980057D01*
X189643214Y-114980057D02*
X189690833Y-115075295D01*
X189690833Y-115075295D02*
X189690833Y-115218152D01*
X189690833Y-115218152D02*
X189643214Y-115313390D01*
X189643214Y-115313390D02*
X189595595Y-115361009D01*
X189595595Y-115361009D02*
X189500357Y-115408628D01*
X189500357Y-115408628D02*
X189119405Y-115408628D01*
X190071786Y-114980057D02*
X190119405Y-114932438D01*
X190119405Y-114932438D02*
X190214643Y-114884819D01*
X190214643Y-114884819D02*
X190452738Y-114884819D01*
X190452738Y-114884819D02*
X190547976Y-114932438D01*
X190547976Y-114932438D02*
X190595595Y-114980057D01*
X190595595Y-114980057D02*
X190643214Y-115075295D01*
X190643214Y-115075295D02*
X190643214Y-115170533D01*
X190643214Y-115170533D02*
X190595595Y-115313390D01*
X190595595Y-115313390D02*
X190024167Y-115884819D01*
X190024167Y-115884819D02*
X190643214Y-115884819D01*
X141889763Y-90776601D02*
X142337236Y-90939468D01*
X141702549Y-91012511D02*
X142357800Y-90186825D01*
X142357800Y-90186825D02*
X142329010Y-91240525D01*
X143134461Y-91533685D02*
X142597494Y-91338245D01*
X142865978Y-91435965D02*
X143207998Y-90496272D01*
X143207998Y-90496272D02*
X143069643Y-90597941D01*
X143069643Y-90597941D02*
X142947575Y-90654862D01*
X142947575Y-90654862D02*
X142841794Y-90667036D01*
X156856695Y-53176154D02*
X157133569Y-52415450D01*
X157133569Y-52415450D02*
X157121395Y-52309669D01*
X157121395Y-52309669D02*
X157092934Y-52248635D01*
X157092934Y-52248635D02*
X157019726Y-52171315D01*
X157019726Y-52171315D02*
X156840737Y-52106168D01*
X156840737Y-52106168D02*
X156734956Y-52118342D01*
X156734956Y-52118342D02*
X156673922Y-52146802D01*
X156673922Y-52146802D02*
X156596601Y-52220010D01*
X156596601Y-52220010D02*
X156319728Y-52980714D01*
X156242736Y-51939188D02*
X156124781Y-51845581D01*
X156124781Y-51845581D02*
X155901045Y-51764148D01*
X155901045Y-51764148D02*
X155795263Y-51776322D01*
X155795263Y-51776322D02*
X155734230Y-51804782D01*
X155734230Y-51804782D02*
X155656909Y-51877990D01*
X155656909Y-51877990D02*
X155624336Y-51967485D01*
X155624336Y-51967485D02*
X155636509Y-52073266D01*
X155636509Y-52073266D02*
X155664970Y-52134300D01*
X155664970Y-52134300D02*
X155738178Y-52211620D01*
X155738178Y-52211620D02*
X155900880Y-52321514D01*
X155900880Y-52321514D02*
X155974088Y-52398835D01*
X155974088Y-52398835D02*
X156002549Y-52459869D01*
X156002549Y-52459869D02*
X156014723Y-52565650D01*
X156014723Y-52565650D02*
X155982149Y-52655145D01*
X155982149Y-52655145D02*
X155904829Y-52728353D01*
X155904829Y-52728353D02*
X155843795Y-52756813D01*
X155843795Y-52756813D02*
X155738014Y-52768987D01*
X155738014Y-52768987D02*
X155514277Y-52687554D01*
X155514277Y-52687554D02*
X155396322Y-52593946D01*
X154826946Y-51930634D02*
X154708991Y-51837027D01*
X154708991Y-51837027D02*
X154680530Y-51775993D01*
X154680530Y-51775993D02*
X154668356Y-51670212D01*
X154668356Y-51670212D02*
X154717216Y-51535970D01*
X154717216Y-51535970D02*
X154794537Y-51462762D01*
X154794537Y-51462762D02*
X154855571Y-51434301D01*
X154855571Y-51434301D02*
X154961352Y-51422128D01*
X154961352Y-51422128D02*
X155319330Y-51552421D01*
X155319330Y-51552421D02*
X154977310Y-52492114D01*
X154977310Y-52492114D02*
X154664079Y-52378107D01*
X154664079Y-52378107D02*
X154590871Y-52300786D01*
X154590871Y-52300786D02*
X154562411Y-52239752D01*
X154562411Y-52239752D02*
X154550237Y-52133971D01*
X154550237Y-52133971D02*
X154582810Y-52044477D01*
X154582810Y-52044477D02*
X154660131Y-51971269D01*
X154660131Y-51971269D02*
X154721165Y-51942808D01*
X154721165Y-51942808D02*
X154826946Y-51930634D01*
X154826946Y-51930634D02*
X155140177Y-52044641D01*
X240795714Y-63904819D02*
X240795714Y-62904819D01*
X240795714Y-62904819D02*
X241033809Y-62904819D01*
X241033809Y-62904819D02*
X241176666Y-62952438D01*
X241176666Y-62952438D02*
X241271904Y-63047676D01*
X241271904Y-63047676D02*
X241319523Y-63142914D01*
X241319523Y-63142914D02*
X241367142Y-63333390D01*
X241367142Y-63333390D02*
X241367142Y-63476247D01*
X241367142Y-63476247D02*
X241319523Y-63666723D01*
X241319523Y-63666723D02*
X241271904Y-63761961D01*
X241271904Y-63761961D02*
X241176666Y-63857200D01*
X241176666Y-63857200D02*
X241033809Y-63904819D01*
X241033809Y-63904819D02*
X240795714Y-63904819D01*
X241748095Y-63000057D02*
X241795714Y-62952438D01*
X241795714Y-62952438D02*
X241890952Y-62904819D01*
X241890952Y-62904819D02*
X242129047Y-62904819D01*
X242129047Y-62904819D02*
X242224285Y-62952438D01*
X242224285Y-62952438D02*
X242271904Y-63000057D01*
X242271904Y-63000057D02*
X242319523Y-63095295D01*
X242319523Y-63095295D02*
X242319523Y-63190533D01*
X242319523Y-63190533D02*
X242271904Y-63333390D01*
X242271904Y-63333390D02*
X241700476Y-63904819D01*
X241700476Y-63904819D02*
X242319523Y-63904819D01*
X243176666Y-62904819D02*
X242986190Y-62904819D01*
X242986190Y-62904819D02*
X242890952Y-62952438D01*
X242890952Y-62952438D02*
X242843333Y-63000057D01*
X242843333Y-63000057D02*
X242748095Y-63142914D01*
X242748095Y-63142914D02*
X242700476Y-63333390D01*
X242700476Y-63333390D02*
X242700476Y-63714342D01*
X242700476Y-63714342D02*
X242748095Y-63809580D01*
X242748095Y-63809580D02*
X242795714Y-63857200D01*
X242795714Y-63857200D02*
X242890952Y-63904819D01*
X242890952Y-63904819D02*
X243081428Y-63904819D01*
X243081428Y-63904819D02*
X243176666Y-63857200D01*
X243176666Y-63857200D02*
X243224285Y-63809580D01*
X243224285Y-63809580D02*
X243271904Y-63714342D01*
X243271904Y-63714342D02*
X243271904Y-63476247D01*
X243271904Y-63476247D02*
X243224285Y-63381009D01*
X243224285Y-63381009D02*
X243176666Y-63333390D01*
X243176666Y-63333390D02*
X243081428Y-63285771D01*
X243081428Y-63285771D02*
X242890952Y-63285771D01*
X242890952Y-63285771D02*
X242795714Y-63333390D01*
X242795714Y-63333390D02*
X242748095Y-63381009D01*
X242748095Y-63381009D02*
X242700476Y-63476247D01*
X104139405Y-84614819D02*
X104139405Y-83614819D01*
X104139405Y-83614819D02*
X104377500Y-83614819D01*
X104377500Y-83614819D02*
X104520357Y-83662438D01*
X104520357Y-83662438D02*
X104615595Y-83757676D01*
X104615595Y-83757676D02*
X104663214Y-83852914D01*
X104663214Y-83852914D02*
X104710833Y-84043390D01*
X104710833Y-84043390D02*
X104710833Y-84186247D01*
X104710833Y-84186247D02*
X104663214Y-84376723D01*
X104663214Y-84376723D02*
X104615595Y-84471961D01*
X104615595Y-84471961D02*
X104520357Y-84567200D01*
X104520357Y-84567200D02*
X104377500Y-84614819D01*
X104377500Y-84614819D02*
X104139405Y-84614819D01*
X105044167Y-83614819D02*
X105663214Y-83614819D01*
X105663214Y-83614819D02*
X105329881Y-83995771D01*
X105329881Y-83995771D02*
X105472738Y-83995771D01*
X105472738Y-83995771D02*
X105567976Y-84043390D01*
X105567976Y-84043390D02*
X105615595Y-84091009D01*
X105615595Y-84091009D02*
X105663214Y-84186247D01*
X105663214Y-84186247D02*
X105663214Y-84424342D01*
X105663214Y-84424342D02*
X105615595Y-84519580D01*
X105615595Y-84519580D02*
X105567976Y-84567200D01*
X105567976Y-84567200D02*
X105472738Y-84614819D01*
X105472738Y-84614819D02*
X105187024Y-84614819D01*
X105187024Y-84614819D02*
X105091786Y-84567200D01*
X105091786Y-84567200D02*
X105044167Y-84519580D01*
X241810714Y-94584819D02*
X241810714Y-93584819D01*
X241810714Y-93584819D02*
X242048809Y-93584819D01*
X242048809Y-93584819D02*
X242191666Y-93632438D01*
X242191666Y-93632438D02*
X242286904Y-93727676D01*
X242286904Y-93727676D02*
X242334523Y-93822914D01*
X242334523Y-93822914D02*
X242382142Y-94013390D01*
X242382142Y-94013390D02*
X242382142Y-94156247D01*
X242382142Y-94156247D02*
X242334523Y-94346723D01*
X242334523Y-94346723D02*
X242286904Y-94441961D01*
X242286904Y-94441961D02*
X242191666Y-94537200D01*
X242191666Y-94537200D02*
X242048809Y-94584819D01*
X242048809Y-94584819D02*
X241810714Y-94584819D01*
X242763095Y-93680057D02*
X242810714Y-93632438D01*
X242810714Y-93632438D02*
X242905952Y-93584819D01*
X242905952Y-93584819D02*
X243144047Y-93584819D01*
X243144047Y-93584819D02*
X243239285Y-93632438D01*
X243239285Y-93632438D02*
X243286904Y-93680057D01*
X243286904Y-93680057D02*
X243334523Y-93775295D01*
X243334523Y-93775295D02*
X243334523Y-93870533D01*
X243334523Y-93870533D02*
X243286904Y-94013390D01*
X243286904Y-94013390D02*
X242715476Y-94584819D01*
X242715476Y-94584819D02*
X243334523Y-94584819D01*
X243715476Y-93680057D02*
X243763095Y-93632438D01*
X243763095Y-93632438D02*
X243858333Y-93584819D01*
X243858333Y-93584819D02*
X244096428Y-93584819D01*
X244096428Y-93584819D02*
X244191666Y-93632438D01*
X244191666Y-93632438D02*
X244239285Y-93680057D01*
X244239285Y-93680057D02*
X244286904Y-93775295D01*
X244286904Y-93775295D02*
X244286904Y-93870533D01*
X244286904Y-93870533D02*
X244239285Y-94013390D01*
X244239285Y-94013390D02*
X243667857Y-94584819D01*
X243667857Y-94584819D02*
X244286904Y-94584819D01*
X187264642Y-102079580D02*
X187217023Y-102127200D01*
X187217023Y-102127200D02*
X187074166Y-102174819D01*
X187074166Y-102174819D02*
X186978928Y-102174819D01*
X186978928Y-102174819D02*
X186836071Y-102127200D01*
X186836071Y-102127200D02*
X186740833Y-102031961D01*
X186740833Y-102031961D02*
X186693214Y-101936723D01*
X186693214Y-101936723D02*
X186645595Y-101746247D01*
X186645595Y-101746247D02*
X186645595Y-101603390D01*
X186645595Y-101603390D02*
X186693214Y-101412914D01*
X186693214Y-101412914D02*
X186740833Y-101317676D01*
X186740833Y-101317676D02*
X186836071Y-101222438D01*
X186836071Y-101222438D02*
X186978928Y-101174819D01*
X186978928Y-101174819D02*
X187074166Y-101174819D01*
X187074166Y-101174819D02*
X187217023Y-101222438D01*
X187217023Y-101222438D02*
X187264642Y-101270057D01*
X188217023Y-102174819D02*
X187645595Y-102174819D01*
X187931309Y-102174819D02*
X187931309Y-101174819D01*
X187931309Y-101174819D02*
X187836071Y-101317676D01*
X187836071Y-101317676D02*
X187740833Y-101412914D01*
X187740833Y-101412914D02*
X187645595Y-101460533D01*
X188836071Y-101174819D02*
X188931309Y-101174819D01*
X188931309Y-101174819D02*
X189026547Y-101222438D01*
X189026547Y-101222438D02*
X189074166Y-101270057D01*
X189074166Y-101270057D02*
X189121785Y-101365295D01*
X189121785Y-101365295D02*
X189169404Y-101555771D01*
X189169404Y-101555771D02*
X189169404Y-101793866D01*
X189169404Y-101793866D02*
X189121785Y-101984342D01*
X189121785Y-101984342D02*
X189074166Y-102079580D01*
X189074166Y-102079580D02*
X189026547Y-102127200D01*
X189026547Y-102127200D02*
X188931309Y-102174819D01*
X188931309Y-102174819D02*
X188836071Y-102174819D01*
X188836071Y-102174819D02*
X188740833Y-102127200D01*
X188740833Y-102127200D02*
X188693214Y-102079580D01*
X188693214Y-102079580D02*
X188645595Y-101984342D01*
X188645595Y-101984342D02*
X188597976Y-101793866D01*
X188597976Y-101793866D02*
X188597976Y-101555771D01*
X188597976Y-101555771D02*
X188645595Y-101365295D01*
X188645595Y-101365295D02*
X188693214Y-101270057D01*
X188693214Y-101270057D02*
X188740833Y-101222438D01*
X188740833Y-101222438D02*
X188836071Y-101174819D01*
X108791905Y-83714819D02*
X108791905Y-82714819D01*
X108791905Y-82714819D02*
X109030000Y-82714819D01*
X109030000Y-82714819D02*
X109172857Y-82762438D01*
X109172857Y-82762438D02*
X109268095Y-82857676D01*
X109268095Y-82857676D02*
X109315714Y-82952914D01*
X109315714Y-82952914D02*
X109363333Y-83143390D01*
X109363333Y-83143390D02*
X109363333Y-83286247D01*
X109363333Y-83286247D02*
X109315714Y-83476723D01*
X109315714Y-83476723D02*
X109268095Y-83571961D01*
X109268095Y-83571961D02*
X109172857Y-83667200D01*
X109172857Y-83667200D02*
X109030000Y-83714819D01*
X109030000Y-83714819D02*
X108791905Y-83714819D01*
X110268095Y-82714819D02*
X109791905Y-82714819D01*
X109791905Y-82714819D02*
X109744286Y-83191009D01*
X109744286Y-83191009D02*
X109791905Y-83143390D01*
X109791905Y-83143390D02*
X109887143Y-83095771D01*
X109887143Y-83095771D02*
X110125238Y-83095771D01*
X110125238Y-83095771D02*
X110220476Y-83143390D01*
X110220476Y-83143390D02*
X110268095Y-83191009D01*
X110268095Y-83191009D02*
X110315714Y-83286247D01*
X110315714Y-83286247D02*
X110315714Y-83524342D01*
X110315714Y-83524342D02*
X110268095Y-83619580D01*
X110268095Y-83619580D02*
X110220476Y-83667200D01*
X110220476Y-83667200D02*
X110125238Y-83714819D01*
X110125238Y-83714819D02*
X109887143Y-83714819D01*
X109887143Y-83714819D02*
X109791905Y-83667200D01*
X109791905Y-83667200D02*
X109744286Y-83619580D01*
X174253333Y-88349580D02*
X174205714Y-88397200D01*
X174205714Y-88397200D02*
X174062857Y-88444819D01*
X174062857Y-88444819D02*
X173967619Y-88444819D01*
X173967619Y-88444819D02*
X173824762Y-88397200D01*
X173824762Y-88397200D02*
X173729524Y-88301961D01*
X173729524Y-88301961D02*
X173681905Y-88206723D01*
X173681905Y-88206723D02*
X173634286Y-88016247D01*
X173634286Y-88016247D02*
X173634286Y-87873390D01*
X173634286Y-87873390D02*
X173681905Y-87682914D01*
X173681905Y-87682914D02*
X173729524Y-87587676D01*
X173729524Y-87587676D02*
X173824762Y-87492438D01*
X173824762Y-87492438D02*
X173967619Y-87444819D01*
X173967619Y-87444819D02*
X174062857Y-87444819D01*
X174062857Y-87444819D02*
X174205714Y-87492438D01*
X174205714Y-87492438D02*
X174253333Y-87540057D01*
X174824762Y-87873390D02*
X174729524Y-87825771D01*
X174729524Y-87825771D02*
X174681905Y-87778152D01*
X174681905Y-87778152D02*
X174634286Y-87682914D01*
X174634286Y-87682914D02*
X174634286Y-87635295D01*
X174634286Y-87635295D02*
X174681905Y-87540057D01*
X174681905Y-87540057D02*
X174729524Y-87492438D01*
X174729524Y-87492438D02*
X174824762Y-87444819D01*
X174824762Y-87444819D02*
X175015238Y-87444819D01*
X175015238Y-87444819D02*
X175110476Y-87492438D01*
X175110476Y-87492438D02*
X175158095Y-87540057D01*
X175158095Y-87540057D02*
X175205714Y-87635295D01*
X175205714Y-87635295D02*
X175205714Y-87682914D01*
X175205714Y-87682914D02*
X175158095Y-87778152D01*
X175158095Y-87778152D02*
X175110476Y-87825771D01*
X175110476Y-87825771D02*
X175015238Y-87873390D01*
X175015238Y-87873390D02*
X174824762Y-87873390D01*
X174824762Y-87873390D02*
X174729524Y-87921009D01*
X174729524Y-87921009D02*
X174681905Y-87968628D01*
X174681905Y-87968628D02*
X174634286Y-88063866D01*
X174634286Y-88063866D02*
X174634286Y-88254342D01*
X174634286Y-88254342D02*
X174681905Y-88349580D01*
X174681905Y-88349580D02*
X174729524Y-88397200D01*
X174729524Y-88397200D02*
X174824762Y-88444819D01*
X174824762Y-88444819D02*
X175015238Y-88444819D01*
X175015238Y-88444819D02*
X175110476Y-88397200D01*
X175110476Y-88397200D02*
X175158095Y-88349580D01*
X175158095Y-88349580D02*
X175205714Y-88254342D01*
X175205714Y-88254342D02*
X175205714Y-88063866D01*
X175205714Y-88063866D02*
X175158095Y-87968628D01*
X175158095Y-87968628D02*
X175110476Y-87921009D01*
X175110476Y-87921009D02*
X175015238Y-87873390D01*
X167619642Y-91909580D02*
X167572023Y-91957200D01*
X167572023Y-91957200D02*
X167429166Y-92004819D01*
X167429166Y-92004819D02*
X167333928Y-92004819D01*
X167333928Y-92004819D02*
X167191071Y-91957200D01*
X167191071Y-91957200D02*
X167095833Y-91861961D01*
X167095833Y-91861961D02*
X167048214Y-91766723D01*
X167048214Y-91766723D02*
X167000595Y-91576247D01*
X167000595Y-91576247D02*
X167000595Y-91433390D01*
X167000595Y-91433390D02*
X167048214Y-91242914D01*
X167048214Y-91242914D02*
X167095833Y-91147676D01*
X167095833Y-91147676D02*
X167191071Y-91052438D01*
X167191071Y-91052438D02*
X167333928Y-91004819D01*
X167333928Y-91004819D02*
X167429166Y-91004819D01*
X167429166Y-91004819D02*
X167572023Y-91052438D01*
X167572023Y-91052438D02*
X167619642Y-91100057D01*
X168572023Y-92004819D02*
X168000595Y-92004819D01*
X168286309Y-92004819D02*
X168286309Y-91004819D01*
X168286309Y-91004819D02*
X168191071Y-91147676D01*
X168191071Y-91147676D02*
X168095833Y-91242914D01*
X168095833Y-91242914D02*
X168000595Y-91290533D01*
X169476785Y-91004819D02*
X169000595Y-91004819D01*
X169000595Y-91004819D02*
X168952976Y-91481009D01*
X168952976Y-91481009D02*
X169000595Y-91433390D01*
X169000595Y-91433390D02*
X169095833Y-91385771D01*
X169095833Y-91385771D02*
X169333928Y-91385771D01*
X169333928Y-91385771D02*
X169429166Y-91433390D01*
X169429166Y-91433390D02*
X169476785Y-91481009D01*
X169476785Y-91481009D02*
X169524404Y-91576247D01*
X169524404Y-91576247D02*
X169524404Y-91814342D01*
X169524404Y-91814342D02*
X169476785Y-91909580D01*
X169476785Y-91909580D02*
X169429166Y-91957200D01*
X169429166Y-91957200D02*
X169333928Y-92004819D01*
X169333928Y-92004819D02*
X169095833Y-92004819D01*
X169095833Y-92004819D02*
X169000595Y-91957200D01*
X169000595Y-91957200D02*
X168952976Y-91909580D01*
X217540714Y-78834819D02*
X217540714Y-77834819D01*
X217540714Y-77834819D02*
X217778809Y-77834819D01*
X217778809Y-77834819D02*
X217921666Y-77882438D01*
X217921666Y-77882438D02*
X218016904Y-77977676D01*
X218016904Y-77977676D02*
X218064523Y-78072914D01*
X218064523Y-78072914D02*
X218112142Y-78263390D01*
X218112142Y-78263390D02*
X218112142Y-78406247D01*
X218112142Y-78406247D02*
X218064523Y-78596723D01*
X218064523Y-78596723D02*
X218016904Y-78691961D01*
X218016904Y-78691961D02*
X217921666Y-78787200D01*
X217921666Y-78787200D02*
X217778809Y-78834819D01*
X217778809Y-78834819D02*
X217540714Y-78834819D01*
X218493095Y-77930057D02*
X218540714Y-77882438D01*
X218540714Y-77882438D02*
X218635952Y-77834819D01*
X218635952Y-77834819D02*
X218874047Y-77834819D01*
X218874047Y-77834819D02*
X218969285Y-77882438D01*
X218969285Y-77882438D02*
X219016904Y-77930057D01*
X219016904Y-77930057D02*
X219064523Y-78025295D01*
X219064523Y-78025295D02*
X219064523Y-78120533D01*
X219064523Y-78120533D02*
X219016904Y-78263390D01*
X219016904Y-78263390D02*
X218445476Y-78834819D01*
X218445476Y-78834819D02*
X219064523Y-78834819D01*
X219397857Y-77834819D02*
X220016904Y-77834819D01*
X220016904Y-77834819D02*
X219683571Y-78215771D01*
X219683571Y-78215771D02*
X219826428Y-78215771D01*
X219826428Y-78215771D02*
X219921666Y-78263390D01*
X219921666Y-78263390D02*
X219969285Y-78311009D01*
X219969285Y-78311009D02*
X220016904Y-78406247D01*
X220016904Y-78406247D02*
X220016904Y-78644342D01*
X220016904Y-78644342D02*
X219969285Y-78739580D01*
X219969285Y-78739580D02*
X219921666Y-78787200D01*
X219921666Y-78787200D02*
X219826428Y-78834819D01*
X219826428Y-78834819D02*
X219540714Y-78834819D01*
X219540714Y-78834819D02*
X219445476Y-78787200D01*
X219445476Y-78787200D02*
X219397857Y-78739580D01*
X197240714Y-61474819D02*
X197240714Y-60474819D01*
X197240714Y-60474819D02*
X197478809Y-60474819D01*
X197478809Y-60474819D02*
X197621666Y-60522438D01*
X197621666Y-60522438D02*
X197716904Y-60617676D01*
X197716904Y-60617676D02*
X197764523Y-60712914D01*
X197764523Y-60712914D02*
X197812142Y-60903390D01*
X197812142Y-60903390D02*
X197812142Y-61046247D01*
X197812142Y-61046247D02*
X197764523Y-61236723D01*
X197764523Y-61236723D02*
X197716904Y-61331961D01*
X197716904Y-61331961D02*
X197621666Y-61427200D01*
X197621666Y-61427200D02*
X197478809Y-61474819D01*
X197478809Y-61474819D02*
X197240714Y-61474819D01*
X198193095Y-60570057D02*
X198240714Y-60522438D01*
X198240714Y-60522438D02*
X198335952Y-60474819D01*
X198335952Y-60474819D02*
X198574047Y-60474819D01*
X198574047Y-60474819D02*
X198669285Y-60522438D01*
X198669285Y-60522438D02*
X198716904Y-60570057D01*
X198716904Y-60570057D02*
X198764523Y-60665295D01*
X198764523Y-60665295D02*
X198764523Y-60760533D01*
X198764523Y-60760533D02*
X198716904Y-60903390D01*
X198716904Y-60903390D02*
X198145476Y-61474819D01*
X198145476Y-61474819D02*
X198764523Y-61474819D01*
X199383571Y-60474819D02*
X199478809Y-60474819D01*
X199478809Y-60474819D02*
X199574047Y-60522438D01*
X199574047Y-60522438D02*
X199621666Y-60570057D01*
X199621666Y-60570057D02*
X199669285Y-60665295D01*
X199669285Y-60665295D02*
X199716904Y-60855771D01*
X199716904Y-60855771D02*
X199716904Y-61093866D01*
X199716904Y-61093866D02*
X199669285Y-61284342D01*
X199669285Y-61284342D02*
X199621666Y-61379580D01*
X199621666Y-61379580D02*
X199574047Y-61427200D01*
X199574047Y-61427200D02*
X199478809Y-61474819D01*
X199478809Y-61474819D02*
X199383571Y-61474819D01*
X199383571Y-61474819D02*
X199288333Y-61427200D01*
X199288333Y-61427200D02*
X199240714Y-61379580D01*
X199240714Y-61379580D02*
X199193095Y-61284342D01*
X199193095Y-61284342D02*
X199145476Y-61093866D01*
X199145476Y-61093866D02*
X199145476Y-60855771D01*
X199145476Y-60855771D02*
X199193095Y-60665295D01*
X199193095Y-60665295D02*
X199240714Y-60570057D01*
X199240714Y-60570057D02*
X199288333Y-60522438D01*
X199288333Y-60522438D02*
X199383571Y-60474819D01*
X183677142Y-65224819D02*
X183343809Y-64748628D01*
X183105714Y-65224819D02*
X183105714Y-64224819D01*
X183105714Y-64224819D02*
X183486666Y-64224819D01*
X183486666Y-64224819D02*
X183581904Y-64272438D01*
X183581904Y-64272438D02*
X183629523Y-64320057D01*
X183629523Y-64320057D02*
X183677142Y-64415295D01*
X183677142Y-64415295D02*
X183677142Y-64558152D01*
X183677142Y-64558152D02*
X183629523Y-64653390D01*
X183629523Y-64653390D02*
X183581904Y-64701009D01*
X183581904Y-64701009D02*
X183486666Y-64748628D01*
X183486666Y-64748628D02*
X183105714Y-64748628D01*
X184629523Y-65224819D02*
X184058095Y-65224819D01*
X184343809Y-65224819D02*
X184343809Y-64224819D01*
X184343809Y-64224819D02*
X184248571Y-64367676D01*
X184248571Y-64367676D02*
X184153333Y-64462914D01*
X184153333Y-64462914D02*
X184058095Y-64510533D01*
X185248571Y-64224819D02*
X185343809Y-64224819D01*
X185343809Y-64224819D02*
X185439047Y-64272438D01*
X185439047Y-64272438D02*
X185486666Y-64320057D01*
X185486666Y-64320057D02*
X185534285Y-64415295D01*
X185534285Y-64415295D02*
X185581904Y-64605771D01*
X185581904Y-64605771D02*
X185581904Y-64843866D01*
X185581904Y-64843866D02*
X185534285Y-65034342D01*
X185534285Y-65034342D02*
X185486666Y-65129580D01*
X185486666Y-65129580D02*
X185439047Y-65177200D01*
X185439047Y-65177200D02*
X185343809Y-65224819D01*
X185343809Y-65224819D02*
X185248571Y-65224819D01*
X185248571Y-65224819D02*
X185153333Y-65177200D01*
X185153333Y-65177200D02*
X185105714Y-65129580D01*
X185105714Y-65129580D02*
X185058095Y-65034342D01*
X185058095Y-65034342D02*
X185010476Y-64843866D01*
X185010476Y-64843866D02*
X185010476Y-64605771D01*
X185010476Y-64605771D02*
X185058095Y-64415295D01*
X185058095Y-64415295D02*
X185105714Y-64320057D01*
X185105714Y-64320057D02*
X185153333Y-64272438D01*
X185153333Y-64272438D02*
X185248571Y-64224819D01*
X176563333Y-106254819D02*
X176230000Y-105778628D01*
X175991905Y-106254819D02*
X175991905Y-105254819D01*
X175991905Y-105254819D02*
X176372857Y-105254819D01*
X176372857Y-105254819D02*
X176468095Y-105302438D01*
X176468095Y-105302438D02*
X176515714Y-105350057D01*
X176515714Y-105350057D02*
X176563333Y-105445295D01*
X176563333Y-105445295D02*
X176563333Y-105588152D01*
X176563333Y-105588152D02*
X176515714Y-105683390D01*
X176515714Y-105683390D02*
X176468095Y-105731009D01*
X176468095Y-105731009D02*
X176372857Y-105778628D01*
X176372857Y-105778628D02*
X175991905Y-105778628D01*
X177515714Y-106254819D02*
X176944286Y-106254819D01*
X177230000Y-106254819D02*
X177230000Y-105254819D01*
X177230000Y-105254819D02*
X177134762Y-105397676D01*
X177134762Y-105397676D02*
X177039524Y-105492914D01*
X177039524Y-105492914D02*
X176944286Y-105540533D01*
X159078333Y-102559580D02*
X159030714Y-102607200D01*
X159030714Y-102607200D02*
X158887857Y-102654819D01*
X158887857Y-102654819D02*
X158792619Y-102654819D01*
X158792619Y-102654819D02*
X158649762Y-102607200D01*
X158649762Y-102607200D02*
X158554524Y-102511961D01*
X158554524Y-102511961D02*
X158506905Y-102416723D01*
X158506905Y-102416723D02*
X158459286Y-102226247D01*
X158459286Y-102226247D02*
X158459286Y-102083390D01*
X158459286Y-102083390D02*
X158506905Y-101892914D01*
X158506905Y-101892914D02*
X158554524Y-101797676D01*
X158554524Y-101797676D02*
X158649762Y-101702438D01*
X158649762Y-101702438D02*
X158792619Y-101654819D01*
X158792619Y-101654819D02*
X158887857Y-101654819D01*
X158887857Y-101654819D02*
X159030714Y-101702438D01*
X159030714Y-101702438D02*
X159078333Y-101750057D01*
X159983095Y-101654819D02*
X159506905Y-101654819D01*
X159506905Y-101654819D02*
X159459286Y-102131009D01*
X159459286Y-102131009D02*
X159506905Y-102083390D01*
X159506905Y-102083390D02*
X159602143Y-102035771D01*
X159602143Y-102035771D02*
X159840238Y-102035771D01*
X159840238Y-102035771D02*
X159935476Y-102083390D01*
X159935476Y-102083390D02*
X159983095Y-102131009D01*
X159983095Y-102131009D02*
X160030714Y-102226247D01*
X160030714Y-102226247D02*
X160030714Y-102464342D01*
X160030714Y-102464342D02*
X159983095Y-102559580D01*
X159983095Y-102559580D02*
X159935476Y-102607200D01*
X159935476Y-102607200D02*
X159840238Y-102654819D01*
X159840238Y-102654819D02*
X159602143Y-102654819D01*
X159602143Y-102654819D02*
X159506905Y-102607200D01*
X159506905Y-102607200D02*
X159459286Y-102559580D01*
X116478095Y-71909819D02*
X116478095Y-72719342D01*
X116478095Y-72719342D02*
X116525714Y-72814580D01*
X116525714Y-72814580D02*
X116573333Y-72862200D01*
X116573333Y-72862200D02*
X116668571Y-72909819D01*
X116668571Y-72909819D02*
X116859047Y-72909819D01*
X116859047Y-72909819D02*
X116954285Y-72862200D01*
X116954285Y-72862200D02*
X117001904Y-72814580D01*
X117001904Y-72814580D02*
X117049523Y-72719342D01*
X117049523Y-72719342D02*
X117049523Y-71909819D01*
X117478095Y-72005057D02*
X117525714Y-71957438D01*
X117525714Y-71957438D02*
X117620952Y-71909819D01*
X117620952Y-71909819D02*
X117859047Y-71909819D01*
X117859047Y-71909819D02*
X117954285Y-71957438D01*
X117954285Y-71957438D02*
X118001904Y-72005057D01*
X118001904Y-72005057D02*
X118049523Y-72100295D01*
X118049523Y-72100295D02*
X118049523Y-72195533D01*
X118049523Y-72195533D02*
X118001904Y-72338390D01*
X118001904Y-72338390D02*
X117430476Y-72909819D01*
X117430476Y-72909819D02*
X118049523Y-72909819D01*
X189917142Y-64704819D02*
X189583809Y-64228628D01*
X189345714Y-64704819D02*
X189345714Y-63704819D01*
X189345714Y-63704819D02*
X189726666Y-63704819D01*
X189726666Y-63704819D02*
X189821904Y-63752438D01*
X189821904Y-63752438D02*
X189869523Y-63800057D01*
X189869523Y-63800057D02*
X189917142Y-63895295D01*
X189917142Y-63895295D02*
X189917142Y-64038152D01*
X189917142Y-64038152D02*
X189869523Y-64133390D01*
X189869523Y-64133390D02*
X189821904Y-64181009D01*
X189821904Y-64181009D02*
X189726666Y-64228628D01*
X189726666Y-64228628D02*
X189345714Y-64228628D01*
X190869523Y-64704819D02*
X190298095Y-64704819D01*
X190583809Y-64704819D02*
X190583809Y-63704819D01*
X190583809Y-63704819D02*
X190488571Y-63847676D01*
X190488571Y-63847676D02*
X190393333Y-63942914D01*
X190393333Y-63942914D02*
X190298095Y-63990533D01*
X191821904Y-64704819D02*
X191250476Y-64704819D01*
X191536190Y-64704819D02*
X191536190Y-63704819D01*
X191536190Y-63704819D02*
X191440952Y-63847676D01*
X191440952Y-63847676D02*
X191345714Y-63942914D01*
X191345714Y-63942914D02*
X191250476Y-63990533D01*
X157560833Y-86469580D02*
X157513214Y-86517200D01*
X157513214Y-86517200D02*
X157370357Y-86564819D01*
X157370357Y-86564819D02*
X157275119Y-86564819D01*
X157275119Y-86564819D02*
X157132262Y-86517200D01*
X157132262Y-86517200D02*
X157037024Y-86421961D01*
X157037024Y-86421961D02*
X156989405Y-86326723D01*
X156989405Y-86326723D02*
X156941786Y-86136247D01*
X156941786Y-86136247D02*
X156941786Y-85993390D01*
X156941786Y-85993390D02*
X156989405Y-85802914D01*
X156989405Y-85802914D02*
X157037024Y-85707676D01*
X157037024Y-85707676D02*
X157132262Y-85612438D01*
X157132262Y-85612438D02*
X157275119Y-85564819D01*
X157275119Y-85564819D02*
X157370357Y-85564819D01*
X157370357Y-85564819D02*
X157513214Y-85612438D01*
X157513214Y-85612438D02*
X157560833Y-85660057D01*
X157894167Y-85564819D02*
X158513214Y-85564819D01*
X158513214Y-85564819D02*
X158179881Y-85945771D01*
X158179881Y-85945771D02*
X158322738Y-85945771D01*
X158322738Y-85945771D02*
X158417976Y-85993390D01*
X158417976Y-85993390D02*
X158465595Y-86041009D01*
X158465595Y-86041009D02*
X158513214Y-86136247D01*
X158513214Y-86136247D02*
X158513214Y-86374342D01*
X158513214Y-86374342D02*
X158465595Y-86469580D01*
X158465595Y-86469580D02*
X158417976Y-86517200D01*
X158417976Y-86517200D02*
X158322738Y-86564819D01*
X158322738Y-86564819D02*
X158037024Y-86564819D01*
X158037024Y-86564819D02*
X157941786Y-86517200D01*
X157941786Y-86517200D02*
X157894167Y-86469580D01*
X210460714Y-60444819D02*
X210460714Y-59444819D01*
X210460714Y-59444819D02*
X210698809Y-59444819D01*
X210698809Y-59444819D02*
X210841666Y-59492438D01*
X210841666Y-59492438D02*
X210936904Y-59587676D01*
X210936904Y-59587676D02*
X210984523Y-59682914D01*
X210984523Y-59682914D02*
X211032142Y-59873390D01*
X211032142Y-59873390D02*
X211032142Y-60016247D01*
X211032142Y-60016247D02*
X210984523Y-60206723D01*
X210984523Y-60206723D02*
X210936904Y-60301961D01*
X210936904Y-60301961D02*
X210841666Y-60397200D01*
X210841666Y-60397200D02*
X210698809Y-60444819D01*
X210698809Y-60444819D02*
X210460714Y-60444819D01*
X211413095Y-59540057D02*
X211460714Y-59492438D01*
X211460714Y-59492438D02*
X211555952Y-59444819D01*
X211555952Y-59444819D02*
X211794047Y-59444819D01*
X211794047Y-59444819D02*
X211889285Y-59492438D01*
X211889285Y-59492438D02*
X211936904Y-59540057D01*
X211936904Y-59540057D02*
X211984523Y-59635295D01*
X211984523Y-59635295D02*
X211984523Y-59730533D01*
X211984523Y-59730533D02*
X211936904Y-59873390D01*
X211936904Y-59873390D02*
X211365476Y-60444819D01*
X211365476Y-60444819D02*
X211984523Y-60444819D01*
X212889285Y-59444819D02*
X212413095Y-59444819D01*
X212413095Y-59444819D02*
X212365476Y-59921009D01*
X212365476Y-59921009D02*
X212413095Y-59873390D01*
X212413095Y-59873390D02*
X212508333Y-59825771D01*
X212508333Y-59825771D02*
X212746428Y-59825771D01*
X212746428Y-59825771D02*
X212841666Y-59873390D01*
X212841666Y-59873390D02*
X212889285Y-59921009D01*
X212889285Y-59921009D02*
X212936904Y-60016247D01*
X212936904Y-60016247D02*
X212936904Y-60254342D01*
X212936904Y-60254342D02*
X212889285Y-60349580D01*
X212889285Y-60349580D02*
X212841666Y-60397200D01*
X212841666Y-60397200D02*
X212746428Y-60444819D01*
X212746428Y-60444819D02*
X212508333Y-60444819D01*
X212508333Y-60444819D02*
X212413095Y-60397200D01*
X212413095Y-60397200D02*
X212365476Y-60349580D01*
X190175833Y-55914819D02*
X189842500Y-55438628D01*
X189604405Y-55914819D02*
X189604405Y-54914819D01*
X189604405Y-54914819D02*
X189985357Y-54914819D01*
X189985357Y-54914819D02*
X190080595Y-54962438D01*
X190080595Y-54962438D02*
X190128214Y-55010057D01*
X190128214Y-55010057D02*
X190175833Y-55105295D01*
X190175833Y-55105295D02*
X190175833Y-55248152D01*
X190175833Y-55248152D02*
X190128214Y-55343390D01*
X190128214Y-55343390D02*
X190080595Y-55391009D01*
X190080595Y-55391009D02*
X189985357Y-55438628D01*
X189985357Y-55438628D02*
X189604405Y-55438628D01*
X191032976Y-54914819D02*
X190842500Y-54914819D01*
X190842500Y-54914819D02*
X190747262Y-54962438D01*
X190747262Y-54962438D02*
X190699643Y-55010057D01*
X190699643Y-55010057D02*
X190604405Y-55152914D01*
X190604405Y-55152914D02*
X190556786Y-55343390D01*
X190556786Y-55343390D02*
X190556786Y-55724342D01*
X190556786Y-55724342D02*
X190604405Y-55819580D01*
X190604405Y-55819580D02*
X190652024Y-55867200D01*
X190652024Y-55867200D02*
X190747262Y-55914819D01*
X190747262Y-55914819D02*
X190937738Y-55914819D01*
X190937738Y-55914819D02*
X191032976Y-55867200D01*
X191032976Y-55867200D02*
X191080595Y-55819580D01*
X191080595Y-55819580D02*
X191128214Y-55724342D01*
X191128214Y-55724342D02*
X191128214Y-55486247D01*
X191128214Y-55486247D02*
X191080595Y-55391009D01*
X191080595Y-55391009D02*
X191032976Y-55343390D01*
X191032976Y-55343390D02*
X190937738Y-55295771D01*
X190937738Y-55295771D02*
X190747262Y-55295771D01*
X190747262Y-55295771D02*
X190652024Y-55343390D01*
X190652024Y-55343390D02*
X190604405Y-55391009D01*
X190604405Y-55391009D02*
X190556786Y-55486247D01*
X225225714Y-84794819D02*
X225225714Y-83794819D01*
X225225714Y-83794819D02*
X225463809Y-83794819D01*
X225463809Y-83794819D02*
X225606666Y-83842438D01*
X225606666Y-83842438D02*
X225701904Y-83937676D01*
X225701904Y-83937676D02*
X225749523Y-84032914D01*
X225749523Y-84032914D02*
X225797142Y-84223390D01*
X225797142Y-84223390D02*
X225797142Y-84366247D01*
X225797142Y-84366247D02*
X225749523Y-84556723D01*
X225749523Y-84556723D02*
X225701904Y-84651961D01*
X225701904Y-84651961D02*
X225606666Y-84747200D01*
X225606666Y-84747200D02*
X225463809Y-84794819D01*
X225463809Y-84794819D02*
X225225714Y-84794819D01*
X226178095Y-83890057D02*
X226225714Y-83842438D01*
X226225714Y-83842438D02*
X226320952Y-83794819D01*
X226320952Y-83794819D02*
X226559047Y-83794819D01*
X226559047Y-83794819D02*
X226654285Y-83842438D01*
X226654285Y-83842438D02*
X226701904Y-83890057D01*
X226701904Y-83890057D02*
X226749523Y-83985295D01*
X226749523Y-83985295D02*
X226749523Y-84080533D01*
X226749523Y-84080533D02*
X226701904Y-84223390D01*
X226701904Y-84223390D02*
X226130476Y-84794819D01*
X226130476Y-84794819D02*
X226749523Y-84794819D01*
X227701904Y-84794819D02*
X227130476Y-84794819D01*
X227416190Y-84794819D02*
X227416190Y-83794819D01*
X227416190Y-83794819D02*
X227320952Y-83937676D01*
X227320952Y-83937676D02*
X227225714Y-84032914D01*
X227225714Y-84032914D02*
X227130476Y-84080533D01*
X109015714Y-104504819D02*
X109015714Y-103504819D01*
X109015714Y-103504819D02*
X109253809Y-103504819D01*
X109253809Y-103504819D02*
X109396666Y-103552438D01*
X109396666Y-103552438D02*
X109491904Y-103647676D01*
X109491904Y-103647676D02*
X109539523Y-103742914D01*
X109539523Y-103742914D02*
X109587142Y-103933390D01*
X109587142Y-103933390D02*
X109587142Y-104076247D01*
X109587142Y-104076247D02*
X109539523Y-104266723D01*
X109539523Y-104266723D02*
X109491904Y-104361961D01*
X109491904Y-104361961D02*
X109396666Y-104457200D01*
X109396666Y-104457200D02*
X109253809Y-104504819D01*
X109253809Y-104504819D02*
X109015714Y-104504819D01*
X110539523Y-104504819D02*
X109968095Y-104504819D01*
X110253809Y-104504819D02*
X110253809Y-103504819D01*
X110253809Y-103504819D02*
X110158571Y-103647676D01*
X110158571Y-103647676D02*
X110063333Y-103742914D01*
X110063333Y-103742914D02*
X109968095Y-103790533D01*
X111491904Y-104504819D02*
X110920476Y-104504819D01*
X111206190Y-104504819D02*
X111206190Y-103504819D01*
X111206190Y-103504819D02*
X111110952Y-103647676D01*
X111110952Y-103647676D02*
X111015714Y-103742914D01*
X111015714Y-103742914D02*
X110920476Y-103790533D01*
X199075833Y-56724819D02*
X198742500Y-56248628D01*
X198504405Y-56724819D02*
X198504405Y-55724819D01*
X198504405Y-55724819D02*
X198885357Y-55724819D01*
X198885357Y-55724819D02*
X198980595Y-55772438D01*
X198980595Y-55772438D02*
X199028214Y-55820057D01*
X199028214Y-55820057D02*
X199075833Y-55915295D01*
X199075833Y-55915295D02*
X199075833Y-56058152D01*
X199075833Y-56058152D02*
X199028214Y-56153390D01*
X199028214Y-56153390D02*
X198980595Y-56201009D01*
X198980595Y-56201009D02*
X198885357Y-56248628D01*
X198885357Y-56248628D02*
X198504405Y-56248628D01*
X199647262Y-56153390D02*
X199552024Y-56105771D01*
X199552024Y-56105771D02*
X199504405Y-56058152D01*
X199504405Y-56058152D02*
X199456786Y-55962914D01*
X199456786Y-55962914D02*
X199456786Y-55915295D01*
X199456786Y-55915295D02*
X199504405Y-55820057D01*
X199504405Y-55820057D02*
X199552024Y-55772438D01*
X199552024Y-55772438D02*
X199647262Y-55724819D01*
X199647262Y-55724819D02*
X199837738Y-55724819D01*
X199837738Y-55724819D02*
X199932976Y-55772438D01*
X199932976Y-55772438D02*
X199980595Y-55820057D01*
X199980595Y-55820057D02*
X200028214Y-55915295D01*
X200028214Y-55915295D02*
X200028214Y-55962914D01*
X200028214Y-55962914D02*
X199980595Y-56058152D01*
X199980595Y-56058152D02*
X199932976Y-56105771D01*
X199932976Y-56105771D02*
X199837738Y-56153390D01*
X199837738Y-56153390D02*
X199647262Y-56153390D01*
X199647262Y-56153390D02*
X199552024Y-56201009D01*
X199552024Y-56201009D02*
X199504405Y-56248628D01*
X199504405Y-56248628D02*
X199456786Y-56343866D01*
X199456786Y-56343866D02*
X199456786Y-56534342D01*
X199456786Y-56534342D02*
X199504405Y-56629580D01*
X199504405Y-56629580D02*
X199552024Y-56677200D01*
X199552024Y-56677200D02*
X199647262Y-56724819D01*
X199647262Y-56724819D02*
X199837738Y-56724819D01*
X199837738Y-56724819D02*
X199932976Y-56677200D01*
X199932976Y-56677200D02*
X199980595Y-56629580D01*
X199980595Y-56629580D02*
X200028214Y-56534342D01*
X200028214Y-56534342D02*
X200028214Y-56343866D01*
X200028214Y-56343866D02*
X199980595Y-56248628D01*
X199980595Y-56248628D02*
X199932976Y-56201009D01*
X199932976Y-56201009D02*
X199837738Y-56153390D01*
X167085833Y-87624819D02*
X166752500Y-87148628D01*
X166514405Y-87624819D02*
X166514405Y-86624819D01*
X166514405Y-86624819D02*
X166895357Y-86624819D01*
X166895357Y-86624819D02*
X166990595Y-86672438D01*
X166990595Y-86672438D02*
X167038214Y-86720057D01*
X167038214Y-86720057D02*
X167085833Y-86815295D01*
X167085833Y-86815295D02*
X167085833Y-86958152D01*
X167085833Y-86958152D02*
X167038214Y-87053390D01*
X167038214Y-87053390D02*
X166990595Y-87101009D01*
X166990595Y-87101009D02*
X166895357Y-87148628D01*
X166895357Y-87148628D02*
X166514405Y-87148628D01*
X167419167Y-86624819D02*
X168038214Y-86624819D01*
X168038214Y-86624819D02*
X167704881Y-87005771D01*
X167704881Y-87005771D02*
X167847738Y-87005771D01*
X167847738Y-87005771D02*
X167942976Y-87053390D01*
X167942976Y-87053390D02*
X167990595Y-87101009D01*
X167990595Y-87101009D02*
X168038214Y-87196247D01*
X168038214Y-87196247D02*
X168038214Y-87434342D01*
X168038214Y-87434342D02*
X167990595Y-87529580D01*
X167990595Y-87529580D02*
X167942976Y-87577200D01*
X167942976Y-87577200D02*
X167847738Y-87624819D01*
X167847738Y-87624819D02*
X167562024Y-87624819D01*
X167562024Y-87624819D02*
X167466786Y-87577200D01*
X167466786Y-87577200D02*
X167419167Y-87529580D01*
X182680833Y-110964819D02*
X182347500Y-110488628D01*
X182109405Y-110964819D02*
X182109405Y-109964819D01*
X182109405Y-109964819D02*
X182490357Y-109964819D01*
X182490357Y-109964819D02*
X182585595Y-110012438D01*
X182585595Y-110012438D02*
X182633214Y-110060057D01*
X182633214Y-110060057D02*
X182680833Y-110155295D01*
X182680833Y-110155295D02*
X182680833Y-110298152D01*
X182680833Y-110298152D02*
X182633214Y-110393390D01*
X182633214Y-110393390D02*
X182585595Y-110441009D01*
X182585595Y-110441009D02*
X182490357Y-110488628D01*
X182490357Y-110488628D02*
X182109405Y-110488628D01*
X183585595Y-109964819D02*
X183109405Y-109964819D01*
X183109405Y-109964819D02*
X183061786Y-110441009D01*
X183061786Y-110441009D02*
X183109405Y-110393390D01*
X183109405Y-110393390D02*
X183204643Y-110345771D01*
X183204643Y-110345771D02*
X183442738Y-110345771D01*
X183442738Y-110345771D02*
X183537976Y-110393390D01*
X183537976Y-110393390D02*
X183585595Y-110441009D01*
X183585595Y-110441009D02*
X183633214Y-110536247D01*
X183633214Y-110536247D02*
X183633214Y-110774342D01*
X183633214Y-110774342D02*
X183585595Y-110869580D01*
X183585595Y-110869580D02*
X183537976Y-110917200D01*
X183537976Y-110917200D02*
X183442738Y-110964819D01*
X183442738Y-110964819D02*
X183204643Y-110964819D01*
X183204643Y-110964819D02*
X183109405Y-110917200D01*
X183109405Y-110917200D02*
X183061786Y-110869580D01*
X160815833Y-81329580D02*
X160768214Y-81377200D01*
X160768214Y-81377200D02*
X160625357Y-81424819D01*
X160625357Y-81424819D02*
X160530119Y-81424819D01*
X160530119Y-81424819D02*
X160387262Y-81377200D01*
X160387262Y-81377200D02*
X160292024Y-81281961D01*
X160292024Y-81281961D02*
X160244405Y-81186723D01*
X160244405Y-81186723D02*
X160196786Y-80996247D01*
X160196786Y-80996247D02*
X160196786Y-80853390D01*
X160196786Y-80853390D02*
X160244405Y-80662914D01*
X160244405Y-80662914D02*
X160292024Y-80567676D01*
X160292024Y-80567676D02*
X160387262Y-80472438D01*
X160387262Y-80472438D02*
X160530119Y-80424819D01*
X160530119Y-80424819D02*
X160625357Y-80424819D01*
X160625357Y-80424819D02*
X160768214Y-80472438D01*
X160768214Y-80472438D02*
X160815833Y-80520057D01*
X161196786Y-80520057D02*
X161244405Y-80472438D01*
X161244405Y-80472438D02*
X161339643Y-80424819D01*
X161339643Y-80424819D02*
X161577738Y-80424819D01*
X161577738Y-80424819D02*
X161672976Y-80472438D01*
X161672976Y-80472438D02*
X161720595Y-80520057D01*
X161720595Y-80520057D02*
X161768214Y-80615295D01*
X161768214Y-80615295D02*
X161768214Y-80710533D01*
X161768214Y-80710533D02*
X161720595Y-80853390D01*
X161720595Y-80853390D02*
X161149167Y-81424819D01*
X161149167Y-81424819D02*
X161768214Y-81424819D01*
X169784642Y-82209580D02*
X169737023Y-82257200D01*
X169737023Y-82257200D02*
X169594166Y-82304819D01*
X169594166Y-82304819D02*
X169498928Y-82304819D01*
X169498928Y-82304819D02*
X169356071Y-82257200D01*
X169356071Y-82257200D02*
X169260833Y-82161961D01*
X169260833Y-82161961D02*
X169213214Y-82066723D01*
X169213214Y-82066723D02*
X169165595Y-81876247D01*
X169165595Y-81876247D02*
X169165595Y-81733390D01*
X169165595Y-81733390D02*
X169213214Y-81542914D01*
X169213214Y-81542914D02*
X169260833Y-81447676D01*
X169260833Y-81447676D02*
X169356071Y-81352438D01*
X169356071Y-81352438D02*
X169498928Y-81304819D01*
X169498928Y-81304819D02*
X169594166Y-81304819D01*
X169594166Y-81304819D02*
X169737023Y-81352438D01*
X169737023Y-81352438D02*
X169784642Y-81400057D01*
X170737023Y-82304819D02*
X170165595Y-82304819D01*
X170451309Y-82304819D02*
X170451309Y-81304819D01*
X170451309Y-81304819D02*
X170356071Y-81447676D01*
X170356071Y-81447676D02*
X170260833Y-81542914D01*
X170260833Y-81542914D02*
X170165595Y-81590533D01*
X171594166Y-81638152D02*
X171594166Y-82304819D01*
X171356071Y-81257200D02*
X171117976Y-81971485D01*
X171117976Y-81971485D02*
X171737023Y-81971485D01*
X106376905Y-81664819D02*
X106376905Y-80664819D01*
X106376905Y-80664819D02*
X106615000Y-80664819D01*
X106615000Y-80664819D02*
X106757857Y-80712438D01*
X106757857Y-80712438D02*
X106853095Y-80807676D01*
X106853095Y-80807676D02*
X106900714Y-80902914D01*
X106900714Y-80902914D02*
X106948333Y-81093390D01*
X106948333Y-81093390D02*
X106948333Y-81236247D01*
X106948333Y-81236247D02*
X106900714Y-81426723D01*
X106900714Y-81426723D02*
X106853095Y-81521961D01*
X106853095Y-81521961D02*
X106757857Y-81617200D01*
X106757857Y-81617200D02*
X106615000Y-81664819D01*
X106615000Y-81664819D02*
X106376905Y-81664819D01*
X107805476Y-80998152D02*
X107805476Y-81664819D01*
X107567381Y-80617200D02*
X107329286Y-81331485D01*
X107329286Y-81331485D02*
X107948333Y-81331485D01*
X168533095Y-52744819D02*
X168533095Y-53554342D01*
X168533095Y-53554342D02*
X168580714Y-53649580D01*
X168580714Y-53649580D02*
X168628333Y-53697200D01*
X168628333Y-53697200D02*
X168723571Y-53744819D01*
X168723571Y-53744819D02*
X168914047Y-53744819D01*
X168914047Y-53744819D02*
X169009285Y-53697200D01*
X169009285Y-53697200D02*
X169056904Y-53649580D01*
X169056904Y-53649580D02*
X169104523Y-53554342D01*
X169104523Y-53554342D02*
X169104523Y-52744819D01*
X170104523Y-53744819D02*
X169533095Y-53744819D01*
X169818809Y-53744819D02*
X169818809Y-52744819D01*
X169818809Y-52744819D02*
X169723571Y-52887676D01*
X169723571Y-52887676D02*
X169628333Y-52982914D01*
X169628333Y-52982914D02*
X169533095Y-53030533D01*
X101293694Y-71827622D02*
X101502531Y-72510696D01*
X101502531Y-72510696D02*
X101498760Y-72661234D01*
X101498760Y-72661234D02*
X101435528Y-72780155D01*
X101435528Y-72780155D02*
X101312835Y-72867461D01*
X101312835Y-72867461D02*
X101221759Y-72895306D01*
X101658000Y-71716242D02*
X102249999Y-71535250D01*
X102249999Y-71535250D02*
X102042610Y-71997014D01*
X102042610Y-71997014D02*
X102179225Y-71955246D01*
X102179225Y-71955246D02*
X102284224Y-71972940D01*
X102284224Y-71972940D02*
X102343685Y-72004556D01*
X102343685Y-72004556D02*
X102417068Y-72081710D01*
X102417068Y-72081710D02*
X102486680Y-72309401D01*
X102486680Y-72309401D02*
X102468987Y-72414400D01*
X102468987Y-72414400D02*
X102437371Y-72473861D01*
X102437371Y-72473861D02*
X102360217Y-72547244D01*
X102360217Y-72547244D02*
X102086987Y-72630779D01*
X102086987Y-72630779D02*
X101981988Y-72613086D01*
X101981988Y-72613086D02*
X101922527Y-72581470D01*
X77590714Y-68874819D02*
X77590714Y-67874819D01*
X77590714Y-67874819D02*
X77828809Y-67874819D01*
X77828809Y-67874819D02*
X77971666Y-67922438D01*
X77971666Y-67922438D02*
X78066904Y-68017676D01*
X78066904Y-68017676D02*
X78114523Y-68112914D01*
X78114523Y-68112914D02*
X78162142Y-68303390D01*
X78162142Y-68303390D02*
X78162142Y-68446247D01*
X78162142Y-68446247D02*
X78114523Y-68636723D01*
X78114523Y-68636723D02*
X78066904Y-68731961D01*
X78066904Y-68731961D02*
X77971666Y-68827200D01*
X77971666Y-68827200D02*
X77828809Y-68874819D01*
X77828809Y-68874819D02*
X77590714Y-68874819D01*
X79114523Y-68874819D02*
X78543095Y-68874819D01*
X78828809Y-68874819D02*
X78828809Y-67874819D01*
X78828809Y-67874819D02*
X78733571Y-68017676D01*
X78733571Y-68017676D02*
X78638333Y-68112914D01*
X78638333Y-68112914D02*
X78543095Y-68160533D01*
X79971666Y-67874819D02*
X79781190Y-67874819D01*
X79781190Y-67874819D02*
X79685952Y-67922438D01*
X79685952Y-67922438D02*
X79638333Y-67970057D01*
X79638333Y-67970057D02*
X79543095Y-68112914D01*
X79543095Y-68112914D02*
X79495476Y-68303390D01*
X79495476Y-68303390D02*
X79495476Y-68684342D01*
X79495476Y-68684342D02*
X79543095Y-68779580D01*
X79543095Y-68779580D02*
X79590714Y-68827200D01*
X79590714Y-68827200D02*
X79685952Y-68874819D01*
X79685952Y-68874819D02*
X79876428Y-68874819D01*
X79876428Y-68874819D02*
X79971666Y-68827200D01*
X79971666Y-68827200D02*
X80019285Y-68779580D01*
X80019285Y-68779580D02*
X80066904Y-68684342D01*
X80066904Y-68684342D02*
X80066904Y-68446247D01*
X80066904Y-68446247D02*
X80019285Y-68351009D01*
X80019285Y-68351009D02*
X79971666Y-68303390D01*
X79971666Y-68303390D02*
X79876428Y-68255771D01*
X79876428Y-68255771D02*
X79685952Y-68255771D01*
X79685952Y-68255771D02*
X79590714Y-68303390D01*
X79590714Y-68303390D02*
X79543095Y-68351009D01*
X79543095Y-68351009D02*
X79495476Y-68446247D01*
X110395714Y-60244819D02*
X110395714Y-59244819D01*
X110395714Y-59244819D02*
X110633809Y-59244819D01*
X110633809Y-59244819D02*
X110776666Y-59292438D01*
X110776666Y-59292438D02*
X110871904Y-59387676D01*
X110871904Y-59387676D02*
X110919523Y-59482914D01*
X110919523Y-59482914D02*
X110967142Y-59673390D01*
X110967142Y-59673390D02*
X110967142Y-59816247D01*
X110967142Y-59816247D02*
X110919523Y-60006723D01*
X110919523Y-60006723D02*
X110871904Y-60101961D01*
X110871904Y-60101961D02*
X110776666Y-60197200D01*
X110776666Y-60197200D02*
X110633809Y-60244819D01*
X110633809Y-60244819D02*
X110395714Y-60244819D01*
X111919523Y-60244819D02*
X111348095Y-60244819D01*
X111633809Y-60244819D02*
X111633809Y-59244819D01*
X111633809Y-59244819D02*
X111538571Y-59387676D01*
X111538571Y-59387676D02*
X111443333Y-59482914D01*
X111443333Y-59482914D02*
X111348095Y-59530533D01*
X112490952Y-59673390D02*
X112395714Y-59625771D01*
X112395714Y-59625771D02*
X112348095Y-59578152D01*
X112348095Y-59578152D02*
X112300476Y-59482914D01*
X112300476Y-59482914D02*
X112300476Y-59435295D01*
X112300476Y-59435295D02*
X112348095Y-59340057D01*
X112348095Y-59340057D02*
X112395714Y-59292438D01*
X112395714Y-59292438D02*
X112490952Y-59244819D01*
X112490952Y-59244819D02*
X112681428Y-59244819D01*
X112681428Y-59244819D02*
X112776666Y-59292438D01*
X112776666Y-59292438D02*
X112824285Y-59340057D01*
X112824285Y-59340057D02*
X112871904Y-59435295D01*
X112871904Y-59435295D02*
X112871904Y-59482914D01*
X112871904Y-59482914D02*
X112824285Y-59578152D01*
X112824285Y-59578152D02*
X112776666Y-59625771D01*
X112776666Y-59625771D02*
X112681428Y-59673390D01*
X112681428Y-59673390D02*
X112490952Y-59673390D01*
X112490952Y-59673390D02*
X112395714Y-59721009D01*
X112395714Y-59721009D02*
X112348095Y-59768628D01*
X112348095Y-59768628D02*
X112300476Y-59863866D01*
X112300476Y-59863866D02*
X112300476Y-60054342D01*
X112300476Y-60054342D02*
X112348095Y-60149580D01*
X112348095Y-60149580D02*
X112395714Y-60197200D01*
X112395714Y-60197200D02*
X112490952Y-60244819D01*
X112490952Y-60244819D02*
X112681428Y-60244819D01*
X112681428Y-60244819D02*
X112776666Y-60197200D01*
X112776666Y-60197200D02*
X112824285Y-60149580D01*
X112824285Y-60149580D02*
X112871904Y-60054342D01*
X112871904Y-60054342D02*
X112871904Y-59863866D01*
X112871904Y-59863866D02*
X112824285Y-59768628D01*
X112824285Y-59768628D02*
X112776666Y-59721009D01*
X112776666Y-59721009D02*
X112681428Y-59673390D01*
X169165833Y-96824819D02*
X168832500Y-96348628D01*
X168594405Y-96824819D02*
X168594405Y-95824819D01*
X168594405Y-95824819D02*
X168975357Y-95824819D01*
X168975357Y-95824819D02*
X169070595Y-95872438D01*
X169070595Y-95872438D02*
X169118214Y-95920057D01*
X169118214Y-95920057D02*
X169165833Y-96015295D01*
X169165833Y-96015295D02*
X169165833Y-96158152D01*
X169165833Y-96158152D02*
X169118214Y-96253390D01*
X169118214Y-96253390D02*
X169070595Y-96301009D01*
X169070595Y-96301009D02*
X168975357Y-96348628D01*
X168975357Y-96348628D02*
X168594405Y-96348628D01*
X170022976Y-96158152D02*
X170022976Y-96824819D01*
X169784881Y-95777200D02*
X169546786Y-96491485D01*
X169546786Y-96491485D02*
X170165833Y-96491485D01*
X94170714Y-100684819D02*
X94170714Y-99684819D01*
X94170714Y-99684819D02*
X94408809Y-99684819D01*
X94408809Y-99684819D02*
X94551666Y-99732438D01*
X94551666Y-99732438D02*
X94646904Y-99827676D01*
X94646904Y-99827676D02*
X94694523Y-99922914D01*
X94694523Y-99922914D02*
X94742142Y-100113390D01*
X94742142Y-100113390D02*
X94742142Y-100256247D01*
X94742142Y-100256247D02*
X94694523Y-100446723D01*
X94694523Y-100446723D02*
X94646904Y-100541961D01*
X94646904Y-100541961D02*
X94551666Y-100637200D01*
X94551666Y-100637200D02*
X94408809Y-100684819D01*
X94408809Y-100684819D02*
X94170714Y-100684819D01*
X95694523Y-100684819D02*
X95123095Y-100684819D01*
X95408809Y-100684819D02*
X95408809Y-99684819D01*
X95408809Y-99684819D02*
X95313571Y-99827676D01*
X95313571Y-99827676D02*
X95218333Y-99922914D01*
X95218333Y-99922914D02*
X95123095Y-99970533D01*
X96075476Y-99780057D02*
X96123095Y-99732438D01*
X96123095Y-99732438D02*
X96218333Y-99684819D01*
X96218333Y-99684819D02*
X96456428Y-99684819D01*
X96456428Y-99684819D02*
X96551666Y-99732438D01*
X96551666Y-99732438D02*
X96599285Y-99780057D01*
X96599285Y-99780057D02*
X96646904Y-99875295D01*
X96646904Y-99875295D02*
X96646904Y-99970533D01*
X96646904Y-99970533D02*
X96599285Y-100113390D01*
X96599285Y-100113390D02*
X96027857Y-100684819D01*
X96027857Y-100684819D02*
X96646904Y-100684819D01*
X225091905Y-76794819D02*
X225091905Y-75794819D01*
X225091905Y-75794819D02*
X225330000Y-75794819D01*
X225330000Y-75794819D02*
X225472857Y-75842438D01*
X225472857Y-75842438D02*
X225568095Y-75937676D01*
X225568095Y-75937676D02*
X225615714Y-76032914D01*
X225615714Y-76032914D02*
X225663333Y-76223390D01*
X225663333Y-76223390D02*
X225663333Y-76366247D01*
X225663333Y-76366247D02*
X225615714Y-76556723D01*
X225615714Y-76556723D02*
X225568095Y-76651961D01*
X225568095Y-76651961D02*
X225472857Y-76747200D01*
X225472857Y-76747200D02*
X225330000Y-76794819D01*
X225330000Y-76794819D02*
X225091905Y-76794819D01*
X226615714Y-76794819D02*
X226044286Y-76794819D01*
X226330000Y-76794819D02*
X226330000Y-75794819D01*
X226330000Y-75794819D02*
X226234762Y-75937676D01*
X226234762Y-75937676D02*
X226139524Y-76032914D01*
X226139524Y-76032914D02*
X226044286Y-76080533D01*
X205203333Y-63814819D02*
X204870000Y-63338628D01*
X204631905Y-63814819D02*
X204631905Y-62814819D01*
X204631905Y-62814819D02*
X205012857Y-62814819D01*
X205012857Y-62814819D02*
X205108095Y-62862438D01*
X205108095Y-62862438D02*
X205155714Y-62910057D01*
X205155714Y-62910057D02*
X205203333Y-63005295D01*
X205203333Y-63005295D02*
X205203333Y-63148152D01*
X205203333Y-63148152D02*
X205155714Y-63243390D01*
X205155714Y-63243390D02*
X205108095Y-63291009D01*
X205108095Y-63291009D02*
X205012857Y-63338628D01*
X205012857Y-63338628D02*
X204631905Y-63338628D01*
X205679524Y-63814819D02*
X205870000Y-63814819D01*
X205870000Y-63814819D02*
X205965238Y-63767200D01*
X205965238Y-63767200D02*
X206012857Y-63719580D01*
X206012857Y-63719580D02*
X206108095Y-63576723D01*
X206108095Y-63576723D02*
X206155714Y-63386247D01*
X206155714Y-63386247D02*
X206155714Y-63005295D01*
X206155714Y-63005295D02*
X206108095Y-62910057D01*
X206108095Y-62910057D02*
X206060476Y-62862438D01*
X206060476Y-62862438D02*
X205965238Y-62814819D01*
X205965238Y-62814819D02*
X205774762Y-62814819D01*
X205774762Y-62814819D02*
X205679524Y-62862438D01*
X205679524Y-62862438D02*
X205631905Y-62910057D01*
X205631905Y-62910057D02*
X205584286Y-63005295D01*
X205584286Y-63005295D02*
X205584286Y-63243390D01*
X205584286Y-63243390D02*
X205631905Y-63338628D01*
X205631905Y-63338628D02*
X205679524Y-63386247D01*
X205679524Y-63386247D02*
X205774762Y-63433866D01*
X205774762Y-63433866D02*
X205965238Y-63433866D01*
X205965238Y-63433866D02*
X206060476Y-63386247D01*
X206060476Y-63386247D02*
X206108095Y-63338628D01*
X206108095Y-63338628D02*
X206155714Y-63243390D01*
X52405211Y-67338882D02*
X52281176Y-68042316D01*
X52281176Y-68042316D02*
X52209474Y-68174734D01*
X52209474Y-68174734D02*
X52099145Y-68251988D01*
X52099145Y-68251988D02*
X51950189Y-68274076D01*
X51950189Y-68274076D02*
X51856398Y-68257538D01*
X53216371Y-68497338D02*
X52653623Y-68398111D01*
X52934997Y-68447725D02*
X53108645Y-67462917D01*
X53108645Y-67462917D02*
X52990047Y-67587066D01*
X52990047Y-67587066D02*
X52879718Y-67664319D01*
X52879718Y-67664319D02*
X52777658Y-67694677D01*
X165359642Y-82339580D02*
X165312023Y-82387200D01*
X165312023Y-82387200D02*
X165169166Y-82434819D01*
X165169166Y-82434819D02*
X165073928Y-82434819D01*
X165073928Y-82434819D02*
X164931071Y-82387200D01*
X164931071Y-82387200D02*
X164835833Y-82291961D01*
X164835833Y-82291961D02*
X164788214Y-82196723D01*
X164788214Y-82196723D02*
X164740595Y-82006247D01*
X164740595Y-82006247D02*
X164740595Y-81863390D01*
X164740595Y-81863390D02*
X164788214Y-81672914D01*
X164788214Y-81672914D02*
X164835833Y-81577676D01*
X164835833Y-81577676D02*
X164931071Y-81482438D01*
X164931071Y-81482438D02*
X165073928Y-81434819D01*
X165073928Y-81434819D02*
X165169166Y-81434819D01*
X165169166Y-81434819D02*
X165312023Y-81482438D01*
X165312023Y-81482438D02*
X165359642Y-81530057D01*
X166312023Y-82434819D02*
X165740595Y-82434819D01*
X166026309Y-82434819D02*
X166026309Y-81434819D01*
X166026309Y-81434819D02*
X165931071Y-81577676D01*
X165931071Y-81577676D02*
X165835833Y-81672914D01*
X165835833Y-81672914D02*
X165740595Y-81720533D01*
X166645357Y-81434819D02*
X167264404Y-81434819D01*
X167264404Y-81434819D02*
X166931071Y-81815771D01*
X166931071Y-81815771D02*
X167073928Y-81815771D01*
X167073928Y-81815771D02*
X167169166Y-81863390D01*
X167169166Y-81863390D02*
X167216785Y-81911009D01*
X167216785Y-81911009D02*
X167264404Y-82006247D01*
X167264404Y-82006247D02*
X167264404Y-82244342D01*
X167264404Y-82244342D02*
X167216785Y-82339580D01*
X167216785Y-82339580D02*
X167169166Y-82387200D01*
X167169166Y-82387200D02*
X167073928Y-82434819D01*
X167073928Y-82434819D02*
X166788214Y-82434819D01*
X166788214Y-82434819D02*
X166692976Y-82387200D01*
X166692976Y-82387200D02*
X166645357Y-82339580D01*
X124565714Y-107924819D02*
X124565714Y-106924819D01*
X124565714Y-106924819D02*
X124803809Y-106924819D01*
X124803809Y-106924819D02*
X124946666Y-106972438D01*
X124946666Y-106972438D02*
X125041904Y-107067676D01*
X125041904Y-107067676D02*
X125089523Y-107162914D01*
X125089523Y-107162914D02*
X125137142Y-107353390D01*
X125137142Y-107353390D02*
X125137142Y-107496247D01*
X125137142Y-107496247D02*
X125089523Y-107686723D01*
X125089523Y-107686723D02*
X125041904Y-107781961D01*
X125041904Y-107781961D02*
X124946666Y-107877200D01*
X124946666Y-107877200D02*
X124803809Y-107924819D01*
X124803809Y-107924819D02*
X124565714Y-107924819D01*
X126089523Y-107924819D02*
X125518095Y-107924819D01*
X125803809Y-107924819D02*
X125803809Y-106924819D01*
X125803809Y-106924819D02*
X125708571Y-107067676D01*
X125708571Y-107067676D02*
X125613333Y-107162914D01*
X125613333Y-107162914D02*
X125518095Y-107210533D01*
X126708571Y-106924819D02*
X126803809Y-106924819D01*
X126803809Y-106924819D02*
X126899047Y-106972438D01*
X126899047Y-106972438D02*
X126946666Y-107020057D01*
X126946666Y-107020057D02*
X126994285Y-107115295D01*
X126994285Y-107115295D02*
X127041904Y-107305771D01*
X127041904Y-107305771D02*
X127041904Y-107543866D01*
X127041904Y-107543866D02*
X126994285Y-107734342D01*
X126994285Y-107734342D02*
X126946666Y-107829580D01*
X126946666Y-107829580D02*
X126899047Y-107877200D01*
X126899047Y-107877200D02*
X126803809Y-107924819D01*
X126803809Y-107924819D02*
X126708571Y-107924819D01*
X126708571Y-107924819D02*
X126613333Y-107877200D01*
X126613333Y-107877200D02*
X126565714Y-107829580D01*
X126565714Y-107829580D02*
X126518095Y-107734342D01*
X126518095Y-107734342D02*
X126470476Y-107543866D01*
X126470476Y-107543866D02*
X126470476Y-107305771D01*
X126470476Y-107305771D02*
X126518095Y-107115295D01*
X126518095Y-107115295D02*
X126565714Y-107020057D01*
X126565714Y-107020057D02*
X126613333Y-106972438D01*
X126613333Y-106972438D02*
X126708571Y-106924819D01*
X63645714Y-91314819D02*
X63645714Y-90314819D01*
X63645714Y-90314819D02*
X63883809Y-90314819D01*
X63883809Y-90314819D02*
X64026666Y-90362438D01*
X64026666Y-90362438D02*
X64121904Y-90457676D01*
X64121904Y-90457676D02*
X64169523Y-90552914D01*
X64169523Y-90552914D02*
X64217142Y-90743390D01*
X64217142Y-90743390D02*
X64217142Y-90886247D01*
X64217142Y-90886247D02*
X64169523Y-91076723D01*
X64169523Y-91076723D02*
X64121904Y-91171961D01*
X64121904Y-91171961D02*
X64026666Y-91267200D01*
X64026666Y-91267200D02*
X63883809Y-91314819D01*
X63883809Y-91314819D02*
X63645714Y-91314819D01*
X65169523Y-91314819D02*
X64598095Y-91314819D01*
X64883809Y-91314819D02*
X64883809Y-90314819D01*
X64883809Y-90314819D02*
X64788571Y-90457676D01*
X64788571Y-90457676D02*
X64693333Y-90552914D01*
X64693333Y-90552914D02*
X64598095Y-90600533D01*
X66026666Y-90648152D02*
X66026666Y-91314819D01*
X65788571Y-90267200D02*
X65550476Y-90981485D01*
X65550476Y-90981485D02*
X66169523Y-90981485D01*
X172667142Y-101939580D02*
X172619523Y-101987200D01*
X172619523Y-101987200D02*
X172476666Y-102034819D01*
X172476666Y-102034819D02*
X172381428Y-102034819D01*
X172381428Y-102034819D02*
X172238571Y-101987200D01*
X172238571Y-101987200D02*
X172143333Y-101891961D01*
X172143333Y-101891961D02*
X172095714Y-101796723D01*
X172095714Y-101796723D02*
X172048095Y-101606247D01*
X172048095Y-101606247D02*
X172048095Y-101463390D01*
X172048095Y-101463390D02*
X172095714Y-101272914D01*
X172095714Y-101272914D02*
X172143333Y-101177676D01*
X172143333Y-101177676D02*
X172238571Y-101082438D01*
X172238571Y-101082438D02*
X172381428Y-101034819D01*
X172381428Y-101034819D02*
X172476666Y-101034819D01*
X172476666Y-101034819D02*
X172619523Y-101082438D01*
X172619523Y-101082438D02*
X172667142Y-101130057D01*
X173619523Y-102034819D02*
X173048095Y-102034819D01*
X173333809Y-102034819D02*
X173333809Y-101034819D01*
X173333809Y-101034819D02*
X173238571Y-101177676D01*
X173238571Y-101177676D02*
X173143333Y-101272914D01*
X173143333Y-101272914D02*
X173048095Y-101320533D01*
X174476666Y-101034819D02*
X174286190Y-101034819D01*
X174286190Y-101034819D02*
X174190952Y-101082438D01*
X174190952Y-101082438D02*
X174143333Y-101130057D01*
X174143333Y-101130057D02*
X174048095Y-101272914D01*
X174048095Y-101272914D02*
X174000476Y-101463390D01*
X174000476Y-101463390D02*
X174000476Y-101844342D01*
X174000476Y-101844342D02*
X174048095Y-101939580D01*
X174048095Y-101939580D02*
X174095714Y-101987200D01*
X174095714Y-101987200D02*
X174190952Y-102034819D01*
X174190952Y-102034819D02*
X174381428Y-102034819D01*
X174381428Y-102034819D02*
X174476666Y-101987200D01*
X174476666Y-101987200D02*
X174524285Y-101939580D01*
X174524285Y-101939580D02*
X174571904Y-101844342D01*
X174571904Y-101844342D02*
X174571904Y-101606247D01*
X174571904Y-101606247D02*
X174524285Y-101511009D01*
X174524285Y-101511009D02*
X174476666Y-101463390D01*
X174476666Y-101463390D02*
X174381428Y-101415771D01*
X174381428Y-101415771D02*
X174190952Y-101415771D01*
X174190952Y-101415771D02*
X174095714Y-101463390D01*
X174095714Y-101463390D02*
X174048095Y-101511009D01*
X174048095Y-101511009D02*
X174000476Y-101606247D01*
X164690833Y-111269580D02*
X164643214Y-111317200D01*
X164643214Y-111317200D02*
X164500357Y-111364819D01*
X164500357Y-111364819D02*
X164405119Y-111364819D01*
X164405119Y-111364819D02*
X164262262Y-111317200D01*
X164262262Y-111317200D02*
X164167024Y-111221961D01*
X164167024Y-111221961D02*
X164119405Y-111126723D01*
X164119405Y-111126723D02*
X164071786Y-110936247D01*
X164071786Y-110936247D02*
X164071786Y-110793390D01*
X164071786Y-110793390D02*
X164119405Y-110602914D01*
X164119405Y-110602914D02*
X164167024Y-110507676D01*
X164167024Y-110507676D02*
X164262262Y-110412438D01*
X164262262Y-110412438D02*
X164405119Y-110364819D01*
X164405119Y-110364819D02*
X164500357Y-110364819D01*
X164500357Y-110364819D02*
X164643214Y-110412438D01*
X164643214Y-110412438D02*
X164690833Y-110460057D01*
X165547976Y-110364819D02*
X165357500Y-110364819D01*
X165357500Y-110364819D02*
X165262262Y-110412438D01*
X165262262Y-110412438D02*
X165214643Y-110460057D01*
X165214643Y-110460057D02*
X165119405Y-110602914D01*
X165119405Y-110602914D02*
X165071786Y-110793390D01*
X165071786Y-110793390D02*
X165071786Y-111174342D01*
X165071786Y-111174342D02*
X165119405Y-111269580D01*
X165119405Y-111269580D02*
X165167024Y-111317200D01*
X165167024Y-111317200D02*
X165262262Y-111364819D01*
X165262262Y-111364819D02*
X165452738Y-111364819D01*
X165452738Y-111364819D02*
X165547976Y-111317200D01*
X165547976Y-111317200D02*
X165595595Y-111269580D01*
X165595595Y-111269580D02*
X165643214Y-111174342D01*
X165643214Y-111174342D02*
X165643214Y-110936247D01*
X165643214Y-110936247D02*
X165595595Y-110841009D01*
X165595595Y-110841009D02*
X165547976Y-110793390D01*
X165547976Y-110793390D02*
X165452738Y-110745771D01*
X165452738Y-110745771D02*
X165262262Y-110745771D01*
X165262262Y-110745771D02*
X165167024Y-110793390D01*
X165167024Y-110793390D02*
X165119405Y-110841009D01*
X165119405Y-110841009D02*
X165071786Y-110936247D01*
X122632110Y-66607624D02*
X122840947Y-67290698D01*
X122840947Y-67290698D02*
X122837176Y-67441236D01*
X122837176Y-67441236D02*
X122773944Y-67560157D01*
X122773944Y-67560157D02*
X122651251Y-67647463D01*
X122651251Y-67647463D02*
X122560175Y-67675308D01*
X123594795Y-66661865D02*
X123789710Y-67299402D01*
X123255724Y-66367171D02*
X123236869Y-67119858D01*
X123236869Y-67119858D02*
X123828867Y-66938866D01*
X211710714Y-69954819D02*
X211710714Y-68954819D01*
X211710714Y-68954819D02*
X211948809Y-68954819D01*
X211948809Y-68954819D02*
X212091666Y-69002438D01*
X212091666Y-69002438D02*
X212186904Y-69097676D01*
X212186904Y-69097676D02*
X212234523Y-69192914D01*
X212234523Y-69192914D02*
X212282142Y-69383390D01*
X212282142Y-69383390D02*
X212282142Y-69526247D01*
X212282142Y-69526247D02*
X212234523Y-69716723D01*
X212234523Y-69716723D02*
X212186904Y-69811961D01*
X212186904Y-69811961D02*
X212091666Y-69907200D01*
X212091666Y-69907200D02*
X211948809Y-69954819D01*
X211948809Y-69954819D02*
X211710714Y-69954819D01*
X212663095Y-69050057D02*
X212710714Y-69002438D01*
X212710714Y-69002438D02*
X212805952Y-68954819D01*
X212805952Y-68954819D02*
X213044047Y-68954819D01*
X213044047Y-68954819D02*
X213139285Y-69002438D01*
X213139285Y-69002438D02*
X213186904Y-69050057D01*
X213186904Y-69050057D02*
X213234523Y-69145295D01*
X213234523Y-69145295D02*
X213234523Y-69240533D01*
X213234523Y-69240533D02*
X213186904Y-69383390D01*
X213186904Y-69383390D02*
X212615476Y-69954819D01*
X212615476Y-69954819D02*
X213234523Y-69954819D01*
X214091666Y-69288152D02*
X214091666Y-69954819D01*
X213853571Y-68907200D02*
X213615476Y-69621485D01*
X213615476Y-69621485D02*
X214234523Y-69621485D01*
X129860714Y-54894819D02*
X129860714Y-53894819D01*
X129860714Y-53894819D02*
X130098809Y-53894819D01*
X130098809Y-53894819D02*
X130241666Y-53942438D01*
X130241666Y-53942438D02*
X130336904Y-54037676D01*
X130336904Y-54037676D02*
X130384523Y-54132914D01*
X130384523Y-54132914D02*
X130432142Y-54323390D01*
X130432142Y-54323390D02*
X130432142Y-54466247D01*
X130432142Y-54466247D02*
X130384523Y-54656723D01*
X130384523Y-54656723D02*
X130336904Y-54751961D01*
X130336904Y-54751961D02*
X130241666Y-54847200D01*
X130241666Y-54847200D02*
X130098809Y-54894819D01*
X130098809Y-54894819D02*
X129860714Y-54894819D01*
X131384523Y-54894819D02*
X130813095Y-54894819D01*
X131098809Y-54894819D02*
X131098809Y-53894819D01*
X131098809Y-53894819D02*
X131003571Y-54037676D01*
X131003571Y-54037676D02*
X130908333Y-54132914D01*
X130908333Y-54132914D02*
X130813095Y-54180533D01*
X131860714Y-54894819D02*
X132051190Y-54894819D01*
X132051190Y-54894819D02*
X132146428Y-54847200D01*
X132146428Y-54847200D02*
X132194047Y-54799580D01*
X132194047Y-54799580D02*
X132289285Y-54656723D01*
X132289285Y-54656723D02*
X132336904Y-54466247D01*
X132336904Y-54466247D02*
X132336904Y-54085295D01*
X132336904Y-54085295D02*
X132289285Y-53990057D01*
X132289285Y-53990057D02*
X132241666Y-53942438D01*
X132241666Y-53942438D02*
X132146428Y-53894819D01*
X132146428Y-53894819D02*
X131955952Y-53894819D01*
X131955952Y-53894819D02*
X131860714Y-53942438D01*
X131860714Y-53942438D02*
X131813095Y-53990057D01*
X131813095Y-53990057D02*
X131765476Y-54085295D01*
X131765476Y-54085295D02*
X131765476Y-54323390D01*
X131765476Y-54323390D02*
X131813095Y-54418628D01*
X131813095Y-54418628D02*
X131860714Y-54466247D01*
X131860714Y-54466247D02*
X131955952Y-54513866D01*
X131955952Y-54513866D02*
X132146428Y-54513866D01*
X132146428Y-54513866D02*
X132241666Y-54466247D01*
X132241666Y-54466247D02*
X132289285Y-54418628D01*
X132289285Y-54418628D02*
X132336904Y-54323390D01*
X165999912Y-77903648D02*
X165952293Y-77951268D01*
X165952293Y-77951268D02*
X165809436Y-77998887D01*
X165809436Y-77998887D02*
X165714198Y-77998887D01*
X165714198Y-77998887D02*
X165571341Y-77951268D01*
X165571341Y-77951268D02*
X165476103Y-77856029D01*
X165476103Y-77856029D02*
X165428484Y-77760791D01*
X165428484Y-77760791D02*
X165380865Y-77570315D01*
X165380865Y-77570315D02*
X165380865Y-77427458D01*
X165380865Y-77427458D02*
X165428484Y-77236982D01*
X165428484Y-77236982D02*
X165476103Y-77141744D01*
X165476103Y-77141744D02*
X165571341Y-77046506D01*
X165571341Y-77046506D02*
X165714198Y-76998887D01*
X165714198Y-76998887D02*
X165809436Y-76998887D01*
X165809436Y-76998887D02*
X165952293Y-77046506D01*
X165952293Y-77046506D02*
X165999912Y-77094125D01*
X166952293Y-77998887D02*
X166380865Y-77998887D01*
X166666579Y-77998887D02*
X166666579Y-76998887D01*
X166666579Y-76998887D02*
X166571341Y-77141744D01*
X166571341Y-77141744D02*
X166476103Y-77236982D01*
X166476103Y-77236982D02*
X166380865Y-77284601D01*
X139286905Y-110294819D02*
X139286905Y-109294819D01*
X139286905Y-109294819D02*
X139525000Y-109294819D01*
X139525000Y-109294819D02*
X139667857Y-109342438D01*
X139667857Y-109342438D02*
X139763095Y-109437676D01*
X139763095Y-109437676D02*
X139810714Y-109532914D01*
X139810714Y-109532914D02*
X139858333Y-109723390D01*
X139858333Y-109723390D02*
X139858333Y-109866247D01*
X139858333Y-109866247D02*
X139810714Y-110056723D01*
X139810714Y-110056723D02*
X139763095Y-110151961D01*
X139763095Y-110151961D02*
X139667857Y-110247200D01*
X139667857Y-110247200D02*
X139525000Y-110294819D01*
X139525000Y-110294819D02*
X139286905Y-110294819D01*
X140334524Y-110294819D02*
X140525000Y-110294819D01*
X140525000Y-110294819D02*
X140620238Y-110247200D01*
X140620238Y-110247200D02*
X140667857Y-110199580D01*
X140667857Y-110199580D02*
X140763095Y-110056723D01*
X140763095Y-110056723D02*
X140810714Y-109866247D01*
X140810714Y-109866247D02*
X140810714Y-109485295D01*
X140810714Y-109485295D02*
X140763095Y-109390057D01*
X140763095Y-109390057D02*
X140715476Y-109342438D01*
X140715476Y-109342438D02*
X140620238Y-109294819D01*
X140620238Y-109294819D02*
X140429762Y-109294819D01*
X140429762Y-109294819D02*
X140334524Y-109342438D01*
X140334524Y-109342438D02*
X140286905Y-109390057D01*
X140286905Y-109390057D02*
X140239286Y-109485295D01*
X140239286Y-109485295D02*
X140239286Y-109723390D01*
X140239286Y-109723390D02*
X140286905Y-109818628D01*
X140286905Y-109818628D02*
X140334524Y-109866247D01*
X140334524Y-109866247D02*
X140429762Y-109913866D01*
X140429762Y-109913866D02*
X140620238Y-109913866D01*
X140620238Y-109913866D02*
X140715476Y-109866247D01*
X140715476Y-109866247D02*
X140763095Y-109818628D01*
X140763095Y-109818628D02*
X140810714Y-109723390D01*
X132115595Y-76914819D02*
X132115595Y-77724342D01*
X132115595Y-77724342D02*
X132163214Y-77819580D01*
X132163214Y-77819580D02*
X132210833Y-77867200D01*
X132210833Y-77867200D02*
X132306071Y-77914819D01*
X132306071Y-77914819D02*
X132496547Y-77914819D01*
X132496547Y-77914819D02*
X132591785Y-77867200D01*
X132591785Y-77867200D02*
X132639404Y-77819580D01*
X132639404Y-77819580D02*
X132687023Y-77724342D01*
X132687023Y-77724342D02*
X132687023Y-76914819D01*
X133639404Y-76914819D02*
X133163214Y-76914819D01*
X133163214Y-76914819D02*
X133115595Y-77391009D01*
X133115595Y-77391009D02*
X133163214Y-77343390D01*
X133163214Y-77343390D02*
X133258452Y-77295771D01*
X133258452Y-77295771D02*
X133496547Y-77295771D01*
X133496547Y-77295771D02*
X133591785Y-77343390D01*
X133591785Y-77343390D02*
X133639404Y-77391009D01*
X133639404Y-77391009D02*
X133687023Y-77486247D01*
X133687023Y-77486247D02*
X133687023Y-77724342D01*
X133687023Y-77724342D02*
X133639404Y-77819580D01*
X133639404Y-77819580D02*
X133591785Y-77867200D01*
X133591785Y-77867200D02*
X133496547Y-77914819D01*
X133496547Y-77914819D02*
X133258452Y-77914819D01*
X133258452Y-77914819D02*
X133163214Y-77867200D01*
X133163214Y-77867200D02*
X133115595Y-77819580D01*
X220719642Y-67814819D02*
X220386309Y-67338628D01*
X220148214Y-67814819D02*
X220148214Y-66814819D01*
X220148214Y-66814819D02*
X220529166Y-66814819D01*
X220529166Y-66814819D02*
X220624404Y-66862438D01*
X220624404Y-66862438D02*
X220672023Y-66910057D01*
X220672023Y-66910057D02*
X220719642Y-67005295D01*
X220719642Y-67005295D02*
X220719642Y-67148152D01*
X220719642Y-67148152D02*
X220672023Y-67243390D01*
X220672023Y-67243390D02*
X220624404Y-67291009D01*
X220624404Y-67291009D02*
X220529166Y-67338628D01*
X220529166Y-67338628D02*
X220148214Y-67338628D01*
X221672023Y-67814819D02*
X221100595Y-67814819D01*
X221386309Y-67814819D02*
X221386309Y-66814819D01*
X221386309Y-66814819D02*
X221291071Y-66957676D01*
X221291071Y-66957676D02*
X221195833Y-67052914D01*
X221195833Y-67052914D02*
X221100595Y-67100533D01*
X222529166Y-67148152D02*
X222529166Y-67814819D01*
X222291071Y-66767200D02*
X222052976Y-67481485D01*
X222052976Y-67481485D02*
X222672023Y-67481485D01*
X88425714Y-66254819D02*
X88425714Y-65254819D01*
X88425714Y-65254819D02*
X88663809Y-65254819D01*
X88663809Y-65254819D02*
X88806666Y-65302438D01*
X88806666Y-65302438D02*
X88901904Y-65397676D01*
X88901904Y-65397676D02*
X88949523Y-65492914D01*
X88949523Y-65492914D02*
X88997142Y-65683390D01*
X88997142Y-65683390D02*
X88997142Y-65826247D01*
X88997142Y-65826247D02*
X88949523Y-66016723D01*
X88949523Y-66016723D02*
X88901904Y-66111961D01*
X88901904Y-66111961D02*
X88806666Y-66207200D01*
X88806666Y-66207200D02*
X88663809Y-66254819D01*
X88663809Y-66254819D02*
X88425714Y-66254819D01*
X89949523Y-66254819D02*
X89378095Y-66254819D01*
X89663809Y-66254819D02*
X89663809Y-65254819D01*
X89663809Y-65254819D02*
X89568571Y-65397676D01*
X89568571Y-65397676D02*
X89473333Y-65492914D01*
X89473333Y-65492914D02*
X89378095Y-65540533D01*
X90282857Y-65254819D02*
X90949523Y-65254819D01*
X90949523Y-65254819D02*
X90520952Y-66254819D01*
X96193307Y-85749635D02*
X95489873Y-85873670D01*
X95489873Y-85873670D02*
X95340917Y-85851581D01*
X95340917Y-85851581D02*
X95230588Y-85774328D01*
X95230588Y-85774328D02*
X95158886Y-85641910D01*
X95158886Y-85641910D02*
X95142348Y-85548119D01*
X96173937Y-86188234D02*
X96229101Y-86226861D01*
X96229101Y-86226861D02*
X96292535Y-86312383D01*
X96292535Y-86312383D02*
X96333880Y-86546861D01*
X96333880Y-86546861D02*
X96303522Y-86648921D01*
X96303522Y-86648921D02*
X96264895Y-86704086D01*
X96264895Y-86704086D02*
X96179373Y-86767519D01*
X96179373Y-86767519D02*
X96085582Y-86784057D01*
X96085582Y-86784057D02*
X95936626Y-86761968D01*
X95936626Y-86761968D02*
X95274651Y-86298449D01*
X95274651Y-86298449D02*
X95382148Y-86908092D01*
X194835833Y-54434819D02*
X194502500Y-53958628D01*
X194264405Y-54434819D02*
X194264405Y-53434819D01*
X194264405Y-53434819D02*
X194645357Y-53434819D01*
X194645357Y-53434819D02*
X194740595Y-53482438D01*
X194740595Y-53482438D02*
X194788214Y-53530057D01*
X194788214Y-53530057D02*
X194835833Y-53625295D01*
X194835833Y-53625295D02*
X194835833Y-53768152D01*
X194835833Y-53768152D02*
X194788214Y-53863390D01*
X194788214Y-53863390D02*
X194740595Y-53911009D01*
X194740595Y-53911009D02*
X194645357Y-53958628D01*
X194645357Y-53958628D02*
X194264405Y-53958628D01*
X195169167Y-53434819D02*
X195835833Y-53434819D01*
X195835833Y-53434819D02*
X195407262Y-54434819D01*
X232174405Y-82274819D02*
X232174405Y-81274819D01*
X232174405Y-81274819D02*
X232412500Y-81274819D01*
X232412500Y-81274819D02*
X232555357Y-81322438D01*
X232555357Y-81322438D02*
X232650595Y-81417676D01*
X232650595Y-81417676D02*
X232698214Y-81512914D01*
X232698214Y-81512914D02*
X232745833Y-81703390D01*
X232745833Y-81703390D02*
X232745833Y-81846247D01*
X232745833Y-81846247D02*
X232698214Y-82036723D01*
X232698214Y-82036723D02*
X232650595Y-82131961D01*
X232650595Y-82131961D02*
X232555357Y-82227200D01*
X232555357Y-82227200D02*
X232412500Y-82274819D01*
X232412500Y-82274819D02*
X232174405Y-82274819D01*
X233126786Y-81370057D02*
X233174405Y-81322438D01*
X233174405Y-81322438D02*
X233269643Y-81274819D01*
X233269643Y-81274819D02*
X233507738Y-81274819D01*
X233507738Y-81274819D02*
X233602976Y-81322438D01*
X233602976Y-81322438D02*
X233650595Y-81370057D01*
X233650595Y-81370057D02*
X233698214Y-81465295D01*
X233698214Y-81465295D02*
X233698214Y-81560533D01*
X233698214Y-81560533D02*
X233650595Y-81703390D01*
X233650595Y-81703390D02*
X233079167Y-82274819D01*
X233079167Y-82274819D02*
X233698214Y-82274819D01*
X204360595Y-81554819D02*
X204360595Y-82364342D01*
X204360595Y-82364342D02*
X204408214Y-82459580D01*
X204408214Y-82459580D02*
X204455833Y-82507200D01*
X204455833Y-82507200D02*
X204551071Y-82554819D01*
X204551071Y-82554819D02*
X204741547Y-82554819D01*
X204741547Y-82554819D02*
X204836785Y-82507200D01*
X204836785Y-82507200D02*
X204884404Y-82459580D01*
X204884404Y-82459580D02*
X204932023Y-82364342D01*
X204932023Y-82364342D02*
X204932023Y-81554819D01*
X205836785Y-81888152D02*
X205836785Y-82554819D01*
X205598690Y-81507200D02*
X205360595Y-82221485D01*
X205360595Y-82221485D02*
X205979642Y-82221485D01*
X156998333Y-93349580D02*
X156950714Y-93397200D01*
X156950714Y-93397200D02*
X156807857Y-93444819D01*
X156807857Y-93444819D02*
X156712619Y-93444819D01*
X156712619Y-93444819D02*
X156569762Y-93397200D01*
X156569762Y-93397200D02*
X156474524Y-93301961D01*
X156474524Y-93301961D02*
X156426905Y-93206723D01*
X156426905Y-93206723D02*
X156379286Y-93016247D01*
X156379286Y-93016247D02*
X156379286Y-92873390D01*
X156379286Y-92873390D02*
X156426905Y-92682914D01*
X156426905Y-92682914D02*
X156474524Y-92587676D01*
X156474524Y-92587676D02*
X156569762Y-92492438D01*
X156569762Y-92492438D02*
X156712619Y-92444819D01*
X156712619Y-92444819D02*
X156807857Y-92444819D01*
X156807857Y-92444819D02*
X156950714Y-92492438D01*
X156950714Y-92492438D02*
X156998333Y-92540057D01*
X157855476Y-92778152D02*
X157855476Y-93444819D01*
X157617381Y-92397200D02*
X157379286Y-93111485D01*
X157379286Y-93111485D02*
X157998333Y-93111485D01*
X197267142Y-71754819D02*
X196933809Y-71278628D01*
X196695714Y-71754819D02*
X196695714Y-70754819D01*
X196695714Y-70754819D02*
X197076666Y-70754819D01*
X197076666Y-70754819D02*
X197171904Y-70802438D01*
X197171904Y-70802438D02*
X197219523Y-70850057D01*
X197219523Y-70850057D02*
X197267142Y-70945295D01*
X197267142Y-70945295D02*
X197267142Y-71088152D01*
X197267142Y-71088152D02*
X197219523Y-71183390D01*
X197219523Y-71183390D02*
X197171904Y-71231009D01*
X197171904Y-71231009D02*
X197076666Y-71278628D01*
X197076666Y-71278628D02*
X196695714Y-71278628D01*
X198219523Y-71754819D02*
X197648095Y-71754819D01*
X197933809Y-71754819D02*
X197933809Y-70754819D01*
X197933809Y-70754819D02*
X197838571Y-70897676D01*
X197838571Y-70897676D02*
X197743333Y-70992914D01*
X197743333Y-70992914D02*
X197648095Y-71040533D01*
X198600476Y-70850057D02*
X198648095Y-70802438D01*
X198648095Y-70802438D02*
X198743333Y-70754819D01*
X198743333Y-70754819D02*
X198981428Y-70754819D01*
X198981428Y-70754819D02*
X199076666Y-70802438D01*
X199076666Y-70802438D02*
X199124285Y-70850057D01*
X199124285Y-70850057D02*
X199171904Y-70945295D01*
X199171904Y-70945295D02*
X199171904Y-71040533D01*
X199171904Y-71040533D02*
X199124285Y-71183390D01*
X199124285Y-71183390D02*
X198552857Y-71754819D01*
X198552857Y-71754819D02*
X199171904Y-71754819D01*
D11*
%TO.C,D15*%
X65675000Y-61055000D02*
X65675000Y-61520000D01*
X65675000Y-63680000D02*
X65675000Y-64145000D01*
X65675000Y-61055170D02*
G75*
G02*
X71023136Y-61520000I2560000J-1544830D01*
G01*
X65980316Y-61520000D02*
G75*
G02*
X70489684Y-61520000I2254684J-1080000D01*
G01*
X70489684Y-63680000D02*
G75*
G02*
X65980316Y-63680000I-2254684J1080000D01*
G01*
X71023136Y-63680000D02*
G75*
G02*
X65675000Y-64144830I-2788136J1080000D01*
G01*
%TO.C,U3*%
X173050000Y-71145000D02*
X173725000Y-71145000D01*
X173050000Y-71320000D02*
X173050000Y-71145000D01*
X173050000Y-74365000D02*
X173050000Y-74190000D01*
X173725000Y-74365000D02*
X173050000Y-74365000D01*
X175595000Y-71145000D02*
X176270000Y-71145000D01*
X176270000Y-71145000D02*
X176270000Y-71320000D01*
X176270000Y-74190000D02*
X176270000Y-74365000D01*
X176270000Y-74365000D02*
X175595000Y-74365000D01*
X172900000Y-71755000D02*
X172570000Y-71995000D01*
X172570000Y-71515000D01*
X172900000Y-71755000D01*
G36*
X172900000Y-71755000D02*
G01*
X172570000Y-71995000D01*
X172570000Y-71515000D01*
X172900000Y-71755000D01*
G37*
%TO.C,D7*%
X50535000Y-71605000D02*
X50535000Y-72070000D01*
X50535000Y-74230000D02*
X50535000Y-74695000D01*
X50535000Y-71605170D02*
G75*
G02*
X55883136Y-72070000I2560000J-1544830D01*
G01*
X50840316Y-72070000D02*
G75*
G02*
X55349684Y-72070000I2254684J-1080000D01*
G01*
X55349684Y-74230000D02*
G75*
G02*
X50840316Y-74230000I-2254684J1080000D01*
G01*
X55883136Y-74230000D02*
G75*
G02*
X50535000Y-74694830I-2788136J1080000D01*
G01*
%TO.C,D8*%
X153030000Y-112005000D02*
X153030000Y-112470000D01*
X153030000Y-114630000D02*
X153030000Y-115095000D01*
X153030000Y-112005170D02*
G75*
G02*
X158378136Y-112470000I2560000J-1544830D01*
G01*
X153335316Y-112470000D02*
G75*
G02*
X157844684Y-112470000I2254684J-1080000D01*
G01*
X157844684Y-114630000D02*
G75*
G02*
X153335316Y-114630000I-2254684J1080000D01*
G01*
X158378136Y-114630000D02*
G75*
G02*
X153030000Y-115094830I-2788136J1080000D01*
G01*
%TO.C,D13*%
X76525000Y-98975000D02*
X76525000Y-99440000D01*
X76525000Y-101600000D02*
X76525000Y-102065000D01*
X76525000Y-98975170D02*
G75*
G02*
X81873136Y-99440000I2560000J-1544830D01*
G01*
X76830316Y-99440000D02*
G75*
G02*
X81339684Y-99440000I2254684J-1080000D01*
G01*
X81339684Y-101600000D02*
G75*
G02*
X76830316Y-101600000I-2254684J1080000D01*
G01*
X81873136Y-101600000D02*
G75*
G02*
X76525000Y-102064830I-2788136J1080000D01*
G01*
%TO.C,Y1*%
X116220000Y-84580000D02*
X116220000Y-90300000D01*
X116220000Y-90300000D02*
X124740000Y-90300000D01*
D12*
%TO.C,D6*%
X106327500Y-87500000D02*
G75*
G02*
X106227500Y-87500000I-50000J0D01*
G01*
X106227500Y-87500000D02*
G75*
G02*
X106327500Y-87500000I50000J0D01*
G01*
D11*
%TO.C,A1*%
X133871532Y-86265092D02*
X150823587Y-92435135D01*
X137293705Y-84669306D02*
X134784726Y-83756113D01*
X137293705Y-84669306D02*
X150324674Y-48867018D01*
X148728887Y-45444845D02*
X133871532Y-86265092D01*
X148728887Y-45444845D02*
X153502527Y-47182306D01*
X149227803Y-89012962D02*
X151736781Y-89926155D01*
X150096533Y-86626144D02*
X149227803Y-89012962D01*
X150096533Y-86626144D02*
X152605511Y-87539336D01*
X150096533Y-86626144D02*
X162258769Y-53210672D01*
X150324674Y-48867018D02*
X147815693Y-47953825D01*
X150807407Y-54587084D02*
X154371257Y-44795487D01*
X150823587Y-92435135D02*
X151736781Y-89926155D01*
X152605511Y-87539336D02*
X165680943Y-51614887D01*
X154371257Y-44795487D02*
X161776034Y-47490605D01*
X158212184Y-57282202D02*
X150807407Y-54587084D01*
X161776034Y-47490605D02*
X158212184Y-57282202D01*
X162258769Y-53210672D02*
X164767748Y-54123868D01*
X165680943Y-51614887D02*
X160907304Y-49877425D01*
%TO.C,D26*%
X239450000Y-65865000D02*
X239450000Y-66330000D01*
X239450000Y-68490000D02*
X239450000Y-68955000D01*
X239450000Y-65865170D02*
G75*
G02*
X244798136Y-66330000I2560000J-1544830D01*
G01*
X239755316Y-66330000D02*
G75*
G02*
X244264684Y-66330000I2254684J-1080000D01*
G01*
X244264684Y-68490000D02*
G75*
G02*
X239755316Y-68490000I-2254684J1080000D01*
G01*
X244798136Y-68490000D02*
G75*
G02*
X239450000Y-68954830I-2788136J1080000D01*
G01*
D12*
%TO.C,D3*%
X103892500Y-85210000D02*
G75*
G02*
X103792500Y-85210000I-50000J0D01*
G01*
X103792500Y-85210000D02*
G75*
G02*
X103892500Y-85210000I50000J0D01*
G01*
D11*
%TO.C,D22*%
X240465000Y-96545000D02*
X240465000Y-97010000D01*
X240465000Y-99170000D02*
X240465000Y-99635000D01*
X240465000Y-96545170D02*
G75*
G02*
X245813136Y-97010000I2560000J-1544830D01*
G01*
X240770316Y-97010000D02*
G75*
G02*
X245279684Y-97010000I2254684J-1080000D01*
G01*
X245279684Y-99170000D02*
G75*
G02*
X240770316Y-99170000I-2254684J1080000D01*
G01*
X245813136Y-99170000D02*
G75*
G02*
X240465000Y-99634830I-2788136J1080000D01*
G01*
D12*
%TO.C,D5*%
X108545000Y-84310000D02*
G75*
G02*
X108445000Y-84310000I-50000J0D01*
G01*
X108445000Y-84310000D02*
G75*
G02*
X108545000Y-84310000I50000J0D01*
G01*
D11*
%TO.C,D23*%
X216195000Y-80795000D02*
X216195000Y-81260000D01*
X216195000Y-83420000D02*
X216195000Y-83885000D01*
X216195000Y-80795170D02*
G75*
G02*
X221543136Y-81260000I2560000J-1544830D01*
G01*
X216500316Y-81260000D02*
G75*
G02*
X221009684Y-81260000I2254684J-1080000D01*
G01*
X221009684Y-83420000D02*
G75*
G02*
X216500316Y-83420000I-2254684J1080000D01*
G01*
X221543136Y-83420000D02*
G75*
G02*
X216195000Y-83884830I-2788136J1080000D01*
G01*
%TO.C,D20*%
X195895000Y-63435000D02*
X195895000Y-63900000D01*
X195895000Y-66060000D02*
X195895000Y-66525000D01*
X195895000Y-63435170D02*
G75*
G02*
X201243136Y-63900000I2560000J-1544830D01*
G01*
X196200316Y-63900000D02*
G75*
G02*
X200709684Y-63900000I2254684J-1080000D01*
G01*
X200709684Y-66060000D02*
G75*
G02*
X196200316Y-66060000I-2254684J1080000D01*
G01*
X201243136Y-66060000D02*
G75*
G02*
X195895000Y-66524830I-2788136J1080000D01*
G01*
%TO.C,U2*%
X115180000Y-73295000D02*
X119300000Y-73295000D01*
X115180000Y-73415000D02*
X115180000Y-73295000D01*
X115180000Y-78415000D02*
X115180000Y-78295000D01*
X119300000Y-73295000D02*
X119300000Y-73415000D01*
X119300000Y-78295000D02*
X119300000Y-78415000D01*
X119300000Y-78415000D02*
X115180000Y-78415000D01*
X114580000Y-73405000D02*
X114340000Y-73075000D01*
X114820000Y-73075000D01*
X114580000Y-73405000D01*
G36*
X114580000Y-73405000D02*
G01*
X114340000Y-73075000D01*
X114820000Y-73075000D01*
X114580000Y-73405000D01*
G37*
%TO.C,D25*%
X209115000Y-62405000D02*
X209115000Y-62870000D01*
X209115000Y-65030000D02*
X209115000Y-65495000D01*
X209115000Y-62405170D02*
G75*
G02*
X214463136Y-62870000I2560000J-1544830D01*
G01*
X209420316Y-62870000D02*
G75*
G02*
X213929684Y-62870000I2254684J-1080000D01*
G01*
X213929684Y-65030000D02*
G75*
G02*
X209420316Y-65030000I-2254684J1080000D01*
G01*
X214463136Y-65030000D02*
G75*
G02*
X209115000Y-65494830I-2788136J1080000D01*
G01*
%TO.C,D21*%
X223880000Y-86755000D02*
X223880000Y-87220000D01*
X223880000Y-89380000D02*
X223880000Y-89845000D01*
X223880000Y-86755170D02*
G75*
G02*
X229228136Y-87220000I2560000J-1544830D01*
G01*
X224185316Y-87220000D02*
G75*
G02*
X228694684Y-87220000I2254684J-1080000D01*
G01*
X228694684Y-89380000D02*
G75*
G02*
X224185316Y-89380000I-2254684J1080000D01*
G01*
X229228136Y-89380000D02*
G75*
G02*
X223880000Y-89844830I-2788136J1080000D01*
G01*
%TO.C,D11*%
X107670000Y-106465000D02*
X107670000Y-106930000D01*
X107670000Y-109090000D02*
X107670000Y-109555000D01*
X107670000Y-106465170D02*
G75*
G02*
X113018136Y-106930000I2560000J-1544830D01*
G01*
X107975316Y-106930000D02*
G75*
G02*
X112484684Y-106930000I2254684J-1080000D01*
G01*
X112484684Y-109090000D02*
G75*
G02*
X107975316Y-109090000I-2254684J1080000D01*
G01*
X113018136Y-109090000D02*
G75*
G02*
X107670000Y-109554830I-2788136J1080000D01*
G01*
D12*
%TO.C,D4*%
X106130000Y-82260000D02*
G75*
G02*
X106030000Y-82260000I-50000J0D01*
G01*
X106030000Y-82260000D02*
G75*
G02*
X106130000Y-82260000I50000J0D01*
G01*
D13*
%TO.C,U1*%
X168590000Y-56580000D02*
X168590000Y-56685000D01*
X168590000Y-56580000D02*
X168695000Y-56580000D01*
X168590000Y-63580000D02*
X168590000Y-63475000D01*
X168590000Y-63580000D02*
X168695000Y-63580000D01*
X175590000Y-56580000D02*
X175485000Y-56580000D01*
X175590000Y-56580000D02*
X175590000Y-56685000D01*
X175590000Y-63580000D02*
X175485000Y-63580000D01*
X175590000Y-63580000D02*
X175590000Y-63475000D01*
D14*
X166350000Y-57280000D02*
G75*
G02*
X166150000Y-57280000I-100000J0D01*
G01*
X166150000Y-57280000D02*
G75*
G02*
X166350000Y-57280000I100000J0D01*
G01*
D11*
%TO.C,J3*%
X95284228Y-64917877D02*
X97570575Y-72396180D01*
X96671780Y-66856924D02*
X97628086Y-66564552D01*
X97102781Y-70866092D02*
X97982581Y-70597110D01*
X97139576Y-68387011D02*
X96671780Y-66856924D01*
X97570575Y-72396180D02*
X98450376Y-72127198D01*
X97628086Y-66564552D02*
X98095879Y-68094639D01*
X97982581Y-70597110D02*
X98250347Y-70515247D01*
X98095879Y-68094639D02*
X97139576Y-68387011D01*
X98450376Y-72127198D02*
X97982581Y-70597110D01*
X99007111Y-68338894D02*
X97732369Y-64169405D01*
X100601284Y-63292292D02*
X101876025Y-67461780D01*
X101876025Y-67461780D02*
X99007111Y-68338894D01*
X102027087Y-65219641D02*
X101366328Y-63058393D01*
X102027087Y-65219641D02*
X102494881Y-66749730D01*
X102494881Y-66749730D02*
X103451186Y-66457359D01*
X102505241Y-65073456D02*
X101844480Y-62912208D01*
X102983391Y-64927270D02*
X102027087Y-65219641D01*
X103049424Y-62543819D02*
X95284228Y-64917877D01*
X103451186Y-66457359D02*
X102983391Y-64927270D01*
X103720410Y-68842880D02*
X103988176Y-68761018D01*
X103720410Y-68842880D02*
X104075642Y-70004791D01*
X103988176Y-68761018D02*
X104455971Y-70291104D01*
X104455971Y-70291104D02*
X105335770Y-70022121D01*
X104867975Y-68492034D02*
X103988176Y-68761018D01*
X105335770Y-70022121D02*
X103049424Y-62543819D01*
%TO.C,D16*%
X76245000Y-70835000D02*
X76245000Y-71300000D01*
X76245000Y-73460000D02*
X76245000Y-73925000D01*
X76245000Y-70835170D02*
G75*
G02*
X81593136Y-71300000I2560000J-1544830D01*
G01*
X76550316Y-71300000D02*
G75*
G02*
X81059684Y-71300000I2254684J-1080000D01*
G01*
X81059684Y-73460000D02*
G75*
G02*
X76550316Y-73460000I-2254684J1080000D01*
G01*
X81593136Y-73460000D02*
G75*
G02*
X76245000Y-73924830I-2788136J1080000D01*
G01*
%TO.C,D18*%
X109050000Y-62205000D02*
X109050000Y-62670000D01*
X109050000Y-64830000D02*
X109050000Y-65295000D01*
X109050000Y-62205170D02*
G75*
G02*
X114398136Y-62670000I2560000J-1544830D01*
G01*
X109355316Y-62670000D02*
G75*
G02*
X113864684Y-62670000I2254684J-1080000D01*
G01*
X113864684Y-64830000D02*
G75*
G02*
X109355316Y-64830000I-2254684J1080000D01*
G01*
X114398136Y-64830000D02*
G75*
G02*
X109050000Y-65294830I-2788136J1080000D01*
G01*
%TO.C,D12*%
X92825000Y-102645000D02*
X92825000Y-103110000D01*
X92825000Y-105270000D02*
X92825000Y-105735000D01*
X92825000Y-102645170D02*
G75*
G02*
X98173136Y-103110000I2560000J-1544830D01*
G01*
X93130316Y-103110000D02*
G75*
G02*
X97639684Y-103110000I2254684J-1080000D01*
G01*
X97639684Y-105270000D02*
G75*
G02*
X93130316Y-105270000I-2254684J1080000D01*
G01*
X98173136Y-105270000D02*
G75*
G02*
X92825000Y-105734830I-2788136J1080000D01*
G01*
D12*
%TO.C,D1*%
X224845000Y-77390000D02*
G75*
G02*
X224745000Y-77390000I-50000J0D01*
G01*
X224745000Y-77390000D02*
G75*
G02*
X224845000Y-77390000I50000J0D01*
G01*
D11*
%TO.C,J1*%
X45727362Y-65811257D02*
X48418909Y-50546738D01*
X48418909Y-50546738D02*
X57400358Y-52130410D01*
X54708810Y-67394931D02*
X45727362Y-65811257D01*
X55698604Y-61781524D02*
X46717159Y-60197854D01*
X56410564Y-57743814D02*
X47429116Y-56160142D01*
X57400358Y-52130410D02*
X54708810Y-67394931D01*
X61148134Y-63239985D02*
X62046120Y-63906037D01*
X62046120Y-63906037D02*
X62219767Y-62921227D01*
X62219767Y-62921227D02*
X61148134Y-63239985D01*
%TO.C,D10*%
X123220000Y-109885000D02*
X123220000Y-110350000D01*
X123220000Y-112510000D02*
X123220000Y-112975000D01*
X123220000Y-109885170D02*
G75*
G02*
X128568136Y-110350000I2560000J-1544830D01*
G01*
X123525316Y-110350000D02*
G75*
G02*
X128034684Y-110350000I2254684J-1080000D01*
G01*
X128034684Y-112510000D02*
G75*
G02*
X123525316Y-112510000I-2254684J1080000D01*
G01*
X128568136Y-112510000D02*
G75*
G02*
X123220000Y-112974830I-2788136J1080000D01*
G01*
%TO.C,D14*%
X62300000Y-93275000D02*
X62300000Y-93740000D01*
X62300000Y-95900000D02*
X62300000Y-96365000D01*
X62300000Y-93275170D02*
G75*
G02*
X67648136Y-93740000I2560000J-1544830D01*
G01*
X62605316Y-93740000D02*
G75*
G02*
X67114684Y-93740000I2254684J-1080000D01*
G01*
X67114684Y-95900000D02*
G75*
G02*
X62605316Y-95900000I-2254684J1080000D01*
G01*
X67648136Y-95900000D02*
G75*
G02*
X62300000Y-96364830I-2788136J1080000D01*
G01*
%TO.C,J4*%
X116622644Y-59697880D02*
X118908991Y-67176183D01*
X118010196Y-61636927D02*
X118966501Y-61344555D01*
X118441196Y-65646097D02*
X119320997Y-65377112D01*
X118477991Y-63167014D02*
X118010196Y-61636927D01*
X118908991Y-67176183D02*
X119788792Y-66907202D01*
X118966501Y-61344555D02*
X119434294Y-62874642D01*
X119320997Y-65377112D02*
X119588762Y-65295251D01*
X119434294Y-62874642D02*
X118477991Y-63167014D01*
X119788792Y-66907202D02*
X119320997Y-65377112D01*
X120345525Y-63118897D02*
X119070784Y-58949409D01*
X121939698Y-58072294D02*
X123214440Y-62241783D01*
X123214440Y-62241783D02*
X120345525Y-63118897D01*
X123365503Y-59999645D02*
X122704743Y-57838396D01*
X123365503Y-59999645D02*
X123833298Y-61529732D01*
X123833298Y-61529732D02*
X124789603Y-61237361D01*
X123843655Y-59853460D02*
X123182896Y-57692211D01*
X124321807Y-59707273D02*
X123365503Y-59999645D01*
X124387839Y-57323823D02*
X116622644Y-59697880D01*
X124789603Y-61237361D02*
X124321807Y-59707273D01*
X125058826Y-63622884D02*
X125326591Y-63541021D01*
X125058826Y-63622884D02*
X125414057Y-64784794D01*
X125326591Y-63541021D02*
X125794385Y-65071107D01*
X125794385Y-65071107D02*
X126674185Y-64802124D01*
X126206391Y-63272038D02*
X125326591Y-63541021D01*
X126674185Y-64802124D02*
X124387839Y-57323823D01*
%TO.C,D24*%
X210365000Y-71915000D02*
X210365000Y-72380000D01*
X210365000Y-74540000D02*
X210365000Y-75005000D01*
X210365000Y-71915170D02*
G75*
G02*
X215713136Y-72380000I2560000J-1544830D01*
G01*
X210670316Y-72380000D02*
G75*
G02*
X215179684Y-72380000I2254684J-1080000D01*
G01*
X215179684Y-74540000D02*
G75*
G02*
X210670316Y-74540000I-2254684J1080000D01*
G01*
X215713136Y-74540000D02*
G75*
G02*
X210365000Y-75004830I-2788136J1080000D01*
G01*
%TO.C,D19*%
X128515000Y-56855000D02*
X128515000Y-57320000D01*
X128515000Y-59480000D02*
X128515000Y-59945000D01*
X128515000Y-56855170D02*
G75*
G02*
X133863136Y-57320000I2560000J-1544830D01*
G01*
X128820316Y-57320000D02*
G75*
G02*
X133329684Y-57320000I2254684J-1080000D01*
G01*
X133329684Y-59480000D02*
G75*
G02*
X128820316Y-59480000I-2254684J1080000D01*
G01*
X133863136Y-59480000D02*
G75*
G02*
X128515000Y-59944830I-2788136J1080000D01*
G01*
%TO.C,D9*%
X137465000Y-112255000D02*
X137465000Y-112720000D01*
X137465000Y-114880000D02*
X137465000Y-115345000D01*
X137465000Y-112255170D02*
G75*
G02*
X142813136Y-112720000I2560000J-1544830D01*
G01*
X137770316Y-112720000D02*
G75*
G02*
X142279684Y-112720000I2254684J-1080000D01*
G01*
X142279684Y-114880000D02*
G75*
G02*
X137770316Y-114880000I-2254684J1080000D01*
G01*
X142813136Y-114880000D02*
G75*
G02*
X137465000Y-115344830I-2788136J1080000D01*
G01*
%TO.C,U5*%
X131967500Y-78300000D02*
X133787500Y-78300000D01*
X131967500Y-78350000D02*
X131967500Y-78300000D01*
X131967500Y-80250000D02*
X131967500Y-79470000D01*
X131967500Y-81420000D02*
X131967500Y-81370000D01*
X133787500Y-78300000D02*
X133787500Y-79300000D01*
X133787500Y-80420000D02*
X133787500Y-81420000D01*
X133787500Y-81420000D02*
X131967500Y-81420000D01*
X131667500Y-79810000D02*
X131187500Y-79810000D01*
X131427500Y-79480000D01*
X131667500Y-79810000D01*
G36*
X131667500Y-79810000D02*
G01*
X131187500Y-79810000D01*
X131427500Y-79480000D01*
X131667500Y-79810000D01*
G37*
%TO.C,D17*%
X87080000Y-68215000D02*
X87080000Y-68680000D01*
X87080000Y-70840000D02*
X87080000Y-71305000D01*
X87080000Y-68215170D02*
G75*
G02*
X92428136Y-68680000I2560000J-1544830D01*
G01*
X87385316Y-68680000D02*
G75*
G02*
X91894684Y-68680000I2254684J-1080000D01*
G01*
X91894684Y-70840000D02*
G75*
G02*
X87385316Y-70840000I-2254684J1080000D01*
G01*
X92428136Y-70840000D02*
G75*
G02*
X87080000Y-71304830I-2788136J1080000D01*
G01*
%TO.C,J2*%
X85661195Y-83406251D02*
X87099014Y-83152724D01*
X87213610Y-92210432D02*
X85661195Y-83406251D01*
X87213610Y-92210432D02*
X88651429Y-91956905D01*
X91087486Y-82449449D02*
X89314832Y-82762016D01*
X92639902Y-91253630D02*
X90867247Y-91566197D01*
D12*
%TO.C,D2*%
X231927500Y-82870000D02*
G75*
G02*
X231827500Y-82870000I-50000J0D01*
G01*
X231827500Y-82870000D02*
G75*
G02*
X231927500Y-82870000I50000J0D01*
G01*
D11*
%TO.C,U4*%
X204212500Y-82940000D02*
X206032500Y-82940000D01*
X204212500Y-82990000D02*
X204212500Y-82940000D01*
X204212500Y-86060000D02*
X204212500Y-86010000D01*
X206032500Y-82940000D02*
X206032500Y-82990000D01*
X206032500Y-86010000D02*
X206032500Y-86060000D01*
X206032500Y-86060000D02*
X204212500Y-86060000D01*
X203672500Y-82990000D02*
X203432500Y-82660000D01*
X203912500Y-82660000D01*
X203672500Y-82990000D01*
G36*
X203672500Y-82990000D02*
G01*
X203432500Y-82660000D01*
X203912500Y-82660000D01*
X203672500Y-82990000D01*
G37*
%TD*%
M02*
