%TF.GenerationSoftware,KiCad,Pcbnew,9.0.6*%
%TF.CreationDate,2025-11-25T23:45:01-06:00*%
%TF.ProjectId,1745LightUpBoard,31373435-4c69-4676-9874-5570426f6172,rev?*%
%TF.SameCoordinates,Original*%
%TF.FileFunction,Soldermask,Bot*%
%TF.FilePolarity,Negative*%
%FSLAX46Y46*%
G04 Gerber Fmt 4.6, Leading zero omitted, Abs format (unit mm)*
G04 Created by KiCad (PCBNEW 9.0.6) date 2025-11-25 23:45:01*
%MOMM*%
%LPD*%
G01*
G04 APERTURE LIST*
G04 Aperture macros list*
%AMRoundRect*
0 Rectangle with rounded corners*
0 $1 Rounding radius*
0 $2 $3 $4 $5 $6 $7 $8 $9 X,Y pos of 4 corners*
0 Add a 4 corners polygon primitive as box body*
4,1,4,$2,$3,$4,$5,$6,$7,$8,$9,$2,$3,0*
0 Add four circle primitives for the rounded corners*
1,1,$1+$1,$2,$3*
1,1,$1+$1,$4,$5*
1,1,$1+$1,$6,$7*
1,1,$1+$1,$8,$9*
0 Add four rect primitives between the rounded corners*
20,1,$1+$1,$2,$3,$4,$5,0*
20,1,$1+$1,$4,$5,$6,$7,0*
20,1,$1+$1,$6,$7,$8,$9,0*
20,1,$1+$1,$8,$9,$2,$3,0*%
%AMHorizOval*
0 Thick line with rounded ends*
0 $1 width*
0 $2 $3 position (X,Y) of the first rounded end (center of the circle)*
0 $4 $5 position (X,Y) of the second rounded end (center of the circle)*
0 Add line between two ends*
20,1,$1,$2,$3,$4,$5,0*
0 Add two circle primitives to create the rounded ends*
1,1,$1,$2,$3*
1,1,$1,$4,$5*%
%AMRotRect*
0 Rectangle, with rotation*
0 The origin of the aperture is its center*
0 $1 length*
0 $2 width*
0 $3 Rotation angle, in degrees counterclockwise*
0 Add horizontal line*
21,1,$1,$2,0,0,$3*%
G04 Aperture macros list end*
%ADD10C,5.600000*%
%ADD11R,1.070000X1.800000*%
%ADD12O,1.070000X1.800000*%
%ADD13RotRect,1.600000X1.600000X160.000000*%
%ADD14HorizOval,1.600000X0.000000X0.000000X0.000000X0.000000X0*%
%ADD15RoundRect,0.250000X0.151974X0.700021X-0.517439X0.495360X-0.151974X-0.700021X0.517439X-0.495360X0*%
%ADD16HorizOval,1.200000X-0.080402X0.262984X0.080402X-0.262984X0*%
%ADD17RoundRect,0.250000X0.695074X0.486696X-0.486696X0.695074X-0.695074X-0.486696X0.486696X-0.695074X0*%
%ADD18C,1.700000*%
%ADD19C,0.600000*%
%ADD20HorizOval,0.900000X0.541644X0.095506X-0.541644X-0.095506X0*%
%ADD21HorizOval,0.900000X0.393923X0.069459X-0.393923X-0.069459X0*%
G04 APERTURE END LIST*
D10*
%TO.C,REF\u002A\u002A*%
X232980000Y-70540000D03*
%TD*%
D11*
%TO.C,D15*%
X66330000Y-62600000D03*
D12*
X67600000Y-62600000D03*
X68870000Y-62600000D03*
X70140000Y-62600000D03*
%TD*%
D11*
%TO.C,D7*%
X51190000Y-73150000D03*
D12*
X52460000Y-73150000D03*
X53730000Y-73150000D03*
X55000000Y-73150000D03*
%TD*%
D11*
%TO.C,D8*%
X153685000Y-113550000D03*
D12*
X154955000Y-113550000D03*
X156225000Y-113550000D03*
X157495000Y-113550000D03*
%TD*%
D11*
%TO.C,D13*%
X77180000Y-100520000D03*
D12*
X78450000Y-100520000D03*
X79720000Y-100520000D03*
X80990000Y-100520000D03*
%TD*%
D13*
%TO.C,A1*%
X150855577Y-88253918D03*
D14*
X151724308Y-85867099D03*
X152593040Y-83480278D03*
X153461770Y-81093459D03*
X154330501Y-78706640D03*
X155199233Y-76319822D03*
X156067964Y-73933002D03*
X156936696Y-71546184D03*
X157805426Y-69159365D03*
X158674158Y-66772545D03*
X159542889Y-64385724D03*
X160411620Y-61998906D03*
X161280349Y-59612087D03*
X162149082Y-57225267D03*
X163017813Y-54838447D03*
X148696898Y-49626061D03*
X147828166Y-52012882D03*
X146959436Y-54399699D03*
X146090705Y-56786520D03*
X145221975Y-59173339D03*
X144353241Y-61560158D03*
X143484511Y-63946977D03*
X142615779Y-66333798D03*
X141747049Y-68720615D03*
X140878317Y-71107433D03*
X140009587Y-73494254D03*
X139140855Y-75881073D03*
X138272125Y-78267892D03*
X137403392Y-80654711D03*
X136534661Y-83041531D03*
%TD*%
D11*
%TO.C,D26*%
X240105000Y-67410000D03*
D12*
X241375000Y-67410000D03*
X242645000Y-67410000D03*
X243915000Y-67410000D03*
%TD*%
D11*
%TO.C,D22*%
X241120000Y-98090000D03*
D12*
X242390000Y-98090000D03*
X243660000Y-98090000D03*
X244930000Y-98090000D03*
%TD*%
D11*
%TO.C,D23*%
X216850000Y-82340000D03*
D12*
X218120000Y-82340000D03*
X219390000Y-82340000D03*
X220660000Y-82340000D03*
%TD*%
D11*
%TO.C,D20*%
X196550000Y-64980000D03*
D12*
X197820000Y-64980000D03*
X199090000Y-64980000D03*
X200360000Y-64980000D03*
%TD*%
D11*
%TO.C,D25*%
X209770000Y-63950000D03*
D12*
X211040000Y-63950000D03*
X212310000Y-63950000D03*
X213580000Y-63950000D03*
%TD*%
D11*
%TO.C,D21*%
X224535000Y-88300000D03*
D12*
X225805000Y-88300000D03*
X227075000Y-88300000D03*
X228345000Y-88300000D03*
%TD*%
D11*
%TO.C,D11*%
X108325000Y-108010000D03*
D12*
X109595000Y-108010000D03*
X110865000Y-108010000D03*
X112135000Y-108010000D03*
%TD*%
D15*
%TO.C,J3*%
X102938920Y-69228203D03*
D16*
X101026310Y-69812945D03*
X99113701Y-70397689D03*
%TD*%
D11*
%TO.C,D16*%
X76900000Y-72380000D03*
D12*
X78170000Y-72380000D03*
X79440000Y-72380000D03*
X80710000Y-72380000D03*
%TD*%
D11*
%TO.C,D18*%
X109705000Y-63750000D03*
D12*
X110975000Y-63750000D03*
X112245000Y-63750000D03*
X113515000Y-63750000D03*
%TD*%
D11*
%TO.C,D12*%
X93480000Y-104190000D03*
D12*
X94750000Y-104190000D03*
X96020000Y-104190000D03*
X97290000Y-104190000D03*
%TD*%
D17*
%TO.C,J1*%
X59818646Y-63005559D03*
D18*
X57317234Y-62564492D03*
X60259713Y-60504147D03*
X57758302Y-60063081D03*
X60700778Y-58002735D03*
X58199368Y-57561667D03*
%TD*%
D11*
%TO.C,D10*%
X123875000Y-111430000D03*
D12*
X125145000Y-111430000D03*
X126415000Y-111430000D03*
X127685000Y-111430000D03*
%TD*%
D11*
%TO.C,D14*%
X62955000Y-94820000D03*
D12*
X64225000Y-94820000D03*
X65495000Y-94820000D03*
X66765000Y-94820000D03*
%TD*%
D15*
%TO.C,J4*%
X124277335Y-64008206D03*
D16*
X122364725Y-64592948D03*
X120452115Y-65177693D03*
%TD*%
D11*
%TO.C,D24*%
X211020000Y-73460000D03*
D12*
X212290000Y-73460000D03*
X213560000Y-73460000D03*
X214830000Y-73460000D03*
%TD*%
D11*
%TO.C,D19*%
X129170000Y-58400000D03*
D12*
X130440000Y-58400000D03*
X131710000Y-58400000D03*
X132980000Y-58400000D03*
%TD*%
D11*
%TO.C,D9*%
X138120000Y-113800000D03*
D12*
X139390000Y-113800000D03*
X140660000Y-113800000D03*
X141930000Y-113800000D03*
%TD*%
D11*
%TO.C,D17*%
X87735000Y-69760000D03*
D12*
X89005000Y-69760000D03*
X90275000Y-69760000D03*
X91545000Y-69760000D03*
%TD*%
D19*
%TO.C,J2*%
X92130000Y-83870000D03*
X93133685Y-89562189D03*
D20*
X92354391Y-82378374D03*
D21*
X88247743Y-83102486D03*
D20*
X93854711Y-90887113D03*
D21*
X89748063Y-91611225D03*
%TD*%
M02*
